<?xml version="1.0" standalone="no"?>
<!DOCTYPE svg PUBLIC "-//W3C//DTD SVG 1.1//EN" "http://www.w3.org/Graphics/SVG/1.1/DTD/svg11.dtd" >
<svg>
<metadata>
Created by FontForge 20090622 at Mon Nov  9 19:27:13 2015
 By deploy user
Copyright 2013 Adobe Systems Incorporated. All rights reserved.
</metadata>
<defs>
<font id="Lava-Bold" horiz-adv-x="600" >
  <font-face 
    font-family="Lava"
    font-weight="700"
    font-stretch="normal"
    units-per-em="1000"
    panose-1="2 0 0 0 0 0 0 0 0 0"
    ascent="744"
    descent="-256"
    x-height="493"
    cap-height="693"
    bbox="-152 -265 1156 1088"
    underline-thickness="0"
    underline-position="0"
    unicode-range="U+000D-U+FB02"
  />
<missing-glyph horiz-adv-x="712" 
d="M305 402h27v-27h-27v27zM380 552h27v-27h-27v27zM305 552h27v-27h-27v27zM230 552h27v-27h-27v27zM80 27h27v-27h-27v27zM155 27h27v-27h-27v27zM230 27h27v-27h-27v27zM305 27h27v-27h-27v27zM380 27h27v-27h-27v27zM80 102h27v-27h-27v27zM80 177h27v-27h-27v27z
M80 252h27v-27h-27v27zM80 327h27v-27h-27v27zM80 402h27v-27h-27v27zM80 477h27v-27h-27v27zM80 552h27v-27h-27v27zM80 627h27v-27h-27v27zM80 702h27v-27h-27v27zM155 702h27v-27h-27v27zM230 702h27v-27h-27v27zM305 702h27v-27h-27v27zM380 702h27v-27h-27v27zM455 702
h27v-27h-27v27zM530 702h27v-27h-27v27zM530 27h27v-27h-27v27zM455 27h27v-27h-27v27zM605 27h27v-27h-27v27zM605 702h27v-27h-27v27zM305 327h27v-27h-27v27zM305 177h27v-27h-27v27zM380 402h27v-27h-27v27zM455 402h27v-27h-27v27zM455 477h27v-27h-27v27zM455 552h27
v-27h-27v27zM605 627h27v-27h-27v27zM605 552h27v-27h-27v27zM605 402h27v-27h-27v27zM605 327h27v-27h-27v27zM605 177h27v-27h-27v27zM605 102h27v-27h-27v27zM605 252h27v-27h-27v27zM605 477h27v-27h-27v27z" />
    <glyph glyph-name=".notdef" horiz-adv-x="712" 
d="M305 402h27v-27h-27v27zM380 552h27v-27h-27v27zM305 552h27v-27h-27v27zM230 552h27v-27h-27v27zM80 27h27v-27h-27v27zM155 27h27v-27h-27v27zM230 27h27v-27h-27v27zM305 27h27v-27h-27v27zM380 27h27v-27h-27v27zM80 102h27v-27h-27v27zM80 177h27v-27h-27v27z
M80 252h27v-27h-27v27zM80 327h27v-27h-27v27zM80 402h27v-27h-27v27zM80 477h27v-27h-27v27zM80 552h27v-27h-27v27zM80 627h27v-27h-27v27zM80 702h27v-27h-27v27zM155 702h27v-27h-27v27zM230 702h27v-27h-27v27zM305 702h27v-27h-27v27zM380 702h27v-27h-27v27zM455 702
h27v-27h-27v27zM530 702h27v-27h-27v27zM530 27h27v-27h-27v27zM455 27h27v-27h-27v27zM605 27h27v-27h-27v27zM605 702h27v-27h-27v27zM305 327h27v-27h-27v27zM305 177h27v-27h-27v27zM380 402h27v-27h-27v27zM455 402h27v-27h-27v27zM455 477h27v-27h-27v27zM455 552h27
v-27h-27v27zM605 627h27v-27h-27v27zM605 552h27v-27h-27v27zM605 402h27v-27h-27v27zM605 327h27v-27h-27v27zM605 177h27v-27h-27v27zM605 102h27v-27h-27v27zM605 252h27v-27h-27v27zM605 477h27v-27h-27v27z" />
    <glyph glyph-name=".null" horiz-adv-x="0" 
 />
    <glyph glyph-name="uni000D" unicode="&#xd;" horiz-adv-x="249" 
 />
    <glyph glyph-name="space" unicode=" " horiz-adv-x="249" 
 />
    <glyph glyph-name="exclam" unicode="!" horiz-adv-x="327" 
d="M247 693v-104l-51 -353h-64l-50 353v104h165zM254 73q0 -42 -27 -61.5t-65 -19.5t-64.5 19.5t-26.5 61.5t26.5 62t64.5 20q37 0 64.5 -20t27.5 -62z" />
    <glyph glyph-name="quotedbl" unicode="&#x22;" horiz-adv-x="408" 
d="M183 744l-53 -283h-70l20 283h103zM365 744l-52 -283h-70l19 283h103z" />
    <glyph glyph-name="numbersign" unicode="#" horiz-adv-x="657" 
d="M104 481h129l55 212h59l-55 -212h142l55 212h59l-55 -212h130l-15 -60h-130l-41 -160h129l-15 -60h-130l-51 -201h-60l52 201h-142l-51 -201h-60l52 201h-129l15 60h129l42 160h-129zM236 261h141l42 160h-142z" />
    <glyph glyph-name="dollar" unicode="$" 
d="M327 827v-119q89 -2 155.5 -31t66.5 -78q0 -61 -53 -61q-26 0 -47.5 17t-35 37.5t-36 40.5t-50.5 24v-220l42 -14q192 -62 192 -213q0 -93 -65.5 -152.5t-168.5 -69.5v-147h-55v144q-94 2 -164.5 33t-70.5 82q0 27 19 45.5t48 18.5q24 0 44.5 -17.5t34 -39t37 -43
t52.5 -27.5v224l-37 13q-185 64 -185 210q0 86 59 147.5t163 73.5v122h55zM418 136q0 68 -91 105v-203q42 8 66.5 34t24.5 64zM187 557q0 -63 85 -101v199q-38 -9 -61.5 -35.5t-23.5 -62.5z" />
    <glyph glyph-name="percent" unicode="%" horiz-adv-x="803" 
d="M689 693l-518 -693h-68l516 693h70zM373 546q0 -80 -49 -123.5t-125 -43.5q-71 0 -117 40.5t-46 118.5q0 83 47.5 124t122.5 41t121 -41t46 -116zM267 543q0 64 -15 92t-50 28q-33 0 -46.5 -27.5t-13.5 -93.5q0 -68 13.5 -95t44.5 -27q37 0 52 30t15 93zM769 153
q0 -80 -49 -123.5t-126 -43.5q-69 0 -115.5 40.5t-46.5 118.5q0 83 47.5 124t121.5 41q76 0 122 -41t46 -116zM663 150q0 63 -15.5 91.5t-50.5 28.5q-33 0 -46 -27.5t-13 -93.5q0 -68 13 -95t44 -27q37 0 52.5 30.5t15.5 92.5z" />
    <glyph glyph-name="ampersand" unicode="&#x26;" horiz-adv-x="787" 
d="M766 19q-19 -13 -59 -22.5t-79 -9.5q-44 0 -72.5 16t-70.5 56q-92 -74 -209 -74q-99 0 -161.5 47.5t-62.5 131.5q0 120 152 178q-85 89 -85 172t61.5 139t158.5 56q80 0 141 -38.5t61 -113.5q0 -113 -177 -168l182 -186q0 1 0.5 1t0.5 1q38 88 74 131.5t81 43.5
q29 0 48.5 -15t19.5 -43q0 -27 -18 -44t-48 -17q-64 0 -112 -75q-4 -8 -12 -18l27 -27q6 -5 19.5 -18.5t19.5 -19l17 -15.5t18 -14.5l16 -10.5t16.5 -8t15.5 -2q21 0 36 4zM358 61q58 0 98 27l-226 228q-26 -42 -26 -96q0 -66 39.5 -112.5t114.5 -46.5zM257 557
q0 -32 15.5 -59.5t52.5 -67.5l16 -17q74 57 74 136q0 45 -20.5 75t-57.5 30t-58.5 -26t-21.5 -71z" />
    <glyph glyph-name="quotesingle" unicode="'" horiz-adv-x="225" 
d="M183 744l-53 -283h-70l20 283h103z" />
    <glyph glyph-name="parenleft" unicode="(" horiz-adv-x="357" 
d="M40 277q0 87 14 158t46 134t88.5 111.5t136.5 79.5l19 -38q-108 -54 -152 -159.5t-44 -282.5q0 -178 44 -283t152 -159l-19 -38q-285 85 -285 477z" />
    <glyph glyph-name="parenright" unicode=")" horiz-adv-x="357" 
d="M317 277q0 -392 -285 -477l-19 38q108 55 152 159.5t44 282.5q0 177 -44 282t-152 160l19 38q80 -31 136.5 -79.5t88.5 -111.5t46 -134t14 -158z" />
    <glyph glyph-name="asterisk" unicode="*" horiz-adv-x="438" 
d="M382 458l-121 34l-30 -124h-24l-30 124l-121 -34l-10 19l91 88l-91 88l10 17l123 -35l30 124h20l31 -124l122 35l10 -17l-92 -89l92 -87z" />
    <glyph glyph-name="plus" unicode="+" horiz-adv-x="533" 
d="M301 491v-194h193v-65h-193v-195h-69v195h-192v65h192v194h69z" />
    <glyph glyph-name="comma" unicode="," horiz-adv-x="294" 
d="M238 54q0 -71 -50 -133.5t-110 -93.5l-27 32q44 30 67.5 61.5t26.5 76.5q-37 0 -64 20.5t-27 60.5q0 37 26 58.5t61 21.5q97 0 97 -104z" />
    <glyph glyph-name="hyphen" unicode="-" horiz-adv-x="417" 
d="M354 217h-291v88h291v-88z" />
    <glyph glyph-name="period" unicode="." horiz-adv-x="293" 
d="M238 73q0 -42 -27 -61.5t-64 -19.5q-38 0 -65 19.5t-27 61.5t27 62t65 20q37 0 64 -20t27 -62z" />
    <glyph glyph-name="slash" unicode="/" horiz-adv-x="445" 
d="M419 744l-322 -961h-71l320 961h73z" />
    <glyph glyph-name="zero" unicode="0" horiz-adv-x="676" 
d="M624 303q0 -137 -88.5 -227.5t-212.5 -90.5q-112 0 -191 73t-79 212q0 144 86.5 229.5t206.5 85.5q115 0 196.5 -74.5t81.5 -207.5zM456 265q0 54 -6 99.5t-19.5 85.5t-39 63t-60.5 23q-110 0 -110 -233q0 -267 118 -267q34 0 58.5 22t36.5 58.5t17 72.5t5 76z" />
    <glyph glyph-name="one" unicode="1" horiz-adv-x="475" 
d="M334 105q-1 -40 27 -50q4 -1 23.5 -2.5t43 -3.5t32.5 -3v-46h-404v46q13 0 53 3t46 6q27 9 27 50v353h-136v36q49 7 130 36.5t130 52.5h28v-478z" />
    <glyph glyph-name="two" unicode="2" horiz-adv-x="568" 
d="M497 0h-449l-7 35q172 156 214 206q65 75 65 138q0 49 -27 75t-80 26q-82 0 -146 -77l-20 23q95 158 253 158q85 0 133 -47t48 -112q0 -35 -16 -69t-38 -60.5t-65 -60t-76 -55.5l-93 -60h343l3 -10z" />
    <glyph glyph-name="three" unicode="3" horiz-adv-x="575" 
d="M180 204q46 30 69 46.5t49 39.5t36 45t10 48q0 48 -37 72.5t-87 24.5q-96 0 -155 -69l-22 26q103 147 249 147q89 0 146 -46t57 -111q0 -100 -180 -176q102 -10 161.5 -60t59.5 -128q0 -70 -52 -122.5t-121.5 -76t-139.5 -23.5q-43 0 -83 9t-70 31.5t-30 54.5q0 25 16 41
t44 16q26 0 42 -16.5t23.5 -37t28.5 -37t56 -16.5q56 0 91 36t35 100q0 129 -187 151z" />
    <glyph glyph-name="four" unicode="4" horiz-adv-x="631" 
d="M327 44h-312v74l384 462h80v-435h136l3 -10l-32 -91h-107v-185h-152v185zM327 145v270l-224 -270h224z" />
    <glyph glyph-name="five" unicode="5" horiz-adv-x="574" 
d="M160 438l-23 -152q171 16 274.5 -36.5t103.5 -161.5q0 -74 -49.5 -132.5t-118.5 -86.5t-140 -28q-67 0 -123 24.5t-56 70.5q0 23 15.5 40t43.5 17q20 0 34 -11t22.5 -26.5t18.5 -31t29.5 -26.5t48.5 -11q57 0 88.5 38t31.5 103q0 86 -65 127.5t-222 32.5l59 381h396
l3 -10l-40 -121h-331z" />
    <glyph glyph-name="six" unicode="6" horiz-adv-x="624" 
d="M565 665q-300 -18 -348 -281q69 58 159 58q88 0 148 -57t60 -147q0 -112 -81.5 -183t-203.5 -71t-188 76.5t-66 212.5q0 185 120 307t322 128q37 2 69 -2zM207 265q0 -107 28 -170.5t84 -63.5q47 0 74 44t27 119q0 83 -34 127t-95 44q-39 0 -80 -18q-4 -36 -4 -82z" />
    <glyph glyph-name="seven" unicode="7" horiz-adv-x="521" 
d="M81 -144l-2 11l337 573h-382l-3 10l40 119h440l7 -25l-330 -688h-107z" />
    <glyph glyph-name="eight" unicode="8" horiz-adv-x="631" 
d="M569 542q0 -96 -154 -155q83 -39 125 -83t42 -107q0 -92 -79.5 -152t-198.5 -60q-107 0 -182 45t-75 130q0 120 151 167q-66 34 -100 76.5t-34 101.5q0 95 81 149t184 54q98 0 169 -46t71 -120zM432 145q0 25 -10.5 46t-36.5 39.5t-42 28t-55 27l-48 21.5
q-56 -46 -56 -125q0 -64 31 -106t91 -42q56 0 91 33.5t35 77.5zM204 561q0 -29 13 -52t41.5 -42.5t50.5 -31t64 -29.5q50 56 50 122q0 56 -28 92.5t-83 36.5q-48 0 -78 -26.5t-30 -69.5z" />
    <glyph glyph-name="nine" unicode="9" horiz-adv-x="624" 
d="M58 -96q301 18 349 281q-67 -59 -159 -59q-88 0 -148.5 57t-60.5 148q0 112 81.5 183t203.5 71t188 -76.5t66 -212.5q0 -185 -120 -307.5t-322 -128.5q-44 0 -69 3zM417 303q0 107 -28 171t-84 64q-48 0 -75 -44t-27 -119q0 -84 34 -128t95 -44q39 0 80 18q5 45 5 82z
" />
    <glyph glyph-name="colon" unicode=":" horiz-adv-x="322" 
d="M252 73q0 -42 -27 -61.5t-64 -19.5q-38 0 -65 19.5t-27 61.5t27 62t65 20q37 0 64 -20t27 -62zM252 423q0 -42 -27 -61.5t-64 -19.5q-38 0 -65 19.5t-27 61.5t27 62t65 20q37 0 64 -20t27 -62z" />
    <glyph glyph-name="semicolon" unicode=";" horiz-adv-x="330" 
d="M258 54q0 -71 -50 -133.5t-110 -93.5l-27 32q44 30 67.5 61.5t26.5 76.5q-37 0 -64 20.5t-27 60.5q0 37 26 58.5t61 21.5q97 0 97 -104zM255 423q0 -42 -27 -61.5t-64 -19.5q-38 0 -65 19.5t-27 61.5t27 62t65 20q37 0 64 -20t27 -62z" />
    <glyph glyph-name="less" unicode="&#x3c;" horiz-adv-x="465" 
d="M412 5l-380 232v60l380 231v-75l-304 -185l304 -184v-79z" />
    <glyph glyph-name="equal" unicode="=" horiz-adv-x="584" 
d="M519 142h-454v65h454v-65zM519 322h-454v65h454v-65z" />
    <glyph glyph-name="greater" unicode="&#x3e;" horiz-adv-x="465" 
d="M53 84l304 184l-304 185v75l380 -231v-60l-380 -232v79z" />
    <glyph glyph-name="question" unicode="?" horiz-adv-x="463" 
d="M196 237q-22 45 -22 77q0 34 18.5 62t40.5 43.5t40.5 40t18.5 53.5q0 39 -29.5 64t-76.5 25q-73 0 -135 -58l-19 17q82 148 216 148q80 0 130 -43t50 -109q0 -39 -20 -71.5t-48 -56l-56.5 -45.5t-48.5 -49.5t-20 -58.5q0 -8 1.5 -16t4 -14.5t2.5 -8.5h-47zM309 73
q0 -42 -27 -61.5t-65 -19.5t-64.5 19.5t-26.5 61.5t26.5 62t64.5 20q37 0 64.5 -20t27.5 -62z" />
    <glyph glyph-name="at" unicode="@" horiz-adv-x="859" 
d="M602 71q-86 0 -98 60q-55 -58 -115 -58q-78 0 -119 49.5t-41 141.5q0 97 57.5 154.5t141.5 57.5q54 0 99 -20l82 16h12v-295q0 -47 40 -47q52 0 78.5 68t26.5 159q0 143 -80.5 220.5t-210.5 77.5q-111 0 -196 -56t-128.5 -148.5t-43.5 -205.5q0 -159 90 -255.5t256 -96.5
q163 0 262 58v-48q-46 -29 -124.5 -44.5t-150.5 -15.5q-184 0 -290 112.5t-106 289.5q0 198 125 330t313 132q153 0 246.5 -91.5t93.5 -251.5q0 -56 -11.5 -105.5t-35.5 -93t-68.5 -69t-104.5 -25.5zM444 149q29 0 58 14v238q-31 18 -67 18q-81 0 -81 -133q0 -137 90 -137z
" />
    <glyph glyph-name="A" unicode="A" horiz-adv-x="703" 
d="M408 240h-220l-55 -145q-14 -38 29 -49q4 -1 12.5 -2l22 -2.5l22.5 -2.5v-39h-227v39q12 1 40 11q27 10 40 45l243 611h84l224 -611q12 -35 39 -45q22 -10 39 -11v-39h-315v39q41 6 49 9q34 14 23 47zM208 293h182l-86 251z" />
    <glyph glyph-name="B" unicode="B" horiz-adv-x="700" 
d="M45 0v39q29 2 43 7q25 12 25 49v503q0 38 -25 48q-2 1 -43 8v39h321q123 0 187.5 -44t64.5 -121q0 -57 -46 -101t-126 -60v-4q107 -5 160.5 -49t53.5 -116q0 -96 -81 -147t-203 -51h-331zM487 193q0 61 -40.5 100t-134.5 39h-34v-280h46q163 0 163 141zM278 641v-262h21
q141 0 141 131t-125 131h-37z" />
    <glyph glyph-name="C" unicode="C" horiz-adv-x="685" 
d="M408 659q-66 0 -109.5 -44t-60.5 -109.5t-17 -150.5q0 -319 187 -319q68 0 114 50.5t68 128.5h43v-159q-88 -71 -228 -71q-161 0 -262 97t-101 257q0 166 105.5 268t269.5 102q121 0 216 -54v-185h-43q-53 189 -182 189z" />
    <glyph glyph-name="D" unicode="D" horiz-adv-x="782" 
d="M278 640v-587h70q63 0 106.5 23.5t65 67t30 91.5t8.5 112q0 138 -47 215.5t-159 77.5h-74zM45 39q29 2 43 7q25 10 25 49v503q0 38 -25 48q-4 2 -43 8v39h333q164 0 261.5 -85.5t97.5 -245.5q0 -167 -104.5 -264.5t-265.5 -97.5h-322v39z" />
    <glyph glyph-name="E" unicode="E" horiz-adv-x="652" 
d="M45 39q38 3 46 9q22 13 22 55v487q0 44 -24 55q-9 4 -44 9v39h536v-173h-42q-18 69 -51.5 94.5t-100.5 25.5h-109v-259h82q41 0 54 25q8 15 14 62h44v-228h-44q-8 51 -13 61q-13 27 -55 27h-82v-275h128q72 0 106 33t63 122l38 -4l-17 -204h-551v39z" />
    <glyph glyph-name="F" unicode="F" horiz-adv-x="603" 
d="M278 640v-273h89q42 0 55 25q8 15 14 62h44v-228h-44q-8 51 -13 61q-13 28 -56 28h-89v-216q0 -38 27 -50q8 -4 53 -10v-39h-313v39q29 2 43 7q25 12 25 49v495q0 44 -24 55q-9 4 -44 9v39h536v-173h-42q-18 69 -51.5 94.5t-100.5 25.5h-109z" />
    <glyph glyph-name="G" unicode="G" horiz-adv-x="739" 
d="M659 55q-41 -31 -110.5 -50.5t-143.5 -19.5q-163 2 -263 95t-100 257q0 168 109.5 270t275.5 102q137 0 232 -54v-179h-38q-48 186 -200 186q-56 0 -96.5 -25t-62.5 -69.5t-31.5 -96.5t-9.5 -115q0 -155 45 -239.5t150 -84.5q34 0 78 21v178q0 38 -25 48q-3 1 -47 8v39
h286v-39q-21 -3 -33 -15q-16 -13 -16 -41v-176z" />
    <glyph glyph-name="H" unicode="H" horiz-adv-x="838" 
d="M560 598q0 36 -25 48q-2 1 -43 8v39h301v-39q-32 -2 -43 -7q-25 -12 -25 -49v-503q0 -35 25 -48q2 -1 43 -8v-39h-301v39q30 2 44 7q24 10 24 49v241h-282v-241q0 -36 25 -48q2 -1 43 -8v-39h-301v39q29 2 43 7q25 12 25 49v503q0 36 -25 48q-2 1 -43 8v39h301v-39
q-30 -2 -44 -7q-24 -11 -24 -49v-211h282v211z" />
    <glyph glyph-name="I" unicode="I" horiz-adv-x="391" 
d="M278 95q0 -36 25 -48q2 -1 43 -8v-39h-301v39q29 2 43 7q25 12 25 49v503q0 36 -25 48q-2 1 -43 8v39h301v-39q-30 -2 -44 -7q-24 -11 -24 -49v-503z" />
    <glyph glyph-name="J" unicode="J" horiz-adv-x="378" 
d="M272 71q0 -71 -30.5 -137.5t-93 -112.5t-143.5 -46q-65 0 -95.5 21.5t-30.5 57.5q0 27 16.5 46t45.5 19q26 0 41 -15t18.5 -33.5t13 -33.5t26.5 -15q39 0 53 61t14 191v524q0 36 -26 48q-2 1 -42 8v39h300v-39q-30 -2 -43 -7q-24 -11 -24 -49v-527z" />
    <glyph glyph-name="K" unicode="K" horiz-adv-x="733" 
d="M278 95q0 -38 25 -48q2 -1 43 -8v-39h-301v39q29 2 43 7q25 12 25 49v503q0 38 -25 48q-2 1 -43 8v39h301v-39q-30 -2 -44 -7q-24 -11 -24 -49v-503zM306 333l178 208q34 39 34 63q0 45 -68 49v40h274v-40q-78 -11 -138 -76l-151 -168l184 -285q47 -74 114 -85l-3 -39
h-220l-204 326v7z" />
    <glyph glyph-name="L" unicode="L" 
d="M45 39q36 2 48 10q20 12 20 54v495q0 36 -25 48q-2 1 -43 8v39h301v-39q-30 -2 -44 -7q-24 -11 -24 -49v-545h75q77 0 117 39.5t69 130.5l38 -4l-14 -219h-518v39z" />
    <glyph glyph-name="M" unicode="M" horiz-adv-x="936" 
d="M473 316l191 377h227v-39q-30 -2 -44 -7q-24 -12 -24 -49v-503q0 -35 25 -48q2 -1 43 -8v-39h-301v39q32 2 43 7q25 12 25 49v450l-211 -416h-42l-213 415v-412q0 -53 32 -74q26 -17 64 -21v-37h-259v37q34 5 57 17q39 20 39 78v430q0 49 -23 69q-19 19 -66 24v38h245z
" />
    <glyph glyph-name="N" unicode="N" horiz-adv-x="804" 
d="M587 -4l-394 530v-394q0 -53 32 -74q26 -17 64 -21v-37h-259v37q34 5 57 17q39 20 39 78v408q0 104 -91 117v36h234l352 -458v326q0 53 -32 74q-26 17 -64 21v37h259v-37q-34 -5 -57 -17q-39 -20 -39 -78v-565h-101z" />
    <glyph glyph-name="O" unicode="O" horiz-adv-x="807" 
d="M765 352q0 -160 -104 -263.5t-265 -103.5q-155 0 -254.5 96.5t-99.5 259.5q0 167 104 267.5t262 100.5q157 0 257 -99.5t100 -257.5zM586 343q0 71 -8 125t-28 100t-57 70t-91 24t-91 -24.5t-56 -70.5t-26.5 -97.5t-7.5 -119.5q0 -155 40 -235.5t139 -80.5q186 0 186 309
z" />
    <glyph glyph-name="P" unicode="P" horiz-adv-x="652" 
d="M401 693q98 0 164.5 -49.5t66.5 -143.5q0 -99 -71.5 -159t-173.5 -60h-109v-186q0 -38 25 -48q3 -1 46 -8v-39h-304v39q29 2 43 7q25 10 25 49v503q0 38 -25 48q-4 2 -43 8v39h356zM278 640v-306h57q128 0 128 156q0 69 -28 109.5t-84 40.5h-73z" />
    <glyph glyph-name="Q" unicode="Q" horiz-adv-x="807" 
d="M765 352q0 -119 -59.5 -209.5t-161.5 -130.5q-22 -10 -49 -16q13 -38 27 -63q29 -52 59.5 -70.5t71.5 -18.5q31 0 65 6v-41q-89 -35 -176 -35q-75 0 -116 34t-68 108q-7 18 -26 74q-41 6 -77 19q-98 38 -155.5 124.5t-57.5 207.5q0 167 104 267.5t262 100.5
q157 0 257 -99.5t100 -257.5zM586 343q0 71 -8 125t-28 100t-57 70t-91 24t-91 -24.5t-56 -70.5t-26.5 -97.5t-7.5 -119.5q0 -155 40 -235.5t139 -80.5q186 0 186 309z" />
    <glyph glyph-name="R" unicode="R" horiz-adv-x="728" 
d="M401 693q100 0 165.5 -43t65.5 -135q0 -65 -41.5 -111.5t-109.5 -72.5l154 -214q29 -40 53 -56.5t56 -20.5l-3 -40h-219l-207 309h-37v-214q0 -38 25 -48q3 -1 46 -8v-39h-304v39q29 2 43 7q25 10 25 49v503q0 38 -25 48q-4 2 -43 8v39h356zM278 640v-278h57
q68 0 98 34.5t30 107.5q0 136 -112 136h-73z" />
    <glyph glyph-name="S" unicode="S" horiz-adv-x="614" 
d="M282 -15q-131 0 -227 55v183h38q33 -99 83 -142.5t122 -43.5q60 0 92.5 27.5t32.5 76.5q0 88 -112 124l-68 24q-86 28 -135 72.5t-49 124.5q0 96 72 159t201 63q116 -2 209 -55v-179h-45q-25 97 -66.5 140.5t-108.5 43.5q-58 0 -89.5 -28.5t-31.5 -75.5q0 -82 97 -115
l80 -26q100 -33 146 -81t46 -121q0 -103 -80.5 -164.5t-206.5 -61.5z" />
    <glyph glyph-name="T" unicode="T" horiz-adv-x="675" 
d="M419 646v-551q0 -37 26 -48q5 -2 42 -8v-39h-300v39q29 2 43 7q24 10 24 49v551h-31q-67 0 -105.5 -37.5t-58.5 -112.5h-36v197h629v-197h-36q-20 75 -58.5 112.5t-105.5 37.5h-33z" />
    <glyph glyph-name="U" unicode="U" horiz-adv-x="770" 
d="M265 242q0 -96 38.5 -143.5t125.5 -47.5q82 0 124.5 51t42.5 138v329q-4 48 -32 66q-26 17 -64 21v37h259v-37q-35 -5 -57 -17q-38 -20 -39 -72v-322q0 -115 -74.5 -187t-199.5 -72t-207 63t-82 183v366q0 37 -26 48q-13 6 -42 8v39h300v-39q-42 -7 -43 -7
q-24 -11 -24 -46v-359z" />
    <glyph glyph-name="V" unicode="V" horiz-adv-x="703" 
d="M244 604q0 -11 4 -20l150 -409l164 405q6 14 6 25q0 39 -86 49v39h231v-37q-60 -11 -83 -65l-252 -602h-64l-236 609q-16 49 -77 56v39h314v-39q-71 -8 -71 -50z" />
    <glyph glyph-name="W" unicode="W" horiz-adv-x="1047" 
d="M617 693l157 -504l127 380q6 16 6 29q0 51 -83 56v39h231v-38q-32 -4 -52.5 -21t-35.5 -59l-209 -584h-68l-169 507l-176 -507h-70l-189 599q-19 59 -80 64v39h315v-39q-72 -5 -72 -50q0 -12 4 -21l108 -388l166 498h90z" />
    <glyph glyph-name="X" unicode="X" horiz-adv-x="689" 
d="M7 693h331v-41q-62 -5 -62 -39q0 -13 11 -30l95 -147l101 134q17 23 17 41q0 36 -63 41v41h239v-41q-59 -11 -108 -69l-153 -197l188 -289q29 -45 80 -56v-41h-337v41q86 8 86 44q0 14 -12 31l-108 165l-113 -155q-16 -22 -16 -38q0 -38 61 -47v-41h-238v41q57 13 111 75
l162 216l-172 264q-32 50 -100 56v41z" />
    <glyph glyph-name="Y" unicode="Y" horiz-adv-x="677" 
d="M260 598q0 -16 9 -31l118 -223l117 219q12 21 12 38q0 49 -77 51v41h243v-38q-64 -7 -97 -64l-164 -288v-208q0 -35 25 -48q2 -1 43 -8v-39h-300v39q30 2 43 7q24 10 24 49v205l-167 296q-16 27 -34.5 39t-51.5 17v41h337v-41q-80 -10 -80 -54z" />
    <glyph glyph-name="Z" unicode="Z" horiz-adv-x="645" 
d="M603 218l-14 -218h-557l-5 17l374 626h-141q-70 0 -109 -30t-64 -107l-37 2l12 185h531l7 -17l-375 -626h117q54 0 86.5 7t58 30t41.5 51t39 84z" />
    <glyph glyph-name="bracketleft" unicode="[" horiz-adv-x="343" 
d="M319 -194h-230v953h230v-55h-134v-843h134v-55z" />
    <glyph glyph-name="backslash" unicode="\" horiz-adv-x="426" 
d="M103 744l296 -961h-74l-298 961h76z" />
    <glyph glyph-name="bracketright" unicode="]" horiz-adv-x="343" 
d="M24 -139h135v843h-135v55h230v-953h-230v55z" />
    <glyph glyph-name="asciicircum" unicode="^" horiz-adv-x="643" 
d="M90 313l202 380h60l201 -380h-84l-146 289l-148 -289h-85z" />
    <glyph glyph-name="underscore" unicode="_" horiz-adv-x="649" 
d="M586 -217h-523v61h523v-61z" />
    <glyph glyph-name="grave" unicode="`" horiz-adv-x="427" 
d="M118 730h128l83 -157l-4 -10h-38l-173 156z" />
    <glyph glyph-name="a" unicode="a" horiz-adv-x="544" 
d="M463 103q0 -36 13 -49t44 -13h17l1 -25q-60 -29 -119 -29q-60 0 -84 23.5t-24 68.5v4q-60 -95 -156 -95q-55 0 -88 32t-33 87q0 60 41.5 92t124.5 52l111 25v20q0 54 -21.5 79t-77.5 25q-70 0 -162 -23v62q131 67 239 67q90 0 132 -47.5t42 -145.5v-210zM243 91
q31 0 68 15v127l-57 -15q-42 -11 -61 -25t-19 -42q0 -60 69 -60z" />
    <glyph glyph-name="b" unicode="b" horiz-adv-x="604" 
d="M221 421q66 85 157 85q87 0 137.5 -61t50.5 -168q0 -138 -88.5 -214t-221.5 -76q-101 0 -187 37v624q0 27 -7.5 35t-34.5 8q-8 0 -18 -1t-14 -1v35q108 35 167 35q34 0 46.5 -14t12.5 -48v-276zM290 412q-32 0 -69 -17v-340q33 -12 62 -12q65 0 98 56.5t33 141.5
q0 171 -124 171z" />
    <glyph glyph-name="c" unicode="c" horiz-adv-x="514" 
d="M474 61q-86 -76 -205 -76q-111 0 -172 65t-61 177q0 122 74.5 201t200.5 79q83 0 129.5 -29t46.5 -75q0 -33 -18 -53t-50 -20q-30 0 -47 19t-23.5 41t-23.5 41t-47 19q-46 0 -71 -50t-25 -128q0 -182 149 -182q71 0 141 26z" />
    <glyph glyph-name="d" unicode="d" horiz-adv-x="629" 
d="M387 648q0 23 -4.5 31t-21.5 10q-9 2 -47 0v35q105 35 166 35q34 0 46.5 -14t12.5 -48v-594q0 -40 16.5 -52t57.5 -10l1 -25q-60 -29 -119 -29t-83 22t-25 63q-67 -87 -155 -87q-86 0 -140.5 69t-54.5 175q0 129 83.5 203.5t201.5 74.5q28 0 65 -7v148zM318 88
q30 0 69 16v327q-39 18 -76 18q-124 0 -124 -180q0 -181 131 -181z" />
    <glyph glyph-name="e" unicode="e" horiz-adv-x="536" 
d="M481 61q-86 -76 -210 -76q-113 0 -174 62.5t-61 176.5q0 126 72.5 204.5t200.5 78.5q91 0 141 -43.5t53 -129.5q1 -12 -1 -39l-28 -42h-293q2 -79 37 -121.5t114 -42.5q74 0 147 26zM277 449q-83 0 -95 -146h169q2 22 2 34q0 52 -19.5 82t-56.5 30z" />
    <glyph glyph-name="f" unicode="f" horiz-adv-x="384" 
d="M20 481h82q10 113 85.5 195.5t184.5 82.5q47 0 76 -16.5t29 -47.5q0 -25 -14.5 -42t-42.5 -17q-26 0 -53 28.5t-48 28.5q-38 0 -52 -34t-14 -119v-59h122v-49h-122v-339q0 -36 25 -48q15 -7 37 -8v-37h-276v37q26 2 37 7q25 10 25 49v339h-81v49z" />
    <glyph glyph-name="g" unicode="g" horiz-adv-x="577" 
d="M270 191q-44 0 -87 8q-11 -16 -11 -31q0 -37 69 -37h77q225 0 225 -142q0 -89 -81 -152t-224 -63q-104 0 -162.5 34.5t-58.5 90.5q0 39 29.5 65.5t91.5 47.5q-73 22 -73 85q0 66 89 110q-109 37 -109 135q0 72 60 118.5t164 46.5q109 0 168 -47q20 10 33 34.5t26.5 41.5
t38.5 17q23 0 36 -12t13 -30q0 -35 -35.5 -54t-85.5 -23q27 -34 27 -80q0 -73 -62 -118t-158 -45zM232 1q-37 0 -62 4q-29 -28 -29 -72q0 -48 32.5 -76t98.5 -28t104 28t38 76q0 36 -25.5 52t-82.5 16h-74zM336 346q0 53 -19.5 81.5t-55.5 28.5q-67 0 -67 -104
q0 -110 75 -110q67 0 67 104z" />
    <glyph glyph-name="h" unicode="h" horiz-adv-x="648" 
d="M84 648q0 24 -6 32.5t-28 10.5q-13 0 -39 -2v35q105 35 165 35q35 0 47.5 -14t12.5 -48v-281q86 91 185 91q75 0 110 -41.5t35 -133.5v-239q0 -35 25 -48q15 -7 37 -8v-37h-276v37q26 2 37 7q25 10 25 49v196q0 63 -19 92.5t-74 29.5q-39 0 -85 -18v-300q0 -36 26 -48
q15 -7 36 -8v-37h-275v37q23 2 37 7q24 10 24 49v555z" />
    <glyph glyph-name="i" unicode="i" horiz-adv-x="333" 
d="M249 93q0 -36 25 -48q15 -7 36 -8v-37h-275v37q23 2 37 7q25 10 25 49v304q0 24 -7 32.5t-30 9.5q-15 0 -37 -2v35q105 35 165 35q35 0 48 -14.5t13 -47.5v-352zM86 684q0 39 22.5 57t57.5 18t58 -18t23 -57t-22.5 -57.5t-58.5 -18.5q-35 0 -57.5 18.5t-22.5 57.5z" />
    <glyph glyph-name="j" unicode="j" horiz-adv-x="309" 
d="M89 397q0 25 -7.5 33.5t-34.5 8.5q-13 0 -31 -2v35q105 35 165 35q35 0 47.5 -14t12.5 -48v-301q0 -86 -34 -171t-95.5 -142t-131.5 -57q-34 0 -52 18.5t-18 43.5q0 23 15.5 39.5t40.5 16.5q20 0 31.5 -8.5t14 -18.5t8.5 -18.5t15 -8.5q54 9 54 146v413zM83 683
q0 39 22.5 57.5t58.5 18.5q35 0 57.5 -18.5t22.5 -57.5t-22.5 -57t-57.5 -18t-58 18t-23 57z" />
    <glyph glyph-name="k" unicode="k" horiz-adv-x="602" 
d="M84 648q0 25 -7 33.5t-30 9.5q-14 0 -36 -2v35q105 35 165 35q35 0 47.5 -14t12.5 -48v-604q0 -36 26 -48q15 -7 36 -8v-37h-275v37q23 2 37 7q24 10 24 49v555zM242 258l110 92q37 32 37 62q1 21 -16 33.5t-47 13.5v34h253v-34q-42 -5 -111 -62l-101 -85l127 -182
q27 -38 46 -56t55 -38l-5 -36h-184l-164 246v12z" />
    <glyph glyph-name="l" unicode="l" horiz-adv-x="326" 
d="M87 648q0 24 -6 32.5t-29 10.5q-13 0 -39 -2v35q105 35 165 35q35 0 48 -14.5t13 -47.5v-604q0 -35 25 -48q15 -7 37 -8v-37h-276v37q25 2 37 7q25 10 25 49v555z" />
    <glyph glyph-name="m" unicode="m" horiz-adv-x="983" 
d="M249 93q0 -36 25 -48q15 -7 36 -8v-37h-275v37q23 2 37 7q25 10 25 49v304q0 25 -7.5 33.5t-32.5 8.5q-12 0 -34 -2v35q105 35 165 35q35 0 48 -14.5t13 -47.5v-28q87 90 184 90q108 0 135 -94q89 94 189 94q75 0 109.5 -41.5t34.5 -133.5v-239q0 -36 26 -48q15 -7 36 -8
v-37h-275v37q23 2 37 7q24 10 24 49v196q0 63 -19 92.5t-74 29.5q-38 0 -83 -17q5 -32 5 -62v-239q0 -35 25 -48q15 -7 37 -8v-37h-276v37q23 2 38 7q24 10 24 49v196q0 63 -19 92.5t-74 29.5q-39 0 -84 -17v-301z" />
    <glyph glyph-name="n" unicode="n" horiz-adv-x="660" 
d="M249 93q0 -36 25 -48q15 -7 36 -8v-37h-275v37q23 2 37 7q25 10 25 49v304q0 24 -7 32.5t-30 9.5q-15 0 -37 -2v35q105 35 165 35q35 0 48 -14.5t13 -47.5v-28q87 90 184 90q75 0 110 -41.5t35 -133.5v-239q0 -35 25 -48q15 -7 37 -8v-37h-276v37q23 2 38 7q24 10 24 49
v196q0 63 -19 92.5t-74 29.5q-39 0 -84 -17v-301z" />
    <glyph glyph-name="o" unicode="o" 
d="M564 270q0 -121 -76 -203t-205 -82q-111 0 -179.5 63.5t-68.5 178.5q0 127 81 203.5t206 76.5q111 0 176.5 -63t65.5 -174zM402 237q0 212 -110 212q-53 0 -74 -47t-21 -138q0 -221 108 -221q97 0 97 194z" />
    <glyph glyph-name="p" unicode="p" horiz-adv-x="624" 
d="M89 397q0 25 -7.5 33.5t-32.5 8.5q-11 0 -33 -2v35q105 35 166 35q34 0 46.5 -14t12.5 -48v-23q69 84 162 84q87 0 135.5 -63t48.5 -166q0 -139 -89 -215t-234 -76q-16 0 -23 1v-111q0 -46 44 -50l21 -1q20 -1 25 -1v-41h-303v37q23 2 37 7q24 11 24 49v521zM313 412
q-35 0 -72 -16v-342q31 -11 62 -11q65 0 98 56.5t33 141.5q0 82 -30.5 126.5t-90.5 44.5z" />
    <glyph glyph-name="q" unicode="q" horiz-adv-x="606" 
d="M289 -180q3 0 24 1t23 1q45 4 45 54v196q-65 -87 -152 -87q-81 0 -136.5 69.5t-55.5 174.5q0 129 83.5 203.5t201.5 74.5q64 0 124 -25l64 21h23v-627q0 -36 25 -48q14 -7 37 -8v-37h-306v37zM317 84q34 0 64 17v332q-33 16 -70 16q-122 0 -122 -183q0 -84 32 -133
t96 -49z" />
    <glyph glyph-name="r" unicode="r" horiz-adv-x="485" 
d="M249 93q0 -46 50 -50q1 0 17 -1t21 -1v-41h-302v37q23 2 37 7q25 10 25 49v304q0 25 -8 33.5t-35 8.5q-13 0 -31 -2v35q105 35 165 35q35 0 48 -14.5t13 -47.5v-21q68 82 143 82q37 0 60.5 -20t23.5 -58q0 -33 -20 -54.5t-53 -21.5q-23 0 -38 15t-28.5 30.5t-34.5 15.5
t-53 -18v-302z" />
    <glyph glyph-name="s" unicode="s" horiz-adv-x="482" 
d="M211 -14q-90 0 -167 34l-3 139l34 4q24 -59 62.5 -91.5t86.5 -32.5q39 0 61.5 18t22.5 48q0 27 -19.5 41.5t-57.5 25.5l-49 14q-55 16 -93 53t-38 96q0 75 61.5 123.5t155.5 48.5q86 0 154 -38l8 -121l-42 -3q-30 61 -60 85.5t-72 24.5q-35 0 -53.5 -17.5t-18.5 -45.5
q0 -50 67 -71l59 -17q134 -36 134 -143q0 -82 -69.5 -128.5t-163.5 -46.5z" />
    <glyph glyph-name="t" unicode="t" horiz-adv-x="409" 
d="M8 481h87v108l131 58h21v-166h138v-49h-138v-252q0 -62 20 -84.5t74 -22.5q21 0 54 7l1 -49q-63 -44 -155 -44q-66 0 -106 30.5t-40 93.5v321h-87v49z" />
    <glyph glyph-name="u" unicode="u" horiz-adv-x="643" 
d="M403 397q0 24 -7 32.5t-30 9.5q-15 0 -37 -2v35q105 35 165 35q35 0 48 -14.5t13 -47.5v-342q0 -40 16.5 -52t57.5 -10l1 -25q-60 -29 -119 -29t-83 21.5t-25 62.5q-42 -43 -82.5 -64.5t-93.5 -21.5q-73 0 -108 42t-35 134v236q0 25 -7.5 33.5t-34.5 8.5q-13 0 -31 -2v35
q105 35 165 35q35 0 47.5 -14t12.5 -48v-246q0 -57 21 -84.5t75 -27.5q33 0 71 13v297z" />
    <glyph glyph-name="v" unicode="v" horiz-adv-x="571" 
d="M569 457q-50 -11 -76 -72l-176 -393h-67l-179 411q-20 47 -67 54v36h284v-36q-30 0 -45 -13.5t-6 -34.5l99 -251l84 207q32 80 -51 92v36h200v-36z" />
    <glyph glyph-name="w" unicode="w" horiz-adv-x="857" 
d="M506 493l131 -336l74 208q27 81 -51 92v36h198v-36q-52 -12 -76 -72l-163 -393h-67l-125 308l-120 -308h-85l-145 411q-17 47 -67 54v36h283v-36q-30 0 -44 -12.5t-7 -35.5l77 -247l120 331h67z" />
    <glyph glyph-name="x" unicode="x" horiz-adv-x="571" 
d="M483 89q35 -48 77 -54v-35h-273v35q28 0 36.5 15t-5.5 33l-79 108l-52 -66q-28 -38 -21.5 -62t41.5 -28v-35h-198v35q58 13 106 72l100 118l-129 178q-35 49 -67 54v36h273v-36q-29 0 -41.5 -15t0.5 -33l83 -115l52 73q23 31 14 58t-43 32v36h197v-36q-49 -11 -96 -72
l-99 -126z" />
    <glyph glyph-name="y" unicode="y" horiz-adv-x="571" 
d="M569 457q-50 -11 -76 -72l-121 -270l-11 -25l-41 -92q-1 -3 -4 -9l-23 -50.5t-31.5 -54.5t-44.5 -55.5t-56 -37.5t-72 -17q-65 0 -65 51q0 27 16 43t46 16q76 0 110 17t63 73l-8 18l-179 411q-20 47 -67 54v36h283v-36q-30 0 -44.5 -13.5t-6.5 -34.5l99 -251l85 207
q32 80 -51 92v36h199v-36z" />
    <glyph glyph-name="z" unicode="z" horiz-adv-x="513" 
d="M64 493h396l17 -28l-262 -412h98q47 0 84.5 31t51.5 82l32 -4l-22 -162h-417l-15 26l263 414h-92q-53 0 -80.5 -27.5t-46.5 -77.5l-36 5z" />
    <glyph glyph-name="braceleft" unicode="{" horiz-adv-x="362" 
d="M338 -194q-111 0 -164.5 36t-53.5 135v149q0 69 -26 95t-78 30v63q55 7 79.5 32.5t24.5 92.5v150q0 52 16 86.5t48 52t68 24.5t86 7v-55q-68 0 -95 -20.5t-27 -80.5v-124q0 -89 -24.5 -134t-86.5 -60v-5q72 -18 91.5 -59.5t19.5 -134.5v-124q0 -59 30 -80t92 -21v-55z
" />
    <glyph glyph-name="bar" unicode="|" horiz-adv-x="257" 
d="M168 744v-961h-79v961h79z" />
    <glyph glyph-name="braceright" unicode="}" horiz-adv-x="362" 
d="M24 -139q63 0 93 21t30 80v124q0 94 19 134.5t91 59.5v5q-62 14 -86 59.5t-24 134.5v124q0 59 -27.5 80t-95.5 21v55q50 0 86 -7t68 -24.5t48 -52t16 -86.5v-150q0 -67 24.5 -92.5t79.5 -32.5v-63q-52 -4 -78 -30t-26 -95v-149q0 -99 -53.5 -135t-164.5 -36v55z" />
    <glyph glyph-name="uni00A0" unicode="&#xa0;" horiz-adv-x="249" 
 />
    <glyph glyph-name="exclamdown" unicode="&#xa1;" horiz-adv-x="305" 
d="M69 -195v104l51 353h64l50 -353v-104h-165zM62 425q0 42 27 61.5t65 19.5t64.5 -19.5t26.5 -61.5t-26.5 -62t-64.5 -20q-37 0 -64.5 20t-27.5 62z" />
    <glyph glyph-name="cent" unicode="&#xa2;" horiz-adv-x="539" 
d="M325 633v-126q80 -2 127 -30.5t47 -73.5q0 -33 -18.5 -53t-50.5 -20t-48.5 20t-29 48.5t-27.5 39.5v-348h13q75 0 145 26l2 -55q-65 -59 -160 -72v-130h-55v126q-108 2 -169.5 67.5t-61.5 174.5q0 108 62.5 184t168.5 92v130h55zM185 272q0 -135 85 -170v346
q-40 -10 -62.5 -59t-22.5 -117z" />
    <glyph glyph-name="sterling" unicode="&#xa3;" horiz-adv-x="638" 
d="M48 361h77q-1 9 -1 29q0 146 85 232.5t209 86.5q74 0 121.5 -29.5t47.5 -73.5q0 -27 -19.5 -44.5t-51.5 -16.5q-26 0 -43 12.5t-26 29.5l-17.5 34.5t-22.5 30t-35 12.5q-48 0 -71.5 -59.5t-23.5 -192.5q0 -17 -2 -51h194v-50h-201q-18 -91 -85 -184h405l3 -10l-42 -117
h-501l-7 35q60 73 75 134.5t12 141.5h-80v50z" />
    <glyph glyph-name="currency" unicode="&#xa4;" horiz-adv-x="510" 
d="M460 111l-42 -42l-92 90q-32 -21 -71 -21t-71 21l-92 -91l-41 44l89 91q-20 33 -20 70q0 38 20 70l-89 93l43 42l90 -91q30 21 71 21q39 0 70 -20l91 90l44 -42l-91 -93q21 -32 21 -70q0 -40 -21 -70zM334 273q0 33 -23.5 57t-55.5 24q-33 0 -56 -23.5t-23 -57.5
q0 -33 23 -57t56 -24q32 0 55.5 24t23.5 57z" />
    <glyph glyph-name="yen" unicode="&#xa5;" horiz-adv-x="746" 
d="M112 349h147l-139 247q-17 27 -35.5 39t-50.5 17v41h337v-41l-22 -2.5l-21.5 -2.5t-13.5 -2q-18 -5 -29 -18t0 -31l130 -247h6l125 233q12 22 6.5 40t-25.5 23q-4 1 -12.5 2l-22 2.5l-22.5 2.5v41h244v-35q-55 -6 -94 -62l-141 -247h153v-50h-179v-89h179v-50h-179v-65
q0 -36 25 -48q2 -1 42 -8v-39h-300v39q30 2 43 7q25 12 25 49v65h-176v50h176v88l-1 1h-175v50z" />
    <glyph glyph-name="section" unicode="&#xa7;" horiz-adv-x="567" 
d="M253 -168q-79 0 -142 27t-63 72q0 24 16.5 40.5t43.5 16.5q24 0 42 -17t29 -37.5t34.5 -37.5t56.5 -17q42 0 72.5 23t30.5 60q0 59 -95 95l-67 25q-162 56 -162 182q0 110 100 164q-75 49 -75 135q0 84 66.5 139.5t174.5 55.5q74 0 134.5 -27t60.5 -71q0 -51 -49 -51
q-23 0 -42.5 16t-32.5 35.5t-36 35.5t-53 16q-42 0 -69 -25t-27 -64q0 -61 79 -89l83 -30q159 -54 159 -178q0 -107 -103 -160q84 -51 84 -139t-71.5 -141.5t-178.5 -53.5zM212 396q-34 -31 -34 -76q0 -63 82 -92l85 -30l10 -3q37 29 37 71q0 65 -94 98l-67 26z" />
    <glyph glyph-name="dieresis" unicode="&#xa8;" horiz-adv-x="477" 
d="M67 664q0 68 73 68q72 0 72 -68q0 -69 -72 -69q-73 0 -73 69zM260 664q0 68 72 68q73 0 73 -68q0 -69 -73 -69q-72 0 -72 69z" />
    <glyph glyph-name="copyright" unicode="&#xa9;" horiz-adv-x="687" 
d="M344 -9q-124 0 -207.5 78.5t-83.5 215.5q0 139 83.5 217t207.5 78t207 -78.5t83 -216.5q0 -137 -83.5 -215.5t-206.5 -78.5zM344 36q110 0 173 63t63 186q0 117 -64 183.5t-172 66.5q-107 0 -173 -64t-66 -186q0 -121 67 -185t172 -64zM473 163q-59 -52 -138 -52
q-74 0 -115 43.5t-41 119.5q0 82 50 134.5t135 52.5q55 0 86 -19.5t31 -49.5q0 -21 -12.5 -35t-33.5 -14q-19 0 -31 12t-16.5 26t-16 26t-31.5 12q-60 0 -60 -116q0 -58 22 -89t75 -31q47 0 95 16z" />
    <glyph glyph-name="guillemotleft" unicode="&#xab;" horiz-adv-x="515" 
d="M223 67l-179 189v20l180 185l40 -28l-96 -163l96 -176zM423 67l-179 189v20l180 185l40 -28l-96 -163l96 -176z" />
    <glyph glyph-name="registered" unicode="&#xae;" horiz-adv-x="609" 
d="M305 243q-108 0 -181 68.5t-73 189.5t73 189.5t181 68.5t181 -68.5t73 -189.5t-73 -189.5t-181 -68.5zM305 290q91 0 145.5 55t54.5 156t-54.5 156t-145.5 55q-90 0 -145.5 -55.5t-55.5 -155.5t55.5 -155.5t145.5 -55.5zM203 601q0 11 -7 15q-3 3 -17 5v21h147
q39 0 64.5 -16.5t25.5 -52.5q0 -46 -59 -68l56 -69q19 -24 40 -28v-21h-87l-74 109h-17v-68q0 -12 7 -15q7 -4 19 -5v-21h-122v21q12 0 17 4q7 4 7 16v173zM275 614v-94h20q27 0 38 11.5t11 37.5q0 45 -43 45h-26z" />
    <glyph glyph-name="macron" unicode="&#xaf;" horiz-adv-x="316" 
d="M35 686h256v-66h-256v66z" />
    <glyph glyph-name="acute" unicode="&#xb4;" horiz-adv-x="427" 
d="M361 719l-174 -156h-32l-4 10l77 157h129z" />
    <glyph glyph-name="mu" unicode="&#xb5;" horiz-adv-x="633" 
d="M544 493v-390q0 -40 16 -52t57 -10l1 -25q-60 -29 -118 -29q-59 0 -83.5 22t-24.5 63q-43 -44 -83.5 -65.5t-93.5 -21.5q-27 0 -48 6q58 -84 58 -166v-42h-152v710h152v-294q0 -57 20 -84.5t75 -27.5q33 0 72 14v392h152z" />
    <glyph glyph-name="periodcentered" unicode="&#xb7;" horiz-adv-x="273" 
d="M60 355q0 37 22 57t54 20q33 0 55.5 -20t22.5 -57t-22.5 -57t-55.5 -20q-32 0 -54 20t-22 57z" />
    <glyph glyph-name="cedilla" unicode="&#xb8;" horiz-adv-x="504" 
d="M357 -139q0 -42 -34.5 -64.5t-95.5 -22.5q-43 0 -77 10v62q41 -15 74 -15q41 0 41 27q0 29 -47 31q-10 0 -24 -2v121h54v-66q44 0 76.5 -20.5t32.5 -60.5z" />
    <glyph glyph-name="guillemotright" unicode="&#xbb;" horiz-adv-x="515" 
d="M251 94l96 176l-96 163l40 28l180 -185v-20l-179 -189zM51 94l96 176l-96 163l40 28l180 -185v-20l-179 -189z" />
    <glyph glyph-name="questiondown" unicode="&#xbf;" horiz-adv-x="457" 
d="M263 261q22 -45 22 -77q0 -34 -18.5 -62t-40.5 -43.5t-40.5 -40t-18.5 -53.5q0 -39 29.5 -64t76.5 -25q73 0 135 58l19 -17q-82 -148 -216 -148q-80 0 -130 43t-50 109q0 39 20 71.5t48 56l56.5 45.5t48.5 49.5t20 58.5q0 8 -1.5 16t-4 14.5t-2.5 8.5h47zM150 425
q0 42 27 61.5t65 19.5t64.5 -19.5t26.5 -61.5t-26.5 -62t-64.5 -20q-37 0 -64.5 20t-27.5 62z" />
    <glyph glyph-name="Agrave" unicode="&#xc0;" horiz-adv-x="703" 
d="M408 240h-220l-55 -145q-14 -38 29 -49q4 -1 12.5 -2l22 -2.5l22.5 -2.5v-39h-227v39q12 1 40 11q27 10 40 45l243 611h84l224 -611q12 -35 39 -45q22 -10 39 -11v-39h-315v39q41 6 49 9q34 14 23 47zM208 293h182l-86 251zM171 869h129l85 -126l-4 -10h-38l-176 125z
" />
    <glyph glyph-name="Aacute" unicode="&#xc1;" horiz-adv-x="703" 
d="M408 240h-220l-55 -145q-14 -38 29 -49q4 -1 12.5 -2l22 -2.5l22.5 -2.5v-39h-227v39q12 1 40 11q27 10 40 45l243 611h84l224 -611q12 -35 39 -45q22 -10 39 -11v-39h-315v39q41 6 49 9q34 14 23 47zM208 293h182l-86 251zM540 858l-176 -125h-38l-4 10l85 126h129z" />
    <glyph glyph-name="Acircumflex" unicode="&#xc2;" horiz-adv-x="703" 
d="M408 240h-220l-55 -145q-14 -38 29 -49q4 -1 12.5 -2l22 -2.5l22.5 -2.5v-39h-227v39q12 1 40 11q27 10 40 45l243 611h84l224 -611q12 -35 39 -45q22 -10 39 -11v-39h-315v39q41 6 49 9q34 14 23 47zM208 293h182l-86 251zM335 870h57l120 -131l-4 -10h-56l-100 62
l-93 -62h-41l-4 10z" />
    <glyph glyph-name="Atilde" unicode="&#xc3;" horiz-adv-x="703" 
d="M408 240h-220l-55 -145q-14 -38 29 -49q4 -1 12.5 -2l22 -2.5l22.5 -2.5v-39h-227v39q12 1 40 11q27 10 40 45l243 611h84l224 -611q12 -35 39 -45q22 -10 39 -11v-39h-315v39q41 6 49 9q34 14 23 47zM208 293h182l-86 251zM515 853q-7 -112 -97 -112q-32 0 -75.5 18
t-53.5 18q-32 0 -42 -40h-42q2 50 26 80.5t70 30.5q25 0 66.5 -17.5t59.5 -17.5q38 0 45 40h43z" />
    <glyph glyph-name="Adieresis" unicode="&#xc4;" horiz-adv-x="703" 
d="M408 240h-220l-55 -145q-14 -38 29 -49q4 -1 12.5 -2l22 -2.5l22.5 -2.5v-39h-227v39q12 1 40 11q27 10 40 45l243 611h84l224 -611q12 -35 39 -45q22 -10 39 -11v-39h-315v39q41 6 49 9q34 14 23 47zM208 293h182l-86 251zM192 807q0 67 72 67q31 0 51 -16.5t20 -50.5
t-20 -50.5t-51 -16.5q-72 0 -72 67zM381 807q0 67 72 67t72 -67t-72 -67t-72 67z" />
    <glyph glyph-name="Aring" unicode="&#xc5;" horiz-adv-x="703" 
d="M408 240h-220l-55 -145q-14 -38 29 -49q4 -1 12.5 -2l22 -2.5l22.5 -2.5v-39h-227v39q12 1 40 11q27 10 40 45l243 611h84l224 -611q12 -35 39 -45q22 -10 39 -11v-39h-315v39q41 6 49 9q34 14 23 47zM208 293h182l-86 251zM467 818q0 -42 -29.5 -68t-78.5 -26t-78.5 26
t-29.5 67q0 42 30.5 68t78.5 26q46 0 76.5 -26t30.5 -67zM408 817q0 53 -50 53q-47 0 -47 -52q0 -26 13.5 -39.5t35.5 -13.5q21 0 34.5 13t13.5 39z" />
    <glyph glyph-name="AE" unicode="&#xc6;" horiz-adv-x="983" 
d="M608 640v-259h82q39 0 55 25q7 13 13 62h45v-228h-45q-2 42 -12 61q-13 27 -56 27h-82v-275h128q72 0 106 33t63 122l38 -4l-17 -204h-550v39q36 2 46 9q21 14 21 55v154h-222l-84 -158q-10 -19 -2.5 -33.5t27.5 -19.5q4 -1 12.5 -2l22 -2.5l22.5 -2.5v-39h-231v39
q20 1 41 11t40 45l296 549q-49 2 -78 5v44h624v-173h-42q-18 69 -51.5 94.5t-100.5 25.5h-109zM443 640q-11 0 -18 1l-177 -332h195v331z" />
    <glyph glyph-name="Ccedilla" unicode="&#xc7;" horiz-adv-x="685" 
d="M408 659q-66 0 -109.5 -44t-60.5 -109.5t-17 -150.5q0 -319 187 -319q68 0 114 50.5t68 128.5h43v-159q-88 -71 -228 -71q-161 0 -262 97t-101 257q0 166 105.5 268t269.5 102q121 0 216 -54v-185h-43q-53 189 -182 189zM523 -139q0 -42 -34.5 -64.5t-95.5 -22.5
q-43 0 -77 10v62q41 -15 74 -15q41 0 41 27q0 29 -47 31q-10 0 -24 -2v121h54v-66q44 0 76.5 -20.5t32.5 -60.5z" />
    <glyph glyph-name="Egrave" unicode="&#xc8;" horiz-adv-x="652" 
d="M183 869h129l85 -126l-4 -10h-38l-176 125zM45 39q38 3 46 9q22 13 22 55v487q0 44 -24 55q-9 4 -44 9v39h536v-173h-42q-18 69 -51.5 94.5t-100.5 25.5h-109v-259h82q41 0 54 25q8 15 14 62h44v-228h-44q-8 51 -13 61q-13 27 -55 27h-82v-275h128q72 0 106 33t63 122
l38 -4l-17 -204h-551v39z" />
    <glyph glyph-name="Eacute" unicode="&#xc9;" horiz-adv-x="652" 
d="M509 858l-176 -125h-38l-4 10l85 126h129zM45 39q38 3 46 9q22 13 22 55v487q0 44 -24 55q-9 4 -44 9v39h536v-173h-42q-18 69 -51.5 94.5t-100.5 25.5h-109v-259h82q41 0 54 25q8 15 14 62h44v-228h-44q-8 51 -13 61q-13 27 -55 27h-82v-275h128q72 0 106 33t63 122
l38 -4l-17 -204h-551v39z" />
    <glyph glyph-name="Ecircumflex" unicode="&#xca;" horiz-adv-x="652" 
d="M45 39q38 3 46 9q22 13 22 55v487q0 44 -24 55q-9 4 -44 9v39h536v-173h-42q-18 69 -51.5 94.5t-100.5 25.5h-109v-259h82q41 0 54 25q8 15 14 62h44v-228h-44q-8 51 -13 61q-13 27 -55 27h-82v-275h128q72 0 106 33t63 122l38 -4l-17 -204h-551v39zM325 870h57l120 -131
l-4 -10h-56l-100 62l-93 -62h-41l-4 10z" />
    <glyph glyph-name="Edieresis" unicode="&#xcb;" horiz-adv-x="652" 
d="M189 807q0 67 72 67q31 0 51 -16.5t20 -50.5t-20 -50.5t-51 -16.5q-72 0 -72 67zM378 807q0 67 72 67t72 -67t-72 -67t-72 67zM45 39q38 3 46 9q22 13 22 55v487q0 44 -24 55q-9 4 -44 9v39h536v-173h-42q-18 69 -51.5 94.5t-100.5 25.5h-109v-259h82q41 0 54 25
q8 15 14 62h44v-228h-44q-8 51 -13 61q-13 27 -55 27h-82v-275h128q72 0 106 33t63 122l38 -4l-17 -204h-551v39z" />
    <glyph glyph-name="Igrave" unicode="&#xcc;" horiz-adv-x="391" 
d="M278 95q0 -36 25 -48q2 -1 43 -8v-39h-301v39q29 2 43 7q25 12 25 49v503q0 36 -25 48q-2 1 -43 8v39h301v-39q-30 -2 -44 -7q-24 -11 -24 -49v-503zM22 869h129l85 -126l-4 -10h-38l-176 125z" />
    <glyph glyph-name="Iacute" unicode="&#xcd;" horiz-adv-x="391" 
d="M278 95q0 -36 25 -48q2 -1 43 -8v-39h-301v39q29 2 43 7q25 12 25 49v503q0 36 -25 48q-2 1 -43 8v39h301v-39q-30 -2 -44 -7q-24 -11 -24 -49v-503zM368 858l-176 -125h-38l-4 10l85 126h129z" />
    <glyph glyph-name="Icircumflex" unicode="&#xce;" horiz-adv-x="391" 
d="M278 95q0 -36 25 -48q2 -1 43 -8v-39h-301v39q29 2 43 7q25 12 25 49v503q0 36 -25 48q-2 1 -43 8v39h301v-39q-30 -2 -44 -7q-24 -11 -24 -49v-503zM182 870h57l120 -131l-4 -10h-56l-100 62l-93 -62h-41l-4 10z" />
    <glyph glyph-name="Idieresis" unicode="&#xcf;" horiz-adv-x="391" 
d="M278 95q0 -36 25 -48q2 -1 43 -8v-39h-301v39q29 2 43 7q25 12 25 49v503q0 36 -25 48q-2 1 -43 8v39h301v-39q-30 -2 -44 -7q-24 -11 -24 -49v-503zM32 807q0 67 72 67q31 0 51 -16.5t20 -50.5t-20 -50.5t-51 -16.5q-72 0 -72 67zM221 807q0 67 72 67t72 -67t-72 -67
t-72 67z" />
    <glyph glyph-name="Ntilde" unicode="&#xd1;" horiz-adv-x="804" 
d="M565 853q-7 -112 -97 -112q-32 0 -75 18t-54 18q-32 0 -42 -40h-42q2 50 26 80.5t70 30.5q25 0 66.5 -17.5t59.5 -17.5q38 0 45 40h43zM587 -4l-394 530v-394q0 -53 32 -74q26 -17 64 -21v-37h-259v37q34 5 57 17q39 20 39 78v408q0 104 -91 117v36h234l352 -458v326
q0 53 -32 74q-26 17 -64 21v37h259v-37q-34 -5 -57 -17q-39 -20 -39 -78v-565h-101z" />
    <glyph glyph-name="Ograve" unicode="&#xd2;" horiz-adv-x="807" 
d="M227 869h129l85 -126l-4 -10h-38l-176 125zM765 352q0 -160 -104 -263.5t-265 -103.5q-155 0 -254.5 96.5t-99.5 259.5q0 167 104 267.5t262 100.5q157 0 257 -99.5t100 -257.5zM586 343q0 71 -8 125t-28 100t-57 70t-91 24t-91 -24.5t-56 -70.5t-26.5 -97.5t-7.5 -119.5
q0 -155 40 -235.5t139 -80.5q186 0 186 309z" />
    <glyph glyph-name="Oacute" unicode="&#xd3;" horiz-adv-x="807" 
d="M571 858l-176 -125h-38l-4 10l85 126h129zM765 352q0 -160 -104 -263.5t-265 -103.5q-155 0 -254.5 96.5t-99.5 259.5q0 167 104 267.5t262 100.5q157 0 257 -99.5t100 -257.5zM586 343q0 71 -8 125t-28 100t-57 70t-91 24t-91 -24.5t-56 -70.5t-26.5 -97.5t-7.5 -119.5
q0 -155 40 -235.5t139 -80.5q186 0 186 309z" />
    <glyph glyph-name="Ocircumflex" unicode="&#xd4;" horiz-adv-x="807" 
d="M765 352q0 -160 -104 -263.5t-265 -103.5q-155 0 -254.5 96.5t-99.5 259.5q0 167 104 267.5t262 100.5q157 0 257 -99.5t100 -257.5zM586 343q0 71 -8 125t-28 100t-57 70t-91 24t-91 -24.5t-56 -70.5t-26.5 -97.5t-7.5 -119.5q0 -155 40 -235.5t139 -80.5q186 0 186 309
zM386 870h57l120 -131l-4 -10h-56l-100 62l-93 -62h-41l-4 10z" />
    <glyph glyph-name="Otilde" unicode="&#xd5;" horiz-adv-x="807" 
d="M558 853q-7 -112 -97 -112q-31 0 -75 18t-54 18q-32 0 -42 -40h-42q2 50 26 80.5t70 30.5q25 0 66.5 -17.5t59.5 -17.5q38 0 45 40h43zM765 352q0 -160 -104 -263.5t-265 -103.5q-155 0 -254.5 96.5t-99.5 259.5q0 167 104 267.5t262 100.5q157 0 257 -99.5t100 -257.5z
M586 343q0 71 -8 125t-28 100t-57 70t-91 24t-91 -24.5t-56 -70.5t-26.5 -97.5t-7.5 -119.5q0 -155 40 -235.5t139 -80.5q186 0 186 309z" />
    <glyph glyph-name="Odieresis" unicode="&#xd6;" horiz-adv-x="807" 
d="M240 807q0 67 72 67q31 0 51 -16.5t20 -50.5t-20 -50.5t-51 -16.5q-72 0 -72 67zM429 807q0 67 72 67t72 -67t-72 -67t-72 67zM765 352q0 -160 -104 -263.5t-265 -103.5q-155 0 -254.5 96.5t-99.5 259.5q0 167 104 267.5t262 100.5q157 0 257 -99.5t100 -257.5zM586 343
q0 71 -8 125t-28 100t-57 70t-91 24t-91 -24.5t-56 -70.5t-26.5 -97.5t-7.5 -119.5q0 -155 40 -235.5t139 -80.5q186 0 186 309z" />
    <glyph glyph-name="Oslash" unicode="&#xd8;" horiz-adv-x="807" 
d="M765 352q0 -161 -103.5 -264t-265.5 -103q-133 0 -228 73l-67 -73h-62l95 104q-91 97 -91 252q0 167 103.5 267.5t261.5 100.5q133 0 227 -74l67 74h64l-96 -105q95 -100 95 -252zM586 343q0 95 -14 155l-324 -353q39 -111 152 -111q186 0 186 309zM222 350
q0 -95 12 -152l323 353q-44 111 -155 111q-54 0 -91 -24.5t-55.5 -70.5t-26 -97.5t-7.5 -119.5z" />
    <glyph glyph-name="Ugrave" unicode="&#xd9;" horiz-adv-x="770" 
d="M234 869h129l85 -126l-4 -10h-38l-176 125zM265 242q0 -96 38.5 -143.5t125.5 -47.5q82 0 124.5 51t42.5 138v329q-4 48 -32 66q-26 17 -64 21v37h259v-37q-35 -5 -57 -17q-38 -20 -39 -72v-322q0 -115 -74.5 -187t-199.5 -72t-207 63t-82 183v366q0 37 -26 48
q-13 6 -42 8v39h300v-39q-42 -7 -43 -7q-24 -11 -24 -46v-359z" />
    <glyph glyph-name="Uacute" unicode="&#xda;" horiz-adv-x="770" 
d="M579 858l-176 -125h-38l-4 10l85 126h129zM265 242q0 -96 38.5 -143.5t125.5 -47.5q82 0 124.5 51t42.5 138v329q-4 48 -32 66q-26 17 -64 21v37h259v-37q-35 -5 -57 -17q-38 -20 -39 -72v-322q0 -115 -74.5 -187t-199.5 -72t-207 63t-82 183v366q0 37 -26 48
q-13 6 -42 8v39h300v-39q-42 -7 -43 -7q-24 -11 -24 -46v-359z" />
    <glyph glyph-name="Ucircumflex" unicode="&#xdb;" horiz-adv-x="770" 
d="M265 242q0 -96 38.5 -143.5t125.5 -47.5q82 0 124.5 51t42.5 138v329q-4 48 -32 66q-26 17 -64 21v37h259v-37q-35 -5 -57 -17q-38 -20 -39 -72v-322q0 -115 -74.5 -187t-199.5 -72t-207 63t-82 183v366q0 37 -26 48q-13 6 -42 8v39h300v-39q-42 -7 -43 -7
q-24 -11 -24 -46v-359zM389 870h57l120 -131l-4 -10h-56l-100 62l-93 -62h-41l-4 10z" />
    <glyph glyph-name="Udieresis" unicode="&#xdc;" horiz-adv-x="770" 
d="M243 807q0 67 72 67q31 0 51 -16.5t20 -50.5t-20 -50.5t-51 -16.5q-72 0 -72 67zM432 807q0 67 72 67t72 -67t-72 -67t-72 67zM265 242q0 -96 38.5 -143.5t125.5 -47.5q82 0 124.5 51t42.5 138v329q-4 48 -32 66q-26 17 -64 21v37h259v-37q-35 -5 -57 -17
q-38 -20 -39 -72v-322q0 -115 -74.5 -187t-199.5 -72t-207 63t-82 183v366q0 37 -26 48q-13 6 -42 8v39h300v-39q-42 -7 -43 -7q-24 -11 -24 -46v-359z" />
    <glyph glyph-name="Yacute" unicode="&#xdd;" horiz-adv-x="677" 
d="M260 598q0 -16 9 -31l118 -223l117 219q12 21 12 38q0 49 -77 51v41h243v-38q-64 -7 -97 -64l-164 -288v-208q0 -35 25 -48q2 -1 43 -8v-39h-300v39q30 2 43 7q24 10 24 49v205l-167 296q-16 27 -34.5 39t-51.5 17v41h337v-41q-80 -10 -80 -54zM546 858l-176 -125h-38
l-4 10l85 126h129z" />
    <glyph glyph-name="Thorn" unicode="&#xde;" horiz-adv-x="658" 
d="M278 565h123q98 0 164.5 -49.5t66.5 -143.5q0 -99 -71.5 -159t-173.5 -60h-109v-58q0 -36 25 -48q2 -1 43 -8v-39h-301v39q29 2 43 7q25 12 25 49v503q0 36 -25 48q-2 1 -43 8v39h301v-39q-30 -2 -44 -7q-24 -11 -24 -49v-33zM278 512v-306h57q128 0 128 156
q0 69 -28 109.5t-84 40.5h-73z" />
    <glyph glyph-name="germandbls" unicode="&#xdf;" horiz-adv-x="698" 
d="M20 481h82q10 116 94.5 197t221.5 81q95 0 154 -40.5t59 -106.5q0 -36 -18.5 -65t-45 -47t-53 -33.5t-45 -33t-18.5 -36.5q0 -10 4 -18t12.5 -14.5t15.5 -11t21 -11.5l20 -10l40 -19q24 -11 39.5 -21t34 -27t27.5 -41t9 -55q0 -76 -63 -130t-154 -54q-56 0 -97 20.5
t-41 53.5q0 18 12 33t36 15q18 0 32 -11t21.5 -23.5t23.5 -23.5t37 -11q31 0 53.5 17.5t22.5 43.5q0 49 -90 92l-33 16q-30 16 -45.5 26.5t-31 34t-15.5 53.5q0 39 22.5 74.5t49.5 59t49.5 58.5t22.5 72q0 49 -30 77t-80 28q-55 0 -89 -35.5t-34 -114.5v-540h-214v37
q27 2 37 7q25 10 25 49v339h-81v49z" />
    <glyph glyph-name="agrave" unicode="&#xe0;" horiz-adv-x="544" 
d="M463 103q0 -36 13 -49t44 -13h17l1 -25q-60 -29 -119 -29q-60 0 -84 23.5t-24 68.5v4q-60 -95 -156 -95q-55 0 -88 32t-33 87q0 60 41.5 92t124.5 52l111 25v20q0 54 -21.5 79t-77.5 25q-70 0 -162 -23v62q131 67 239 67q90 0 132 -47.5t42 -145.5v-210zM243 91
q31 0 68 15v127l-57 -15q-42 -11 -61 -25t-19 -42q0 -60 69 -60zM108 730h128l83 -157l-4 -10h-38l-173 156z" />
    <glyph glyph-name="aacute" unicode="&#xe1;" horiz-adv-x="544" 
d="M463 103q0 -36 13 -49t44 -13h17l1 -25q-60 -29 -119 -29q-60 0 -84 23.5t-24 68.5v4q-60 -95 -156 -95q-55 0 -88 32t-33 87q0 60 41.5 92t124.5 52l111 25v20q0 54 -21.5 79t-77.5 25q-70 0 -162 -23v62q131 67 239 67q90 0 132 -47.5t42 -145.5v-210zM243 91
q31 0 68 15v127l-57 -15q-42 -11 -61 -25t-19 -42q0 -60 69 -60zM434 719l-174 -156h-32l-4 10l77 157h129z" />
    <glyph glyph-name="acircumflex" unicode="&#xe2;" horiz-adv-x="544" 
d="M463 103q0 -36 13 -49t44 -13h17l1 -25q-60 -29 -119 -29q-60 0 -84 23.5t-24 68.5v4q-60 -95 -156 -95q-55 0 -88 32t-33 87q0 60 41.5 92t124.5 52l111 25v20q0 54 -21.5 79t-77.5 25q-70 0 -162 -23v62q131 67 239 67q90 0 132 -47.5t42 -145.5v-210zM243 91
q31 0 68 15v127l-57 -15q-42 -11 -61 -25t-19 -42q0 -60 69 -60zM406 574l-4 -11h-62l-91 83l-86 -83h-40l-4 11l110 156h64z" />
    <glyph glyph-name="atilde" unicode="&#xe3;" horiz-adv-x="544" 
d="M463 103q0 -36 13 -49t44 -13h17l1 -25q-60 -29 -119 -29q-60 0 -84 23.5t-24 68.5v4q-60 -95 -156 -95q-55 0 -88 32t-33 87q0 60 41.5 92t124.5 52l111 25v20q0 54 -21.5 79t-77.5 25q-70 0 -162 -23v62q131 67 239 67q90 0 132 -47.5t42 -145.5v-210zM243 91
q31 0 68 15v127l-57 -15q-42 -11 -61 -25t-19 -42q0 -60 69 -60zM416 715q-1 -58 -24.5 -89.5t-68.5 -31.5q-31 0 -75 18.5t-55 18.5q-32 0 -42 -41h-37q0 51 23.5 86t63.5 35q25 0 69 -17.5t61 -17.5q39 0 45 39h40z" />
    <glyph glyph-name="adieresis" unicode="&#xe4;" horiz-adv-x="544" 
d="M463 103q0 -36 13 -49t44 -13h17l1 -25q-60 -29 -119 -29q-60 0 -84 23.5t-24 68.5v4q-60 -95 -156 -95q-55 0 -88 32t-33 87q0 60 41.5 92t124.5 52l111 25v20q0 54 -21.5 79t-77.5 25q-70 0 -162 -23v62q131 67 239 67q90 0 132 -47.5t42 -145.5v-210zM243 91
q31 0 68 15v127l-57 -15q-42 -11 -61 -25t-19 -42q0 -60 69 -60zM99 664q0 68 73 68q72 0 72 -68q0 -69 -72 -69q-73 0 -73 69zM292 664q0 68 72 68q73 0 73 -68q0 -69 -73 -69q-72 0 -72 69z" />
    <glyph glyph-name="aring" unicode="&#xe5;" horiz-adv-x="544" 
d="M463 103q0 -36 13 -49t44 -13h17l1 -25q-60 -29 -119 -29q-60 0 -84 23.5t-24 68.5v4q-60 -95 -156 -95q-55 0 -88 32t-33 87q0 60 41.5 92t124.5 52l111 25v20q0 54 -21.5 79t-77.5 25q-70 0 -162 -23v62q131 67 239 67q90 0 132 -47.5t42 -145.5v-210zM243 91
q31 0 68 15v127l-57 -15q-42 -11 -61 -25t-19 -42q0 -60 69 -60zM377 666q0 -42 -29.5 -68t-78.5 -26t-78.5 26t-29.5 67q0 42 30.5 68t78.5 26q46 0 76.5 -26t30.5 -67zM318 665q0 53 -50 53q-47 0 -47 -52q0 -26 13.5 -39.5t35.5 -13.5q21 0 34.5 13t13.5 39z" />
    <glyph glyph-name="ae" unicode="&#xe6;" horiz-adv-x="811" 
d="M756 61q-86 -76 -210 -76q-148 0 -205 105q-34 -45 -83 -73.5t-103 -28.5q-55 0 -88 32t-33 87q0 60 41.5 92t124.5 52l111 25v19q0 55 -21.5 80t-77.5 25q-70 0 -162 -23v62q131 67 239 67q86 0 127 -49q67 50 168 50t151.5 -54t41.5 -158l-28 -42h-293q2 -79 37 -121.5
t114 -42.5q74 0 147 26zM552 449q-83 0 -95 -146h170q7 66 -12.5 106t-62.5 40zM329 116q-18 46 -18 108v9l-57 -15q-42 -11 -61 -25t-19 -42q0 -60 69 -60q38 0 86 25z" />
    <glyph glyph-name="ccedilla" unicode="&#xe7;" horiz-adv-x="514" 
d="M474 61q-86 -76 -205 -76q-111 0 -172 65t-61 177q0 122 74.5 201t200.5 79q83 0 129.5 -29t46.5 -75q0 -33 -18 -53t-50 -20q-30 0 -47 19t-23.5 41t-23.5 41t-47 19q-46 0 -71 -50t-25 -128q0 -182 149 -182q71 0 141 26zM400 -139q0 -42 -34.5 -64.5t-95.5 -22.5
q-43 0 -77 10v62q41 -15 74 -15q41 0 41 27q0 29 -47 31q-10 0 -24 -2v121h54v-66q44 0 76.5 -20.5t32.5 -60.5z" />
    <glyph glyph-name="egrave" unicode="&#xe8;" horiz-adv-x="536" 
d="M481 61q-86 -76 -210 -76q-113 0 -174 62.5t-61 176.5q0 126 72.5 204.5t200.5 78.5q91 0 141 -43.5t53 -129.5q1 -12 -1 -39l-28 -42h-293q2 -79 37 -121.5t114 -42.5q74 0 147 26zM277 449q-83 0 -95 -146h169q2 22 2 34q0 52 -19.5 82t-56.5 30zM123 730h128l83 -157
l-4 -10h-38l-173 156z" />
    <glyph glyph-name="eacute" unicode="&#xe9;" horiz-adv-x="536" 
d="M435 719l-174 -156h-32l-4 10l77 157h129zM481 61q-86 -76 -210 -76q-113 0 -174 62.5t-61 176.5q0 126 72.5 204.5t200.5 78.5q91 0 141 -43.5t53 -129.5q1 -12 -1 -39l-28 -42h-293q2 -79 37 -121.5t114 -42.5q74 0 147 26zM277 449q-83 0 -95 -146h169q2 22 2 34
q0 52 -19.5 82t-56.5 30z" />
    <glyph glyph-name="ecircumflex" unicode="&#xea;" horiz-adv-x="536" 
d="M426 574l-4 -11h-62l-91 83l-86 -83h-40l-4 11l110 156h64zM481 61q-86 -76 -210 -76q-113 0 -174 62.5t-61 176.5q0 126 72.5 204.5t200.5 78.5q91 0 141 -43.5t53 -129.5q1 -12 -1 -39l-28 -42h-293q2 -79 37 -121.5t114 -42.5q74 0 147 26zM277 449q-83 0 -95 -146
h169q2 22 2 34q0 52 -19.5 82t-56.5 30z" />
    <glyph glyph-name="edieresis" unicode="&#xeb;" horiz-adv-x="536" 
d="M120 664q0 68 73 68q72 0 72 -68q0 -69 -72 -69q-73 0 -73 69zM313 664q0 68 72 68q73 0 73 -68q0 -69 -73 -69q-72 0 -72 69zM481 61q-86 -76 -210 -76q-113 0 -174 62.5t-61 176.5q0 126 72.5 204.5t200.5 78.5q91 0 141 -43.5t53 -129.5q1 -12 -1 -39l-28 -42h-293
q2 -79 37 -121.5t114 -42.5q74 0 147 26zM277 449q-83 0 -95 -146h169q2 22 2 34q0 52 -19.5 82t-56.5 30z" />
    <glyph glyph-name="igrave" unicode="&#xec;" horiz-adv-x="333" 
d="M249 93q0 -36 25 -48q15 -7 36 -8v-37h-275v37q23 2 37 7q25 10 25 49v304q0 25 -7.5 33.5t-32.5 8.5q-12 0 -34 -2v35q105 35 165 35q35 0 48 -14.5t13 -47.5v-352zM-4 730h128l83 -157l-4 -10h-38l-173 156z" />
    <glyph glyph-name="iacute" unicode="&#xed;" horiz-adv-x="333" 
d="M327 719l-174 -156h-32l-4 10l77 157h129zM249 93q0 -36 25 -48q15 -7 36 -8v-37h-275v37q23 2 37 7q25 10 25 49v304q0 25 -7.5 33.5t-32.5 8.5q-12 0 -34 -2v35q105 35 165 35q35 0 48 -14.5t13 -47.5v-352z" />
    <glyph glyph-name="icircumflex" unicode="&#xee;" horiz-adv-x="333" 
d="M314 574l-4 -11h-62l-91 83l-86 -83h-40l-4 11l110 156h64zM249 93q0 -36 25 -48q15 -7 36 -8v-37h-275v37q23 2 37 7q25 10 25 49v304q0 25 -7.5 33.5t-32.5 8.5q-12 0 -34 -2v35q105 35 165 35q35 0 48 -14.5t13 -47.5v-352z" />
    <glyph glyph-name="idieresis" unicode="&#xef;" horiz-adv-x="333" 
d="M-6 664q0 68 73 68q72 0 72 -68q0 -69 -72 -69q-73 0 -73 69zM187 664q0 68 72 68q73 0 73 -68q0 -69 -73 -69q-72 0 -72 69zM249 93q0 -36 25 -48q15 -7 36 -8v-37h-275v37q23 2 37 7q25 10 25 49v304q0 25 -7.5 33.5t-32.5 8.5q-12 0 -34 -2v35q105 35 165 35
q35 0 48 -14.5t13 -47.5v-352z" />
    <glyph glyph-name="eth" unicode="&#xf0;" horiz-adv-x="610" 
d="M174 588l81 69q-39 27 -93 48l27 52q70 -19 127 -48l83 71l32 -38l-70 -60q97 -63 149.5 -159t52.5 -215q0 -144 -74 -233.5t-208 -89.5q-119 0 -182.5 69t-63.5 170q0 71 29 133.5t91.5 105.5t145.5 43q42 0 76 -13q-26 77 -82 132l-88 -75zM402 293q0 86 -11 145
q-32 16 -73 16q-64 0 -92.5 -50.5t-28.5 -152.5q0 -208 104 -208q53 0 77 59.5t24 190.5z" />
    <glyph glyph-name="ntilde" unicode="&#xf1;" horiz-adv-x="660" 
d="M249 93q0 -36 25 -48q15 -7 36 -8v-37h-275v37q23 2 37 7q25 10 25 49v304q0 24 -7 32.5t-30 9.5q-15 0 -37 -2v35q105 35 165 35q35 0 48 -14.5t13 -47.5v-28q87 90 184 90q75 0 110 -41.5t35 -133.5v-239q0 -35 25 -48q15 -7 37 -8v-37h-276v37q23 2 38 7q24 10 24 49
v196q0 63 -19 92.5t-74 29.5q-39 0 -84 -17v-301zM486 715q-1 -58 -24.5 -89.5t-68.5 -31.5q-31 0 -75 18.5t-55 18.5q-32 0 -42 -41h-37q0 51 23.5 86t63.5 35q25 0 69 -17.5t61 -17.5q39 0 45 39h40z" />
    <glyph glyph-name="ograve" unicode="&#xf2;" 
d="M564 270q0 -121 -76 -203t-205 -82q-111 0 -179.5 63.5t-68.5 178.5q0 127 81 203.5t206 76.5q111 0 176.5 -63t65.5 -174zM402 237q0 212 -110 212q-53 0 -74 -47t-21 -138q0 -221 108 -221q97 0 97 194zM144 730h128l83 -157l-4 -10h-38l-173 156z" />
    <glyph glyph-name="oacute" unicode="&#xf3;" 
d="M447 719l-174 -156h-32l-4 10l77 157h129zM564 270q0 -121 -76 -203t-205 -82q-111 0 -179.5 63.5t-68.5 178.5q0 127 81 203.5t206 76.5q111 0 176.5 -63t65.5 -174zM402 237q0 212 -110 212q-53 0 -74 -47t-21 -138q0 -221 108 -221q97 0 97 194z" />
    <glyph glyph-name="ocircumflex" unicode="&#xf4;" 
d="M443 574l-4 -11h-62l-91 83l-86 -83h-40l-4 11l110 156h64zM564 270q0 -121 -76 -203t-205 -82q-111 0 -179.5 63.5t-68.5 178.5q0 127 81 203.5t206 76.5q111 0 176.5 -63t65.5 -174zM402 237q0 212 -110 212q-53 0 -74 -47t-21 -138q0 -221 108 -221q97 0 97 194z" />
    <glyph glyph-name="otilde" unicode="&#xf5;" 
d="M564 270q0 -121 -76 -203t-205 -82q-111 0 -179.5 63.5t-68.5 178.5q0 127 81 203.5t206 76.5q111 0 176.5 -63t65.5 -174zM402 237q0 212 -110 212q-53 0 -74 -47t-21 -138q0 -221 108 -221q97 0 97 194zM450 715q-1 -58 -24.5 -89.5t-68.5 -31.5q-31 0 -75 18.5
t-55 18.5q-32 0 -42 -41h-37q0 51 23.5 86t63.5 35q25 0 69 -17.5t61 -17.5q39 0 45 39h40z" />
    <glyph glyph-name="odieresis" unicode="&#xf6;" 
d="M131 664q0 68 73 68q72 0 72 -68q0 -69 -72 -69q-73 0 -73 69zM324 664q0 68 72 68q73 0 73 -68q0 -69 -73 -69q-72 0 -72 69zM564 270q0 -121 -76 -203t-205 -82q-111 0 -179.5 63.5t-68.5 178.5q0 127 81 203.5t206 76.5q111 0 176.5 -63t65.5 -174zM402 237
q0 212 -110 212q-53 0 -74 -47t-21 -138q0 -221 108 -221q97 0 97 194z" />
    <glyph glyph-name="oslash" unicode="&#xf8;" horiz-adv-x="597" 
d="M563 270q0 -121 -76 -203t-205 -82q-71 0 -133 30l-41 -50h-58l61 76q-77 64 -77 186q0 127 81 203.5t206 76.5q81 0 140 -35l43 53h60l-66 -82q65 -63 65 -173zM196 264q0 -62 9 -108l178 219q-27 74 -92 74q-52 0 -73.5 -47.5t-21.5 -137.5zM402 237q0 45 -6 82
l-175 -215q27 -61 84 -61q97 0 97 194z" />
    <glyph glyph-name="ugrave" unicode="&#xf9;" horiz-adv-x="643" 
d="M403 397q0 24 -7 32.5t-30 9.5q-15 0 -37 -2v35q105 35 165 35q35 0 48 -14.5t13 -47.5v-342q0 -40 16.5 -52t57.5 -10l1 -25q-60 -29 -119 -29t-83 21.5t-25 62.5q-42 -43 -82.5 -64.5t-93.5 -21.5q-73 0 -108 42t-35 134v236q0 25 -7.5 33.5t-34.5 8.5q-13 0 -31 -2v35
q105 35 165 35q35 0 47.5 -14t12.5 -48v-246q0 -57 21 -84.5t75 -27.5q33 0 71 13v297zM138 730h128l83 -157l-4 -10h-38l-173 156z" />
    <glyph glyph-name="uacute" unicode="&#xfa;" horiz-adv-x="643" 
d="M477 719l-174 -156h-32l-4 10l77 157h129zM403 397q0 24 -7 32.5t-30 9.5q-15 0 -37 -2v35q105 35 165 35q35 0 48 -14.5t13 -47.5v-342q0 -40 16.5 -52t57.5 -10l1 -25q-60 -29 -119 -29t-83 21.5t-25 62.5q-42 -43 -82.5 -64.5t-93.5 -21.5q-73 0 -108 42t-35 134v236
q0 25 -7.5 33.5t-34.5 8.5q-13 0 -31 -2v35q105 35 165 35q35 0 47.5 -14t12.5 -48v-246q0 -57 21 -84.5t75 -27.5q33 0 71 13v297z" />
    <glyph glyph-name="ucircumflex" unicode="&#xfb;" horiz-adv-x="643" 
d="M459 574l-4 -11h-62l-91 83l-86 -83h-40l-4 11l110 156h64zM403 397q0 24 -7 32.5t-30 9.5q-15 0 -37 -2v35q105 35 165 35q35 0 48 -14.5t13 -47.5v-342q0 -40 16.5 -52t57.5 -10l1 -25q-60 -29 -119 -29t-83 21.5t-25 62.5q-42 -43 -82.5 -64.5t-93.5 -21.5
q-73 0 -108 42t-35 134v236q0 25 -7.5 33.5t-34.5 8.5q-13 0 -31 -2v35q105 35 165 35q35 0 47.5 -14t12.5 -48v-246q0 -57 21 -84.5t75 -27.5q33 0 71 13v297z" />
    <glyph glyph-name="udieresis" unicode="&#xfc;" horiz-adv-x="643" 
d="M143 664q0 68 73 68q72 0 72 -68q0 -69 -72 -69q-73 0 -73 69zM336 664q0 68 72 68q73 0 73 -68q0 -69 -73 -69q-72 0 -72 69zM403 397q0 24 -7 32.5t-30 9.5q-15 0 -37 -2v35q105 35 165 35q35 0 48 -14.5t13 -47.5v-342q0 -40 16.5 -52t57.5 -10l1 -25
q-60 -29 -119 -29t-83 21.5t-25 62.5q-42 -43 -82.5 -64.5t-93.5 -21.5q-73 0 -108 42t-35 134v236q0 25 -7.5 33.5t-34.5 8.5q-13 0 -31 -2v35q105 35 165 35q35 0 47.5 -14t12.5 -48v-246q0 -57 21 -84.5t75 -27.5q33 0 71 13v297z" />
    <glyph glyph-name="yacute" unicode="&#xfd;" horiz-adv-x="571" 
d="M569 457q-50 -11 -76 -72l-121 -270l-11 -25l-41 -92q-1 -3 -4 -9l-23 -50.5t-31.5 -54.5t-44.5 -55.5t-56 -37.5t-72 -17q-65 0 -65 51q0 27 16 43t46 16q76 0 110 17t63 73l-8 18l-179 411q-20 47 -67 54v36h283v-36q-30 0 -44.5 -13.5t-6.5 -34.5l99 -251l85 207
q32 80 -51 92v36h199v-36zM482 719l-174 -156h-32l-4 10l77 157h129z" />
    <glyph glyph-name="thorn" unicode="&#xfe;" horiz-adv-x="607" 
d="M72 648q0 25 -7 33.5t-30 9.5q-14 0 -36 -2v35q105 35 165 35q35 0 47.5 -14t12.5 -48v-275q69 84 162 84q87 0 135.5 -63t48.5 -166q0 -139 -89 -215t-234 -76q-16 0 -23 1v-111q0 -46 44 -50l20 -1q21 -1 26 -1v-41h-303v37q23 2 37 7q24 11 24 49v772zM296 412
q-35 0 -72 -16v-342q31 -11 62 -11q65 0 98 56.5t33 141.5q0 82 -30.5 126.5t-90.5 44.5z" />
    <glyph glyph-name="ydieresis" unicode="&#xff;" horiz-adv-x="571" 
d="M569 457q-50 -11 -76 -72l-121 -270l-11 -25l-41 -92q-1 -3 -4 -9l-23 -50.5t-31.5 -54.5t-44.5 -55.5t-56 -37.5t-72 -17q-65 0 -65 51q0 27 16 43t46 16q76 0 110 17t63 73l-8 18l-179 411q-20 47 -67 54v36h283v-36q-30 0 -44.5 -13.5t-6.5 -34.5l99 -251l85 207
q32 80 -51 92v36h199v-36zM136 664q0 68 73 68q72 0 72 -68q0 -69 -72 -69q-73 0 -73 69zM329 664q0 68 72 68q73 0 73 -68q0 -69 -73 -69q-72 0 -72 69z" />
    <glyph glyph-name="Amacron" unicode="&#x100;" horiz-adv-x="703" 
d="M408 240h-220l-55 -145q-14 -38 29 -49q4 -1 12.5 -2l22 -2.5l22.5 -2.5v-39h-227v39q12 1 40 11q27 10 40 45l243 611h84l224 -611q12 -35 39 -45q22 -10 39 -11v-39h-315v39q41 6 49 9q34 14 23 47zM208 293h182l-86 251zM228 819h256v-66h-256v66z" />
    <glyph glyph-name="amacron" unicode="&#x101;" horiz-adv-x="544" 
d="M463 103q0 -36 13 -49t44 -13h17l1 -25q-60 -29 -119 -29q-60 0 -84 23.5t-24 68.5v4q-60 -95 -156 -95q-55 0 -88 32t-33 87q0 60 41.5 92t124.5 52l111 25v20q0 54 -21.5 79t-77.5 25q-70 0 -162 -23v62q131 67 239 67q90 0 132 -47.5t42 -145.5v-210zM243 91
q31 0 68 15v127l-57 -15q-42 -11 -61 -25t-19 -42q0 -60 69 -60zM147 686h256v-66h-256v66z" />
    <glyph glyph-name="Abreve" unicode="&#x102;" horiz-adv-x="703" 
d="M408 240h-220l-55 -145q-14 -38 29 -49q4 -1 12.5 -2l22 -2.5l22.5 -2.5v-39h-227v39q12 1 40 11q27 10 40 45l243 611h84l224 -611q12 -35 39 -45q22 -10 39 -11v-39h-315v39q41 6 49 9q34 14 23 47zM208 293h182l-86 251zM495 862q-30 -120 -139 -120q-49 0 -86.5 30.5
t-45.5 89.5h50q21 -51 91 -51q74 0 93 51h37z" />
    <glyph glyph-name="abreve" unicode="&#x103;" horiz-adv-x="544" 
d="M463 103q0 -36 13 -49t44 -13h17l1 -25q-60 -29 -119 -29q-60 0 -84 23.5t-24 68.5v4q-60 -95 -156 -95q-55 0 -88 32t-33 87q0 60 41.5 92t124.5 52l111 25v20q0 54 -21.5 79t-77.5 25q-70 0 -162 -23v62q131 67 239 67q90 0 132 -47.5t42 -145.5v-210zM243 91
q31 0 68 15v127l-57 -15q-42 -11 -61 -25t-19 -42q0 -60 69 -60zM418 722q-32 -146 -149 -146q-56 0 -95.5 38.5t-47.5 107.5h54q13 -35 39 -54t59 -19q72 0 102 73h38z" />
    <glyph glyph-name="Aogonek" unicode="&#x104;" horiz-adv-x="703" 
d="M408 240h-220l-55 -145q-14 -38 29 -49q4 -1 12.5 -2l22 -2.5l22.5 -2.5v-39h-227v39q12 1 40 11q27 10 40 45l243 611h84l224 -611q12 -35 39 -45q22 -10 39 -11v-39h-315v39q41 6 49 9q34 14 23 47zM208 293h182l-86 251zM687 -217q-40 -8 -70 -8q-57 0 -88.5 26
t-31.5 71q0 39 40.5 79t106.5 64l19 -1q-67 -48 -67 -116q0 -32 15 -50.5t44 -18.5q16 0 32 4v-50z" />
    <glyph glyph-name="aogonek" unicode="&#x105;" horiz-adv-x="544" 
d="M463 103q0 -36 13 -49t44 -13h17l1 -25q-60 -29 -119 -29q-60 0 -84 23.5t-24 68.5v4q-60 -95 -156 -95q-55 0 -88 32t-33 87q0 60 41.5 92t124.5 52l111 25v20q0 54 -21.5 79t-77.5 25q-70 0 -162 -23v62q131 67 239 67q90 0 132 -47.5t42 -145.5v-210zM243 91
q31 0 68 15v127l-57 -15q-42 -11 -61 -25t-19 -42q0 -60 69 -60zM537 -217q-40 -8 -70 -8q-57 0 -88.5 26t-31.5 71q0 39 40.5 79t106.5 64l19 -1q-67 -48 -67 -116q0 -32 15 -50.5t44 -18.5q16 0 32 4v-50z" />
    <glyph glyph-name="Cacute" unicode="&#x106;" horiz-adv-x="685" 
d="M408 659q-66 0 -109.5 -44t-60.5 -109.5t-17 -150.5q0 -319 187 -319q68 0 114 50.5t68 128.5h43v-159q-88 -71 -228 -71q-161 0 -262 97t-101 257q0 166 105.5 268t269.5 102q121 0 216 -54v-185h-43q-53 189 -182 189zM577 858l-176 -125h-38l-4 10l85 126h129z" />
    <glyph glyph-name="cacute" unicode="&#x107;" horiz-adv-x="514" 
d="M442 719l-174 -156h-32l-4 10l77 157h129zM474 61q-86 -76 -205 -76q-111 0 -172 65t-61 177q0 122 74.5 201t200.5 79q83 0 129.5 -29t46.5 -75q0 -33 -18 -53t-50 -20q-30 0 -47 19t-23.5 41t-23.5 41t-47 19q-46 0 -71 -50t-25 -128q0 -182 149 -182q71 0 141 26z" />
    <glyph glyph-name="Ccircumflex" unicode="&#x108;" horiz-adv-x="685" 
d="M408 659q-66 0 -109.5 -44t-60.5 -109.5t-17 -150.5q0 -319 187 -319q68 0 114 50.5t68 128.5h43v-159q-88 -71 -228 -71q-161 0 -262 97t-101 257q0 166 105.5 268t269.5 102q121 0 216 -54v-185h-43q-53 189 -182 189zM384 870h57l120 -131l-4 -10h-56l-100 62l-93 -62
h-41l-4 10z" />
    <glyph glyph-name="ccircumflex" unicode="&#x109;" horiz-adv-x="514" 
d="M429 574l-4 -11h-62l-91 83l-86 -83h-40l-4 11l110 156h64zM474 61q-86 -76 -205 -76q-111 0 -172 65t-61 177q0 122 74.5 201t200.5 79q83 0 129.5 -29t46.5 -75q0 -33 -18 -53t-50 -20q-30 0 -47 19t-23.5 41t-23.5 41t-47 19q-46 0 -71 -50t-25 -128q0 -182 149 -182
q71 0 141 26z" />
    <glyph glyph-name="Cdotaccent" unicode="&#x10a;" horiz-adv-x="685" 
d="M339 809q0 37 21.5 54.5t55.5 17.5t55.5 -17.5t21.5 -54.5t-21.5 -54.5t-55.5 -17.5t-55.5 17.5t-21.5 54.5zM408 659q-66 0 -109.5 -44t-60.5 -109.5t-17 -150.5q0 -319 187 -319q68 0 114 50.5t68 128.5h43v-159q-88 -71 -228 -71q-161 0 -262 97t-101 257
q0 166 105.5 268t269.5 102q121 0 216 -54v-185h-43q-53 189 -182 189z" />
    <glyph glyph-name="cdotaccent" unicode="&#x10b;" horiz-adv-x="514" 
d="M474 61q-86 -76 -205 -76q-111 0 -172 65t-61 177q0 122 74.5 201t200.5 79q83 0 129.5 -29t46.5 -75q0 -33 -18 -53t-50 -20q-30 0 -47 19t-23.5 41t-23.5 41t-47 19q-46 0 -71 -50t-25 -128q0 -182 149 -182q71 0 141 26zM207 668q0 39 23 57t58 18q80 0 80 -75
q0 -39 -22.5 -57.5t-57.5 -18.5q-36 0 -58.5 18.5t-22.5 57.5z" />
    <glyph glyph-name="Ccaron" unicode="&#x10c;" horiz-adv-x="685" 
d="M408 659q-66 0 -109.5 -44t-60.5 -109.5t-17 -150.5q0 -319 187 -319q68 0 114 50.5t68 128.5h43v-159q-88 -71 -228 -71q-161 0 -262 97t-101 257q0 166 105.5 268t269.5 102q121 0 216 -54v-185h-43q-53 189 -182 189zM436 729h-57l-120 131l4 10h56l100 -62l93 62h41
l4 -10z" />
    <glyph glyph-name="ccaron" unicode="&#x10d;" horiz-adv-x="514" 
d="M310 567h-64l-113 157l4 10h62l91 -83l86 83h40l4 -10zM474 61q-86 -76 -205 -76q-111 0 -172 65t-61 177q0 122 74.5 201t200.5 79q83 0 129.5 -29t46.5 -75q0 -33 -18 -53t-50 -20q-30 0 -47 19t-23.5 41t-23.5 41t-47 19q-46 0 -71 -50t-25 -128q0 -182 149 -182
q71 0 141 26z" />
    <glyph glyph-name="Dcaron" unicode="&#x10e;" horiz-adv-x="782" 
d="M392 729h-57l-120 131l4 10h56l100 -62l93 62h41l4 -10zM278 640v-587h70q63 0 106.5 23.5t65 67t30 91.5t8.5 112q0 138 -47 215.5t-159 77.5h-74zM45 39q29 2 43 7q25 10 25 49v503q0 38 -25 48q-4 2 -43 8v39h333q164 0 261.5 -85.5t97.5 -245.5q0 -167 -104.5 -264.5
t-265.5 -97.5h-322v39z" />
    <glyph glyph-name="dcaron" unicode="&#x10f;" horiz-adv-x="629" 
d="M711 733q-3 -45 -29.5 -109.5t-51.5 -100.5h-41l-4 10q28 88 28 211h94zM387 648q0 23 -4.5 31t-21.5 10q-9 2 -47 0v35q105 35 166 35q34 0 46.5 -14t12.5 -48v-594q0 -40 16.5 -52t57.5 -10l1 -25q-60 -29 -119 -29t-83 22t-25 63q-67 -87 -155 -87q-86 0 -140.5 69
t-54.5 175q0 129 83.5 203.5t201.5 74.5q28 0 65 -7v148zM318 88q30 0 69 16v327q-39 18 -76 18q-124 0 -124 -180q0 -181 131 -181z" />
    <glyph glyph-name="Dcroat" unicode="&#x110;" horiz-adv-x="784" 
d="M44 385h70v213q0 38 -25 48q-5 2 -42 8v39h333q164 0 261.5 -85.5t97.5 -245.5q0 -167 -104.5 -264.5t-265.5 -97.5h-322v39q29 2 43 7q24 10 24 49v231h-70v59zM279 640v-255h125v-59h-125v-273h70q63 0 106.5 23.5t65.5 67t30.5 91.5t8.5 112q0 138 -47.5 215.5
t-159.5 77.5h-74z" />
    <glyph glyph-name="dcroat" unicode="&#x111;" horiz-adv-x="629" 
d="M387 648q0 23 -4.5 31t-21.5 10q-9 2 -47 0v35q105 35 166 35q34 0 46.5 -14t12.5 -48v-64h76v-50h-76v-480q0 -40 16.5 -52t57.5 -10l1 -25q-60 -29 -119 -29t-83 22t-25 63q-67 -87 -155 -87q-86 0 -140.5 69t-54.5 175q0 129 83.5 203.5t201.5 74.5q28 0 65 -7v83
h-165v50h165v15zM318 88q30 0 69 16v327q-39 18 -76 18q-124 0 -124 -180q0 -181 131 -181z" />
    <glyph glyph-name="Emacron" unicode="&#x112;" horiz-adv-x="652" 
d="M230 819h256v-66h-256v66zM45 39q38 3 46 9q22 13 22 55v487q0 44 -24 55q-9 4 -44 9v39h536v-173h-42q-18 69 -51.5 94.5t-100.5 25.5h-109v-259h82q41 0 54 25q8 15 14 62h44v-228h-44q-8 51 -13 61q-13 27 -55 27h-82v-275h128q72 0 106 33t63 122l38 -4l-17 -204
h-551v39z" />
    <glyph glyph-name="emacron" unicode="&#x113;" horiz-adv-x="536" 
d="M481 61q-86 -76 -210 -76q-113 0 -174 62.5t-61 176.5q0 126 72.5 204.5t200.5 78.5q91 0 141 -43.5t53 -129.5q1 -12 -1 -39l-28 -42h-293q2 -79 37 -121.5t114 -42.5q74 0 147 26zM277 449q-83 0 -95 -146h169q2 22 2 34q0 52 -19.5 82t-56.5 30zM158 686h256v-66h-256
v66z" />
    <glyph glyph-name="Ebreve" unicode="&#x114;" horiz-adv-x="652" 
d="M493 862q-30 -120 -139 -120q-49 0 -86.5 30.5t-45.5 89.5h50q21 -51 91 -51q74 0 93 51h37zM45 39q38 3 46 9q22 13 22 55v487q0 44 -24 55q-9 4 -44 9v39h536v-173h-42q-18 69 -51.5 94.5t-100.5 25.5h-109v-259h82q41 0 54 25q8 15 14 62h44v-228h-44q-8 51 -13 61
q-13 27 -55 27h-82v-275h128q72 0 106 33t63 122l38 -4l-17 -204h-551v39z" />
    <glyph glyph-name="ebreve" unicode="&#x115;" horiz-adv-x="536" 
d="M481 61q-86 -76 -210 -76q-113 0 -174 62.5t-61 176.5q0 126 72.5 204.5t200.5 78.5q91 0 141 -43.5t53 -129.5q1 -12 -1 -39l-28 -42h-293q2 -79 37 -121.5t114 -42.5q74 0 147 26zM277 449q-83 0 -95 -146h169q2 22 2 34q0 52 -19.5 82t-56.5 30zM431 722
q-32 -146 -149 -146q-56 0 -95.5 38.5t-47.5 107.5h54q13 -35 39 -54t59 -19q72 0 102 73h38z" />
    <glyph glyph-name="Edotaccent" unicode="&#x116;" horiz-adv-x="652" 
d="M273 809q0 37 21.5 54.5t55.5 17.5t55.5 -17.5t21.5 -54.5t-21.5 -54.5t-55.5 -17.5t-55.5 17.5t-21.5 54.5zM45 39q38 3 46 9q22 13 22 55v487q0 44 -24 55q-9 4 -44 9v39h536v-173h-42q-18 69 -51.5 94.5t-100.5 25.5h-109v-259h82q41 0 54 25q8 15 14 62h44v-228h-44
q-8 51 -13 61q-13 27 -55 27h-82v-275h128q72 0 106 33t63 122l38 -4l-17 -204h-551v39z" />
    <glyph glyph-name="edotaccent" unicode="&#x117;" horiz-adv-x="536" 
d="M481 61q-86 -76 -210 -76q-113 0 -174 62.5t-61 176.5q0 126 72.5 204.5t200.5 78.5q91 0 141 -43.5t53 -129.5q1 -12 -1 -39l-28 -42h-293q2 -79 37 -121.5t114 -42.5q74 0 147 26zM277 449q-83 0 -95 -146h169q2 22 2 34q0 52 -19.5 82t-56.5 30zM200 668q0 39 23 57
t58 18q80 0 80 -75q0 -39 -22.5 -57.5t-57.5 -18.5q-36 0 -58.5 18.5t-22.5 57.5z" />
    <glyph glyph-name="Eogonek" unicode="&#x118;" horiz-adv-x="652" 
d="M596 -217q-40 -8 -70 -8q-57 0 -88.5 26t-31.5 71q0 39 40.5 79t106.5 64l19 -1q-67 -48 -67 -116q0 -32 15 -50.5t44 -18.5q16 0 32 4v-50zM45 39q38 3 46 9q22 13 22 55v487q0 44 -24 55q-9 4 -44 9v39h536v-173h-42q-18 69 -51.5 94.5t-100.5 25.5h-109v-259h82
q41 0 54 25q8 15 14 62h44v-228h-44q-8 51 -13 61q-13 27 -55 27h-82v-275h128q72 0 106 33t63 122l38 -4l-17 -204h-551v39z" />
    <glyph glyph-name="eogonek" unicode="&#x119;" horiz-adv-x="536" 
d="M424 -217q-40 -8 -70 -8q-57 0 -88.5 26t-31.5 71q0 39 40.5 79t106.5 64l19 -1q-67 -48 -67 -116q0 -32 15 -50.5t44 -18.5q16 0 32 4v-50zM481 61q-86 -76 -210 -76q-113 0 -174 62.5t-61 176.5q0 126 72.5 204.5t200.5 78.5q91 0 141 -43.5t53 -129.5q1 -12 -1 -39
l-28 -42h-293q2 -79 37 -121.5t114 -42.5q74 0 147 26zM277 449q-83 0 -95 -146h169q2 22 2 34q0 52 -19.5 82t-56.5 30z" />
    <glyph glyph-name="Ecaron" unicode="&#x11a;" horiz-adv-x="652" 
d="M371 729h-57l-120 131l4 10h56l100 -62l93 62h41l4 -10zM45 39q38 3 46 9q22 13 22 55v487q0 44 -24 55q-9 4 -44 9v39h536v-173h-42q-18 69 -51.5 94.5t-100.5 25.5h-109v-259h82q41 0 54 25q8 15 14 62h44v-228h-44q-8 51 -13 61q-13 27 -55 27h-82v-275h128
q72 0 106 33t63 122l38 -4l-17 -204h-551v39z" />
    <glyph glyph-name="ecaron" unicode="&#x11b;" horiz-adv-x="536" 
d="M324 567h-64l-113 157l4 10h62l91 -83l86 83h40l4 -10zM481 61q-86 -76 -210 -76q-113 0 -174 62.5t-61 176.5q0 126 72.5 204.5t200.5 78.5q91 0 141 -43.5t53 -129.5q1 -12 -1 -39l-28 -42h-293q2 -79 37 -121.5t114 -42.5q74 0 147 26zM277 449q-83 0 -95 -146h169
q2 22 2 34q0 52 -19.5 82t-56.5 30z" />
    <glyph glyph-name="Gcircumflex" unicode="&#x11c;" horiz-adv-x="739" 
d="M659 55q-41 -31 -110.5 -50.5t-143.5 -19.5q-163 2 -263 95t-100 257q0 168 109.5 270t275.5 102q137 0 232 -54v-179h-38q-48 186 -200 186q-56 0 -96.5 -25t-62.5 -69.5t-31.5 -96.5t-9.5 -115q0 -155 45 -239.5t150 -84.5q34 0 78 21v178q0 38 -25 48q-3 1 -47 8v39
h286v-39q-21 -3 -33 -15q-16 -13 -16 -41v-176zM392 870h57l120 -131l-4 -10h-56l-100 62l-93 -62h-41l-4 10z" />
    <glyph glyph-name="gcircumflex" unicode="&#x11d;" horiz-adv-x="577" 
d="M409 574l-4 -11h-62l-91 83l-86 -83h-40l-4 11l110 156h64zM270 191q-44 0 -87 8q-11 -16 -11 -31q0 -37 69 -37h77q225 0 225 -142q0 -89 -81 -152t-224 -63q-104 0 -162.5 34.5t-58.5 90.5q0 39 29.5 65.5t91.5 47.5q-73 22 -73 85q0 66 89 110q-109 37 -109 135
q0 72 60 118.5t164 46.5q109 0 168 -47q20 10 33 34.5t26.5 41.5t38.5 17q23 0 36 -12t13 -30q0 -35 -35.5 -54t-85.5 -23q27 -34 27 -80q0 -73 -62 -118t-158 -45zM232 1q-37 0 -62 4q-29 -28 -29 -72q0 -48 32.5 -76t98.5 -28t104 28t38 76q0 36 -25.5 52t-82.5 16h-74z
M336 346q0 53 -19.5 81.5t-55.5 28.5q-67 0 -67 -104q0 -110 75 -110q67 0 67 104z" />
    <glyph glyph-name="Gbreve" unicode="&#x11e;" horiz-adv-x="739" 
d="M559 862q-30 -120 -139 -120q-49 0 -86.5 30.5t-45.5 89.5h50q21 -51 91 -51q74 0 93 51h37zM659 55q-41 -31 -110.5 -50.5t-143.5 -19.5q-163 2 -263 95t-100 257q0 168 109.5 270t275.5 102q137 0 232 -54v-179h-38q-48 186 -200 186q-56 0 -96.5 -25t-62.5 -69.5
t-31.5 -96.5t-9.5 -115q0 -155 45 -239.5t150 -84.5q34 0 78 21v178q0 38 -25 48q-3 1 -47 8v39h286v-39q-21 -3 -33 -15q-16 -13 -16 -41v-176z" />
    <glyph glyph-name="gbreve" unicode="&#x11f;" horiz-adv-x="577" 
d="M270 191q-44 0 -87 8q-11 -16 -11 -31q0 -37 69 -37h77q225 0 225 -142q0 -89 -81 -152t-224 -63q-104 0 -162.5 34.5t-58.5 90.5q0 39 29.5 65.5t91.5 47.5q-73 22 -73 85q0 66 89 110q-109 37 -109 135q0 72 60 118.5t164 46.5q109 0 168 -47q20 10 33 34.5t26.5 41.5
t38.5 17q23 0 36 -12t13 -30q0 -35 -35.5 -54t-85.5 -23q27 -34 27 -80q0 -73 -62 -118t-158 -45zM232 1q-37 0 -62 4q-29 -28 -29 -72q0 -48 32.5 -76t98.5 -28t104 28t38 76q0 36 -25.5 52t-82.5 16h-74zM336 346q0 53 -19.5 81.5t-55.5 28.5q-67 0 -67 -104
q0 -110 75 -110q67 0 67 104zM413 722q-32 -146 -149 -146q-56 0 -95.5 38.5t-47.5 107.5h54q13 -35 39 -54t59 -19q72 0 102 73h38z" />
    <glyph glyph-name="Gdotaccent" unicode="&#x120;" horiz-adv-x="739" 
d="M347 809q0 37 21.5 54.5t55.5 17.5t55.5 -17.5t21.5 -54.5t-21.5 -54.5t-55.5 -17.5t-55.5 17.5t-21.5 54.5zM659 55q-41 -31 -110.5 -50.5t-143.5 -19.5q-163 2 -263 95t-100 257q0 168 109.5 270t275.5 102q137 0 232 -54v-179h-38q-48 186 -200 186q-56 0 -96.5 -25
t-62.5 -69.5t-31.5 -96.5t-9.5 -115q0 -155 45 -239.5t150 -84.5q34 0 78 21v178q0 38 -25 48q-3 1 -47 8v39h286v-39q-21 -3 -33 -15q-16 -13 -16 -41v-176z" />
    <glyph glyph-name="gdotaccent" unicode="&#x121;" horiz-adv-x="577" 
d="M270 191q-44 0 -87 8q-11 -16 -11 -31q0 -37 69 -37h77q225 0 225 -142q0 -89 -81 -152t-224 -63q-104 0 -162.5 34.5t-58.5 90.5q0 39 29.5 65.5t91.5 47.5q-73 22 -73 85q0 66 89 110q-109 37 -109 135q0 72 60 118.5t164 46.5q109 0 168 -47q20 10 33 34.5t26.5 41.5
t38.5 17q23 0 36 -12t13 -30q0 -35 -35.5 -54t-85.5 -23q27 -34 27 -80q0 -73 -62 -118t-158 -45zM232 1q-37 0 -62 4q-29 -28 -29 -72q0 -48 32.5 -76t98.5 -28t104 28t38 76q0 36 -25.5 52t-82.5 16h-74zM336 346q0 53 -19.5 81.5t-55.5 28.5q-67 0 -67 -104
q0 -110 75 -110q67 0 67 104zM191 668q0 39 23 57t58 18q80 0 80 -75q0 -39 -22.5 -57.5t-57.5 -18.5q-36 0 -58.5 18.5t-22.5 57.5z" />
    <glyph glyph-name="Gcommaaccent" unicode="&#x122;" horiz-adv-x="739" 
d="M455 -129q0 -77 -114 -136l-21 26q61 39 65 75q-22 0 -37.5 12.5t-15.5 34.5q0 27 17 41.5t41 14.5q65 0 65 -68zM659 55q-41 -31 -110.5 -50.5t-143.5 -19.5q-163 2 -263 95t-100 257q0 168 109.5 270t275.5 102q137 0 232 -54v-179h-38q-48 186 -200 186
q-56 0 -96.5 -25t-62.5 -69.5t-31.5 -96.5t-9.5 -115q0 -155 45 -239.5t150 -84.5q34 0 78 21v178q0 38 -25 48q-3 1 -47 8v39h286v-39q-21 -3 -33 -15q-16 -13 -16 -41v-176z" />
    <glyph glyph-name="gcommaaccent" unicode="&#x123;" horiz-adv-x="577" 
d="M211 629q0 77 114 136l21 -26q-61 -39 -65 -75q22 0 37.5 -12.5t15.5 -34.5q0 -27 -17 -41.5t-41 -14.5q-65 0 -65 68zM270 191q-44 0 -87 8q-11 -16 -11 -31q0 -37 69 -37h77q225 0 225 -142q0 -89 -81 -152t-224 -63q-104 0 -162.5 34.5t-58.5 90.5q0 39 29.5 65.5
t91.5 47.5q-73 22 -73 85q0 66 89 110q-109 37 -109 135q0 72 60 118.5t164 46.5q109 0 168 -47q20 10 33 34.5t26.5 41.5t38.5 17q23 0 36 -12t13 -30q0 -35 -35.5 -54t-85.5 -23q27 -34 27 -80q0 -73 -62 -118t-158 -45zM232 1q-37 0 -62 4q-29 -28 -29 -72
q0 -48 32.5 -76t98.5 -28t104 28t38 76q0 36 -25.5 52t-82.5 16h-74zM336 346q0 53 -19.5 81.5t-55.5 28.5q-67 0 -67 -104q0 -110 75 -110q67 0 67 104z" />
    <glyph glyph-name="Hcircumflex" unicode="&#x124;" horiz-adv-x="838" 
d="M560 598q0 36 -25 48q-2 1 -43 8v39h301v-39q-32 -2 -43 -7q-25 -12 -25 -49v-503q0 -35 25 -48q2 -1 43 -8v-39h-301v39q30 2 44 7q24 10 24 49v241h-282v-241q0 -36 25 -48q2 -1 43 -8v-39h-301v39q29 2 43 7q25 12 25 49v503q0 36 -25 48q-2 1 -43 8v39h301v-39
q-30 -2 -44 -7q-24 -11 -24 -49v-211h282v211zM401 870h57l120 -131l-4 -10h-56l-100 62l-93 -62h-41l-4 10z" />
    <glyph glyph-name="Hbar" unicode="&#x126;" horiz-adv-x="839" 
d="M560 598q0 36 -25 48q-2 1 -43 8v39h301v-39q-32 -2 -43 -7q-25 -12 -25 -49v-55h65v-50h-65v-398q0 -35 25 -48q2 -1 43 -8v-39h-301v39q30 2 44 7q24 10 24 49v241h-282v-241q0 -36 25 -48q2 -1 43 -8v-39h-301v39q29 2 43 7q25 12 25 49v398h-65v50h65v55q0 36 -25 48
q-2 1 -43 8v39h301v-39q-30 -2 -44 -7q-24 -11 -24 -49v-55h282v55zM278 387h282v106h-282v-106z" />
    <glyph glyph-name="hbar" unicode="&#x127;" horiz-adv-x="648" 
d="M10 627h74v21q0 24 -6 32.5t-28 10.5q-13 0 -39 -2v35q105 35 165 35q35 0 47.5 -14t12.5 -48v-70h167v-50h-167v-161q86 91 185 91q75 0 110 -41.5t35 -133.5v-239q0 -35 25 -48q15 -7 37 -8v-37h-276v37q26 2 37 7q25 10 25 49v196q0 63 -19 92.5t-74 29.5
q-39 0 -85 -18v-300q0 -36 26 -48q15 -7 36 -8v-37h-275v37q23 2 37 7q24 10 24 49v484h-74v50z" />
    <glyph glyph-name="itilde" unicode="&#x129;" horiz-adv-x="333" 
d="M249 93q0 -36 25 -48q15 -7 36 -8v-37h-275v37q23 2 37 7q25 10 25 49v304q0 25 -7.5 33.5t-32.5 8.5q-12 0 -34 -2v35q105 35 165 35q35 0 48 -14.5t13 -47.5v-352zM305 715q-1 -58 -24.5 -89.5t-68.5 -31.5q-31 0 -75 18.5t-55 18.5q-32 0 -42 -41h-37q0 51 23.5 86
t63.5 35q25 0 69 -17.5t61 -17.5q39 0 45 39h40z" />
    <glyph glyph-name="Imacron" unicode="&#x12a;" horiz-adv-x="391" 
d="M278 95q0 -36 25 -48q2 -1 43 -8v-39h-301v39q29 2 43 7q25 12 25 49v503q0 36 -25 48q-2 1 -43 8v39h301v-39q-30 -2 -44 -7q-24 -11 -24 -49v-503zM68 819h256v-66h-256v66z" />
    <glyph glyph-name="imacron" unicode="&#x12b;" horiz-adv-x="333" 
d="M249 93q0 -36 25 -48q15 -7 36 -8v-37h-275v37q23 2 37 7q25 10 25 49v304q0 25 -7.5 33.5t-32.5 8.5q-12 0 -34 -2v35q105 35 165 35q35 0 48 -14.5t13 -47.5v-352zM35 686h256v-66h-256v66z" />
    <glyph glyph-name="Ibreve" unicode="&#x12c;" horiz-adv-x="391" 
d="M278 95q0 -36 25 -48q2 -1 43 -8v-39h-301v39q29 2 43 7q25 12 25 49v503q0 36 -25 48q-2 1 -43 8v39h301v-39q-30 -2 -44 -7q-24 -11 -24 -49v-503zM332 862q-30 -120 -139 -120q-49 0 -86.5 30.5t-45.5 89.5h50q21 -51 91 -51q74 0 93 51h37z" />
    <glyph glyph-name="ibreve" unicode="&#x12d;" horiz-adv-x="333" 
d="M249 93q0 -36 25 -48q15 -7 36 -8v-37h-275v37q23 2 37 7q25 10 25 49v304q0 25 -7.5 33.5t-32.5 8.5q-12 0 -34 -2v35q105 35 165 35q35 0 48 -14.5t13 -47.5v-352zM317 722q-32 -146 -149 -146q-56 0 -95.5 38.5t-47.5 107.5h54q13 -35 39 -54t59 -19q72 0 102 73h38z
" />
    <glyph glyph-name="Iogonek" unicode="&#x12e;" horiz-adv-x="391" 
d="M278 95q0 -36 25 -48q2 -1 43 -8v-39h-301v39q29 2 43 7q25 12 25 49v503q0 36 -25 48q-2 1 -43 8v39h301v-39q-30 -2 -44 -7q-24 -11 -24 -49v-503zM292 -217q-40 -8 -70 -8q-57 0 -88.5 26t-31.5 71q0 39 40.5 79t106.5 64l19 -1q-67 -48 -67 -116q0 -32 15 -50.5
t44 -18.5q16 0 32 4v-50z" />
    <glyph glyph-name="iogonek" unicode="&#x12f;" horiz-adv-x="333" 
d="M249 93q0 -36 25 -48q15 -7 36 -8v-37h-275v37q23 2 37 7q25 10 25 49v304q0 25 -7.5 33.5t-32.5 8.5q-12 0 -34 -2v35q105 35 165 35q35 0 48 -14.5t13 -47.5v-352zM246 -217q-40 -8 -70 -8q-57 0 -88.5 26t-31.5 71q0 39 40.5 79t106.5 64l19 -1q-67 -48 -67 -116
q0 -32 15 -50.5t44 -18.5q16 0 32 4v-50zM85 668q0 39 23 57t58 18q80 0 80 -75q0 -39 -22.5 -57.5t-57.5 -18.5q-36 0 -58.5 18.5t-22.5 57.5z" />
    <glyph glyph-name="Idotaccent" unicode="&#x130;" horiz-adv-x="391" 
d="M278 95q0 -36 25 -48q2 -1 43 -8v-39h-301v39q29 2 43 7q25 12 25 49v503q0 36 -25 48q-2 1 -43 8v39h301v-39q-30 -2 -44 -7q-24 -11 -24 -49v-503zM118 809q0 37 21.5 54.5t55.5 17.5t55.5 -17.5t21.5 -54.5t-21.5 -54.5t-55.5 -17.5t-55.5 17.5t-21.5 54.5z" />
    <glyph glyph-name="dotlessi" unicode="&#x131;" horiz-adv-x="333" 
d="M249 93q0 -36 25 -48q15 -7 36 -8v-37h-275v37q23 2 37 7q25 10 25 49v304q0 25 -7.5 33.5t-32.5 8.5q-12 0 -34 -2v35q105 35 165 35q35 0 48 -14.5t13 -47.5v-352z" />
    <glyph glyph-name="Jcircumflex" unicode="&#x134;" horiz-adv-x="378" 
d="M272 71q0 -71 -30.5 -137.5t-93 -112.5t-143.5 -46q-65 0 -95.5 21.5t-30.5 57.5q0 27 16.5 46t45.5 19q26 0 41 -15t18.5 -33.5t13 -33.5t26.5 -15q39 0 53 61t14 191v524q0 36 -26 48q-2 1 -42 8v39h300v-39q-30 -2 -43 -7q-24 -11 -24 -49v-527zM174 870h57l120 -131
l-4 -10h-56l-100 62l-93 -62h-41l-4 10z" />
    <glyph glyph-name="kcommaaccent" unicode="&#x137;" horiz-adv-x="602" 
d="M377 -129q0 -77 -114 -136l-21 26q61 39 65 75q-22 0 -37.5 12.5t-15.5 34.5q0 27 17 41.5t41 14.5q65 0 65 -68zM84 648q0 25 -7 33.5t-30 9.5q-14 0 -36 -2v35q105 35 165 35q35 0 47.5 -14t12.5 -48v-604q0 -36 26 -48q15 -7 36 -8v-37h-275v37q23 2 37 7q24 10 24 49
v555zM242 258l110 92q37 32 37 62q1 21 -16 33.5t-47 13.5v34h253v-34q-42 -5 -111 -62l-101 -85l127 -182q27 -38 46 -56t55 -38l-5 -36h-184l-164 246v12z" />
    <glyph glyph-name="Lacute" unicode="&#x139;" 
d="M353 858l-176 -125h-38l-4 10l85 126h129zM45 39q36 2 48 10q20 12 20 54v495q0 36 -25 48q-2 1 -43 8v39h301v-39q-30 -2 -44 -7q-24 -11 -24 -49v-545h75q77 0 117 39.5t69 130.5l38 -4l-14 -219h-518v39z" />
    <glyph glyph-name="lacute" unicode="&#x13a;" horiz-adv-x="326" 
d="M318 918l-176 -125h-38l-4 10l85 126h129zM87 648q0 24 -6 32.5t-29 10.5q-13 0 -39 -2v35q105 35 165 35q35 0 48 -14.5t13 -47.5v-604q0 -35 25 -48q15 -7 37 -8v-37h-276v37q25 2 37 7q25 10 25 49v555z" />
    <glyph glyph-name="Lcommaaccent" unicode="&#x13b;" 
d="M377 -129q0 -77 -114 -136l-21 26q61 39 65 75q-22 0 -37.5 12.5t-15.5 34.5q0 27 17 41.5t41 14.5q65 0 65 -68zM45 39q36 2 48 10q20 12 20 54v495q0 36 -25 48q-2 1 -43 8v39h301v-39q-30 -2 -44 -7q-24 -11 -24 -49v-545h75q77 0 117 39.5t69 130.5l38 -4l-14 -219
h-518v39z" />
    <glyph glyph-name="lcommaaccent" unicode="&#x13c;" horiz-adv-x="326" 
d="M227 -129q0 -77 -114 -136l-21 26q61 39 65 75q-22 0 -37.5 12.5t-15.5 34.5q0 27 17 41.5t41 14.5q65 0 65 -68zM87 648q0 24 -6 32.5t-29 10.5q-13 0 -39 -2v35q105 35 165 35q35 0 48 -14.5t13 -47.5v-604q0 -35 25 -48q15 -7 37 -8v-37h-276v37q25 2 37 7
q25 10 25 49v555z" />
    <glyph glyph-name="Lcaron" unicode="&#x13d;" 
d="M511 733q-3 -45 -29.5 -109.5t-51.5 -100.5h-41l-4 10q28 88 28 211h94zM45 39q36 2 48 10q20 12 20 54v495q0 36 -25 48q-2 1 -43 8v39h301v-39q-30 -2 -44 -7q-24 -11 -24 -49v-545h75q77 0 117 39.5t69 130.5l38 -4l-14 -219h-518v39z" />
    <glyph glyph-name="lcaron" unicode="&#x13e;" horiz-adv-x="326" 
d="M400 733q-3 -45 -29.5 -109.5t-51.5 -100.5h-41l-4 10q28 88 28 211h94zM87 648q0 24 -6 32.5t-29 10.5q-13 0 -39 -2v35q105 35 165 35q35 0 48 -14.5t13 -47.5v-604q0 -35 25 -48q15 -7 37 -8v-37h-276v37q25 2 37 7q25 10 25 49v555z" />
    <glyph glyph-name="Ldot" unicode="&#x13f;" 
d="M45 39q36 2 48 10q20 12 20 54v495q0 36 -25 48q-2 1 -43 8v39h301v-39q-30 -2 -44 -7q-24 -11 -24 -49v-545h75q77 0 117 39.5t69 130.5l38 -4l-14 -219h-518v39zM382 385q0 37 22 57t54 20q33 0 55.5 -20t22.5 -57t-22.5 -57t-55.5 -20q-32 0 -54 20t-22 57z" />
    <glyph glyph-name="ldot" unicode="&#x140;" horiz-adv-x="404" 
d="M87 648q0 24 -6 32.5t-29 10.5q-13 0 -39 -2v35q105 35 165 35q35 0 48 -14.5t13 -47.5v-604q0 -35 25 -48q15 -7 37 -8v-37h-276v37q25 2 37 7q25 10 25 49v555zM287 355q0 37 22 57t54 20q33 0 55.5 -20t22.5 -57t-22.5 -57t-55.5 -20q-32 0 -54 20t-22 57z" />
    <glyph glyph-name="Lslash" unicode="&#x141;" horiz-adv-x="601" 
d="M46 39q36 2 48 10q20 12 20 54v159l-68 -33v62l68 33v274q0 36 -25 48q-2 1 -43 8v39h301v-39q-30 -2 -44 -7q-24 -11 -24 -49v-194l122 59v-62l-122 -59v-289h75q77 0 117 39.5t69 130.5l38 -4l-14 -219h-518v39z" />
    <glyph glyph-name="lslash" unicode="&#x142;" horiz-adv-x="332" 
d="M90 301l-69 -37v62l69 37v285q0 24 -6 32.5t-29 10.5q-13 0 -39 -2v35q105 35 165 35q35 0 48 -14.5t13 -47.5v-253l70 38v-62l-70 -38v-289q0 -35 25 -48q15 -7 37 -8v-37h-276v37q25 2 37 7q25 10 25 49v208z" />
    <glyph glyph-name="Nacute" unicode="&#x143;" horiz-adv-x="804" 
d="M577 858l-176 -125h-38l-4 10l85 126h129zM587 -4l-394 530v-394q0 -53 32 -74q26 -17 64 -21v-37h-259v37q34 5 57 17q39 20 39 78v408q0 104 -91 117v36h234l352 -458v326q0 53 -32 74q-26 17 -64 21v37h259v-37q-34 -5 -57 -17q-39 -20 -39 -78v-565h-101z" />
    <glyph glyph-name="nacute" unicode="&#x144;" horiz-adv-x="660" 
d="M485 719l-174 -156h-32l-4 10l77 157h129zM249 93q0 -36 25 -48q15 -7 36 -8v-37h-275v37q23 2 37 7q25 10 25 49v304q0 24 -7 32.5t-30 9.5q-15 0 -37 -2v35q105 35 165 35q35 0 48 -14.5t13 -47.5v-28q87 90 184 90q75 0 110 -41.5t35 -133.5v-239q0 -35 25 -48
q15 -7 37 -8v-37h-276v37q23 2 38 7q24 10 24 49v196q0 63 -19 92.5t-74 29.5q-39 0 -84 -17v-301z" />
    <glyph glyph-name="Ncommaaccent" unicode="&#x145;" horiz-adv-x="804" 
d="M472 -129q0 -77 -114 -136l-21 26q61 39 65 75q-22 0 -37.5 12.5t-15.5 34.5q0 27 17 41.5t41 14.5q65 0 65 -68zM587 -4l-394 530v-394q0 -53 32 -74q26 -17 64 -21v-37h-259v37q34 5 57 17q39 20 39 78v408q0 104 -91 117v36h234l352 -458v326q0 53 -32 74
q-26 17 -64 21v37h259v-37q-34 -5 -57 -17q-39 -20 -39 -78v-565h-101z" />
    <glyph glyph-name="ncommaaccent" unicode="&#x146;" horiz-adv-x="660" 
d="M396 -129q0 -77 -114 -136l-21 26q61 39 65 75q-22 0 -37.5 12.5t-15.5 34.5q0 27 17 41.5t41 14.5q65 0 65 -68zM249 93q0 -36 25 -48q15 -7 36 -8v-37h-275v37q23 2 37 7q25 10 25 49v304q0 24 -7 32.5t-30 9.5q-15 0 -37 -2v35q105 35 165 35q35 0 48 -14.5t13 -47.5
v-28q87 90 184 90q75 0 110 -41.5t35 -133.5v-239q0 -35 25 -48q15 -7 37 -8v-37h-276v37q23 2 38 7q24 10 24 49v196q0 63 -19 92.5t-74 29.5q-39 0 -84 -17v-301z" />
    <glyph glyph-name="Ncaron" unicode="&#x147;" horiz-adv-x="804" 
d="M434 729h-57l-120 131l4 10h56l100 -62l93 62h41l4 -10zM587 -4l-394 530v-394q0 -53 32 -74q26 -17 64 -21v-37h-259v37q34 5 57 17q39 20 39 78v408q0 104 -91 117v36h234l352 -458v326q0 53 -32 74q-26 17 -64 21v37h259v-37q-34 -5 -57 -17q-39 -20 -39 -78v-565
h-101z" />
    <glyph glyph-name="ncaron" unicode="&#x148;" horiz-adv-x="660" 
d="M372 567h-64l-113 157l4 10h62l91 -83l86 83h40l4 -10zM249 93q0 -36 25 -48q15 -7 36 -8v-37h-275v37q23 2 37 7q25 10 25 49v304q0 24 -7 32.5t-30 9.5q-15 0 -37 -2v35q105 35 165 35q35 0 48 -14.5t13 -47.5v-28q87 90 184 90q75 0 110 -41.5t35 -133.5v-239
q0 -35 25 -48q15 -7 37 -8v-37h-276v37q23 2 38 7q24 10 24 49v196q0 63 -19 92.5t-74 29.5q-39 0 -84 -17v-301z" />
    <glyph glyph-name="Eng" unicode="&#x14a;" horiz-adv-x="804" 
d="M553 -176q35 0 49 41t17 131h-32l-394 530v-394q0 -53 32 -74q26 -17 64 -21v-37h-259v37q34 5 57 17q39 20 39 78v408q0 104 -91 117v36h234l351 -457v325q0 53 -32 74q-26 17 -64 21v37h259v-37q-34 -5 -57 -17q-39 -20 -39 -78v-542q0 -51 -6.5 -90t-23 -76.5t-52 -58
t-87.5 -20.5q-40 0 -66 17t-26 43q0 22 12 35.5t33 13.5q16 0 27 -9t15.5 -20.5t14.5 -20.5t25 -9z" />
    <glyph glyph-name="Omacron" unicode="&#x14c;" horiz-adv-x="807" 
d="M275 819h256v-66h-256v66zM765 352q0 -160 -104 -263.5t-265 -103.5q-155 0 -254.5 96.5t-99.5 259.5q0 167 104 267.5t262 100.5q157 0 257 -99.5t100 -257.5zM586 343q0 71 -8 125t-28 100t-57 70t-91 24t-91 -24.5t-56 -70.5t-26.5 -97.5t-7.5 -119.5
q0 -155 40 -235.5t139 -80.5q186 0 186 309z" />
    <glyph glyph-name="Obreve" unicode="&#x14e;" horiz-adv-x="807" 
d="M537 862q-30 -120 -139 -120q-49 0 -86.5 30.5t-45.5 89.5h50q21 -51 91 -51q74 0 93 51h37zM765 352q0 -160 -104 -263.5t-265 -103.5q-155 0 -254.5 96.5t-99.5 259.5q0 167 104 267.5t262 100.5q157 0 257 -99.5t100 -257.5zM586 343q0 71 -8 125t-28 100t-57 70
t-91 24t-91 -24.5t-56 -70.5t-26.5 -97.5t-7.5 -119.5q0 -155 40 -235.5t139 -80.5q186 0 186 309z" />
    <glyph glyph-name="obreve" unicode="&#x14f;" 
d="M564 270q0 -121 -76 -203t-205 -82q-111 0 -179.5 63.5t-68.5 178.5q0 127 81 203.5t206 76.5q111 0 176.5 -63t65.5 -174zM402 237q0 212 -110 212q-53 0 -74 -47t-21 -138q0 -221 108 -221q97 0 97 194zM440 722q-32 -146 -149 -146q-56 0 -95.5 38.5t-47.5 107.5h54
q13 -35 39 -54t59 -19q72 0 102 73h38z" />
    <glyph glyph-name="Ohungarumlaut" unicode="&#x150;" horiz-adv-x="807" 
d="M765 352q0 -160 -104 -263.5t-265 -103.5q-155 0 -254.5 96.5t-99.5 259.5q0 167 104 267.5t262 100.5q157 0 257 -99.5t100 -257.5zM586 343q0 71 -8 125t-28 100t-57 70t-91 24t-91 -24.5t-56 -70.5t-26.5 -97.5t-7.5 -119.5q0 -155 40 -235.5t139 -80.5q186 0 186 309
zM477 850l-154 -117h-32l-4 10l77 118h109zM653 850l-186 -117h-38l-4 10l104 118h120z" />
    <glyph glyph-name="ohungarumlaut" unicode="&#x151;" 
d="M370 719l-139 -160h-32l-4 10l48 161h123zM547 719l-164 -160h-32l-4 10l74 161h122zM564 270q0 -121 -76 -203t-205 -82q-111 0 -179.5 63.5t-68.5 178.5q0 127 81 203.5t206 76.5q111 0 176.5 -63t65.5 -174zM402 237q0 212 -110 212q-53 0 -74 -47t-21 -138
q0 -221 108 -221q97 0 97 194z" />
    <glyph glyph-name="OE" unicode="&#x152;" horiz-adv-x="1043" 
d="M510 0q-54 -15 -114 -15q-155 0 -254.5 96.5t-99.5 259.5q0 167 104 267.5t262 100.5q68 0 117 -16h447v-173h-42q-18 69 -51.5 94.5t-100.5 25.5h-109v-259h86q40 0 55 25q7 15 13 62h45v-228h-45q-8 51 -13 61q-14 27 -55 27h-86v-275h128q72 0 106 33t63 122l38 -4
l-17 -204h-477zM409 34q57 0 95 24v575q-41 29 -96 29q-56 0 -94.5 -23.5t-58 -68.5t-27 -97t-7.5 -123q0 -163 40.5 -239.5t147.5 -76.5z" />
    <glyph glyph-name="oe" unicode="&#x153;" horiz-adv-x="905" 
d="M850 61q-86 -76 -210 -76q-125 0 -187 77q-70 -77 -170 -77q-111 0 -179.5 63.5t-68.5 178.5q0 127 81 203.5t206 76.5q94 0 158 -77q75 77 198 77q91 0 141 -43.5t53 -129.5q1 -12 -1 -39l-28 -42h-293q2 -79 37 -121.5t114 -42.5q74 0 147 26zM402 237q0 212 -110 212
q-53 0 -74 -47t-21 -138q0 -221 108 -221q97 0 97 194zM646 449q-83 0 -95 -146h169q2 22 2 34q0 52 -19.5 82t-56.5 30z" />
    <glyph glyph-name="Racute" unicode="&#x154;" horiz-adv-x="728" 
d="M401 693q100 0 165.5 -43t65.5 -135q0 -65 -41.5 -111.5t-109.5 -72.5l154 -214q29 -40 53 -56.5t56 -20.5l-3 -40h-219l-207 309h-37v-214q0 -38 25 -48q3 -1 46 -8v-39h-304v39q29 2 43 7q25 10 25 49v503q0 38 -25 48q-4 2 -43 8v39h356zM278 640v-278h57
q68 0 98 34.5t30 107.5q0 136 -112 136h-73zM510 858l-176 -125h-38l-4 10l85 126h129z" />
    <glyph glyph-name="racute" unicode="&#x155;" horiz-adv-x="485" 
d="M423 719l-174 -156h-32l-4 10l77 157h129zM249 93q0 -46 50 -50q1 0 17 -1t21 -1v-41h-302v37q23 2 37 7q25 10 25 49v304q0 25 -8 33.5t-35 8.5q-13 0 -31 -2v35q105 35 165 35q35 0 48 -14.5t13 -47.5v-21q68 82 143 82q37 0 60.5 -20t23.5 -58q0 -33 -20 -54.5
t-53 -21.5q-23 0 -38 15t-28.5 30.5t-34.5 15.5t-53 -18v-302z" />
    <glyph glyph-name="Rcommaaccent" unicode="&#x156;" horiz-adv-x="728" 
d="M433 -129q0 -77 -114 -136l-21 26q61 39 65 75q-22 0 -37.5 12.5t-15.5 34.5q0 27 17 41.5t41 14.5q65 0 65 -68zM401 693q100 0 165.5 -43t65.5 -135q0 -65 -41.5 -111.5t-109.5 -72.5l154 -214q29 -40 53 -56.5t56 -20.5l-3 -40h-219l-207 309h-37v-214q0 -38 25 -48
q3 -1 46 -8v-39h-304v39q29 2 43 7q25 10 25 49v503q0 38 -25 48q-4 2 -43 8v39h356zM278 640v-278h57q68 0 98 34.5t30 107.5q0 136 -112 136h-73z" />
    <glyph glyph-name="rcommaaccent" unicode="&#x157;" horiz-adv-x="485" 
d="M242 -129q0 -77 -114 -136l-21 26q61 39 65 75q-22 0 -37.5 12.5t-15.5 34.5q0 27 17 41.5t41 14.5q65 0 65 -68zM249 93q0 -46 50 -50q1 0 17 -1t21 -1v-41h-302v37q23 2 37 7q25 10 25 49v304q0 25 -8 33.5t-35 8.5q-13 0 -31 -2v35q105 35 165 35q35 0 48 -14.5
t13 -47.5v-21q68 82 143 82q37 0 60.5 -20t23.5 -58q0 -33 -20 -54.5t-53 -21.5q-23 0 -38 15t-28.5 30.5t-34.5 15.5t-53 -18v-302z" />
    <glyph glyph-name="Rcaron" unicode="&#x158;" horiz-adv-x="728" 
d="M370 729h-57l-120 131l4 10h56l100 -62l93 62h41l4 -10zM401 693q100 0 165.5 -43t65.5 -135q0 -65 -41.5 -111.5t-109.5 -72.5l154 -214q29 -40 53 -56.5t56 -20.5l-3 -40h-219l-207 309h-37v-214q0 -38 25 -48q3 -1 46 -8v-39h-304v39q29 2 43 7q25 10 25 49v503
q0 38 -25 48q-4 2 -43 8v39h356zM278 640v-278h57q68 0 98 34.5t30 107.5q0 136 -112 136h-73z" />
    <glyph glyph-name="rcaron" unicode="&#x159;" horiz-adv-x="485" 
d="M299 567h-64l-113 157l4 10h62l91 -83l86 83h40l4 -10zM249 93q0 -46 50 -50q1 0 17 -1t21 -1v-41h-302v37q23 2 37 7q25 10 25 49v304q0 25 -8 33.5t-35 8.5q-13 0 -31 -2v35q105 35 165 35q35 0 48 -14.5t13 -47.5v-21q68 82 143 82q37 0 60.5 -20t23.5 -58
q0 -33 -20 -54.5t-53 -21.5q-23 0 -38 15t-28.5 30.5t-34.5 15.5t-53 -18v-302z" />
    <glyph glyph-name="Sacute" unicode="&#x15a;" horiz-adv-x="614" 
d="M282 -15q-131 0 -227 55v183h38q33 -99 83 -142.5t122 -43.5q60 0 92.5 27.5t32.5 76.5q0 88 -112 124l-68 24q-86 28 -135 72.5t-49 124.5q0 96 72 159t201 63q116 -2 209 -55v-179h-45q-25 97 -66.5 140.5t-108.5 43.5q-58 0 -89.5 -28.5t-31.5 -75.5q0 -82 97 -115
l80 -26q100 -33 146 -81t46 -121q0 -103 -80.5 -164.5t-206.5 -61.5zM477 858l-176 -125h-38l-4 10l85 126h129z" />
    <glyph glyph-name="sacute" unicode="&#x15b;" horiz-adv-x="482" 
d="M407 719l-174 -156h-32l-4 10l77 157h129zM211 -14q-90 0 -167 34l-3 139l34 4q24 -59 62.5 -91.5t86.5 -32.5q39 0 61.5 18t22.5 48q0 27 -19.5 41.5t-57.5 25.5l-49 14q-55 16 -93 53t-38 96q0 75 61.5 123.5t155.5 48.5q86 0 154 -38l8 -121l-42 -3q-30 61 -60 85.5
t-72 24.5q-35 0 -53.5 -17.5t-18.5 -45.5q0 -50 67 -71l59 -17q134 -36 134 -143q0 -82 -69.5 -128.5t-163.5 -46.5z" />
    <glyph glyph-name="Scircumflex" unicode="&#x15c;" horiz-adv-x="614" 
d="M282 -15q-131 0 -227 55v183h38q33 -99 83 -142.5t122 -43.5q60 0 92.5 27.5t32.5 76.5q0 88 -112 124l-68 24q-86 28 -135 72.5t-49 124.5q0 96 72 159t201 63q116 -2 209 -55v-179h-45q-25 97 -66.5 140.5t-108.5 43.5q-58 0 -89.5 -28.5t-31.5 -75.5q0 -82 97 -115
l80 -26q100 -33 146 -81t46 -121q0 -103 -80.5 -164.5t-206.5 -61.5zM299 870h57l120 -131l-4 -10h-56l-100 62l-93 -62h-41l-4 10z" />
    <glyph glyph-name="scircumflex" unicode="&#x15d;" horiz-adv-x="482" 
d="M399 574l-4 -11h-62l-91 83l-86 -83h-40l-4 11l110 156h64zM211 -14q-90 0 -167 34l-3 139l34 4q24 -59 62.5 -91.5t86.5 -32.5q39 0 61.5 18t22.5 48q0 27 -19.5 41.5t-57.5 25.5l-49 14q-55 16 -93 53t-38 96q0 75 61.5 123.5t155.5 48.5q86 0 154 -38l8 -121l-42 -3
q-30 61 -60 85.5t-72 24.5q-35 0 -53.5 -17.5t-18.5 -45.5q0 -50 67 -71l59 -17q134 -36 134 -143q0 -82 -69.5 -128.5t-163.5 -46.5z" />
    <glyph glyph-name="Scedilla" unicode="&#x15e;" horiz-adv-x="614" 
d="M282 -15q-131 0 -227 55v183h38q33 -99 83 -142.5t122 -43.5q60 0 92.5 27.5t32.5 76.5q0 88 -112 124l-68 24q-86 28 -135 72.5t-49 124.5q0 96 72 159t201 63q116 -2 209 -55v-179h-45q-25 97 -66.5 140.5t-108.5 43.5q-58 0 -89.5 -28.5t-31.5 -75.5q0 -82 97 -115
l80 -26q100 -33 146 -81t46 -121q0 -103 -80.5 -164.5t-206.5 -61.5zM417 -139q0 -42 -34.5 -64.5t-95.5 -22.5q-43 0 -77 10v62q41 -15 74 -15q41 0 41 27q0 29 -47 31q-10 0 -24 -2v121h54v-66q44 0 76.5 -20.5t32.5 -60.5z" />
    <glyph glyph-name="scedilla" unicode="&#x15f;" horiz-adv-x="482" 
d="M211 -14q-90 0 -167 34l-3 139l34 4q24 -59 62.5 -91.5t86.5 -32.5q39 0 61.5 18t22.5 48q0 27 -19.5 41.5t-57.5 25.5l-49 14q-55 16 -93 53t-38 96q0 75 61.5 123.5t155.5 48.5q86 0 154 -38l8 -121l-42 -3q-30 61 -60 85.5t-72 24.5q-35 0 -53.5 -17.5t-18.5 -45.5
q0 -50 67 -71l59 -17q134 -36 134 -143q0 -82 -69.5 -128.5t-163.5 -46.5zM358 -139q0 -42 -34.5 -64.5t-95.5 -22.5q-43 0 -77 10v62q41 -15 74 -15q41 0 41 27q0 29 -47 31q-10 0 -24 -2v121h54v-66q44 0 76.5 -20.5t32.5 -60.5z" />
    <glyph glyph-name="Scaron" unicode="&#x160;" horiz-adv-x="614" 
d="M282 -15q-131 0 -227 55v183h38q33 -99 83 -142.5t122 -43.5q60 0 92.5 27.5t32.5 76.5q0 88 -112 124l-68 24q-86 28 -135 72.5t-49 124.5q0 96 72 159t201 63q116 -2 209 -55v-179h-45q-25 97 -66.5 140.5t-108.5 43.5q-58 0 -89.5 -28.5t-31.5 -75.5q0 -82 97 -115
l80 -26q100 -33 146 -81t46 -121q0 -103 -80.5 -164.5t-206.5 -61.5zM341 729h-57l-120 131l4 10h56l100 -62l93 62h41l4 -10z" />
    <glyph glyph-name="scaron" unicode="&#x161;" horiz-adv-x="482" 
d="M271 567h-64l-113 157l4 10h62l91 -83l86 83h40l4 -10zM211 -14q-90 0 -167 34l-3 139l34 4q24 -59 62.5 -91.5t86.5 -32.5q39 0 61.5 18t22.5 48q0 27 -19.5 41.5t-57.5 25.5l-49 14q-55 16 -93 53t-38 96q0 75 61.5 123.5t155.5 48.5q86 0 154 -38l8 -121l-42 -3
q-30 61 -60 85.5t-72 24.5q-35 0 -53.5 -17.5t-18.5 -45.5q0 -50 67 -71l59 -17q134 -36 134 -143q0 -82 -69.5 -128.5t-163.5 -46.5z" />
    <glyph glyph-name="Tcommaaccent" unicode="&#x162;" horiz-adv-x="675" 
d="M398 -129q0 -77 -114 -136l-21 26q61 39 65 75q-22 0 -37.5 12.5t-15.5 34.5q0 27 17 41.5t41 14.5q65 0 65 -68zM419 646v-551q0 -37 26 -48q5 -2 42 -8v-39h-300v39q29 2 43 7q24 10 24 49v551h-31q-67 0 -105.5 -37.5t-58.5 -112.5h-36v197h629v-197h-36
q-20 75 -58.5 112.5t-105.5 37.5h-33z" />
    <glyph glyph-name="Tcaron" unicode="&#x164;" horiz-adv-x="675" 
d="M360 729h-57l-120 131l4 10h56l100 -62l93 62h41l4 -10zM419 646v-551q0 -37 26 -48q5 -2 42 -8v-39h-300v39q29 2 43 7q24 10 24 49v551h-31q-67 0 -105.5 -37.5t-58.5 -112.5h-36v197h629v-197h-36q-20 75 -58.5 112.5t-105.5 37.5h-33z" />
    <glyph glyph-name="tcaron" unicode="&#x165;" horiz-adv-x="409" 
d="M433 776q-3 -45 -29.5 -109.5t-51.5 -100.5h-41l-4 10q28 88 28 211h94zM8 481h87v108l131 58h21v-166h138v-49h-138v-252q0 -62 20 -84.5t74 -22.5q21 0 54 7l1 -49q-63 -44 -155 -44q-66 0 -106 30.5t-40 93.5v321h-87v49z" />
    <glyph glyph-name="Tbar" unicode="&#x166;" horiz-adv-x="678" 
d="M420 646v-272h123v-50h-123v-229q0 -37 26 -48q5 -2 42 -8v-39h-300v39q29 2 43 7q24 10 24 49v229h-119v50h119v272h-31q-67 0 -105.5 -37.5t-58.5 -112.5h-36v197h629v-197h-36q-20 75 -58.5 112.5t-105.5 37.5h-33z" />
    <glyph glyph-name="tbar" unicode="&#x167;" horiz-adv-x="411" 
d="M9 481h87v108l131 58h21v-166h138v-49h-138v-127h97v-50h-97v-75q0 -62 20 -84.5t74 -22.5q21 0 54 7l1 -49q-63 -44 -155 -44q-66 0 -106 30.5t-40 93.5v144h-72v50h72v127h-87v49z" />
    <glyph glyph-name="Umacron" unicode="&#x16a;" horiz-adv-x="770" 
d="M276 819h256v-66h-256v66zM265 242q0 -96 38.5 -143.5t125.5 -47.5q82 0 124.5 51t42.5 138v329q-4 48 -32 66q-26 17 -64 21v37h259v-37q-35 -5 -57 -17q-38 -20 -39 -72v-322q0 -115 -74.5 -187t-199.5 -72t-207 63t-82 183v366q0 37 -26 48q-13 6 -42 8v39h300v-39
q-42 -7 -43 -7q-24 -11 -24 -46v-359z" />
    <glyph glyph-name="Ubreve" unicode="&#x16c;" horiz-adv-x="770" 
d="M548 862q-30 -120 -139 -120q-49 0 -86.5 30.5t-45.5 89.5h50q21 -51 91 -51q74 0 93 51h37zM265 242q0 -96 38.5 -143.5t125.5 -47.5q82 0 124.5 51t42.5 138v329q-4 48 -32 66q-26 17 -64 21v37h259v-37q-35 -5 -57 -17q-38 -20 -39 -72v-322q0 -115 -74.5 -187
t-199.5 -72t-207 63t-82 183v366q0 37 -26 48q-13 6 -42 8v39h300v-39q-42 -7 -43 -7q-24 -11 -24 -46v-359z" />
    <glyph glyph-name="Uring" unicode="&#x16e;" horiz-adv-x="770" 
d="M522 818q0 -42 -29.5 -68t-78.5 -26t-78.5 26t-29.5 67q0 42 30.5 68t78.5 26q46 0 76.5 -26t30.5 -67zM463 817q0 53 -50 53q-47 0 -47 -52q0 -26 13.5 -39.5t35.5 -13.5q21 0 34.5 13t13.5 39zM265 242q0 -96 38.5 -143.5t125.5 -47.5q82 0 124.5 51t42.5 138v329
q-4 48 -32 66q-26 17 -64 21v37h259v-37q-35 -5 -57 -17q-38 -20 -39 -72v-322q0 -115 -74.5 -187t-199.5 -72t-207 63t-82 183v366q0 37 -26 48q-13 6 -42 8v39h300v-39q-42 -7 -43 -7q-24 -11 -24 -46v-359z" />
    <glyph glyph-name="uring" unicode="&#x16f;" horiz-adv-x="643" 
d="M409 666q0 -42 -29.5 -68t-78.5 -26t-78.5 26t-29.5 67q0 42 30.5 68t78.5 26q46 0 76.5 -26t30.5 -67zM350 665q0 53 -50 53q-47 0 -47 -52q0 -26 13.5 -39.5t35.5 -13.5q21 0 34.5 13t13.5 39zM403 397q0 24 -7 32.5t-30 9.5q-15 0 -37 -2v35q105 35 165 35
q35 0 48 -14.5t13 -47.5v-342q0 -40 16.5 -52t57.5 -10l1 -25q-60 -29 -119 -29t-83 21.5t-25 62.5q-42 -43 -82.5 -64.5t-93.5 -21.5q-73 0 -108 42t-35 134v236q0 25 -7.5 33.5t-34.5 8.5q-13 0 -31 -2v35q105 35 165 35q35 0 47.5 -14t12.5 -48v-246q0 -57 21 -84.5
t75 -27.5q33 0 71 13v297z" />
    <glyph glyph-name="Uhungarumlaut" unicode="&#x170;" horiz-adv-x="770" 
d="M265 242q0 -96 38.5 -143.5t125.5 -47.5q82 0 124.5 51t42.5 138v329q-4 48 -32 66q-26 17 -64 21v37h259v-37q-35 -5 -57 -17q-38 -20 -39 -72v-322q0 -115 -74.5 -187t-199.5 -72t-207 63t-82 183v366q0 37 -26 48q-13 6 -42 8v39h300v-39q-42 -7 -43 -7
q-24 -11 -24 -46v-359zM480 850l-154 -117h-32l-4 10l77 118h109zM656 850l-186 -117h-38l-4 10l104 118h120z" />
    <glyph glyph-name="uhungarumlaut" unicode="&#x171;" horiz-adv-x="643" 
d="M403 397q0 24 -7 32.5t-30 9.5q-15 0 -37 -2v35q105 35 165 35q35 0 48 -14.5t13 -47.5v-342q0 -40 16.5 -52t57.5 -10l1 -25q-60 -29 -119 -29t-83 21.5t-25 62.5q-42 -43 -82.5 -64.5t-93.5 -21.5q-73 0 -108 42t-35 134v236q0 25 -7.5 33.5t-34.5 8.5q-13 0 -31 -2v35
q105 35 165 35q35 0 47.5 -14t12.5 -48v-246q0 -57 21 -84.5t75 -27.5q33 0 71 13v297zM364 719l-139 -160h-32l-4 10l48 161h123zM541 719l-164 -160h-32l-4 10l74 161h122z" />
    <glyph glyph-name="Uogonek" unicode="&#x172;" horiz-adv-x="770" 
d="M533 -217q-40 -8 -70 -8q-57 0 -88.5 26t-31.5 71q0 39 40.5 79t106.5 64l19 -1q-67 -48 -67 -116q0 -32 15 -50.5t44 -18.5q16 0 32 4v-50zM265 242q0 -96 38.5 -143.5t125.5 -47.5q82 0 124.5 51t42.5 138v329q-4 48 -32 66q-26 17 -64 21v37h259v-37q-35 -5 -57 -17
q-38 -20 -39 -72v-322q0 -115 -74.5 -187t-199.5 -72t-207 63t-82 183v366q0 37 -26 48q-13 6 -42 8v39h300v-39q-42 -7 -43 -7q-24 -11 -24 -46v-359z" />
    <glyph glyph-name="uogonek" unicode="&#x173;" horiz-adv-x="643" 
d="M622 -217q-40 -8 -70 -8q-57 0 -88.5 26t-31.5 71q0 39 40.5 79t106.5 64l19 -1q-67 -48 -67 -116q0 -32 15 -50.5t44 -18.5q16 0 32 4v-50zM403 397q0 24 -7 32.5t-30 9.5q-15 0 -37 -2v35q105 35 165 35q35 0 48 -14.5t13 -47.5v-342q0 -40 16.5 -52t57.5 -10l1 -25
q-60 -29 -119 -29t-83 21.5t-25 62.5q-42 -43 -82.5 -64.5t-93.5 -21.5q-73 0 -108 42t-35 134v236q0 25 -7.5 33.5t-34.5 8.5q-13 0 -31 -2v35q105 35 165 35q35 0 47.5 -14t12.5 -48v-246q0 -57 21 -84.5t75 -27.5q33 0 71 13v297z" />
    <glyph glyph-name="Ycircumflex" unicode="&#x176;" horiz-adv-x="677" 
d="M260 598q0 -16 9 -31l118 -223l117 219q12 21 12 38q0 49 -77 51v41h243v-38q-64 -7 -97 -64l-164 -288v-208q0 -35 25 -48q2 -1 43 -8v-39h-300v39q30 2 43 7q24 10 24 49v205l-167 296q-16 27 -34.5 39t-51.5 17v41h337v-41q-80 -10 -80 -54zM344 870h57l120 -131
l-4 -10h-56l-100 62l-93 -62h-41l-4 10z" />
    <glyph glyph-name="Ydieresis" unicode="&#x178;" horiz-adv-x="677" 
d="M260 598q0 -16 9 -31l118 -223l117 219q12 21 12 38q0 49 -77 51v41h243v-38q-64 -7 -97 -64l-164 -288v-208q0 -35 25 -48q2 -1 43 -8v-39h-300v39q30 2 43 7q24 10 24 49v205l-167 296q-16 27 -34.5 39t-51.5 17v41h337v-41q-80 -10 -80 -54zM204 807q0 67 72 67
q31 0 51 -16.5t20 -50.5t-20 -50.5t-51 -16.5q-72 0 -72 67zM393 807q0 67 72 67t72 -67t-72 -67t-72 67z" />
    <glyph glyph-name="Zacute" unicode="&#x179;" horiz-adv-x="645" 
d="M603 218l-14 -218h-557l-5 17l374 626h-141q-70 0 -109 -30t-64 -107l-37 2l12 185h531l7 -17l-375 -626h117q54 0 86.5 7t58 30t41.5 51t39 84zM495 858l-176 -125h-38l-4 10l85 126h129z" />
    <glyph glyph-name="zacute" unicode="&#x17a;" horiz-adv-x="513" 
d="M432 719l-174 -156h-32l-4 10l77 157h129zM64 493h396l17 -28l-262 -412h98q47 0 84.5 31t51.5 82l32 -4l-22 -162h-417l-15 26l263 414h-92q-53 0 -80.5 -27.5t-46.5 -77.5l-36 5z" />
    <glyph glyph-name="Zdotaccent" unicode="&#x17b;" horiz-adv-x="645" 
d="M256 809q0 37 21.5 54.5t55.5 17.5t55.5 -17.5t21.5 -54.5t-21.5 -54.5t-55.5 -17.5t-55.5 17.5t-21.5 54.5zM603 218l-14 -218h-557l-5 17l374 626h-141q-70 0 -109 -30t-64 -107l-37 2l12 185h531l7 -17l-375 -626h117q54 0 86.5 7t58 30t41.5 51t39 84z" />
    <glyph glyph-name="zdotaccent" unicode="&#x17c;" horiz-adv-x="513" 
d="M64 493h396l17 -28l-262 -412h98q47 0 84.5 31t51.5 82l32 -4l-22 -162h-417l-15 26l263 414h-92q-53 0 -80.5 -27.5t-46.5 -77.5l-36 5zM190 668q0 39 23 57t58 18q80 0 80 -75q0 -39 -22.5 -57.5t-57.5 -18.5q-36 0 -58.5 18.5t-22.5 57.5z" />
    <glyph glyph-name="Zcaron" unicode="&#x17d;" horiz-adv-x="645" 
d="M359 729h-57l-120 131l4 10h56l100 -62l93 62h41l4 -10zM603 218l-14 -218h-557l-5 17l374 626h-141q-70 0 -109 -30t-64 -107l-37 2l12 185h531l7 -17l-375 -626h117q54 0 86.5 7t58 30t41.5 51t39 84z" />
    <glyph glyph-name="zcaron" unicode="&#x17e;" horiz-adv-x="513" 
d="M301 567h-64l-113 157l4 10h62l91 -83l86 83h40l4 -10zM64 493h396l17 -28l-262 -412h98q47 0 84.5 31t51.5 82l32 -4l-22 -162h-417l-15 26l263 414h-92q-53 0 -80.5 -27.5t-46.5 -77.5l-36 5z" />
    <glyph glyph-name="uni018F" unicode="&#x18f;" horiz-adv-x="776" 
d="M68 586q129 123 318 123q163 0 254.5 -89t91.5 -251q0 -169 -98.5 -276.5t-259.5 -107.5q-154 0 -246.5 96t-92.5 247v42h516q-22 251 -217 251q-133 0 -252 -94zM379 37q43 0 76 18.5t51 46t29.5 66.5t15 72.5t3.5 71.5v8h-341q4 -139 41.5 -211t124.5 -72z" />
    <glyph glyph-name="uni01DD" unicode="&#x1dd;" horiz-adv-x="536" 
d="M55 432q87 75 210 75q113 0 174 -62.5t61 -176.5q0 -126 -72.5 -204.5t-200.5 -78.5q-93 0 -143.5 47t-51.5 137q0 10 2 28l28 42h292q-2 80 -36 122t-113 42q-73 0 -148 -26zM260 43q81 0 93 146h-169q-1 -12 -1 -34q0 -52 19.5 -82t57.5 -30z" />
    <glyph glyph-name="Gcaron" unicode="&#x1e6;" horiz-adv-x="739" 
d="M449 729h-57l-120 131l4 10h56l100 -62l93 62h41l4 -10zM659 55q-41 -31 -110.5 -50.5t-143.5 -19.5q-163 2 -263 95t-100 257q0 168 109.5 270t275.5 102q137 0 232 -54v-179h-38q-48 186 -200 186q-56 0 -96.5 -25t-62.5 -69.5t-31.5 -96.5t-9.5 -115q0 -155 45 -239.5
t150 -84.5q34 0 78 21v178q0 38 -25 48q-3 1 -47 8v39h286v-39q-21 -3 -33 -15q-16 -13 -16 -41v-176z" />
    <glyph glyph-name="gcaron" unicode="&#x1e7;" horiz-adv-x="577" 
d="M298 567h-64l-113 157l4 10h62l91 -83l86 83h40l4 -10zM270 191q-44 0 -87 8q-11 -16 -11 -31q0 -37 69 -37h77q225 0 225 -142q0 -89 -81 -152t-224 -63q-104 0 -162.5 34.5t-58.5 90.5q0 39 29.5 65.5t91.5 47.5q-73 22 -73 85q0 66 89 110q-109 37 -109 135
q0 72 60 118.5t164 46.5q109 0 168 -47q20 10 33 34.5t26.5 41.5t38.5 17q23 0 36 -12t13 -30q0 -35 -35.5 -54t-85.5 -23q27 -34 27 -80q0 -73 -62 -118t-158 -45zM232 1q-37 0 -62 4q-29 -28 -29 -72q0 -48 32.5 -76t98.5 -28t104 28t38 76q0 36 -25.5 52t-82.5 16h-74z
M336 346q0 53 -19.5 81.5t-55.5 28.5q-67 0 -67 -104q0 -110 75 -110q67 0 67 104z" />
    <glyph glyph-name="uni01F4" unicode="&#x1f4;" horiz-adv-x="739" 
d="M594 858l-176 -125h-38l-4 10l85 126h129zM659 55q-41 -31 -110.5 -50.5t-143.5 -19.5q-163 2 -263 95t-100 257q0 168 109.5 270t275.5 102q137 0 232 -54v-179h-38q-48 186 -200 186q-56 0 -96.5 -25t-62.5 -69.5t-31.5 -96.5t-9.5 -115q0 -155 45 -239.5t150 -84.5
q34 0 78 21v178q0 38 -25 48q-3 1 -47 8v39h286v-39q-21 -3 -33 -15q-16 -13 -16 -41v-176z" />
    <glyph glyph-name="uni01F5" unicode="&#x1f5;" horiz-adv-x="577" 
d="M447 719l-174 -156h-32l-4 10l77 157h129zM270 191q-44 0 -87 8q-11 -16 -11 -31q0 -37 69 -37h77q225 0 225 -142q0 -89 -81 -152t-224 -63q-104 0 -162.5 34.5t-58.5 90.5q0 39 29.5 65.5t91.5 47.5q-73 22 -73 85q0 66 89 110q-109 37 -109 135q0 72 60 118.5
t164 46.5q109 0 168 -47q20 10 33 34.5t26.5 41.5t38.5 17q23 0 36 -12t13 -30q0 -35 -35.5 -54t-85.5 -23q27 -34 27 -80q0 -73 -62 -118t-158 -45zM232 1q-37 0 -62 4q-29 -28 -29 -72q0 -48 32.5 -76t98.5 -28t104 28t38 76q0 36 -25.5 52t-82.5 16h-74zM336 346
q0 53 -19.5 81.5t-55.5 28.5q-67 0 -67 -104q0 -110 75 -110q67 0 67 104z" />
    <glyph glyph-name="Aringacute" unicode="&#x1fa;" horiz-adv-x="703" 
d="M408 240h-220l-55 -145q-14 -38 29 -49q4 -1 12.5 -2l22 -2.5l22.5 -2.5v-39h-227v39q12 1 40 11q27 10 40 45l243 611h84l224 -611q12 -35 39 -45q22 -10 39 -11v-39h-315v39q41 6 49 9q34 14 23 47zM208 293h182l-86 251zM556 1077l-176 -125h-38l-4 10l85 126h129z
M469 831q0 -42 -29.5 -68t-78.5 -26t-78.5 26t-29.5 67q0 42 30.5 68t78.5 26q46 0 76.5 -26t30.5 -67zM404 830q0 52 -44 52q-42 0 -42 -51q0 -52 44 -52q42 0 42 51z" />
    <glyph glyph-name="Scommaaccent" unicode="&#x218;" horiz-adv-x="614" 
d="M355 -129q0 -77 -114 -136l-21 26q61 39 65 75q-22 0 -37.5 12.5t-15.5 34.5q0 27 17 41.5t41 14.5q65 0 65 -68zM282 -15q-131 0 -227 55v183h38q33 -99 83 -142.5t122 -43.5q60 0 92.5 27.5t32.5 76.5q0 88 -112 124l-68 24q-86 28 -135 72.5t-49 124.5q0 96 72 159
t201 63q116 -2 209 -55v-179h-45q-25 97 -66.5 140.5t-108.5 43.5q-58 0 -89.5 -28.5t-31.5 -75.5q0 -82 97 -115l80 -26q100 -33 146 -81t46 -121q0 -103 -80.5 -164.5t-206.5 -61.5z" />
    <glyph glyph-name="uni021A" unicode="&#x21a;" horiz-adv-x="675" 
d="M398 -129q0 -77 -114 -136l-21 26q61 39 65 75q-22 0 -37.5 12.5t-15.5 34.5q0 27 17 41.5t41 14.5q65 0 65 -68zM419 646v-551q0 -37 26 -48q5 -2 42 -8v-39h-300v39q29 2 43 7q24 10 24 49v551h-31q-67 0 -105.5 -37.5t-58.5 -112.5h-36v197h629v-197h-36
q-20 75 -58.5 112.5t-105.5 37.5h-33z" />
    <glyph glyph-name="uni021B" unicode="&#x21b;" horiz-adv-x="409" 
d="M285 -129q0 -77 -114 -136l-21 26q61 39 65 75q-22 0 -37.5 12.5t-15.5 34.5q0 27 17 41.5t41 14.5q65 0 65 -68zM8 481h87v108l131 58h21v-166h138v-49h-138v-252q0 -62 20 -84.5t74 -22.5q21 0 54 7l1 -49q-63 -44 -155 -44q-66 0 -106 30.5t-40 93.5v321h-87v49z" />
    <glyph glyph-name="uni021E" unicode="&#x21e;" horiz-adv-x="838" 
d="M560 598q0 36 -25 48q-2 1 -43 8v39h301v-39q-32 -2 -43 -7q-25 -12 -25 -49v-503q0 -35 25 -48q2 -1 43 -8v-39h-301v39q30 2 44 7q24 10 24 49v241h-282v-241q0 -36 25 -48q2 -1 43 -8v-39h-301v39q29 2 43 7q25 12 25 49v503q0 36 -25 48q-2 1 -43 8v39h301v-39
q-30 -2 -44 -7q-24 -11 -24 -49v-211h282v211zM447 729h-57l-120 131l4 10h56l100 -62l93 62h41l4 -10z" />
    <glyph glyph-name="uni0228" unicode="&#x228;" horiz-adv-x="652" 
d="M45 39q38 3 46 9q22 13 22 55v487q0 44 -24 55q-9 4 -44 9v39h536v-173h-42q-18 69 -51.5 94.5t-100.5 25.5h-109v-259h82q41 0 54 25q8 15 14 62h44v-228h-44q-8 51 -13 61q-13 27 -55 27h-82v-275h128q72 0 106 33t63 122l38 -4l-17 -204h-551v39zM467 -139
q0 -42 -34.5 -64.5t-95.5 -22.5q-43 0 -77 10v62q41 -15 74 -15q41 0 41 27q0 29 -47 31q-10 0 -24 -2v121h54v-66q44 0 76.5 -20.5t32.5 -60.5z" />
    <glyph glyph-name="uni0229" unicode="&#x229;" horiz-adv-x="536" 
d="M481 61q-86 -76 -210 -76q-113 0 -174 62.5t-61 176.5q0 126 72.5 204.5t200.5 78.5q91 0 141 -43.5t53 -129.5q1 -12 -1 -39l-28 -42h-293q2 -79 37 -121.5t114 -42.5q74 0 147 26zM277 449q-83 0 -95 -146h169q2 22 2 34q0 52 -19.5 82t-56.5 30zM408 -139
q0 -42 -34.5 -64.5t-95.5 -22.5q-43 0 -77 10v62q41 -15 74 -15q41 0 41 27q0 29 -47 31q-10 0 -24 -2v121h54v-66q44 0 76.5 -20.5t32.5 -60.5z" />
    <glyph glyph-name="uni0232" unicode="&#x232;" horiz-adv-x="677" 
d="M260 598q0 -16 9 -31l118 -223l117 219q12 21 12 38q0 49 -77 51v41h243v-38q-64 -7 -97 -64l-164 -288v-208q0 -35 25 -48q2 -1 43 -8v-39h-300v39q30 2 43 7q24 10 24 49v205l-167 296q-16 27 -34.5 39t-51.5 17v41h337v-41q-80 -10 -80 -54zM235 819h256v-66h-256v66z
" />
    <glyph glyph-name="uni0259" unicode="&#x259;" horiz-adv-x="536" 
d="M55 432q87 75 210 75q113 0 174 -62.5t61 -176.5q0 -126 -72.5 -204.5t-200.5 -78.5q-93 0 -143.5 47t-51.5 137q0 10 2 28l28 42h292q-2 80 -36 122t-113 42q-73 0 -148 -26zM260 43q81 0 93 146h-169q-1 -12 -1 -34q0 -52 19.5 -82t57.5 -30z" />
    <glyph glyph-name="circumflex" unicode="&#x2c6;" horiz-adv-x="502" 
d="M414 574l-4 -11h-62l-91 83l-86 -83h-40l-4 11l110 156h64z" />
    <glyph glyph-name="caron" unicode="&#x2c7;" horiz-adv-x="502" 
d="M298 567h-64l-113 157l4 10h62l91 -83l86 83h40l4 -10z" />
    <glyph glyph-name="breve" unicode="&#x2d8;" horiz-adv-x="495" 
d="M398 722q-32 -146 -149 -146q-56 0 -95.5 38.5t-47.5 107.5h54q13 -35 39 -54t59 -19q72 0 102 73h38z" />
    <glyph glyph-name="dotaccent" unicode="&#x2d9;" horiz-adv-x="322" 
d="M81 668q0 39 23 57t58 18q80 0 80 -75q0 -39 -22.5 -57.5t-57.5 -18.5q-36 0 -58.5 18.5t-22.5 57.5z" />
    <glyph glyph-name="ring" unicode="&#x2da;" horiz-adv-x="408" 
d="M318 666q0 -42 -29.5 -68t-78.5 -26t-78.5 26t-29.5 67q0 42 30.5 68t78.5 26q46 0 76.5 -26t30.5 -67zM259 665q0 53 -50 53q-47 0 -47 -52q0 -26 13.5 -39.5t35.5 -13.5q21 0 34.5 13t13.5 39z" />
    <glyph glyph-name="ogonek" unicode="&#x2db;" horiz-adv-x="585" 
d="M480 -217q-40 -8 -70 -8q-57 0 -88.5 26t-31.5 71q0 39 40.5 79t106.5 64l19 -1q-67 -48 -67 -116q0 -32 15 -50.5t44 -18.5q16 0 32 4v-50z" />
    <glyph glyph-name="tilde" unicode="&#x2dc;" horiz-adv-x="467" 
d="M382 715q-1 -58 -24.5 -89.5t-68.5 -31.5q-31 0 -75 18.5t-55 18.5q-32 0 -42 -41h-37q0 51 23.5 86t63.5 35q25 0 69 -17.5t61 -17.5q39 0 45 39h40z" />
    <glyph glyph-name="hungarumlaut" unicode="&#x2dd;" horiz-adv-x="456" 
d="M266 719l-139 -160h-32l-4 10l48 161h123zM443 719l-164 -160h-32l-4 10l74 161h122z" />
    <glyph glyph-name="dotbelowcomb" unicode="&#x323;" horiz-adv-x="419" 
d="M117 -160q0 39 23.5 59.5t56.5 20.5t56 -20.5t23 -59.5q0 -38 -23 -58.5t-56 -20.5t-56.5 20.5t-23.5 58.5z" />
    <glyph glyph-name="tonos" unicode="&#x384;" horiz-adv-x="427" 
d="M306 733l-109 -177h-38l-4 10l44 178h103z" />
    <glyph glyph-name="dieresistonos" unicode="&#x385;" horiz-adv-x="440" 
d="M312 817l-83 -138h-28l-4 10l9 139h102zM50 650q0 66 71 66q31 0 51 -16t20 -50q0 -67 -71 -67t-71 67zM247 650q0 66 70 66q71 0 71 -66q0 -67 -71 -67q-70 0 -70 67z" />
    <glyph glyph-name="Alphatonos" unicode="&#x386;" horiz-adv-x="703" 
d="M408 240h-220l-55 -145q-14 -38 29 -49q4 -1 12.5 -2l22 -2.5l22.5 -2.5v-39h-227v39q12 1 40 11q27 10 40 45l243 611h84l224 -611q12 -35 39 -45q22 -10 39 -11v-39h-315v39q41 6 49 9q34 14 23 47zM208 293h182l-86 251zM165 689q-3 -45 -29.5 -109.5t-51.5 -100.5
h-41l-4 10q28 88 28 211h94z" />
    <glyph glyph-name="Epsilontonos" unicode="&#x388;" horiz-adv-x="652" 
d="M14 683q-3 -45 -29.5 -109.5t-51.5 -100.5h-41l-4 10q28 88 28 211h94zM45 39q38 3 46 9q22 13 22 55v487q0 44 -24 55q-9 4 -44 9v39h536v-173h-42q-18 69 -51.5 94.5t-100.5 25.5h-109v-259h82q41 0 54 25q8 15 14 62h44v-228h-44q-8 51 -13 61q-13 27 -55 27h-82v-275
h128q72 0 106 33t63 122l38 -4l-17 -204h-551v39z" />
    <glyph glyph-name="Etatonos" unicode="&#x389;" horiz-adv-x="838" 
d="M560 598q0 36 -25 48q-2 1 -43 8v39h301v-39q-32 -2 -43 -7q-25 -12 -25 -49v-503q0 -35 25 -48q2 -1 43 -8v-39h-301v39q30 2 44 7q24 10 24 49v241h-282v-241q0 -36 25 -48q2 -1 43 -8v-39h-301v39q29 2 43 7q25 12 25 49v503q0 36 -25 48q-2 1 -43 8v39h301v-39
q-30 -2 -44 -7q-24 -11 -24 -49v-211h282v211zM7 683q-3 -45 -29.5 -109.5t-51.5 -100.5h-41l-4 10q28 88 28 211h94z" />
    <glyph glyph-name="Iotatonos" unicode="&#x38a;" horiz-adv-x="391" 
d="M278 95q0 -36 25 -48q2 -1 43 -8v-39h-301v39q29 2 43 7q25 12 25 49v503q0 36 -25 48q-2 1 -43 8v39h301v-39q-30 -2 -44 -7q-24 -11 -24 -49v-503zM7 683q-3 -45 -29.5 -109.5t-51.5 -100.5h-41l-4 10q28 88 28 211h94z" />
    <glyph glyph-name="Omicrontonos" unicode="&#x38c;" horiz-adv-x="804" 
d="M69 683q-3 -45 -29.5 -109.5t-51.5 -100.5h-41l-4 10q28 88 28 211h94zM763 352q0 -160 -104 -263.5t-265 -103.5q-155 0 -254.5 96.5t-99.5 259.5q0 167 104 267.5t262 100.5q157 0 257 -99.5t100 -257.5zM584 343q0 71 -8 125t-28 100t-57 70t-91 24t-91 -24.5
t-56 -70.5t-26.5 -97.5t-7.5 -119.5q0 -155 40 -235.5t139 -80.5q186 0 186 309z" />
    <glyph glyph-name="Upsilontonos" unicode="&#x38e;" horiz-adv-x="677" 
d="M260 598q0 -16 9 -31l118 -223l117 219q12 21 12 38q0 49 -77 51v41h243v-38q-64 -7 -97 -64l-164 -288v-208q0 -35 25 -48q2 -1 43 -8v-39h-300v39q30 2 43 7q24 10 24 49v205l-167 296q-16 27 -34.5 39t-51.5 17v41h337v-41q-80 -10 -80 -54zM-26 683
q-3 -45 -29.5 -109.5t-51.5 -100.5h-41l-4 10q28 88 28 211h94z" />
    <glyph glyph-name="Omegatonos" unicode="&#x38f;" horiz-adv-x="860" 
d="M87 683q-3 -45 -29.5 -109.5t-51.5 -100.5h-41l-4 10q28 88 28 211h94zM793 407q0 -60 -24 -110.5t-65.5 -85.5t-83 -58t-89.5 -40v-23h109q56 0 86.5 23t47.5 83h34v-196h-313v121q64 71 92 132.5t28 151.5q0 52 -9 95t-29 80.5t-57 59t-89 21.5q-181 0 -181 -261
q0 -85 25.5 -144.5t94.5 -134.5v-121h-313v196h33q15 -60 47.5 -83t92.5 -23h99v23q-258 86 -258 285q0 132 100.5 221.5t266.5 89.5q164 0 259.5 -89t95.5 -213z" />
    <glyph glyph-name="iotadieresistonos" unicode="&#x390;" horiz-adv-x="317" 
d="M246 817l-83 -138h-28l-4 10l9 139h102zM-16 650q0 66 71 66q31 0 51 -16t20 -50q0 -67 -71 -67t-71 67zM181 650q0 66 70 66q71 0 71 -66q0 -67 -71 -67q-70 0 -70 67zM221 493v-384q0 -31 14 -44.5t42 -15.5q9 -1 30 -1l1 -31q-54 -30 -118 -30q-121 0 -121 92v414h152
z" />
    <glyph glyph-name="Alpha" unicode="&#x391;" horiz-adv-x="703" 
d="M408 240h-220l-55 -145q-14 -38 29 -49q4 -1 12.5 -2l22 -2.5l22.5 -2.5v-39h-227v39q12 1 40 11q27 10 40 45l243 611h84l224 -611q12 -35 39 -45q22 -10 39 -11v-39h-315v39q41 6 49 9q34 14 23 47zM208 293h182l-86 251z" />
    <glyph glyph-name="Beta" unicode="&#x392;" horiz-adv-x="700" 
d="M45 0v39q29 2 43 7q25 12 25 49v503q0 38 -25 48q-2 1 -43 8v39h321q123 0 187.5 -44t64.5 -121q0 -57 -46 -101t-126 -60v-4q107 -5 160.5 -49t53.5 -116q0 -96 -81 -147t-203 -51h-331zM487 193q0 61 -40.5 100t-134.5 39h-34v-280h46q163 0 163 141zM278 641v-262h21
q141 0 141 131t-125 131h-37z" />
    <glyph glyph-name="Gamma" unicode="&#x393;" horiz-adv-x="598" 
d="M278 640v-541q0 -38 27 -50q8 -4 53 -10v-39h-313v39q29 2 43 7q25 12 25 49v495q0 44 -24 55q-9 4 -44 9v39h536v-173h-42q-18 69 -51.5 94.5t-100.5 25.5h-109z" />
    <glyph glyph-name="NULL" unicode="&#x394;" horiz-adv-x="683" 
d="M652 0h-621l-7 40l278 658h108l250 -655zM118 112h366l-178 467z" />
    <glyph glyph-name="Epsilon" unicode="&#x395;" horiz-adv-x="652" 
d="M45 39q38 3 46 9q22 13 22 55v487q0 44 -24 55q-9 4 -44 9v39h536v-173h-42q-18 69 -51.5 94.5t-100.5 25.5h-109v-259h82q41 0 54 25q8 15 14 62h44v-228h-44q-8 51 -13 61q-13 27 -55 27h-82v-275h128q72 0 106 33t63 122l38 -4l-17 -204h-551v39z" />
    <glyph glyph-name="Zeta" unicode="&#x396;" horiz-adv-x="645" 
d="M603 218l-14 -218h-557l-5 17l374 626h-141q-70 0 -109 -30t-64 -107l-37 2l12 185h531l7 -17l-375 -626h117q54 0 86.5 7t58 30t41.5 51t39 84z" />
    <glyph glyph-name="Eta" unicode="&#x397;" horiz-adv-x="838" 
d="M560 598q0 36 -25 48q-2 1 -43 8v39h301v-39q-32 -2 -43 -7q-25 -12 -25 -49v-503q0 -35 25 -48q2 -1 43 -8v-39h-301v39q30 2 44 7q24 10 24 49v241h-282v-241q0 -36 25 -48q2 -1 43 -8v-39h-301v39q29 2 43 7q25 12 25 49v503q0 36 -25 48q-2 1 -43 8v39h301v-39
q-30 -2 -44 -7q-24 -11 -24 -49v-211h282v211z" />
    <glyph glyph-name="Theta" unicode="&#x398;" horiz-adv-x="807" 
d="M429 378q40 0 50 27q1 4 2 11t2 18t2 20h41v-219h-41q-3 40 -6 49q-9 27 -50 27h-52q-41 0 -50 -27q-3 -9 -6 -49h-41v219h41q1 -9 2 -20t2 -18t2 -11q10 -27 50 -27h52zM765 352q0 -160 -104 -263.5t-265 -103.5q-155 0 -254.5 96.5t-99.5 259.5q0 167 104 267.5
t262 100.5q157 0 257 -99.5t100 -257.5zM586 343q0 71 -8 125t-28 100t-57 70t-91 24t-91 -24.5t-56 -70.5t-26.5 -97.5t-7.5 -119.5q0 -155 40 -235.5t139 -80.5q186 0 186 309z" />
    <glyph glyph-name="Iota" unicode="&#x399;" horiz-adv-x="391" 
d="M278 95q0 -36 25 -48q2 -1 43 -8v-39h-301v39q29 2 43 7q25 12 25 49v503q0 36 -25 48q-2 1 -43 8v39h301v-39q-30 -2 -44 -7q-24 -11 -24 -49v-503z" />
    <glyph glyph-name="Kappa" unicode="&#x39a;" horiz-adv-x="733" 
d="M278 95q0 -38 25 -48q2 -1 43 -8v-39h-301v39q29 2 43 7q25 12 25 49v503q0 38 -25 48q-2 1 -43 8v39h301v-39q-30 -2 -44 -7q-24 -11 -24 -49v-503zM306 333l178 208q34 39 34 63q0 45 -68 49v40h274v-40q-78 -11 -138 -76l-151 -168l184 -285q47 -74 114 -85l-3 -39
h-220l-204 326v7z" />
    <glyph glyph-name="Lambda" unicode="&#x39b;" horiz-adv-x="703" 
d="M304 544l-171 -449q-14 -38 29 -49q4 -1 12.5 -2l22 -2.5l22.5 -2.5v-39h-227v39q12 1 40 11q27 10 40 45l243 611h84l224 -611q12 -35 39 -45q22 -10 39 -11v-39h-315v39q41 6 49 9q34 14 23 47z" />
    <glyph glyph-name="Mu" unicode="&#x39c;" horiz-adv-x="934" 
d="M473 316l191 377h227v-39q-30 -2 -44 -7q-24 -12 -24 -49v-503q0 -35 25 -48q2 -1 43 -8v-39h-301v39q32 2 43 7q25 12 25 49v450l-211 -416h-42l-213 415v-412q0 -53 32 -74q26 -17 64 -21v-37h-259v37q34 5 57 17q39 20 39 78v430q0 49 -23 69q-19 19 -66 24v38h245z
" />
    <glyph glyph-name="Nu" unicode="&#x39d;" horiz-adv-x="804" 
d="M587 -4l-394 530v-394q0 -53 32 -74q26 -17 64 -21v-37h-259v37q34 5 57 17q39 20 39 78v408q0 104 -91 117v36h234l352 -458v326q0 53 -32 74q-26 17 -64 21v37h259v-37q-34 -5 -57 -17q-39 -20 -39 -78v-565h-101z" />
    <glyph glyph-name="Xi" unicode="&#x39e;" horiz-adv-x="645" 
d="M583 0h-521l-13 222l32 4q29 -69 61 -88t108 -19h145q76 0 109.5 20.5t59.5 86.5l32 -4zM253 578q-68 0 -98 -20t-48 -81h-36v216h503v-216h-36q-15 61 -46.5 81t-99.5 20h-139zM379 384q40 0 50 27q1 4 2 11t2 18t2 20h41v-222h-41q-3 40 -6 49q-9 27 -50 27h-112
q-41 0 -50 -27q-3 -9 -6 -49h-41v222h41q1 -9 2 -20t2 -18t2 -11q10 -27 50 -27h112z" />
    <glyph glyph-name="Omicron" unicode="&#x39f;" horiz-adv-x="807" 
d="M765 352q0 -160 -104 -263.5t-265 -103.5q-155 0 -254.5 96.5t-99.5 259.5q0 167 104 267.5t262 100.5q157 0 257 -99.5t100 -257.5zM586 343q0 71 -8 125t-28 100t-57 70t-91 24t-91 -24.5t-56 -70.5t-26.5 -97.5t-7.5 -119.5q0 -155 40 -235.5t139 -80.5q186 0 186 309
z" />
    <glyph glyph-name="Pi" unicode="&#x3a0;" horiz-adv-x="822" 
d="M777 654q-32 -2 -43 -7q-25 -12 -25 -49v-503q0 -35 25 -48q2 -1 43 -8v-39h-301v39q32 2 43 7q25 12 25 49v547h-266v-547q0 -36 25 -48q2 -1 43 -8v-39h-301v39q29 2 43 7q25 12 25 49v503q0 36 -25 48q-2 1 -43 8v39h732v-39z" />
    <glyph glyph-name="Rho" unicode="&#x3a1;" horiz-adv-x="650" 
d="M401 693q98 0 164.5 -49.5t66.5 -143.5q0 -99 -71.5 -159t-173.5 -60h-109v-186q0 -38 25 -48q3 -1 46 -8v-39h-304v39q29 2 43 7q25 10 25 49v503q0 38 -25 48q-4 2 -43 8v39h356zM278 640v-306h57q128 0 128 156q0 69 -28 109.5t-84 40.5h-73z" />
    <glyph glyph-name="Sigma" unicode="&#x3a3;" horiz-adv-x="634" 
d="M242 319l-211 341l13 33h513v-173h-42q-17 68 -50 94t-90 26h-158l156 -262l-205 -257h220q42 0 62 2.5t41 14t33.5 35t26.5 66.5l38 -4l-13 -235h-535l-14 35z" />
    <glyph glyph-name="Tau" unicode="&#x3a4;" horiz-adv-x="675" 
d="M419 646v-551q0 -37 26 -48q5 -2 42 -8v-39h-300v39q29 2 43 7q24 10 24 49v551h-31q-67 0 -105.5 -37.5t-58.5 -112.5h-36v197h629v-197h-36q-20 75 -58.5 112.5t-105.5 37.5h-33z" />
    <glyph glyph-name="Upsilon" unicode="&#x3a5;" horiz-adv-x="677" 
d="M260 598q0 -16 9 -31l118 -223l117 219q12 21 12 38q0 49 -77 51v41h243v-38q-64 -7 -97 -64l-164 -288v-208q0 -35 25 -48q2 -1 43 -8v-39h-300v39q30 2 43 7q24 10 24 49v205l-167 296q-16 27 -34.5 39t-51.5 17v41h337v-41q-80 -10 -80 -54z" />
    <glyph glyph-name="Phi" unicode="&#x3a6;" horiz-adv-x="936" 
d="M549 603q181 0 272.5 -66.5t91.5 -181.5q0 -260 -364 -264v-6q0 -35 25 -48q2 -1 43 -8v-39h-297v39q30 2 43 7q24 10 24 49v6q-180 0 -271.5 66.5t-91.5 181.5q0 124 88 193t275 71v5q0 36 -25 48l-42 8v39h297v-39q-29 -2 -43 -7q-25 -12 -25 -49v-5zM202 345
q0 -99 47.5 -153t137.5 -56v422q-93 -2 -139 -59.5t-46 -153.5zM734 349q0 99 -47.5 153t-137.5 56v-422q92 2 138.5 59t46.5 154z" />
    <glyph glyph-name="Chi" unicode="&#x3a7;" horiz-adv-x="689" 
d="M7 693h331v-41q-62 -5 -62 -39q0 -13 11 -30l95 -147l101 134q17 23 17 41q0 36 -63 41v41h239v-41q-59 -11 -108 -69l-153 -197l188 -289q29 -45 80 -56v-41h-337v41q86 8 86 44q0 14 -12 31l-108 165l-113 -155q-16 -22 -16 -38q0 -38 61 -47v-41h-238v41q57 13 111 75
l162 216l-172 264q-32 50 -100 56v41z" />
    <glyph glyph-name="Psi" unicode="&#x3a8;" horiz-adv-x="891" 
d="M530 282q141 33 141 190v221h215v-39q-34 -2 -47 -17t-13 -45v-128q0 -104 -83.5 -162t-212.5 -71v-136q0 -36 25 -48q2 -1 43 -8v-39h-301v39q29 2 43 7q25 12 25 49v136q-132 11 -216 69t-84 164v129q0 57 -60 61v39h219v-221q0 -157 141 -190v316q0 36 -25 48
q-2 1 -43 8v39h301v-39q-30 -2 -44 -7q-24 -11 -24 -49v-316z" />
    <glyph glyph-name="CR" unicode="&#x3a9;" horiz-adv-x="858" 
d="M792 407q0 -60 -24 -110.5t-65.5 -85.5t-83 -58t-89.5 -40v-23h109q56 0 86.5 23t47.5 83h34v-196h-313v121q64 71 92 132.5t28 151.5q0 52 -9 95t-29 80.5t-57 59t-89 21.5q-181 0 -181 -261q0 -85 25.5 -144.5t94.5 -134.5v-121h-313v196h33q15 -60 47.5 -83t92.5 -23
h99v23q-258 86 -258 285q0 132 100.5 221.5t266.5 89.5q164 0 259.5 -89t95.5 -213z" />
    <glyph glyph-name="Iotadieresis" unicode="&#x3aa;" horiz-adv-x="391" 
d="M278 95q0 -36 25 -48q2 -1 43 -8v-39h-301v39q29 2 43 7q25 12 25 49v503q0 36 -25 48q-2 1 -43 8v39h301v-39q-30 -2 -44 -7q-24 -11 -24 -49v-503zM31 807q0 67 72 67q31 0 51 -16.5t20 -50.5t-20 -50.5t-51 -16.5q-72 0 -72 67zM220 807q0 67 72 67t72 -67t-72 -67
t-72 67z" />
    <glyph glyph-name="Upsilondieresis" unicode="&#x3ab;" horiz-adv-x="677" 
d="M260 598q0 -16 9 -31l118 -223l117 219q12 21 12 38q0 49 -77 51v41h243v-38q-64 -7 -97 -64l-164 -288v-208q0 -35 25 -48q2 -1 43 -8v-39h-300v39q30 2 43 7q24 10 24 49v205l-167 296q-16 27 -34.5 39t-51.5 17v41h337v-41q-80 -10 -80 -54zM172 807q0 67 72 67
q31 0 51 -16.5t20 -50.5t-20 -50.5t-51 -16.5q-72 0 -72 67zM361 807q0 67 72 67t72 -67t-72 -67t-72 67z" />
    <glyph glyph-name="alphatonos" unicode="&#x3ac;" horiz-adv-x="617" 
d="M435 733l-109 -177h-38l-4 10l44 178h103zM481 -13q-62 0 -85 23t-23 69v41q-36 -68 -77 -100.5t-97 -32.5q-76 0 -119 59.5t-43 166.5q0 117 70.5 205.5t158.5 88.5q86 0 141 -55l100 51h42l-24 -176v-224q0 -36 12.5 -49t42.5 -13h18l1 -25q-60 -29 -118 -29zM283 106
q44 0 90 49v185q-27 44 -56 68t-53 24q-80 0 -80 -160q0 -77 26.5 -121.5t72.5 -44.5z" />
    <glyph glyph-name="epsilontonos" unicode="&#x3ad;" horiz-adv-x="516" 
d="M384 733l-109 -177h-38l-4 10l44 178h103zM256 -14q-41 0 -77.5 7t-70 21.5t-53 42t-19.5 63.5q0 96 119 140q-103 32 -103 107q0 63 70 102.5t172 39.5q42 0 83 -7t75.5 -26.5t34.5 -49.5q0 -25 -17.5 -42t-43.5 -17q-21 0 -38 12.5t-28 27.5t-31.5 27.5t-45.5 12.5
q-32 0 -55 -17.5t-23 -56.5q0 -53 57 -79q55 11 103 11q6 -13 6 -32q0 -28 -11 -46q-12 0 -57.5 5t-56.5 7q-50 -16 -50 -66q0 -41 35.5 -62.5t94.5 -21.5q85 0 153 29l1 -55q-91 -77 -224 -77z" />
    <glyph glyph-name="etatonos" unicode="&#x3ae;" horiz-adv-x="630" 
d="M440 733l-109 -177h-38l-4 10l44 178h103zM89 0v397q0 24 -6.5 32.5t-29.5 9.5q-15 0 -37 -2v35q105 35 165 35q35 0 47.5 -14t12.5 -48v-29q86 91 185 91q75 0 107 -41t32 -134v-549h-152v506q0 65 -16.5 93.5t-70.5 28.5q-39 0 -85 -18v-393h-152z" />
    <glyph glyph-name="iotatonos" unicode="&#x3af;" horiz-adv-x="317" 
d="M261 733l-109 -177h-38l-4 10l44 178h103zM221 493v-384q0 -31 14 -44.5t42 -15.5q9 -1 30 -1l1 -31q-54 -30 -118 -30q-121 0 -121 92v414h152z" />
    <glyph glyph-name="upsilondieresistonos" unicode="&#x3b0;" horiz-adv-x="581" 
d="M387 817l-83 -138h-28l-4 10l9 139h102zM125 650q0 66 71 66q31 0 51 -16t20 -50q0 -67 -71 -67t-71 67zM322 650q0 66 70 66q71 0 71 -66q0 -67 -71 -67q-70 0 -70 67zM453 205q0 45 -13.5 81.5t-30 56t-30 44t-13.5 48.5q0 32 20 52.5t53 20.5q38 0 62 -38t31.5 -82.5
t7.5 -94.5q0 -61 -14 -114.5t-42 -98t-76.5 -70t-112.5 -25.5q-104 0 -157 65t-53 186v155q0 25 -9 33.5t-31 9.5q-15 0 -37 -2v40q105 35 154 35q75 0 75 -68v-189q0 -114 27.5 -161.5t79.5 -47.5q41 0 67 29t34 63t8 72z" />
    <glyph glyph-name="alpha" unicode="&#x3b1;" horiz-adv-x="617" 
d="M481 -13q-62 0 -85 23t-23 69v41q-36 -68 -77 -100.5t-97 -32.5q-76 0 -119 59.5t-43 166.5q0 117 70.5 205.5t158.5 88.5q86 0 141 -55l100 51h42l-24 -176v-224q0 -36 12.5 -49t42.5 -13h18l1 -25q-60 -29 -118 -29zM283 106q44 0 90 49v185q-27 44 -56 68t-53 24
q-80 0 -80 -160q0 -77 26.5 -121.5t72.5 -44.5z" />
    <glyph glyph-name="beta" unicode="&#x3b2;" horiz-adv-x="618" 
d="M345 -15q-72 0 -120 16v-218h-152v703q0 116 78 194.5t190 78.5q99 0 156 -51t57 -128q0 -123 -169 -175q89 -12 144 -69t55 -141q0 -90 -75.5 -150t-163.5 -60zM225 80q49 -30 99 -30q51 0 80 32.5t29 94.5q0 63 -37.5 100t-121.5 54l-14 61q140 70 140 184
q0 50 -23.5 83.5t-65.5 33.5q-86 0 -86 -157v-456z" />
    <glyph glyph-name="gamma" unicode="&#x3b3;" horiz-adv-x="561" 
d="M455 506q70 0 70 -72q0 -68 -41.5 -153.5t-144.5 -224.5q12 -75 12 -140q2 -78 -4 -133h-143q4 142 25 251q-8 25 -31 81t-45.5 105.5l-44.5 99t-23 51.5q-17 39 -35.5 50t-50.5 9v35q21 15 56.5 28t68.5 13q32 0 55 -15.5t32.5 -33.5t21.5 -50l91 -282q33 58 49 111.5
t16.5 81.5t-3.5 67.5t-4 49.5q0 30 19 50.5t54 20.5z" />
    <glyph glyph-name="delta" unicode="&#x3b4;" horiz-adv-x="586" 
d="M85 566q0 73 69 133t174 60q97 0 158 -32t61 -78q0 -31 -17.5 -48.5t-45.5 -17.5q-24 0 -41.5 13t-29.5 31l-24.5 36t-32.5 31t-48 13q-46 0 -71 -23t-25 -57q0 -31 25 -57.5t63 -45t82 -44.5t82 -53.5t63 -73.5t25 -103q0 -103 -80 -184t-193 -81q-102 0 -173.5 54
t-71.5 152q0 143 151 220q-100 66 -100 155zM409 174q0 18 -3 34.5t-11 32l-14 27t-21 25t-22 20.5t-27.5 20.5l-27 18t-30.5 18.5l-29 17q-49 -70 -49 -157q0 -80 33 -133.5t92 -53.5q54 0 81.5 37.5t27.5 93.5z" />
    <glyph glyph-name="epsilon" unicode="&#x3b5;" horiz-adv-x="516" 
d="M256 -14q-41 0 -77.5 7t-70 21.5t-53 42t-19.5 63.5q0 96 119 140q-103 32 -103 107q0 63 70 102.5t172 39.5q42 0 83 -7t75.5 -26.5t34.5 -49.5q0 -25 -17.5 -42t-43.5 -17q-21 0 -38 12.5t-28 27.5t-31.5 27.5t-45.5 12.5q-32 0 -55 -17.5t-23 -56.5q0 -53 57 -79
q55 11 103 11q6 -13 6 -32q0 -28 -11 -46q-12 0 -57.5 5t-56.5 7q-50 -16 -50 -66q0 -41 35.5 -62.5t94.5 -21.5q85 0 153 29l1 -55q-91 -77 -224 -77z" />
    <glyph glyph-name="zeta" unicode="&#x3b6;" horiz-adv-x="446" 
d="M74 744h352l3 -120q-123 -103 -192.5 -201.5t-69.5 -179.5q0 -55 26 -78.5t88 -41.5q6 -2 27 -8.5t28 -9l24 -9t24 -11l19.5 -12.5t18 -16.5l12 -19.5t9 -24t2.5 -29q0 -80 -93 -201h-70q63 89 63 131q0 44 -56 66q-16 7 -48 17l-56.5 17.5t-54 23t-48.5 34.5t-32.5 51.5
t-13.5 74.5q0 98 83 209t209 197h-297v23z" />
    <glyph glyph-name="eta" unicode="&#x3b7;" horiz-adv-x="630" 
d="M89 0v397q0 24 -6.5 32.5t-29.5 9.5q-15 0 -37 -2v35q105 35 165 35q35 0 47.5 -14t12.5 -48v-29q86 91 185 91q75 0 107 -41t32 -134v-549h-152v506q0 65 -16.5 93.5t-70.5 28.5q-39 0 -85 -18v-393h-152z" />
    <glyph glyph-name="theta" unicode="&#x3b8;" horiz-adv-x="612" 
d="M573 389q0 -180 -74.5 -292t-202.5 -112q-117 0 -185 92t-68 268q0 187 78 300.5t202 113.5q118 0 184 -98.5t66 -271.5zM306 43q103 0 103 304h-202q5 -304 99 -304zM304 702q-92 0 -97 -301h201q-9 301 -104 301z" />
    <glyph glyph-name="iota" unicode="&#x3b9;" horiz-adv-x="317" 
d="M221 493v-384q0 -31 14 -44.5t42 -15.5q9 -1 30 -1l1 -31q-54 -30 -118 -30q-121 0 -121 92v414h152z" />
    <glyph glyph-name="kappa" unicode="&#x3ba;" horiz-adv-x="617" 
d="M92 0v391q0 24 -8.5 33t-29.5 9q-14 1 -39 -1v40q108 35 156 35q73 0 73 -68v-439h-152zM256 258l83 108q41 51 62.5 75t52.5 45.5t60 21.5q35 0 54.5 -17t19.5 -46q0 -57 -60 -63q-8 -1 -36 1.5t-48.5 -1.5t-36.5 -21l-39 -42l118 -189q22 -36 46 -54.5t62 -26.5v-33
q-12 -11 -41 -21t-64 -10q-76 0 -128 86l-105 175v12z" />
    <glyph glyph-name="lambda" unicode="&#x3bb;" horiz-adv-x="546" 
d="M433 173q20 -46 37 -61t45 -15q15 0 23 1l2 -89q-35 -20 -70 -20q-40 0 -62.5 29.5t-44.5 97.5l-62 206l-124 -322h-170l233 524q-27 78 -64.5 101.5t-124.5 23.5q-30 0 -46 16t-16 43q0 51 65 51q146 0 240 -223z" />
    <glyph glyph-name="_3" unicode="&#x3bc;" horiz-adv-x="653" 
d="M555 493v-390q0 -40 16 -52t57 -10l1 -25q-60 -29 -118 -29q-59 0 -83.5 22t-24.5 63q-43 -44 -83.5 -65.5t-93.5 -21.5q-27 0 -48 6q58 -84 58 -166v-42h-152v710h152v-294q0 -57 20 -84.5t75 -27.5q33 0 72 14v392h152z" />
    <glyph glyph-name="nu" unicode="&#x3bd;" horiz-adv-x="552" 
d="M458 507q69 0 69 -72q0 -141 -237 -443h-63l-138 380q-15 39 -33 50t-50 9v35q62 41 123 41q24 0 41.5 -7.5t30 -23.5t19 -30t15.5 -38l92 -285q33 57 49 111t16 83t-4 68.5t-4 49.5q0 31 19 51.5t55 20.5z" />
    <glyph glyph-name="xi" unicode="&#x3be;" horiz-adv-x="444" 
d="M211 314q-1 -1 -12.5 -13.5t-21 -29t-9.5 -33.5q0 -83 113 -115q4 -1 25 -7.5t26.5 -8.5l24 -9t24.5 -11.5t19.5 -12.5t18.5 -16.5t12.5 -19.5t10 -24.5t2.5 -29.5q0 -80 -93 -201h-69q63 93 63 132q0 43 -56 65q-15 6 -54 17.5t-68.5 23.5t-62 32t-50.5 54t-18 80
q0 47 36.5 87.5t94.5 62.5q-86 33 -86 104q0 109 203 163h-245v23l43 117h332l3 -120q-64 -26 -108.5 -51t-78 -64t-33.5 -83q0 -38 33 -63q69 18 120 19q4 -12 4 -32q0 -32 -9 -53q-81 0 -134 17z" />
    <glyph glyph-name="omicron" unicode="&#x3bf;" 
d="M564 270q0 -121 -76 -203t-205 -82q-111 0 -179.5 63.5t-68.5 178.5q0 127 81 203.5t206 76.5q111 0 176.5 -63t65.5 -174zM402 237q0 212 -110 212q-53 0 -74 -47t-21 -138q0 -221 108 -221q97 0 97 194z" />
    <glyph glyph-name="pi" unicode="&#x3c0;" horiz-adv-x="667" 
d="M128 0v352h-102v24l43 117h554v-141h-92v-248q0 -39 20.5 -51t64.5 -9l1 -25q-45 -32 -106 -32q-54 0 -76 23.5t-22 68.5v273h-168v-352h-117z" />
    <glyph glyph-name="rho" unicode="&#x3c1;" horiz-adv-x="583" 
d="M49 -217v441q2 110 90.5 196t198.5 86q92 0 150.5 -64.5t58.5 -173.5q0 -129 -81.5 -206t-216.5 -77q-24 0 -48 3v-205h-152zM201 60q45 -18 80 -17q57 2 85 58t28 146q0 88 -26.5 139t-74.5 51q-87 0 -92 -161v-216z" />
    <glyph glyph-name="sigma1" unicode="&#x3c2;" horiz-adv-x="513" 
d="M36 227q0 122 75 201t201 79q82 0 129 -29t47 -75q0 -33 -18.5 -53t-50.5 -20q-30 0 -47.5 19t-23.5 41t-23 41t-46 19q-48 0 -76 -44.5t-28 -118.5q0 -73 29 -107.5t98 -55.5q36 -11 57 -18t45 -19.5t37 -26t21.5 -33.5t8.5 -45q0 -80 -93 -199h-72q64 79 64 132
q0 41 -57 65q-24 9 -65.5 22l-66 21t-55.5 25.5t-48 38.5t-29.5 57t-12.5 83z" />
    <glyph glyph-name="sigma" unicode="&#x3c3;" horiz-adv-x="596" 
d="M424 352q45 -26 69.5 -66t24.5 -85q0 -91 -68.5 -153.5t-186.5 -62.5q-108 0 -168 59t-60 163q0 124 92 203t270 83h194v-25l-40 -116h-127zM417 208q0 87 -30 144h-19q-99 0 -142 -35.5t-43 -112.5q0 -71 27.5 -116t86.5 -45q60 0 90 44t30 121z" />
    <glyph glyph-name="tau" unicode="&#x3c4;" horiz-adv-x="497" 
d="M50 493h420v-141h-191v-192q0 -47 24 -63.5t72 -16.5q31 0 74 9v-33q-71 -69 -157 -69q-64 0 -91.5 32t-27.5 92v241h-166v24z" />
    <glyph glyph-name="upsilon" unicode="&#x3c5;" horiz-adv-x="581" 
d="M453 205q0 45 -13.5 81.5t-30 56t-30 44t-13.5 48.5q0 32 20 52.5t53 20.5q38 0 62 -38t31.5 -82.5t7.5 -94.5q0 -61 -14 -114.5t-42 -98t-76.5 -70t-112.5 -25.5q-104 0 -157 65t-53 186v155q0 25 -9 33.5t-31 9.5q-15 0 -37 -2v40q105 35 154 35q75 0 75 -68v-189
q0 -114 27.5 -161.5t79.5 -47.5q41 0 67 29t34 63t8 72z" />
    <glyph glyph-name="phi" unicode="&#x3c6;" horiz-adv-x="839" 
d="M478 744l3 -235q323 -19 323 -243q0 -113 -82 -189t-234 -90l3 -204h-143l2 203q-147 10 -231 68.5t-84 172.5q0 117 82.5 192t240.5 89l3 236h117zM197 264q0 -91 34 -149t120 -75l6 416q-89 -11 -124.5 -59.5t-35.5 -132.5zM642 230q0 93 -35 150.5t-125 72.5l5 -414
q83 14 119 61.5t36 129.5z" />
    <glyph glyph-name="chi" unicode="&#x3c7;" horiz-adv-x="535" 
d="M262 267l103 226h164l-208 -371l66 -159q20 -49 46.5 -68.5t69.5 -19.5q10 0 36 2l1 -52q-15 -20 -42 -35.5t-58 -15.5q-40 0 -62 31.5t-63 128.5l-38 92l-104 -243h-170l215 388l-50 121q-27 71 -52.5 96t-67.5 25q-30 0 -43 -3l-1 63q48 36 99 36q35 0 55.5 -18.5
t38.5 -63.5z" />
    <glyph glyph-name="psi" unicode="&#x3c8;" horiz-adv-x="776" 
d="M646 209q0 45 -12.5 81t-28 54.5t-28 42.5t-12.5 48q0 32 20 52.5t53 20.5q29 0 49 -20t29.5 -54.5t13 -67t3.5 -69.5q0 -112 -61 -194.5t-182 -107.5l3 -212h-143l2 203q-142 8 -204 70.5t-62 179.5v155q0 23 -8 32t-27 10q-14 1 -42 -1v40q108 35 150 35q37 0 52.5 -17
t15.5 -51v-189q0 -92 30 -139.5t96 -61.5l10 695h116l10 -699q78 13 117.5 61t39.5 103z" />
    <glyph glyph-name="omega" unicode="&#x3c9;" horiz-adv-x="790" 
d="M662 493q40 -40 64.5 -104.5t24.5 -139.5q0 -113 -58.5 -185.5t-155.5 -72.5q-96 0 -147 100q-19 -43 -59 -71.5t-101 -28.5q-86 0 -139 60.5t-53 173.5q0 174 117 268h102q-62 -90 -62 -243q0 -78 19 -127t59 -49q21 0 37 9t26.5 27t14.5 27t9 25q-27 66 -27 198
q18 11 57 11q41 0 58 -11q0 -124 -27 -198q2 -10 6 -21t12.5 -28t25.5 -28t39 -11q43 0 67.5 49.5t24.5 134.5q0 144 -51 235h117z" />
    <glyph glyph-name="iotadieresis" unicode="&#x3ca;" horiz-adv-x="317" 
d="M-18 664q0 68 73 68q72 0 72 -68q0 -69 -72 -69q-73 0 -73 69zM175 664q0 68 72 68q73 0 73 -68q0 -69 -73 -69q-72 0 -72 69zM221 493v-384q0 -31 14 -44.5t42 -15.5q9 -1 30 -1l1 -31q-54 -30 -118 -30q-121 0 -121 92v414h152z" />
    <glyph glyph-name="upsilondieresis" unicode="&#x3cb;" horiz-adv-x="581" 
d="M122 664q0 68 73 68q72 0 72 -68q0 -69 -72 -69q-73 0 -73 69zM315 664q0 68 72 68q73 0 73 -68q0 -69 -73 -69q-72 0 -72 69zM453 205q0 45 -13.5 81.5t-30 56t-30 44t-13.5 48.5q0 32 20 52.5t53 20.5q38 0 62 -38t31.5 -82.5t7.5 -94.5q0 -61 -14 -114.5t-42 -98
t-76.5 -70t-112.5 -25.5q-104 0 -157 65t-53 186v155q0 25 -9 33.5t-31 9.5q-15 0 -37 -2v40q105 35 154 35q75 0 75 -68v-189q0 -114 27.5 -161.5t79.5 -47.5q41 0 67 29t34 63t8 72z" />
    <glyph glyph-name="omicrontonos" unicode="&#x3cc;" 
d="M414 733l-109 -177h-38l-4 10l44 178h103zM564 270q0 -121 -76 -203t-205 -82q-111 0 -179.5 63.5t-68.5 178.5q0 127 81 203.5t206 76.5q111 0 176.5 -63t65.5 -174zM402 237q0 212 -110 212q-53 0 -74 -47t-21 -138q0 -221 108 -221q97 0 97 194z" />
    <glyph glyph-name="upsilontonos" unicode="&#x3cd;" horiz-adv-x="581" 
d="M415 733l-109 -177h-38l-4 10l44 178h103zM453 205q0 45 -13.5 81.5t-30 56t-30 44t-13.5 48.5q0 32 20 52.5t53 20.5q38 0 62 -38t31.5 -82.5t7.5 -94.5q0 -61 -14 -114.5t-42 -98t-76.5 -70t-112.5 -25.5q-104 0 -157 65t-53 186v155q0 25 -9 33.5t-31 9.5
q-15 0 -37 -2v40q105 35 154 35q75 0 75 -68v-189q0 -114 27.5 -161.5t79.5 -47.5q41 0 67 29t34 63t8 72z" />
    <glyph glyph-name="omegatonos" unicode="&#x3ce;" horiz-adv-x="790" 
d="M502 733l-109 -177h-38l-4 10l44 178h103zM662 493q40 -40 64.5 -104.5t24.5 -139.5q0 -113 -58.5 -185.5t-155.5 -72.5q-96 0 -147 100q-19 -43 -59 -71.5t-101 -28.5q-86 0 -139 60.5t-53 173.5q0 174 117 268h102q-62 -90 -62 -243q0 -78 19 -127t59 -49q21 0 37 9
t26.5 27t14.5 27t9 25q-27 66 -27 198q18 11 57 11q41 0 58 -11q0 -124 -27 -198q2 -10 6 -21t12.5 -28t25.5 -28t39 -11q43 0 67.5 49.5t24.5 134.5q0 144 -51 235h117z" />
    <glyph glyph-name="uni0400" unicode="&#x400;" horiz-adv-x="652" 
d="M183 869h129l85 -126l-4 -10h-38l-176 125zM45 39q38 3 46 9q22 13 22 55v487q0 44 -24 55q-9 4 -44 9v39h536v-173h-42q-18 69 -51.5 94.5t-100.5 25.5h-109v-259h82q41 0 54 25q8 15 14 62h44v-228h-44q-8 51 -13 61q-13 27 -55 27h-82v-275h128q72 0 106 33t63 122
l38 -4l-17 -204h-551v39z" />
    <glyph glyph-name="afii10023" unicode="&#x401;" horiz-adv-x="652" 
d="M176 807q0 67 72 67q31 0 51 -16.5t20 -50.5t-20 -50.5t-51 -16.5q-72 0 -72 67zM365 807q0 67 72 67t72 -67t-72 -67t-72 67zM45 39q38 3 46 9q22 13 22 55v487q0 44 -24 55q-9 4 -44 9v39h536v-173h-42q-18 69 -51.5 94.5t-100.5 25.5h-109v-259h82q41 0 54 25
q8 15 14 62h44v-228h-44q-8 51 -13 61q-13 27 -55 27h-82v-275h128q72 0 106 33t63 122l38 -4l-17 -204h-551v39z" />
    <glyph glyph-name="afii10051" unicode="&#x402;" horiz-adv-x="852" 
d="M829 198q0 -203 -238 -203v40q36 2 54.5 35t18.5 115q0 84 -34 126.5t-110 42.5q-53 0 -101 -16v-243q0 -33 18 -44q9 -7 44 -12v-39h-294v39q29 2 43 7q24 10 24 49v551h-31q-67 0 -105.5 -37.5t-58.5 -112.5h-36v197h629v-197h-36q-20 75 -58.5 112.5t-105.5 37.5h-33
v-258q70 27 165 27q116 0 180.5 -55t64.5 -162z" />
    <glyph glyph-name="afii10052" unicode="&#x403;" horiz-adv-x="598" 
d="M513 858l-176 -125h-38l-4 10l85 126h129zM278 640v-541q0 -38 27 -50q8 -4 53 -10v-39h-313v39q29 2 43 7q25 12 25 49v495q0 44 -24 55q-9 4 -44 9v39h536v-173h-42q-18 69 -51.5 94.5t-100.5 25.5h-109z" />
    <glyph glyph-name="afii10053" unicode="&#x404;" horiz-adv-x="685" 
d="M414 662q-53 0 -91 -21.5t-59.5 -62t-31.5 -90.5t-11 -115h269v-49h-269q2 -69 11.5 -120t30.5 -91t57 -60.5t88 -20.5q137 0 187 182h38v-158q-88 -71 -228 -71q-161 0 -262 97t-101 257q0 166 105.5 268t269.5 102q121 0 216 -54v-174h-38q-19 84 -64 132.5t-117 48.5z
" />
    <glyph glyph-name="afii10054" unicode="&#x405;" horiz-adv-x="614" 
d="M282 -15q-131 0 -227 55v183h38q33 -99 83 -142.5t122 -43.5q60 0 92.5 27.5t32.5 76.5q0 88 -112 124l-68 24q-86 28 -135 72.5t-49 124.5q0 96 72 159t201 63q116 -2 209 -55v-179h-45q-25 97 -66.5 140.5t-108.5 43.5q-58 0 -89.5 -28.5t-31.5 -75.5q0 -82 97 -115
l80 -26q100 -33 146 -81t46 -121q0 -103 -80.5 -164.5t-206.5 -61.5z" />
    <glyph glyph-name="afii10055" unicode="&#x406;" horiz-adv-x="391" 
d="M278 95q0 -36 25 -48q2 -1 43 -8v-39h-301v39q29 2 43 7q25 12 25 49v503q0 36 -25 48q-2 1 -43 8v39h301v-39q-30 -2 -44 -7q-24 -11 -24 -49v-503z" />
    <glyph glyph-name="afii10056" unicode="&#x407;" horiz-adv-x="391" 
d="M278 95q0 -36 25 -48q2 -1 43 -8v-39h-301v39q29 2 43 7q25 12 25 49v503q0 36 -25 48q-2 1 -43 8v39h301v-39q-30 -2 -44 -7q-24 -11 -24 -49v-503zM32 807q0 67 72 67q31 0 51 -16.5t20 -50.5t-20 -50.5t-51 -16.5q-72 0 -72 67zM221 807q0 67 72 67t72 -67t-72 -67
t-72 67z" />
    <glyph glyph-name="afii10057" unicode="&#x408;" horiz-adv-x="378" 
d="M272 71q0 -71 -30.5 -137.5t-93 -112.5t-143.5 -46q-65 0 -95.5 21.5t-30.5 57.5q0 27 16.5 46t45.5 19q26 0 41 -15t18.5 -33.5t13 -33.5t26.5 -15q39 0 53 61t14 191v524q0 36 -26 48q-2 1 -42 8v39h300v-39q-30 -2 -43 -7q-24 -11 -24 -49v-527z" />
    <glyph glyph-name="afii10058" unicode="&#x409;" horiz-adv-x="992" 
d="M682 654q-29 -2 -42 -8q-25 -12 -25 -48v-183h119q100 0 168.5 -50.5t68.5 -144.5q0 -99 -73.5 -159.5t-176.5 -60.5h-339v39q32 2 42 8q26 12 26 48v548h-200q-3 -188 -12 -305t-29.5 -199.5t-54 -116t-85.5 -33.5q-32 0 -50.5 18.5t-18.5 46.5q0 65 71 83
q68 16 94.5 116t30.5 346q0 34 -23 46q-12 7 -45 9v39h554v-39zM615 362v-309h56q131 0 131 157q0 69 -29 110.5t-86 41.5h-72z" />
    <glyph glyph-name="afii10059" unicode="&#x40a;" horiz-adv-x="1090" 
d="M548 336h-270v-241q0 -36 25 -48q2 -1 43 -8v-39h-301v39q29 2 43 7q25 12 25 49v503q0 36 -25 48q-2 1 -43 8v39h301v-39q-30 -2 -44 -7q-24 -11 -24 -49v-211h270v211q0 37 -25 49q-4 2 -10.5 3t-16.5 2t-16 2v39h301v-39q-30 -2 -43 -8q-25 -12 -25 -48v-183h119
q100 0 168.5 -50.5t68.5 -144.5q0 -99 -73 -159.5t-177 -60.5h-339v39q30 2 43 8q25 12 25 48v241zM713 362v-309h57q130 0 130 157q0 68 -29 110t-85 42h-73z" />
    <glyph glyph-name="afii10060" unicode="&#x40b;" horiz-adv-x="890" 
d="M817 95q0 -35 25 -48q2 -1 43 -8v-39h-294v39q38 8 44 12q18 11 18 44l-1 99q-1 80 -29.5 117t-95.5 37q-61 0 -108 -17v-236q0 -33 18 -44q9 -7 44 -12v-39h-294v39q29 2 43 7q24 10 24 49v551h-31q-67 0 -105.5 -37.5t-58.5 -112.5h-36v197h629v-197h-36
q-20 75 -58.5 112.5t-105.5 37.5h-33v-258q76 27 171 27q227 0 227 -222v-98z" />
    <glyph glyph-name="afii10061" unicode="&#x40c;" horiz-adv-x="733" 
d="M278 95q0 -38 25 -48q2 -1 43 -8v-39h-301v39q29 2 43 7q25 12 25 49v503q0 38 -25 48q-2 1 -43 8v39h301v-39q-30 -2 -44 -7q-24 -11 -24 -49v-503zM306 333l178 208q34 39 34 63q0 45 -68 49v40h274v-40q-78 -11 -138 -76l-151 -168l184 -285q47 -74 114 -85l-3 -39
h-220l-204 326v7zM586 858l-176 -125h-38l-4 10l85 126h129z" />
    <glyph glyph-name="uni040D" unicode="&#x40d;" horiz-adv-x="837" 
d="M278 869h129l85 -126l-4 -10h-38l-176 125zM792 693v-39q-30 -2 -43 -7q-25 -12 -25 -49v-503q0 -36 26 -48q2 -1 42 -8v-39h-300v39q30 2 43 7q24 10 24 49v449l-305 -544h-209v39q29 2 43 7q25 12 25 49v503q0 36 -25 48q-2 1 -43 8v39h301v-39q-30 -2 -44 -7
q-24 -11 -24 -49v-450l306 545h208z" />
    <glyph glyph-name="afii10062" unicode="&#x40e;" horiz-adv-x="676" 
d="M257 115q33 0 64 41l-240 440q-15 28 -34.5 40t-51.5 16v41h337v-41q-81 -9 -81 -54q0 -12 6 -25l141 -269l122 257q12 24 12 41q0 44 -80 50v41h240v-38q-63 -8 -89 -57l-193 -389q-65 -127 -92 -161q-50 -63 -119 -63q-36 0 -55.5 18t-19.5 49t19.5 51t51.5 20
q19 0 35.5 -4t26.5 -4zM535 862q-9 -57 -50.5 -89t-112.5 -32q-141 0 -165 121h107q3 -35 20 -54t44 -19q33 0 48 18.5t19 54.5h90z" />
    <glyph glyph-name="afii10145" unicode="&#x40f;" horiz-adv-x="822" 
d="M278 51h266v547q0 37 -25 49q-11 5 -43 7v39h301v-39q-41 -7 -43 -8q-25 -12 -25 -48v-503q0 -37 25 -49q11 -5 43 -7v-39h-279q-21 0 -40 -41.5t-30 -118.5h-42q-12 81 -25 119.5t-33 40.5h-283v39q41 7 43 8q25 13 25 48v503q0 37 -25 49q-14 5 -43 7v39h301v-39
q-41 -7 -43 -8q-25 -12 -25 -48v-547z" />
    <glyph glyph-name="afii10017" unicode="&#x410;" horiz-adv-x="703" 
d="M408 240h-220l-55 -145q-14 -38 29 -49q4 -1 12.5 -2l22 -2.5l22.5 -2.5v-39h-227v39q12 1 40 11q27 10 40 45l243 611h84l224 -611q12 -35 39 -45q22 -10 39 -11v-39h-315v39q41 6 49 9q34 14 23 47zM208 293h182l-86 251z" />
    <glyph glyph-name="afii10018" unicode="&#x411;" horiz-adv-x="674" 
d="M278 639v-240h119q107 0 176 -46.5t69 -140.5q0 -98 -73 -155t-177 -57h-347v39q30 2 43 8q25 12 25 48v503q0 37 -25 49q-4 2 -10.5 3t-16.5 2t-16 2v39h536v-173h-42q-17 70 -51 94.5t-101 24.5h-109zM278 346v-293h58q137 0 137 149q0 144 -131 144h-64z" />
    <glyph glyph-name="afii10019" unicode="&#x412;" horiz-adv-x="700" 
d="M45 0v39q29 2 43 7q25 12 25 49v503q0 38 -25 48q-2 1 -43 8v39h321q123 0 187.5 -44t64.5 -121q0 -57 -46 -101t-126 -60v-4q107 -5 160.5 -49t53.5 -116q0 -96 -81 -147t-203 -51h-331zM487 193q0 61 -40.5 100t-134.5 39h-34v-280h46q163 0 163 141zM278 641v-262h21
q141 0 141 131t-125 131h-37z" />
    <glyph glyph-name="afii10020" unicode="&#x413;" horiz-adv-x="598" 
d="M278 640v-541q0 -38 27 -50q8 -4 53 -10v-39h-313v39q29 2 43 7q25 12 25 49v495q0 44 -24 55q-9 4 -44 9v39h536v-173h-42q-18 69 -51.5 94.5t-100.5 25.5h-109z" />
    <glyph glyph-name="afii10021" unicode="&#x414;" horiz-adv-x="747" 
d="M693 654q-30 -2 -43 -7q-25 -12 -25 -49v-547h96v-211h-36q-19 80 -55.5 119t-107.5 41h-309q-76 0 -113.5 -39t-56.5 -121h-36v211h43q62 16 95 159t37 389q0 34 -22 46q-11 7 -45 9v39h578v-39zM242 643q-6 -257 -29.5 -395.5t-72.5 -196.5h320v592h-218z" />
    <glyph glyph-name="afii10022" unicode="&#x415;" horiz-adv-x="652" 
d="M45 39q38 3 46 9q22 13 22 55v487q0 44 -24 55q-9 4 -44 9v39h536v-173h-42q-18 69 -51.5 94.5t-100.5 25.5h-109v-259h82q41 0 54 25q8 15 14 62h44v-228h-44q-8 51 -13 61q-13 27 -55 27h-82v-275h128q72 0 106 33t63 122l38 -4l-17 -204h-551v39z" />
    <glyph glyph-name="afii10024" unicode="&#x416;" horiz-adv-x="1059" 
d="M610 95q0 -38 25 -48q2 -1 43 -8v-39h-298v39q30 2 44 7q24 10 24 49v503q0 38 -25 48q-2 1 -43 8v39h298v-39q-32 -2 -43 -7q-25 -12 -25 -49v-503zM638 333l174 208q34 41 34 63q0 44 -66 49v40h271v-40q-80 -11 -137 -76l-148 -167l183 -286q47 -74 110 -85l-2 -39
h-218l-201 326v7zM420 326l-200 -326h-218l1 39q61 10 108 85l181 285l-148 168q-57 65 -137 76v40h271v-40q-65 -5 -65 -49q-1 -22 33 -63l174 -208v-7z" />
    <glyph glyph-name="afii10025" unicode="&#x417;" horiz-adv-x="624" 
d="M252 662q-110 0 -160 -182h-38v158q88 71 223 71q122 0 197 -41.5t75 -127.5q0 -73 -50 -119.5t-138 -56.5v-4q103 -4 164 -43.5t61 -118.5q0 -103 -80.5 -158t-218.5 -55q-149 0 -238 54v174h38q20 -88 61.5 -134.5t122.5 -46.5q67 0 104.5 41.5t37.5 116.5
q0 141 -172 141h-53v49h52q131 0 131 142q0 65 -30 102.5t-89 37.5z" />
    <glyph glyph-name="afii10026" unicode="&#x418;" horiz-adv-x="837" 
d="M792 693v-39q-30 -2 -43 -7q-25 -12 -25 -49v-503q0 -36 26 -48q2 -1 42 -8v-39h-300v39q30 2 43 7q24 10 24 49v449l-305 -544h-209v39q29 2 43 7q25 12 25 49v503q0 36 -25 48q-2 1 -43 8v39h301v-39q-30 -2 -44 -7q-24 -11 -24 -49v-450l306 545h208z" />
    <glyph glyph-name="afii10027" unicode="&#x419;" horiz-adv-x="837" 
d="M792 693v-39q-30 -2 -43 -7q-25 -12 -25 -49v-503q0 -36 26 -48q2 -1 42 -8v-39h-300v39q30 2 43 7q24 10 24 49v449l-305 -544h-209v39q29 2 43 7q25 12 25 49v503q0 36 -25 48q-2 1 -43 8v39h301v-39q-30 -2 -44 -7q-24 -11 -24 -49v-450l306 545h208zM605 862
q-9 -57 -50.5 -89t-112.5 -32q-141 0 -165 121h107q3 -35 20 -54t44 -19q33 0 48 18.5t19 54.5h90z" />
    <glyph glyph-name="afii10028" unicode="&#x41a;" horiz-adv-x="733" 
d="M278 95q0 -38 25 -48q2 -1 43 -8v-39h-301v39q29 2 43 7q25 12 25 49v503q0 38 -25 48q-2 1 -43 8v39h301v-39q-30 -2 -44 -7q-24 -11 -24 -49v-503zM306 333l178 208q34 39 34 63q0 45 -68 49v40h274v-40q-78 -11 -138 -76l-151 -168l184 -285q47 -74 114 -85l-3 -39
h-220l-204 326v7z" />
    <glyph glyph-name="afii10029" unicode="&#x41b;" horiz-adv-x="740" 
d="M695 654q-30 -2 -44 -7q-24 -11 -24 -49v-503q0 -36 25 -48q2 -1 43 -8v-39h-301v39q29 2 43 7q25 12 25 49v548h-212q-3 -188 -12 -305t-29.5 -199.5t-54 -116t-85.5 -33.5q-32 0 -50.5 18.5t-18.5 46.5q0 65 71 83q68 16 94.5 116t30.5 346q0 34 -23 46q-12 7 -45 9v39
h567v-39z" />
    <glyph glyph-name="afii10030" unicode="&#x41c;" horiz-adv-x="936" 
d="M473 316l191 377h227v-39q-30 -2 -44 -7q-24 -12 -24 -49v-503q0 -35 25 -48q2 -1 43 -8v-39h-301v39q32 2 43 7q25 12 25 49v450l-211 -416h-42l-213 415v-412q0 -53 32 -74q26 -17 64 -21v-37h-259v37q34 5 57 17q39 20 39 78v430q0 49 -23 69q-19 19 -66 24v38h245z
" />
    <glyph glyph-name="afii10031" unicode="&#x41d;" horiz-adv-x="838" 
d="M560 598q0 36 -25 48q-2 1 -43 8v39h301v-39q-32 -2 -43 -7q-25 -12 -25 -49v-503q0 -35 25 -48q2 -1 43 -8v-39h-301v39q30 2 44 7q24 10 24 49v241h-282v-241q0 -36 25 -48q2 -1 43 -8v-39h-301v39q29 2 43 7q25 12 25 49v503q0 36 -25 48q-2 1 -43 8v39h301v-39
q-30 -2 -44 -7q-24 -11 -24 -49v-211h282v211z" />
    <glyph glyph-name="afii10032" unicode="&#x41e;" horiz-adv-x="807" 
d="M765 352q0 -160 -104 -263.5t-265 -103.5q-155 0 -254.5 96.5t-99.5 259.5q0 167 104 267.5t262 100.5q157 0 257 -99.5t100 -257.5zM586 343q0 71 -8 125t-28 100t-57 70t-91 24t-91 -24.5t-56 -70.5t-26.5 -97.5t-7.5 -119.5q0 -155 40 -235.5t139 -80.5q186 0 186 309
z" />
    <glyph glyph-name="afii10033" unicode="&#x41f;" horiz-adv-x="822" 
d="M777 654q-32 -2 -43 -7q-25 -12 -25 -49v-503q0 -35 25 -48q2 -1 43 -8v-39h-301v39q32 2 43 7q25 12 25 49v547h-266v-547q0 -36 25 -48q2 -1 43 -8v-39h-301v39q29 2 43 7q25 12 25 49v503q0 36 -25 48q-2 1 -43 8v39h732v-39z" />
    <glyph glyph-name="afii10034" unicode="&#x420;" horiz-adv-x="650" 
d="M401 693q98 0 164.5 -49.5t66.5 -143.5q0 -99 -71.5 -159t-173.5 -60h-109v-186q0 -38 25 -48q3 -1 46 -8v-39h-304v39q29 2 43 7q25 10 25 49v503q0 38 -25 48q-4 2 -43 8v39h356zM278 640v-306h57q128 0 128 156q0 69 -28 109.5t-84 40.5h-73z" />
    <glyph glyph-name="afii10035" unicode="&#x421;" horiz-adv-x="687" 
d="M408 659q-66 0 -109.5 -44t-60.5 -109.5t-17 -150.5q0 -319 187 -319q68 0 114 50.5t68 128.5h43v-159q-88 -71 -228 -71q-161 0 -262 97t-101 257q0 166 105.5 268t269.5 102q121 0 216 -54v-185h-43q-53 189 -182 189z" />
    <glyph glyph-name="afii10036" unicode="&#x422;" horiz-adv-x="675" 
d="M419 646v-551q0 -37 26 -48q5 -2 42 -8v-39h-300v39q29 2 43 7q24 10 24 49v551h-31q-67 0 -105.5 -37.5t-58.5 -112.5h-36v197h629v-197h-36q-20 75 -58.5 112.5t-105.5 37.5h-33z" />
    <glyph glyph-name="afii10037" unicode="&#x423;" horiz-adv-x="676" 
d="M257 115q33 0 64 41l-240 440q-15 28 -34.5 40t-51.5 16v41h337v-41q-81 -9 -81 -54q0 -12 6 -25l141 -269l122 257q12 24 12 41q0 44 -80 50v41h240v-38q-63 -8 -89 -57l-193 -389q-65 -127 -92 -161q-50 -63 -119 -63q-36 0 -55.5 18t-19.5 49t19.5 51t51.5 20
q19 0 35.5 -4t26.5 -4z" />
    <glyph glyph-name="afii10038" unicode="&#x424;" horiz-adv-x="936" 
d="M549 603q181 0 272.5 -66.5t91.5 -181.5q0 -260 -364 -264v-6q0 -35 25 -48q2 -1 43 -8v-39h-297v39q30 2 43 7q24 10 24 49v6q-180 0 -271.5 66.5t-91.5 181.5q0 124 88 193t275 71v5q0 36 -25 48l-42 8v39h297v-39q-29 -2 -43 -7q-25 -12 -25 -49v-5zM202 345
q0 -99 47.5 -153t137.5 -56v422q-93 -2 -139 -59.5t-46 -153.5zM734 349q0 99 -47.5 153t-137.5 56v-422q92 2 138.5 59t46.5 154z" />
    <glyph glyph-name="afii10039" unicode="&#x425;" horiz-adv-x="689" 
d="M7 693h331v-41q-62 -5 -62 -39q0 -13 11 -30l95 -147l101 134q17 23 17 41q0 36 -63 41v41h239v-41q-59 -11 -108 -69l-153 -197l188 -289q29 -45 80 -56v-41h-337v41q86 8 86 44q0 14 -12 31l-108 165l-113 -155q-16 -22 -16 -38q0 -38 61 -47v-41h-238v41q57 13 111 75
l162 216l-172 264q-32 50 -100 56v41z" />
    <glyph glyph-name="afii10040" unicode="&#x426;" horiz-adv-x="831" 
d="M278 51h266v547q0 37 -25 49q-11 5 -43 7v39h301v-39q-41 -7 -43 -8q-25 -12 -25 -48v-547h95v-211h-36q-18 80 -54.5 119t-107.5 41h-561v39q41 7 43 8q25 13 25 48v503q0 37 -25 49q-14 5 -43 7v39h301v-39q-41 -7 -43 -8q-25 -12 -25 -48v-547z" />
    <glyph glyph-name="afii10041" unicode="&#x427;" horiz-adv-x="777" 
d="M499 598q0 36 -25 48q-2 1 -43 8v39h301v-39q-32 -2 -43 -7q-25 -12 -25 -49v-503q0 -35 25 -48q2 -1 43 -8v-39h-301v39q30 2 44 7q24 10 24 49v215q-86 -29 -179 -29q-124 0 -183 52.5t-59 170.5v94q0 36 -26 48q-2 1 -42 8v39h300v-39q-30 -2 -43 -7q-24 -11 -24 -49
v-112q0 -72 30 -109.5t103 -37.5q69 0 123 16v243z" />
    <glyph glyph-name="afii10042" unicode="&#x428;" horiz-adv-x="1174" 
d="M45 39q41 7 43 8q25 13 25 48v503q0 37 -25 49q-14 5 -43 7v39h301v-39q-41 -7 -43 -8q-25 -12 -25 -48v-547h226v547q0 37 -25 49q-11 5 -43 7v39h301v-39q-41 -7 -43 -8q-25 -12 -25 -48v-547h227v547q0 36 -25 48q-2 1 -43 8v39h301v-39q-30 -2 -44 -7
q-24 -11 -24 -49v-503q0 -36 25 -48q2 -1 43 -8v-39h-1084v39z" />
    <glyph glyph-name="afii10043" unicode="&#x429;" horiz-adv-x="1182" 
d="M45 39q41 7 43 8q25 13 25 48v503q0 37 -25 49q-14 5 -43 7v39h301v-39q-41 -7 -43 -8q-25 -12 -25 -48v-547h226v547q0 37 -25 49q-11 5 -43 7v39h301v-39q-41 -7 -43 -8q-25 -12 -25 -48v-547h227v547q0 36 -25 48q-2 1 -43 8v39h301v-39q-30 -2 -44 -7
q-24 -11 -24 -49v-547h95v-211h-36q-19 80 -55.5 119t-107.5 41h-912v39z" />
    <glyph glyph-name="afii10044" unicode="&#x42a;" horiz-adv-x="785" 
d="M408 415h120q101 0 168.5 -50.5t67.5 -144.5q0 -99 -73 -159.5t-177 -60.5h-339v39q30 2 43 8q25 12 25 48v551h-20q-67 0 -105.5 -37.5t-58.5 -112.5h-36v197h453v-39q-30 -2 -43 -8q-25 -12 -25 -48v-183zM408 362v-309h57q130 0 130 157q0 68 -29 110t-85 42h-73z" />
    <glyph glyph-name="afii10045" unicode="&#x42b;" horiz-adv-x="995" 
d="M882 95q0 -36 25 -48q2 -1 43 -8v-39h-301v39q29 2 43 7q25 12 25 49v503q0 36 -25 48q-2 1 -43 8v39h301v-39q-30 -2 -44 -7q-24 -11 -24 -49v-503zM278 415h119q100 0 168.5 -50.5t68.5 -144.5q0 -99 -73 -159.5t-177 -60.5h-339v39q30 2 43 8q25 12 25 48v503
q0 37 -25 49q-4 2 -10.5 3t-16.5 2t-16 2v39h301v-39q-30 -2 -43 -8q-25 -12 -25 -48v-183zM278 362v-309h57q130 0 130 157q0 68 -29 110t-85 42h-73z" />
    <glyph glyph-name="afii10046" unicode="&#x42c;" horiz-adv-x="655" 
d="M278 415h119q100 0 168.5 -50.5t68.5 -144.5q0 -99 -73 -159.5t-177 -60.5h-339v39q30 2 43 8q25 12 25 48v503q0 37 -25 49q-4 2 -10.5 3t-16.5 2t-16 2v39h301v-39q-30 -2 -43 -8q-25 -12 -25 -48v-183zM278 362v-309h57q130 0 130 157q0 68 -29 110t-85 42h-73z" />
    <glyph glyph-name="afii10047" unicode="&#x42d;" horiz-adv-x="685" 
d="M271 32q54 0 92.5 22.5t59.5 65t30.5 93.5t10.5 118h-269v49h268q-4 136 -46.5 209t-139.5 73q-72 0 -119 -50t-69 -132h-37v158q88 71 228 71q161 0 262 -97t101 -257q0 -167 -106 -268.5t-270 -101.5q-121 0 -215 54v174h37q44 -181 182 -181z" />
    <glyph glyph-name="afii10048" unicode="&#x42e;" horiz-adv-x="1133" 
d="M1091 352q0 -160 -102.5 -263.5t-256.5 -103.5q-147 0 -244.5 95.5t-99.5 256.5h-110v-242q0 -36 25 -48q2 -1 43 -8v-39h-301v39q29 2 43 7q25 12 25 49v503q0 36 -25 48q-2 1 -43 8v39h301v-39q-30 -2 -44 -7q-24 -11 -24 -49v-212h112q14 147 113.5 235t240.5 88
q151 0 249 -100t98 -257zM912 343q0 71 -8 125.5t-27 100t-54 69.5t-85 24t-85 -24.5t-53 -70.5t-25.5 -98t-7.5 -119q0 -155 38 -235.5t131 -80.5q176 0 176 309z" />
    <glyph glyph-name="afii10049" unicode="&#x42f;" horiz-adv-x="724" 
d="M446 293h-73l-175 -293h-209l3 40q32 5 54 22t47 55l128 203q-62 18 -98.5 63t-36.5 109q0 91 65.5 146t176.5 55h351v-39q-30 -2 -43 -8q-25 -12 -25 -48v-503q0 -37 25 -49q4 -2 10.5 -3t16.5 -2t16 -2v-39h-301v39q30 2 43 8q25 12 25 48v198zM255 494q0 -70 34 -109
t104 -39h53v294h-48q-72 0 -107.5 -39t-35.5 -107z" />
    <glyph glyph-name="afii10065" unicode="&#x430;" horiz-adv-x="545" 
d="M463 103q0 -36 13 -49t44 -13h17l1 -25q-60 -29 -119 -29q-60 0 -84 23.5t-24 68.5v4q-60 -95 -156 -95q-55 0 -88 32t-33 87q0 60 41.5 92t124.5 52l111 25v20q0 54 -21.5 79t-77.5 25q-70 0 -162 -23v62q131 67 239 67q90 0 132 -47.5t42 -145.5v-210zM243 91
q31 0 68 15v127l-57 -15q-42 -11 -61 -25t-19 -42q0 -60 69 -60z" />
    <glyph glyph-name="afii10066" unicode="&#x431;" horiz-adv-x="620" 
d="M219 639q-13 -64 -21 -208q53 64 151 64q103 0 169 -61t66 -169q0 -118 -75 -199t-204 -81q-250 0 -250 288q0 220 78 329t237 119l36 2q101 8 121 17q15 8 24 22l20 -7q-26 -159 -192 -168q-95 -9 -160 52zM422 231q0 206 -110 206q-53 0 -74 -46t-21 -133
q0 -215 108 -215q97 0 97 188z" />
    <glyph glyph-name="afii10067" unicode="&#x432;" horiz-adv-x="587" 
d="M94 400q0 38 -25 48q-14 6 -37 8v37h303q94 0 146.5 -31t52.5 -92q0 -50 -35.5 -80.5t-98.5 -39.5q149 -11 149 -109q0 -141 -214 -141h-303v37q23 2 37 7q25 10 25 49v307zM246 227v-181h38q54 0 79 22.5t25 70.5q0 88 -102 88h-40zM246 447v-175h28q52 0 75.5 22
t23.5 67q0 47 -23.5 66.5t-78.5 19.5h-25z" />
    <glyph glyph-name="afii10068" unicode="&#x433;" horiz-adv-x="480" 
d="M246 445v-352q0 -36 25 -48q15 -7 36 -8v-37h-275v37q23 2 37 7q25 10 25 49v307q0 38 -25 48q-14 6 -37 8v37h423v-178h-32q-19 69 -48 99.5t-89 30.5h-40z" />
    <glyph glyph-name="afii10069" unicode="&#x434;" horiz-adv-x="613" 
d="M568 493v-37q-33 -6 -37 -8q-25 -10 -25 -48v-352h88v-199h-37q-16 80 -51.5 115.5t-107.5 35.5h-186q-78 0 -112.5 -34.5t-53.5 -116.5h-37v199h35q52 11 80.5 109t32.5 238q1 31 -14.5 44.5t-50.5 14.5v39h476zM218 445q-13 -320 -84 -397h220v397h-136z" />
    <glyph glyph-name="afii10070" unicode="&#x435;" horiz-adv-x="536" 
d="M481 61q-86 -76 -210 -76q-113 0 -174 62.5t-61 176.5q0 126 72.5 204.5t200.5 78.5q91 0 141 -43.5t53 -129.5q1 -12 -1 -39l-28 -42h-293q2 -79 37 -121.5t114 -42.5q74 0 147 26zM277 449q-83 0 -95 -146h169q2 22 2 34q0 52 -19.5 82t-56.5 30z" />
    <glyph glyph-name="afii10072" unicode="&#x436;" horiz-adv-x="875" 
d="M362 400q0 32 -17 43q-16 11 -41 13v37h261v-37q-29 -3 -41.5 -15.5t-12.5 -40.5v-307q0 -28 13 -41t42 -15v-37h-258v37q30 2 42 14.5t12 41.5v307zM517 252l103 91q44 39 44 71q0 41 -50 45v34h240v-34q-45 -8 -111 -62l-103 -90l130 -177q21 -29 31 -41.5t26.5 -26.5
t39.5 -27l-6 -35h-173l-171 240v12zM355 239l-173 -239h-174v35q23 13 40 27.5t27 26.5l33 41l128 174l-106 93q-66 54 -110 62v34h240v-34q-50 -4 -50 -45q0 -32 44 -71l103 -91z" />
    <glyph glyph-name="afii10073" unicode="&#x437;" horiz-adv-x="511" 
d="M222 -15q-104 0 -179 36l-4 137l37 4q29 -63 59.5 -93.5t76.5 -30.5q48 0 75 26.5t27 74.5q0 89 -98 89h-66v47h60q86 0 86 87q0 48 -20 70.5t-65 22.5t-72.5 -29.5t-52.5 -94.5l-38 4l5 135q75 37 178 37q225 0 225 -136q0 -52 -35.5 -82t-97.5 -39q151 -11 151 -109
q0 -75 -69 -115.5t-183 -40.5z" />
    <glyph glyph-name="afii10074" unicode="&#x438;" horiz-adv-x="679" 
d="M434 359l-211 -359h-191v37q23 2 37 7q25 10 25 49v307q0 38 -25 48q-14 6 -37 8v37h275v-37q-24 -3 -36 -8q-25 -12 -25 -48v-269l210 362h191v-37q-34 -6 -37 -8q-24 -10 -24 -48v-307q0 -39 24 -49q15 -6 37 -7v-37h-275v37q25 2 36 8q26 12 26 48v266z" />
    <glyph glyph-name="afii10075" unicode="&#x439;" horiz-adv-x="679" 
d="M434 359l-211 -359h-191v37q23 2 37 7q25 10 25 49v307q0 38 -25 48q-14 6 -37 8v37h275v-37q-24 -3 -36 -8q-25 -12 -25 -48v-269l210 362h191v-37q-34 -6 -37 -8q-24 -10 -24 -48v-307q0 -39 24 -49q15 -6 37 -7v-37h-275v37q25 2 36 8q26 12 26 48v266zM516 717
q-6 -58 -52 -95t-118 -37q-68 0 -116.5 34t-54.5 98h113q2 -38 19.5 -61t44.5 -23q33 0 47.5 21.5t20.5 62.5h96z" />
    <glyph glyph-name="afii10076" unicode="&#x43a;" horiz-adv-x="611" 
d="M94 400q0 38 -25 48q-14 6 -37 8v37h267v-37q-29 -3 -41 -15.5t-12 -40.5v-307q0 -36 25 -48q15 -7 36 -8v-37h-275v37q23 2 37 7q25 10 25 49v307zM252 250l107 97q39 37 39 66q0 42 -49 46v34h239v-34q-48 -9 -110 -62l-103 -90l135 -177l13.5 -17.5t12 -16t10 -12.5
t12 -13l12 -11t15.5 -12.5t18 -11.5l-5 -36h-174l-172 238v12z" />
    <glyph glyph-name="afii10077" unicode="&#x43b;" horiz-adv-x="599" 
d="M354 445h-138q-4 -245 -35 -350t-116 -105q-30 0 -46.5 17t-16.5 40q0 31 15 48t47 27q55 16 77 76.5t24 196.5q0 31 -16 44.5t-50 14.5v39h469v-37q-35 -6 -38 -8q-24 -10 -24 -48v-307q0 -39 24 -49q15 -6 38 -7v-37h-276v37q23 2 37 8q25 12 25 48v352z" />
    <glyph glyph-name="afii10078" unicode="&#x43c;" horiz-adv-x="783" 
d="M395 211l149 282h207v-37q-33 -6 -37 -8q-25 -10 -25 -48v-307q0 -39 25 -49q12 -5 37 -7v-37h-276v37q23 2 37 8q25 12 25 48v274l-173 -329h-38l-173 327l1 -264q0 -40 24 -52q21 -10 46 -11v-38h-197v38q36 6 43 9q27 13 27 54v282q0 39 -19 54q-16 14 -48 19v37h217z
" />
    <glyph glyph-name="afii10079" unicode="&#x43d;" horiz-adv-x="675" 
d="M430 227h-184v-134q0 -36 25 -48q15 -7 36 -8v-37h-275v37q23 2 37 7q25 10 25 49v307q0 38 -25 48q-14 6 -37 8v37h275v-37q-24 -3 -36 -8q-25 -12 -25 -48v-125h184v125q0 36 -25 48q-18 7 -37 8v37h276v-37q-35 -6 -38 -8q-24 -10 -24 -48v-307q0 -39 24 -49
q15 -6 38 -7v-37h-276v37q23 2 37 8q25 13 25 48v134z" />
    <glyph glyph-name="afii10080" unicode="&#x43e;" 
d="M564 270q0 -121 -76 -203t-205 -82q-111 0 -179.5 63.5t-68.5 178.5q0 127 81 203.5t206 76.5q111 0 176.5 -63t65.5 -174zM402 237q0 212 -110 212q-53 0 -74 -47t-21 -138q0 -221 108 -221q97 0 97 194z" />
    <glyph glyph-name="afii10081" unicode="&#x43f;" horiz-adv-x="665" 
d="M420 445h-174v-352q0 -36 25 -48q15 -7 36 -8v-37h-275v37q23 2 37 7q25 10 25 49v307q0 38 -25 48q-14 6 -37 8v37h602v-37q-35 -6 -38 -8q-24 -10 -24 -48v-307q0 -39 24 -49q15 -6 38 -7v-37h-276v37q23 2 37 8q25 13 25 48v352z" />
    <glyph glyph-name="afii10082" unicode="&#x440;" horiz-adv-x="623" 
d="M89 397q0 25 -7.5 33.5t-32.5 8.5q-11 0 -33 -2v35q105 35 166 35q34 0 46.5 -14t12.5 -48v-23q69 84 162 84q87 0 135.5 -63t48.5 -166q0 -139 -89 -215t-234 -76q-16 0 -23 1v-111q0 -46 44 -50l21 -1q20 -1 25 -1v-41h-303v37q23 2 37 7q24 11 24 49v521zM313 412
q-35 0 -72 -16v-342q31 -11 62 -11q65 0 98 56.5t33 141.5q0 82 -30.5 126.5t-90.5 44.5z" />
    <glyph glyph-name="afii10083" unicode="&#x441;" horiz-adv-x="515" 
d="M474 61q-86 -76 -205 -76q-111 0 -172 65t-61 177q0 122 74.5 201t200.5 79q83 0 129.5 -29t46.5 -75q0 -33 -18 -53t-50 -20q-30 0 -47 19t-23.5 41t-23.5 41t-47 19q-46 0 -71 -50t-25 -128q0 -182 149 -182q71 0 141 26z" />
    <glyph glyph-name="afii10084" unicode="&#x442;" horiz-adv-x="559" 
d="M204 445h-8q-60 0 -88.5 -30.5t-46.5 -99.5h-35v178h507v-178h-34q-20 70 -47.5 100t-87.5 30h-8v-352q0 -35 25 -48q15 -7 37 -8v-37h-276v37q25 2 37 7q25 10 25 49v352z" />
    <glyph glyph-name="afii10085" unicode="&#x443;" horiz-adv-x="571" 
d="M569 457q-50 -11 -76 -72l-121 -270l-11 -25l-41 -92q-1 -3 -4 -9l-23 -50.5t-31.5 -54.5t-44.5 -55.5t-56 -37.5t-72 -17q-65 0 -65 51q0 27 16 43t46 16q76 0 110 17t63 73l-8 18l-179 411q-20 47 -67 54v36h283v-36q-30 0 -44.5 -13.5t-6.5 -34.5l99 -251l85 207
q32 80 -51 92v36h199v-36z" />
    <glyph glyph-name="afii10086" unicode="&#x444;" horiz-adv-x="843" 
d="M346 -16q-310 6 -310 246q0 131 87 203.5t223 76.5v132q0 24 -6.5 32.5t-28.5 9.5q-27 0 -39 -1v35q105 35 165 35q35 0 48 -14.5t13 -48.5v-182q61 -1 112 -13t97.5 -38t73 -75.5t26.5 -119.5q0 -132 -86.5 -203.5t-222.5 -75.5v-122q0 -38 25 -48q10 -6 36 -8v-37h-275
v37q26 2 37 7q25 10 25 49v123zM197 260q0 -211 149 -222v421q-149 -8 -149 -199zM646 232q0 212 -148 223v-422q148 9 148 199z" />
    <glyph glyph-name="afii10087" unicode="&#x445;" horiz-adv-x="571" 
d="M483 89q35 -48 77 -54v-35h-273v35q28 0 36.5 15t-5.5 33l-79 108l-52 -66q-28 -38 -21.5 -62t41.5 -28v-35h-198v35q58 13 106 72l100 118l-129 178q-35 49 -67 54v36h273v-36q-29 0 -41.5 -15t0.5 -33l83 -115l52 73q23 31 14 58t-43 32v36h197v-36q-49 -11 -96 -72
l-99 -126z" />
    <glyph glyph-name="afii10088" unicode="&#x446;" horiz-adv-x="679" 
d="M94 400q0 38 -25 48q-14 6 -37 8v37h275v-37q-24 -3 -36 -8q-25 -12 -25 -48v-352h174v352q1 35 -25 48q-18 7 -37 8v37h276v-37q-35 -6 -38 -8q-24 -10 -24 -48v-352h87v-199h-36q-19 81 -52 115t-106 36h-433v37q23 2 37 7q25 10 25 49v307z" />
    <glyph glyph-name="afii10089" unicode="&#x447;" horiz-adv-x="648" 
d="M402 247q-89 -80 -182 -80q-69 0 -107.5 40.5t-38.5 126.5v66q0 36 -25 48q-14 6 -37 8v37h276v-37q-33 -6 -37 -8q-25 -10 -25 -48v-27q0 -58 21 -88.5t73 -30.5q41 0 82 11v135q0 36 -25 48q-18 7 -36 8v37h275v-37q-33 -6 -37 -8q-25 -10 -25 -48v-307q0 -39 25 -49
q12 -5 37 -7v-37h-275v37q22 2 36 8q25 12 25 48v154z" />
    <glyph glyph-name="afii10090" unicode="&#x448;" horiz-adv-x="951" 
d="M858 93q0 -39 24 -49q15 -5 38 -7v-37h-888v37q23 2 37 7q25 10 25 49v307q0 38 -25 48q-14 6 -37 8v37h272v-37q-26 -3 -39 -11q-19 -12 -19 -45v-352h154v352q0 34 -20 45q-18 10 -39 11v37h270v-37q-32 -3 -42 -13q-17 -11 -17 -43v-352h154v352q0 34 -20 45
q-13 8 -39 11v37h273v-37q-26 -2 -42 -12q-20 -11 -20 -44v-307z" />
    <glyph glyph-name="afii10091" unicode="&#x449;" horiz-adv-x="965" 
d="M858 48h88v-199h-37q-19 81 -52 115t-106 36h-719v37q23 2 37 7q25 10 25 49v307q0 38 -25 48q-14 6 -37 8v37h272v-37q-26 -3 -39 -11q-19 -12 -19 -45v-352h154v352q0 34 -20 45q-18 10 -39 11v37h270v-37q-32 -3 -42 -13q-17 -11 -17 -43v-352h154v352q0 34 -20 45
q-13 8 -39 11v37h273v-37q-26 -2 -42 -12q-20 -11 -20 -44v-352z" />
    <glyph glyph-name="afii10092" unicode="&#x44a;" horiz-adv-x="692" 
d="M208 445h-12q-60 0 -89 -30t-48 -100h-33v178h396v-37q-25 -3 -37 -8q-25 -12 -25 -48v-92h89q100 0 161 -35.5t61 -107.5q0 -84 -64 -124.5t-179 -40.5h-282v37q23 2 37 7q25 10 25 49v352zM360 260v-212h38q108 0 108 107q0 54 -25 79.5t-81 25.5h-40z" />
    <glyph glyph-name="afii10093" unicode="&#x44b;" horiz-adv-x="851" 
d="M94 400q0 38 -25 48q-14 6 -37 8v37h275v-37q-24 -3 -36 -8q-25 -12 -25 -48v-92h81q100 0 161 -35.5t61 -107.5q0 -84 -64 -124.5t-180 -40.5h-273v37q23 2 37 7q25 10 25 49v307zM605 400q0 36 -25 48q-14 6 -37 8v37h276v-37q-33 -6 -37 -8q-25 -10 -25 -48v-307
q0 -39 25 -49q12 -5 37 -7v-37h-276v37q23 2 37 8q25 12 25 48v307zM246 260v-212h30q108 0 108 107q0 54 -25 79.5t-81 25.5h-32z" />
    <glyph glyph-name="afii10094" unicode="&#x44c;" horiz-adv-x="578" 
d="M94 400q0 38 -25 48q-14 6 -37 8v37h275v-37q-24 -3 -36 -8q-25 -12 -25 -48v-92h89q100 0 161 -35.5t61 -107.5q0 -84 -64 -124.5t-180 -40.5h-281v37q23 2 37 7q25 10 25 49v307zM246 260v-212h38q108 0 108 107q0 54 -25 79.5t-81 25.5h-40z" />
    <glyph glyph-name="afii10095" unicode="&#x44d;" horiz-adv-x="526" 
d="M212 455q-45 0 -75.5 -30.5t-54.5 -93.5l-38 4l5 135q79 37 183 37q123 0 190.5 -63t67.5 -180q0 -125 -78 -202t-203 -77q-88 0 -164 36l-4 137l37 4q57 -123 137 -123q108 0 113 188h-189v48h188q-8 180 -115 180z" />
    <glyph glyph-name="afii10096" unicode="&#x44e;" horiz-adv-x="878" 
d="M842 263q0 -119 -72.5 -198.5t-196.5 -79.5q-107 0 -176 63.5t-71 178.5h-80v-134q0 -36 25 -48q15 -7 36 -8v-37h-275v37q23 2 37 7q25 10 25 49v307q0 38 -25 48q-14 6 -37 8v37h275v-37q-24 -3 -36 -8q-25 -12 -25 -48v-125h82q14 107 88.5 169.5t184.5 62.5
q111 0 176 -65.5t65 -178.5zM681 237q0 103 -23.5 157.5t-80.5 54.5q-52 0 -70.5 -46t-18.5 -139q0 -104 22.5 -162.5t79.5 -58.5q49 0 70 47.5t21 146.5z" />
    <glyph glyph-name="afii10097" unicode="&#x44f;" horiz-adv-x="609" 
d="M13 0v33q36 27 52.5 43t42.5 52q36 49 79 96q-129 20 -129 127q0 69 60.5 105.5t172.5 36.5h286v-37q-23 -2 -37 -8q-25 -10 -25 -48v-307q0 -39 25 -49q14 -5 37 -7v-37h-276v37q22 1 37 8q25 12 25 48v352h-33q-53 0 -80.5 -24.5t-27.5 -69.5q0 -54 25.5 -77t82.5 -23
h20v-10l-177 -241h-160z" />
    <glyph glyph-name="uni0450" unicode="&#x450;" horiz-adv-x="536" 
d="M481 61q-86 -76 -210 -76q-113 0 -174 62.5t-61 176.5q0 126 72.5 204.5t200.5 78.5q91 0 141 -43.5t53 -129.5q1 -12 -1 -39l-28 -42h-293q2 -79 37 -121.5t114 -42.5q74 0 147 26zM277 449q-83 0 -95 -146h169q2 22 2 34q0 52 -19.5 82t-56.5 30zM123 730h128l83 -157
l-4 -10h-38l-173 156z" />
    <glyph glyph-name="afii10071" unicode="&#x451;" horiz-adv-x="536" 
d="M120 664q0 68 73 68q72 0 72 -68q0 -69 -72 -69q-73 0 -73 69zM313 664q0 68 72 68q73 0 73 -68q0 -69 -73 -69q-72 0 -72 69zM481 61q-86 -76 -210 -76q-113 0 -174 62.5t-61 176.5q0 126 72.5 204.5t200.5 78.5q91 0 141 -43.5t53 -129.5q1 -12 -1 -39l-28 -42h-293
q2 -79 37 -121.5t114 -42.5q74 0 147 26zM277 449q-83 0 -95 -146h169q2 22 2 34q0 52 -19.5 82t-56.5 30z" />
    <glyph glyph-name="afii10099" unicode="&#x452;" horiz-adv-x="631" 
d="M-9 600h95v48q0 24 -6 32.5t-28 10.5q-13 0 -39 -2v35q105 35 165 35q35 0 47.5 -14t12.5 -48v-97h156v-50h-156v-156q89 91 185 91q75 0 110 -41.5t35 -133.5v-238q0 -129 -55 -181.5t-170 -46.5v38q35 2 53.5 39t18.5 131l1 215q0 63 -19 92.5t-74 29.5q-39 0 -85 -18
v-278q0 -36 26 -48q15 -7 36 -8v-37h-275v37q23 2 37 7q24 10 24 49v457h-95v50z" />
    <glyph glyph-name="afii10100" unicode="&#x453;" horiz-adv-x="480" 
d="M445 719l-174 -156h-32l-4 10l77 157h129zM246 445v-352q0 -36 25 -48q15 -7 36 -8v-37h-275v37q23 2 37 7q25 10 25 49v307q0 38 -25 48q-14 6 -37 8v37h423v-178h-32q-19 69 -48 99.5t-89 30.5h-40z" />
    <glyph glyph-name="afii10101" unicode="&#x454;" horiz-adv-x="526" 
d="M314 40q44 0 75 32t55 95l37 -4l-5 -141q-79 -37 -182 -37q-123 0 -190.5 63t-67.5 180q0 125 78 202t203 77q87 0 163 -36l5 -131l-38 -4q-56 116 -141 116q-103 0 -108 -177h188v-48h-188q5 -187 116 -187z" />
    <glyph glyph-name="afii10102" unicode="&#x455;" horiz-adv-x="482" 
d="M211 -14q-90 0 -167 34l-3 139l34 4q24 -59 62.5 -91.5t86.5 -32.5q39 0 61.5 18t22.5 48q0 27 -19.5 41.5t-57.5 25.5l-49 14q-55 16 -93 53t-38 96q0 75 61.5 123.5t155.5 48.5q86 0 154 -38l8 -121l-42 -3q-30 61 -60 85.5t-72 24.5q-35 0 -53.5 -17.5t-18.5 -45.5
q0 -50 67 -71l59 -17q134 -36 134 -143q0 -82 -69.5 -128.5t-163.5 -46.5z" />
    <glyph glyph-name="afii10103" unicode="&#x456;" horiz-adv-x="333" 
d="M249 93q0 -36 25 -48q15 -7 36 -8v-37h-275v37q23 2 37 7q25 10 25 49v304q0 24 -7 32.5t-30 9.5q-15 0 -37 -2v35q105 35 165 35q35 0 48 -14.5t13 -47.5v-352zM86 684q0 39 22.5 57t57.5 18t58 -18t23 -57t-22.5 -57.5t-58.5 -18.5q-35 0 -57.5 18.5t-22.5 57.5z" />
    <glyph glyph-name="afii10104" unicode="&#x457;" horiz-adv-x="333" 
d="M-6 664q0 68 73 68q72 0 72 -68q0 -69 -72 -69q-73 0 -73 69zM187 664q0 68 72 68q73 0 73 -68q0 -69 -73 -69q-72 0 -72 69zM249 93q0 -36 25 -48q15 -7 36 -8v-37h-275v37q23 2 37 7q25 10 25 49v304q0 25 -7.5 33.5t-32.5 8.5q-12 0 -34 -2v35q105 35 165 35
q35 0 48 -14.5t13 -47.5v-352z" />
    <glyph glyph-name="afii10105" unicode="&#x458;" horiz-adv-x="309" 
d="M89 397q0 25 -7.5 33.5t-34.5 8.5q-13 0 -31 -2v35q105 35 165 35q35 0 47.5 -14t12.5 -48v-301q0 -86 -34 -171t-95.5 -142t-131.5 -57q-34 0 -52 18.5t-18 43.5q0 23 15.5 39.5t40.5 16.5q20 0 31.5 -8.5t14 -18.5t8.5 -18.5t15 -8.5q54 9 54 146v413zM83 683
q0 39 22.5 57.5t58.5 18.5q35 0 57.5 -18.5t22.5 -57.5t-22.5 -57t-57.5 -18t-58 18t-23 57z" />
    <glyph glyph-name="afii10106" unicode="&#x459;" horiz-adv-x="838" 
d="M354 445h-138q-4 -245 -35 -350t-116 -105q-30 0 -46.5 17t-16.5 40q0 31 15 48t47 27q55 16 77 76.5t24 196.5q0 31 -16 44.5t-50 14.5v39h469v-37q-25 -3 -37 -8q-25 -12 -25 -48v-92h89q100 0 161 -35.5t61 -107.5q0 -84 -64 -124.5t-179 -40.5h-282v37q23 2 37 7
q25 10 25 49v352zM506 260v-212h39q107 0 107 107q0 54 -25 79.5t-80 25.5h-41z" />
    <glyph glyph-name="afii10107" unicode="&#x45a;" horiz-adv-x="913" 
d="M430 227h-184v-134q0 -36 25 -48q15 -7 36 -8v-37h-275v37q23 2 37 7q25 10 25 49v307q0 38 -25 48q-14 6 -37 8v37h275v-37q-24 -3 -36 -8q-25 -12 -25 -48v-125h184v125q0 38 -25 48q-14 6 -37 8v37h276v-37q-25 -3 -37 -8q-25 -12 -25 -48v-101h89q99 0 160.5 -34.5
t61.5 -103.5q0 -81 -64.5 -121t-178.5 -40h-282v37q23 2 37 7q25 10 25 49v134zM582 251v-203h38q108 0 108 103q0 51 -25 75.5t-81 24.5h-40z" />
    <glyph glyph-name="afii10108" unicode="&#x45b;" horiz-adv-x="647" 
d="M-9 600h95v48q0 24 -6 32.5t-28 10.5q-13 0 -39 -2v35q105 35 165 35q35 0 47.5 -14t12.5 -48v-97h156v-50h-156v-156q89 91 185 91q75 0 110 -41.5t35 -133.5v-217q0 -35 25 -48q15 -7 37 -8v-37h-276v37q26 2 37 7q25 10 25 49v174q-3 64 -21 93t-72 29q-39 0 -85 -18
v-278q0 -36 26 -48q15 -7 36 -8v-37h-275v37q23 2 37 7q24 10 24 49v457h-95v50z" />
    <glyph glyph-name="afii10146" unicode="&#x462;" horiz-adv-x="771" 
d="M395 534v-151h120q66 0 117.5 -16.5t85.5 -58t34 -104.5q0 -98 -72.5 -151t-178.5 -53h-338v39q29 2 42 8q25 12 25 48v439h-22q-68 0 -97 -25t-47 -96h-36v168h202v17q0 37 -24 49q-4 2 -10.5 3t-16.5 2t-16 2v39h300v-39q-32 -2 -42 -8q-26 -12 -26 -48v-17h196v-168
h-36q-18 70 -49.5 95.5t-101.5 25.5h-9zM395 330v-277h57q70 0 100.5 35t30.5 106q0 136 -115 136h-73z" />
    <glyph glyph-name="afii10147" unicode="&#x472;" horiz-adv-x="807" 
d="M765 352q0 -160 -104 -263.5t-265 -103.5q-155 0 -254.5 96.5t-99.5 259.5q0 167 104 267.5t262 100.5q157 0 257 -99.5t100 -257.5zM400 34q186 0 186 303h-365q0 -147 41 -225t138 -78zM402 662q-50 0 -85.5 -21.5t-55.5 -61t-29 -86t-11 -107.5h364q-9 276 -183 276z
" />
    <glyph glyph-name="afii10195" unicode="&#x473;" 
d="M564 270q0 -121 -76 -203t-205 -82q-111 0 -179.5 63.5t-68.5 178.5q0 127 81 203.5t206 76.5q111 0 176.5 -63t65.5 -174zM305 43q49 0 72 45.5t25 138.5h-204q9 -184 107 -184zM292 449q-51 0 -72.5 -44.5t-22.5 -129.5h204q-11 174 -109 174z" />
    <glyph glyph-name="afii10846" unicode="&#x4d9;" horiz-adv-x="536" 
d="M55 432q87 75 210 75q113 0 174 -62.5t61 -176.5q0 -126 -72.5 -204.5t-200.5 -78.5q-93 0 -143.5 47t-51.5 137q0 10 2 28l28 42h292q-2 80 -36 122t-113 42q-73 0 -148 -26zM260 43q81 0 93 146h-169q-1 -12 -1 -34q0 -52 19.5 -82t57.5 -30z" />
    <glyph glyph-name="uni04E9" unicode="&#x4e9;" 
d="M564 270q0 -121 -76 -203t-205 -82q-111 0 -179.5 63.5t-68.5 178.5q0 127 81 203.5t206 76.5q111 0 176.5 -63t65.5 -174zM305 43q49 0 72 45.5t25 138.5h-204q9 -184 107 -184zM292 449q-51 0 -72.5 -44.5t-22.5 -129.5h204q-11 174 -109 174z" />
    <glyph glyph-name="uni1E32" unicode="&#x1e32;" horiz-adv-x="733" 
d="M326 -160q0 39 23.5 59.5t56.5 20.5t56 -20.5t23 -59.5q0 -38 -23 -58.5t-56 -20.5t-56.5 20.5t-23.5 58.5zM278 95q0 -38 25 -48q2 -1 43 -8v-39h-301v39q29 2 43 7q25 12 25 49v503q0 38 -25 48q-2 1 -43 8v39h301v-39q-30 -2 -44 -7q-24 -11 -24 -49v-503zM306 333
l178 208q34 39 34 63q0 45 -68 49v40h274v-40q-78 -11 -138 -76l-151 -168l184 -285q47 -74 114 -85l-3 -39h-220l-204 326v7z" />
    <glyph glyph-name="uni1EBD" unicode="&#x1ebd;" horiz-adv-x="536" 
d="M481 61q-86 -76 -210 -76q-113 0 -174 62.5t-61 176.5q0 126 72.5 204.5t200.5 78.5q91 0 141 -43.5t53 -129.5q1 -12 -1 -39l-28 -42h-293q2 -79 37 -121.5t114 -42.5q74 0 147 26zM277 449q-83 0 -95 -146h169q2 22 2 34q0 52 -19.5 82t-56.5 30zM435 715
q-1 -58 -24.5 -89.5t-68.5 -31.5q-31 0 -75 18.5t-55 18.5q-32 0 -42 -41h-37q0 51 23.5 86t63.5 35q25 0 69 -17.5t61 -17.5q39 0 45 39h40z" />
    <glyph glyph-name="Ygrave" unicode="&#x1ef2;" horiz-adv-x="677" 
d="M260 598q0 -16 9 -31l118 -223l117 219q12 21 12 38q0 49 -77 51v41h243v-38q-64 -7 -97 -64l-164 -288v-208q0 -35 25 -48q2 -1 43 -8v-39h-300v39q30 2 43 7q24 10 24 49v205l-167 296q-16 27 -34.5 39t-51.5 17v41h337v-41q-80 -10 -80 -54zM193 869h129l85 -126
l-4 -10h-38l-176 125z" />
    <glyph glyph-name="ygrave" unicode="&#x1ef3;" horiz-adv-x="571" 
d="M569 457q-50 -11 -76 -72l-121 -270l-11 -25l-41 -92q-1 -3 -4 -9l-23 -50.5t-31.5 -54.5t-44.5 -55.5t-56 -37.5t-72 -17q-65 0 -65 51q0 27 16 43t46 16q76 0 110 17t63 73l-8 18l-179 411q-20 47 -67 54v36h283v-36q-30 0 -44.5 -13.5t-6.5 -34.5l99 -251l85 207
q32 80 -51 92v36h199v-36zM154 730h128l83 -157l-4 -10h-38l-173 156z" />
    <glyph glyph-name="endash" unicode="&#x2013;" horiz-adv-x="669" 
d="M596 238h-523v61h523v-61z" />
    <glyph glyph-name="emdash" unicode="&#x2014;" horiz-adv-x="883" 
d="M810 238h-737v61h737v-61z" />
    <glyph glyph-name="quoteleft" unicode="&#x2018;" horiz-adv-x="269" 
d="M42 552q0 74 48 134t107 92l26 -31q-43 -30 -66 -60.5t-26 -75.5q34 0 59.5 -21.5t25.5 -57.5q0 -32 -24 -54t-58 -22q-40 0 -66 25.5t-26 70.5z" />
    <glyph glyph-name="quoteright" unicode="&#x2019;" horiz-adv-x="269" 
d="M232 676q0 -74 -47.5 -134t-106.5 -92l-27 31q43 30 66 60.5t26 75.5q-34 0 -59.5 21.5t-25.5 57.5q0 32 24 54t58 22q40 0 66 -25.5t26 -70.5z" />
    <glyph glyph-name="quotedblleft" unicode="&#x201c;" horiz-adv-x="480" 
d="M42 552q0 74 48 134t107 92l26 -31q-43 -30 -66 -60.5t-26 -75.5q34 0 59.5 -21.5t25.5 -57.5q0 -32 -24 -54t-58 -22q-40 0 -66 25.5t-26 70.5zM253 552q0 74 48 134t107 92l26 -31q-43 -30 -66 -60.5t-26 -75.5q34 0 59.5 -21.5t25.5 -57.5q0 -32 -24 -54t-58 -22
q-40 0 -66 25.5t-26 70.5z" />
    <glyph glyph-name="quotedblright" unicode="&#x201d;" horiz-adv-x="480" 
d="M232 676q0 -74 -47.5 -134t-106.5 -92l-27 31q43 30 66 60.5t26 75.5q-34 0 -59.5 21.5t-25.5 57.5q0 32 24 54t58 22q40 0 66 -25.5t26 -70.5zM443 676q0 -74 -47.5 -134t-106.5 -92l-27 31q43 30 66 60.5t26 75.5q-34 0 -59.5 21.5t-25.5 57.5q0 32 24 54t58 22
q40 0 66 -25.5t26 -70.5z" />
    <glyph glyph-name="dagger" unicode="&#x2020;" horiz-adv-x="420" 
d="M386 410h-139v-627h-73v627h-139v71h139v263h73v-263h139v-71z" />
    <glyph glyph-name="bullet" unicode="&#x2022;" horiz-adv-x="408" 
d="M334 268q-2 -56 -40 -93.5t-91 -37.5q-54 0 -92.5 38t-38.5 93q0 54 38.5 92t92.5 38q57 0 95 -38.5t36 -91.5z" />
    <glyph glyph-name="perthousand" unicode="&#x2030;" horiz-adv-x="1170" 
d="M692 693l-518 -693h-68l516 693h70zM376 546q0 -80 -49 -123.5t-125 -43.5q-71 0 -117 40.5t-46 118.5q0 83 47.5 124t122.5 41t121 -41t46 -116zM270 543q0 64 -15 92t-50 28q-33 0 -46.5 -27.5t-13.5 -93.5q0 -68 13.5 -95t44.5 -27q37 0 52 30t15 93zM772 153
q0 -80 -49 -123.5t-126 -43.5q-69 0 -115.5 40.5t-46.5 118.5q0 83 47.5 124t121.5 41q76 0 122 -41t46 -116zM666 150q0 63 -15.5 91.5t-50.5 28.5q-33 0 -46 -27.5t-13 -93.5q0 -68 13 -95t44 -27q37 0 52.5 30.5t15.5 92.5zM1137 153q0 -80 -49 -123.5t-125 -43.5
q-69 0 -115.5 40.5t-46.5 118.5q0 83 47.5 124t121.5 41q75 0 121 -41t46 -116zM1032 150q0 63 -15.5 91.5t-50.5 28.5q-33 0 -46.5 -27.5t-13.5 -93.5q0 -67 13.5 -94.5t44.5 -27.5q37 0 52.5 30.5t15.5 92.5z" />
    <glyph glyph-name="guilsinglleft" unicode="&#x2039;" horiz-adv-x="315" 
d="M223 67l-179 189v20l180 185l40 -28l-96 -163l96 -176z" />
    <glyph glyph-name="guilsinglright" unicode="&#x203a;" horiz-adv-x="315" 
d="M51 94l96 176l-96 163l40 28l180 -185v-20l-179 -189z" />
    <glyph glyph-name="Euro" unicode="&#x20ac;" horiz-adv-x="726" 
d="M40 461h76q32 116 123 182t217 66q53 0 101 -11.5t83 -37.5t35 -62q0 -61 -56 -61q-26 0 -46.5 19.5t-32.5 43t-37 43t-60 19.5q-139 0 -159 -201h196v-50h-200q-1 -19 -1 -56q0 -36 1 -53h200v-50h-196q21 -220 168 -220q34 0 58 19t35.5 41t31.5 41t46 19q55 0 55 -57
q0 -36 -34.5 -62t-83 -37t-101.5 -11q-135 0 -229.5 71.5t-120.5 195.5h-69v50h61q-1 12 -1 37q0 34 5 72h-65v50z" />
    <glyph glyph-name="trademark" unicode="&#x2122;" horiz-adv-x="1008" 
d="M943 759v-31q-18 -3 -26 -7q-10 -7 -12 -25v-227q0 -16 12 -25q6 -5 26 -7v-31h-176v31q20 2 28 7q11 5 11 25v201l-113 -204h-24l-115 208v-184q0 -28 17 -40q13 -10 39 -13v-31h-153v31q21 3 36 11q20 14 20 42v184q0 25 -14 39q-12 12 -39 15v31h148l101 -186l101 186
h133zM297 723v-254q0 -19 14 -27q9 -4 24 -5v-31h-176v31q20 2 24 4q14 8 14 28v254h-13q-41 0 -63 -19t-34 -62h-24v117h369v-117h-25q-11 43 -33.5 62t-63.5 19h-13z" />
    <glyph glyph-name="Omega" unicode="&#x2126;" horiz-adv-x="865" 
d="M794 407q0 -60 -24 -110.5t-65.5 -85.5t-83 -58t-89.5 -40v-23h109q56 0 86.5 23t47.5 83h34v-196h-313v121q64 71 92 132.5t28 151.5q0 52 -9 95t-29 80.5t-57 59t-89 21.5q-181 0 -181 -261q0 -85 25.5 -144.5t94.5 -134.5v-121h-313v196h33q15 -60 47.5 -83t92.5 -23
h99v23q-258 86 -258 285q0 132 100.5 221.5t266.5 89.5q164 0 259.5 -89t95.5 -213z" />
    <glyph glyph-name="Delta" unicode="&#x2206;" horiz-adv-x="688" 
d="M653 0h-621l-7 40l278 658h108l250 -655zM119 112h366l-178 467z" />
    <glyph glyph-name="fi" unicode="&#xfb01;" horiz-adv-x="667" 
d="M20 481h82q9 124 90.5 201t219.5 77q135 0 135 -72q0 -26 -18 -44t-48 -18q-26 0 -63 33t-65 33q-50 0 -75 -35.5t-25 -118.5v-56h147q77 23 122 23q34 0 47 -14.5t13 -48.5v-348q0 -51 62 -56v-37h-276v37q33 2 47.5 14t14.5 42v300q0 20 -7.5 29.5t-29.5 9.5h-140v-339
q0 -51 62 -56v-37h-276v37q32 2 47 14t15 42v339h-81v49z" />
    <glyph glyph-name="fl" unicode="&#xfb02;" horiz-adv-x="669" 
d="M429 648q0 16 -3 25q-30 13 -71 13q-51 0 -76.5 -32t-25.5 -114v-59h122v-49h-122v-339q0 -28 15 -40.5t47 -15.5v-37h-276v37q31 3 46.5 14t15.5 42v339h-81v49h81q4 122 65 200t180 78q48 0 90 -12q53 12 85 12q35 0 47.5 -14t12.5 -48v-604q0 -51 62 -56v-37h-275v37
q30 3 45.5 14.5t15.5 41.5v555z" />
    <glyph glyph-name="_4" horiz-adv-x="315" 
d="M225 733q-3 -45 -29.5 -109.5t-51.5 -100.5h-41l-4 10q28 88 28 211h94z" />
    <glyph glyph-name="_5" horiz-adv-x="372" 
d="M304 858l-176 -125h-38l-4 10l85 126h129z" />
    <glyph glyph-name="_6" horiz-adv-x="392" 
d="M335 862q-30 -120 -139 -120q-49 0 -86.5 30.5t-45.5 89.5h50q21 -51 91 -51q74 0 93 51h37z" />
    <glyph glyph-name="_7" horiz-adv-x="428" 
d="M239 729h-57l-120 131l4 10h56l100 -62l93 62h41l4 -10z" />
    <glyph glyph-name="_8" horiz-adv-x="428" 
d="M193 870h57l120 -131l-4 -10h-56l-100 62l-93 -62h-41l-4 10z" />
    <glyph glyph-name="_9" horiz-adv-x="433" 
d="M55 807q0 67 72 67q31 0 51 -16.5t20 -50.5t-20 -50.5t-51 -16.5q-72 0 -72 67zM244 807q0 67 72 67t72 -67t-72 -67t-72 67z" />
    <glyph glyph-name="_10" horiz-adv-x="270" 
d="M58 809q0 37 21.5 54.5t55.5 17.5t55.5 -17.5t21.5 -54.5t-21.5 -54.5t-55.5 -17.5t-55.5 17.5t-21.5 54.5z" />
    <glyph glyph-name="_11" horiz-adv-x="485" 
d="M254 850l-154 -117h-32l-4 10l77 118h109zM430 850l-186 -117h-38l-4 10l104 118h120z" />
    <glyph glyph-name="_12" horiz-adv-x="372" 
d="M78 869h129l85 -126l-4 -10h-38l-176 125z" />
    <glyph glyph-name="_13" horiz-adv-x="392" 
d="M68 819h256v-66h-256v66z" />
    <glyph glyph-name="_14" horiz-adv-x="470" 
d="M388 853q-7 -112 -97 -112q-31 0 -75 18t-54 18q-32 0 -42 -40h-42q2 50 26 80.5t70 30.5q25 0 66.5 -17.5t59.5 -17.5q38 0 45 40h43z" />
    <glyph glyph-name="_15" horiz-adv-x="427" 
d="M321 -129q0 -77 -114 -136l-21 26q61 39 65 75q-22 0 -37.5 12.5t-15.5 34.5q0 27 17 41.5t41 14.5q65 0 65 -68z" />
    <glyph glyph-name="_16" horiz-adv-x="408" 
d="M318 815q0 -42 -29.5 -68t-78.5 -26t-78.5 26t-29.5 67q0 42 30.5 68t78.5 26q46 0 76.5 -26t30.5 -67zM253 814q0 52 -44 52q-42 0 -42 -51q0 -52 44 -52q42 0 42 51z" />
    <glyph glyph-name="_17" horiz-adv-x="593" 
d="M459 862q-9 -57 -50.5 -89t-112.5 -32q-141 0 -165 121h107q3 -35 20 -54t44 -19q33 0 48 18.5t19 54.5h90z" />
    <glyph glyph-name="_18" horiz-adv-x="648" 
d="M491 717q-6 -58 -52.5 -95t-117.5 -37q-68 0 -116.5 34t-54.5 98h113q2 -38 19.5 -61t44.5 -23q33 0 47.5 21.5t20.5 62.5h96z" />
    <glyph glyph-name="_19" horiz-adv-x="703" 
 />
  </font>
</defs>
</svg>
