<?xml version="1.0" standalone="no"?>
<!DOCTYPE svg PUBLIC "-//W3C//DTD SVG 1.1//EN" "http://www.w3.org/Graphics/SVG/1.1/DTD/svg11.dtd" >
<svg xmlns="http://www.w3.org/2000/svg" xmlns:xlink="http://www.w3.org/1999/xlink" version="1.1">
<metadata>
Created by FontForge 20141024 at Thu May 14 10:41:06 2015
 By System Administrator
Copyright 2013 Adobe Systems Incorporated. All rights reserved.
</metadata>
<defs>
<font id="Lava" horiz-adv-x="626" >
  <font-face 
    font-family="Lava"
    font-weight="400"
    font-stretch="normal"
    units-per-em="1000"
    panose-1="2 0 0 0 0 0 0 0 0 0"
    ascent="744"
    descent="-256"
    x-height="481"
    cap-height="693"
    bbox="-135 -256 1101 1100"
    underline-thickness="0"
    underline-position="0"
    unicode-range="U+000D-FB02"
  />
<missing-glyph horiz-adv-x="712" 
d="M305 402h27v-27h-27v27zM380 552h27v-27h-27v27zM305 552h27v-27h-27v27zM230 552h27v-27h-27v27zM80 27h27v-27h-27v27zM155 27h27v-27h-27v27zM230 27h27v-27h-27v27zM305 27h27v-27h-27v27zM380 27h27v-27h-27v27zM80 102h27v-27h-27v27zM80 177h27v-27h-27v27z
M80 252h27v-27h-27v27zM80 327h27v-27h-27v27zM80 402h27v-27h-27v27zM80 477h27v-27h-27v27zM80 552h27v-27h-27v27zM80 627h27v-27h-27v27zM80 702h27v-27h-27v27zM155 702h27v-27h-27v27zM230 702h27v-27h-27v27zM305 702h27v-27h-27v27zM380 702h27v-27h-27v27zM455 702
h27v-27h-27v27zM530 702h27v-27h-27v27zM530 27h27v-27h-27v27zM455 27h27v-27h-27v27zM605 27h27v-27h-27v27zM605 702h27v-27h-27v27zM305 327h27v-27h-27v27zM305 177h27v-27h-27v27zM380 402h27v-27h-27v27zM455 402h27v-27h-27v27zM455 477h27v-27h-27v27zM455 552h27
v-27h-27v27zM605 627h27v-27h-27v27zM605 552h27v-27h-27v27zM605 402h27v-27h-27v27zM605 327h27v-27h-27v27zM605 177h27v-27h-27v27zM605 102h27v-27h-27v27zM605 252h27v-27h-27v27zM605 477h27v-27h-27v27z" />
    <glyph glyph-name=".notdef" horiz-adv-x="712" 
d="M305 402h27v-27h-27v27zM380 552h27v-27h-27v27zM305 552h27v-27h-27v27zM230 552h27v-27h-27v27zM80 27h27v-27h-27v27zM155 27h27v-27h-27v27zM230 27h27v-27h-27v27zM305 27h27v-27h-27v27zM380 27h27v-27h-27v27zM80 102h27v-27h-27v27zM80 177h27v-27h-27v27z
M80 252h27v-27h-27v27zM80 327h27v-27h-27v27zM80 402h27v-27h-27v27zM80 477h27v-27h-27v27zM80 552h27v-27h-27v27zM80 627h27v-27h-27v27zM80 702h27v-27h-27v27zM155 702h27v-27h-27v27zM230 702h27v-27h-27v27zM305 702h27v-27h-27v27zM380 702h27v-27h-27v27zM455 702
h27v-27h-27v27zM530 702h27v-27h-27v27zM530 27h27v-27h-27v27zM455 27h27v-27h-27v27zM605 27h27v-27h-27v27zM605 702h27v-27h-27v27zM305 327h27v-27h-27v27zM305 177h27v-27h-27v27zM380 402h27v-27h-27v27zM455 402h27v-27h-27v27zM455 477h27v-27h-27v27zM455 552h27
v-27h-27v27zM605 627h27v-27h-27v27zM605 552h27v-27h-27v27zM605 402h27v-27h-27v27zM605 327h27v-27h-27v27zM605 177h27v-27h-27v27zM605 102h27v-27h-27v27zM605 252h27v-27h-27v27zM605 477h27v-27h-27v27z" />
    <glyph glyph-name=".null" horiz-adv-x="0" 
 />
    <glyph glyph-name="uni000D" unicode="&#xd;" horiz-adv-x="264" 
 />
    <glyph glyph-name="space" unicode=" " horiz-adv-x="264" 
 />
    <glyph glyph-name="exclam" unicode="!" horiz-adv-x="309" 
d="M207 693v-104l-20 -353h-64l-20 353v104h104zM230 56q0 -36 -22.5 -51t-54.5 -15t-54.5 15t-22.5 51q0 35 22.5 51t54.5 16t54.5 -16t22.5 -51z" />
    <glyph glyph-name="quotedbl" unicode="&#x22;" horiz-adv-x="399" 
d="M174 744l-40 -283h-70l32 283h78zM344 744l-40 -283h-70l32 283h78z" />
    <glyph glyph-name="numbersign" unicode="#" horiz-adv-x="664" 
d="M108 481h129l55 212h59l-55 -212h142l55 212h59l-55 -212h130l-15 -60h-130l-41 -160h129l-15 -60h-130l-51 -201h-60l52 201h-142l-51 -201h-60l52 201h-129l15 60h129l42 160h-129zM240 261h141l42 160h-142z" />
    <glyph glyph-name="dollar" unicode="$" horiz-adv-x="562" 
d="M306 827v-119q83 -2 141.5 -28.5t58.5 -64.5q0 -24 -13 -39t-34 -15q-29 0 -51.5 21.5t-46.5 46t-55 29.5v-247l30 -12q39 -15 65 -28.5t56.5 -37.5t46.5 -58.5t16 -79.5q0 -83 -60 -140.5t-154 -67.5v-146h-55v145q-79 2 -143.5 30t-64.5 67q0 24 16.5 39.5t40.5 15.5
t69.5 -44t81.5 -54v261l-34 14q-36 14 -61 28t-50.5 36t-39 53.5t-13.5 71.5q0 75 52 132.5t146 68.5v122h55zM430 157q0 33 -19.5 58.5t-42.5 37.5t-62 27v-243q58 6 91 39.5t33 80.5zM137 549q0 -42 29.5 -68t84.5 -49v225q-52 -8 -83 -37t-31 -71z" />
    <glyph glyph-name="percent" unicode="%" horiz-adv-x="786" 
d="M650 693l-469 -693h-68l467 693h70zM352 546q0 -79 -47.5 -123t-114.5 -44q-64 0 -107 40.5t-43 118.5q0 82 45.5 123.5t111.5 41.5t110.5 -41.5t44.5 -115.5zM271 543q0 63 -19 91.5t-59 28.5q-38 0 -55 -28t-17 -93q0 -67 17 -94.5t53 -27.5q43 0 61.5 30.5t18.5 92.5z
M749 155q0 -79 -47.5 -123t-114.5 -44q-64 0 -107 40.5t-43 118.5q0 82 45.5 123.5t111.5 41.5t110.5 -41.5t44.5 -115.5zM668 152q0 63 -19 91.5t-59 28.5q-38 0 -55 -28t-17 -93q0 -67 17 -94.5t53 -27.5q43 0 61.5 30.5t18.5 92.5z" />
    <glyph glyph-name="ampersand" unicode="&#x26;" horiz-adv-x="773" 
d="M745 12q-35 -25 -93 -25q-17 0 -32 3t-24.5 6t-23 13.5t-18.5 14.5t-21.5 20.5l-22.5 22.5l-2 1q-83 -83 -204 -83q-91 0 -158.5 48.5t-67.5 136.5q0 127 129 188q-45 46 -61.5 82.5t-16.5 79.5q0 78 53.5 133.5t139.5 55.5q72 0 127 -38.5t55 -115.5q0 -60 -39.5 -101
t-126.5 -79l197 -195l3 7q30 61 71.5 108t90.5 47q48 0 48 -44q0 -45 -50 -45q-64 0 -115 -85l-14 -22l21 -20q29 -29 42 -40.5t35.5 -24t45.5 -12.5q15 0 33 3zM342 55q80 0 133 45l-222 212l-18 17q-47 -52 -47 -129q0 -62 39 -103.5t115 -41.5zM230 545q0 -32 13.5 -58.5
t47.5 -63.5l20 -21q100 65 100 147q0 45 -23.5 75.5t-66.5 30.5t-67 -30.5t-24 -79.5z" />
    <glyph glyph-name="quotesingle" unicode="'" horiz-adv-x="229" 
d="M174 744l-40 -283h-70l32 283h78z" />
    <glyph glyph-name="parenleft" unicode="(" horiz-adv-x="372" 
d="M48 277q0 87 14 158t46 134t88.5 111.5t136.5 79.5l19 -38q-108 -54 -154 -160.5t-46 -281.5q0 -176 45.5 -282t154.5 -160l-19 -38q-285 85 -285 477z" />
    <glyph glyph-name="parenright" unicode=")" horiz-adv-x="372" 
d="M324 277q0 -392 -285 -477l-19 38q108 55 154 160.5t46 281.5t-46 281.5t-154 160.5l19 38q80 -31 136.5 -79.5t88.5 -111.5t46 -134t14 -158z" />
    <glyph glyph-name="asterisk" unicode="*" horiz-adv-x="464" 
d="M395 458l-131 51l-20 -141h-24l-20 141l-131 -51l-10 19l110 88l-110 88l10 17l132 -51l21 140h20l21 -140l132 51l10 -17l-111 -89l111 -87z" />
    <glyph glyph-name="plus" unicode="+" horiz-adv-x="554" 
d="M311 491v-194h193v-65h-193v-195h-69v195h-192v65h192v194h69z" />
    <glyph glyph-name="comma" unicode="," horiz-adv-x="287" 
d="M222 42q0 -71 -46 -127.5t-105 -87.5l-27 32q92 63 97 142q-33 0 -55 18t-22 47q0 27 21 46t49 19q42 0 65 -23t23 -66z" />
    <glyph glyph-name="hyphen" unicode="-" horiz-adv-x="433" 
d="M362 224h-291v77h291v-77z" />
    <glyph glyph-name="period" unicode="." horiz-adv-x="286" 
d="M220 56q0 -36 -22.5 -51t-54.5 -15t-54.5 15t-22.5 51q0 35 22.5 51t54.5 16t54.5 -16t22.5 -51z" />
    <glyph glyph-name="slash" unicode="/" horiz-adv-x="430" 
d="M398 744l-298 -961h-68l296 961h70z" />
    <glyph glyph-name="zero" unicode="0" horiz-adv-x="641" 
d="M576 293q0 -132 -76 -220t-190 -88q-111 0 -177.5 70t-66.5 205q0 137 73.5 221t183.5 84q116 0 184.5 -71.5t68.5 -200.5zM468 278q0 112 -38.5 171.5t-113.5 59.5q-142 0 -142 -232q0 -234 139 -234q78 0 116.5 63.5t38.5 171.5z" />
    <glyph glyph-name="one" unicode="1" horiz-adv-x="442" 
d="M287 105q-1 -40 27 -50q4 -1 23.5 -2.5t43 -3.5t32.5 -3v-46h-343v46q13 0 53 3t46 6q27 9 27 50v353h-136v36q87 13 199 68h28v-457z" />
    <glyph glyph-name="two" unicode="2" horiz-adv-x="544" 
d="M474 0h-412l-7 35q172 156 214 206q65 75 65 138q0 49 -27 75t-80 26q-82 0 -146 -77l-20 23q81 139 210 139q79 0 122 -43.5t43 -108.5q0 -77 -61.5 -153t-188.5 -177h315l3 -10z" />
    <glyph glyph-name="three" unicode="3" horiz-adv-x="549" 
d="M193 204q46 30 69 46.5t49 39.5t36 45t10 48q0 48 -37 72.5t-87 24.5q-96 0 -155 -69l-22 26q88 128 211 128q77 0 128.5 -39.5t51.5 -111.5q0 -45 -28.5 -87t-94.5 -93q80 -12 125.5 -56.5t45.5 -120.5q0 -100 -77 -158t-182 -58q-43 0 -83 9t-70 31t-30 53q0 21 14 34
t37 13q20 0 32.5 -10t20.5 -23.5t17.5 -27.5t30.5 -24t52 -10q63 0 101 37t38 97q0 130 -194 153z" />
    <glyph glyph-name="four" unicode="4" horiz-adv-x="591" 
d="M339 56h-312v62l363 438h40v-423h131l3 -10l-20 -67h-114v-197h-91v197zM339 133v278l-228 -278h228z" />
    <glyph glyph-name="five" unicode="5" horiz-adv-x="561" 
d="M176 455l-28 -177q158 0 248 -51.5t90 -151.5q0 -101 -80 -167.5t-186 -66.5q-65 0 -122 24.5t-57 68.5q0 21 14 34t37 13t38 -15t23 -32.5t30.5 -32.5t58.5 -15q65 0 103.5 43.5t38.5 111.5q0 85 -69.5 127.5t-227.5 36.5l49 344h365l3 -10l-30 -84h-298z" />
    <glyph glyph-name="six" unicode="6" horiz-adv-x="593" 
d="M523 666q-140 -9 -226.5 -85.5t-115.5 -195.5q73 41 151 41q96 0 153 -55.5t57 -142.5q0 -103 -72.5 -173.5t-180.5 -70.5q-109 0 -171 77t-62 200q0 180 117.5 305t293.5 141q32 2 47 2zM166 253q0 -109 36.5 -165.5t98.5 -56.5q59 0 94.5 48.5t35.5 130.5
q0 157 -135 157q-61 0 -125 -34q-5 -34 -5 -80z" />
    <glyph glyph-name="seven" unicode="7" horiz-adv-x="511" 
d="M124 -144v10l284 597h-369l-3 10l30 76h415l7 -35l-282 -658h-82z" />
    <glyph glyph-name="eight" unicode="8" horiz-adv-x="583" 
d="M509 549q0 -103 -137 -172q86 -41 118 -83.5t32 -99.5q0 -92 -74 -150.5t-169 -58.5q-94 0 -156.5 45t-62.5 135q0 118 139 183q-69 37 -95.5 76t-26.5 91q0 88 69 140.5t158 52.5q84 0 144.5 -42.5t60.5 -116.5zM430 158q0 27 -13 51t-27.5 38.5t-46 32.5t-46 24
t-50.5 21q-44 -27 -67 -61t-23 -90q0 -136 133 -136q67 0 103.5 34.5t36.5 85.5zM173 546q0 -31 10.5 -54t38 -41.5t43 -26t57.5 -25.5q45 33 67.5 66t22.5 76q0 53 -32 84t-88 31q-54 0 -86.5 -30t-32.5 -80z" />
    <glyph glyph-name="nine" unicode="9" horiz-adv-x="594" 
d="M70 -117q139 9 225.5 85.5t115.5 195.5q-71 -41 -150 -41q-96 0 -153 55.5t-57 142.5q0 103 72.5 173.5t180.5 70.5q109 0 171 -77t62 -200q0 -180 -118 -305t-295 -141q-30 -2 -45 -2zM427 296q0 109 -36.5 165.5t-98.5 56.5q-59 0 -94.5 -48.5t-35.5 -130.5
q0 -157 135 -157q63 0 124 33q6 41 6 81z" />
    <glyph glyph-name="colon" unicode=":" horiz-adv-x="296" 
d="M225 56q0 -36 -22.5 -51t-54.5 -15t-54.5 15t-22.5 51q0 35 22.5 51t54.5 16t54.5 -16t22.5 -51zM225 427q0 -36 -22.5 -51t-54.5 -15t-54.5 15t-22.5 51q0 35 22.5 51t54.5 16t54.5 -16t22.5 -51z" />
    <glyph glyph-name="semicolon" unicode=";" horiz-adv-x="318" 
d="M242 42q0 -71 -46 -127.5t-105 -87.5l-27 32q92 63 97 142q-33 0 -55 18t-22 47q0 27 21 46t49 19q42 0 65 -23t23 -66zM234 427q0 -36 -22.5 -51t-54.5 -15t-54.5 15t-22.5 51q0 35 22.5 51t54.5 16t54.5 -16t22.5 -51z" />
    <glyph glyph-name="less" unicode="&#x3c;" horiz-adv-x="476" 
d="M416 5l-380 232v60l380 231v-75l-304 -185l304 -184v-79z" />
    <glyph glyph-name="equal" unicode="=" horiz-adv-x="606" 
d="M530 142h-454v65h454v-65zM530 322h-454v65h454v-65z" />
    <glyph glyph-name="greater" unicode="&#x3e;" horiz-adv-x="476" 
d="M60 84l304 184l-304 185v75l380 -231v-60l-380 -232v79z" />
    <glyph glyph-name="question" unicode="?" horiz-adv-x="469" 
d="M198 237q-24 46 -24 75q0 35 23.5 66t51.5 50t51.5 45.5t23.5 54.5q0 38 -36 65.5t-87 27.5q-39 0 -78.5 -16t-64.5 -47l-23 23q87 128 209 128q77 0 131.5 -43.5t54.5 -110.5q0 -32 -14.5 -60t-36 -47.5t-47 -40.5t-47 -39t-36 -42.5t-14.5 -50.5q0 -9 5 -23t5 -15h-47z
M296 56q0 -36 -22.5 -51t-54.5 -15t-54.5 15t-22.5 51q0 35 22.5 51t54.5 16t54.5 -16t22.5 -51z" />
    <glyph glyph-name="at" unicode="@" horiz-adv-x="871" 
d="M623 71q-78 0 -97 50q-49 -48 -110 -48q-69 0 -114.5 51.5t-45.5 139.5q0 99 58 158t151 59q49 0 90 -18l38 10h12v-306q0 -44 40 -44q64 0 96.5 71t32.5 163q0 143 -80.5 220.5t-210.5 77.5q-111 0 -196 -56t-128.5 -148.5t-43.5 -205.5q0 -159 90 -255.5t256 -96.5
q163 0 262 58v-48q-46 -29 -124.5 -44.5t-150.5 -15.5q-184 0 -290 112.5t-106 289.5q0 198 125 330t313 132q153 0 246.5 -91.5t93.5 -251.5q0 -75 -20 -139t-68.5 -109t-118.5 -45zM451 137q35 0 71 20v248q-42 26 -83 26q-96 0 -96 -152q0 -73 22 -107.5t86 -34.5z" />
    <glyph glyph-name="A" unicode="A" horiz-adv-x="684" 
d="M435 240h-230l-54 -143q-14 -38 29 -49q4 -1 12.5 -2t22 -2.5l22.5 -2.5v-41h-233v41q19 1 46 11t40 45l234 609h47l215 -609q12 -35 40 -45q27 -10 46 -11v-41h-276v41q9 1 22 2.5t21.5 2.5t13.5 2q17 3 26 16t3 33zM225 293h193l-89 272z" />
    <glyph glyph-name="B" unicode="B" horiz-adv-x="648" 
d="M50 0v41q48 0 59 6q27 9 27 50v499q0 40 -27 50q-4 1 -13.5 2t-23 2t-22.5 2v41h293q95 0 152.5 -40.5t57.5 -121.5q0 -58 -45.5 -103.5t-124.5 -59.5v-3q105 -2 159.5 -50.5t54.5 -121.5q0 -50 -22.5 -89t-59.5 -60.5t-77.5 -32.5t-82.5 -11h-305zM485 192q0 59 -43 100
t-128 41h-74v-283h86q159 0 159 142zM240 643v-260h55q69 0 105 34t36 97q0 64 -33 96.5t-92 32.5h-71z" />
    <glyph glyph-name="C" unicode="C" horiz-adv-x="678" 
d="M395 659q-61 0 -105.5 -24.5t-69.5 -69t-36.5 -99t-11.5 -121.5q0 -310 221 -310q139 0 186 174h35v-153q-88 -71 -222 -71q-151 0 -244.5 101.5t-93.5 254.5q0 160 98.5 264t248.5 104q119 0 213 -54v-179h-35q-24 88 -66 135.5t-118 47.5z" />
    <glyph glyph-name="D" unicode="D" horiz-adv-x="742" 
d="M240 643v-593h98q64 0 110 24t71 67t36.5 93.5t11.5 112.5q0 135 -55.5 215.5t-169.5 80.5h-102zM50 41q45 2 59 6q27 7 27 50v499q0 42 -27 50q-7 2 -14.5 2.5t-20.5 1.5t-24 2v41h306q152 0 240.5 -92t88.5 -248q0 -161 -92 -257t-248 -96h-295v41z" />
    <glyph glyph-name="E" unicode="E" 
d="M50 41q48 0 59 6q27 9 27 50v499q0 40 -27 50q-4 1 -13.5 2t-23 2t-22.5 2v41h493v-167h-36q-18 70 -48.5 93.5t-97.5 23.5h-121v-260h100q40 0 50 27q1 4 2 13.5t2 23t2 22.5h41v-222h-41q0 37 -6 59q-9 27 -50 27h-100v-283h134q71 0 105.5 34t63.5 124l32 -4l-13 -204
h-512v41z" />
    <glyph glyph-name="F" unicode="F" horiz-adv-x="576" 
d="M240 643v-280h100q40 0 50 27q1 4 2 13.5t2 23t2 22.5h41v-222h-41q0 37 -6 59q-9 27 -50 27h-100v-216q0 -40 27 -50q4 -1 13.5 -2t23 -2t22.5 -2v-41h-276v41q48 0 59 6q27 9 27 50v499q0 40 -27 50q-4 1 -13.5 2t-23 2t-22.5 2v41h493v-167h-36q-18 70 -48.5 93.5
t-97.5 23.5h-121z" />
    <glyph glyph-name="G" unicode="G" horiz-adv-x="732" 
d="M398 659q-114 0 -170 -88t-56 -225q0 -144 57 -227.5t173 -83.5q70 0 128 29v165q0 43 -27 50q-7 2 -32.5 3.5t-36.5 2.5v41h262v-41q-24 -2 -35 -6q-27 -9 -27 -50v-187q-38 -25 -106 -42t-136 -15q-154 2 -246 97.5t-92 253.5q0 164 101.5 268.5t255.5 104.5
q56 0 117.5 -14.5t105.5 -39.5v-179h-35q-24 86 -71 134.5t-130 48.5z" />
    <glyph glyph-name="H" unicode="H" horiz-adv-x="805" 
d="M565 596q0 40 -27 50q-4 1 -13.5 2t-23 2t-22.5 2v41h276v-41q-37 0 -59 -6q-27 -9 -27 -50v-499q0 -40 27 -50q4 -1 13.5 -2t23 -2t22.5 -2v-41h-276v41q48 0 59 6q27 9 27 50v237h-325v-237q0 -40 27 -50q4 -1 13.5 -2t23 -2t22.5 -2v-41h-276v41q48 0 59 6q27 9 27 50
v499q0 40 -27 50q-4 1 -13.5 2t-23 2t-22.5 2v41h276v-41q-37 0 -59 -6q-27 -9 -27 -50v-209h325v209z" />
    <glyph glyph-name="I" unicode="I" horiz-adv-x="376" 
d="M240 97q0 -40 27 -50q4 -1 13.5 -2t23 -2t22.5 -2v-41h-276v41q48 0 59 6q27 9 27 50v499q0 40 -27 50q-4 1 -13.5 2t-23 2t-22.5 2v41h276v-41q-37 0 -59 -6q-27 -9 -27 -50v-499z" />
    <glyph glyph-name="J" unicode="J" horiz-adv-x="360" 
d="M232 19q0 -100 -53 -172.5t-156 -72.5q-40 0 -66 17t-26 43q0 22 12 35.5t33 13.5q16 0 27 -9t15.5 -20.5t14.5 -20.5t25 -9q42 0 56 60.5t14 194.5v517q0 40 -27 50q-4 1 -13.5 2t-23 2t-22.5 2v41h276v-41q-37 0 -59 -6q-27 -9 -27 -50v-577z" />
    <glyph glyph-name="K" unicode="K" horiz-adv-x="691" 
d="M240 97q0 -40 27 -50q4 -1 13.5 -2t23 -2t22.5 -2v-41h-276v41q48 0 59 6q27 9 27 50v499q0 40 -27 50q-4 1 -13.5 2t-23 2t-22.5 2v41h276v-41q-37 0 -59 -6q-27 -9 -27 -50v-499zM275 345l181 219q27 32 27 53q0 29 -59 35v41h250v-41q-74 -6 -132 -75l-172 -207
l183 -253q48 -66 122 -77l-3 -40h-160l-237 338v7z" />
    <glyph glyph-name="L" unicode="L" horiz-adv-x="577" 
d="M50 41q48 0 59 6q27 9 27 50v499q0 40 -27 50q-4 1 -13.5 2t-23 2t-22.5 2v41h276v-41q-37 0 -59 -6q-27 -9 -27 -50v-546h104q71 0 105.5 34t63.5 124l32 -4l-13 -204h-482v41z" />
    <glyph glyph-name="M" unicode="M" horiz-adv-x="929" 
d="M465 278l224 415h190v-41q-37 0 -59 -6q-27 -9 -27 -50v-499q0 -40 27 -50q4 -1 13.5 -2t23 -2t22.5 -2v-41h-276v41q48 0 59 6q27 9 27 50v480l-226 -430h-34l-225 429v-444q0 -53 32 -74q26 -17 64 -21v-37h-256v37q34 5 57 17q39 20 39 78v464q0 40 -27 50
q-4 1 -13.5 2t-23 2t-22.5 2v41h193z" />
    <glyph glyph-name="N" unicode="N" horiz-adv-x="806" 
d="M624 -4l-418 562v-426q0 -53 32 -74q26 -17 64 -21v-37h-256v37q34 5 57 17q39 20 39 78v408q0 104 -91 117v36h170l388 -508v376q0 53 -32 74q-26 17 -64 21v37h256v-37q-34 -5 -57 -17q-39 -20 -39 -78v-565h-49z" />
    <glyph glyph-name="O" unicode="O" horiz-adv-x="794" 
d="M740 352q0 -154 -98.5 -260.5t-251.5 -106.5q-147 0 -241.5 99.5t-94.5 256.5q0 160 98.5 264t248.5 104t244.5 -102.5t94.5 -254.5zM622 350q0 138 -54.5 223.5t-172.5 85.5q-61 0 -105.5 -24.5t-69.5 -69t-36.5 -99t-11.5 -121.5q0 -308 221 -308q63 0 109.5 26
t71.5 72t36.5 99t11.5 116z" />
    <glyph glyph-name="P" unicode="P" horiz-adv-x="605" 
d="M240 293v-196q0 -43 27 -50q9 -2 34 -3.5t35 -2.5v-41h-286v41q45 2 59 6q27 7 27 50v499q0 42 -27 50q-7 2 -14.5 2.5t-20.5 1.5t-24 2v41h313q93 0 153 -50t60 -137q0 -93 -64.5 -153t-162.5 -60h-109zM240 643v-300h75q68 0 104.5 41t36.5 112q0 66 -34 106.5
t-91 40.5h-91z" />
    <glyph glyph-name="Q" unicode="Q" horiz-adv-x="794" 
d="M740 352q0 -114 -56 -204.5t-152 -133.5q-30 -13 -67 -21q12 -36 31 -69q33 -53 68.5 -71.5t80.5 -18.5q30 0 53 4v-42q-86 -21 -141 -21q-65 0 -105 30.5t-72 101.5q-17 39 -32 80q-51 6 -94 24q-92 39 -146 126.5t-54 203.5q0 160 98.5 264t248.5 104t244.5 -102.5
t94.5 -254.5zM622 350q0 138 -54.5 223.5t-172.5 85.5q-61 0 -105.5 -24.5t-69.5 -69t-36.5 -99t-11.5 -121.5q0 -308 221 -308q63 0 109.5 26t71.5 72t36.5 99t11.5 116z" />
    <glyph glyph-name="R" unicode="R" horiz-adv-x="690" 
d="M363 693q96 0 154.5 -42.5t58.5 -128.5q0 -75 -43 -124.5t-117 -65.5l157 -215q29 -39 57.5 -56t70.5 -21l-3 -40h-166l-231 325h-61v-228q0 -43 27 -50q9 -2 34 -3.5t35 -2.5v-41h-286v41q45 2 59 6q27 7 27 50v499q0 42 -27 50q-7 2 -14.5 2.5t-20.5 1.5t-24 2v41h313z
M240 643v-268h75q71 0 106 34t35 107q0 60 -33.5 93.5t-91.5 33.5h-91z" />
    <glyph glyph-name="S" unicode="S" horiz-adv-x="589" 
d="M276 -15q-114 0 -210 55v177h26q55 -177 202 -177q68 0 103.5 32.5t35.5 83.5q0 89 -121 137l-84 33q-159 58 -159 181q0 82 62.5 141.5t177.5 59.5q104 0 200 -55v-179h-35q-25 97 -66 140.5t-111 43.5q-65 0 -100 -31.5t-35 -86.5q0 -50 28 -76.5t80 -45.5l79 -31
q95 -37 138.5 -79t43.5 -109q0 -93 -72 -153.5t-183 -60.5z" />
    <glyph glyph-name="T" unicode="T" horiz-adv-x="630" 
d="M367 643v-546q0 -43 27 -50q7 -2 14.5 -2.5t20.5 -1.5t24 -2v-41h-276v41q45 2 59 6q27 7 27 50v546h-50q-67 0 -97.5 -23.5t-48.5 -93.5h-36v167h568v-167h-36q-18 70 -48.5 93.5t-97.5 23.5h-50z" />
    <glyph glyph-name="U" unicode="U" horiz-adv-x="761" 
d="M225 236q0 -99 41.5 -148.5t130.5 -49.5q178 0 178 202v329q-4 48 -32 66q-26 17 -64 21v37h256v-37q-35 -5 -57 -17q-38 -20 -39 -72v-328q0 -118 -66.5 -185.5t-198.5 -67.5q-120 0 -186.5 59.5t-66.5 182.5v368q0 42 -27 50q-14 4 -59 6v41h276v-41q-11 -1 -24 -2
t-20.5 -1.5t-14.5 -2.5q-26 -8 -27 -42v-368z" />
    <glyph glyph-name="V" unicode="V" horiz-adv-x="681" 
d="M201 603q0 -7 3 -18l149 -442l172 436q6 15 6 27q0 39 -86 46v41h233v-36q-35 -7 -56 -23t-36 -55l-234 -592h-34l-222 609q-11 30 -31.5 41t-54.5 15v41h276v-41q-85 -8 -85 -49z" />
    <glyph glyph-name="W" unicode="W" horiz-adv-x="1035" 
d="M577 693l158 -536l138 407q7 18 7 36q0 26 -20.5 38t-62.5 14v41h233v-37q-36 -6 -58 -24.5t-37 -62.5l-201 -582h-34l-181 568l-194 -568h-34l-186 590q-14 43 -35.5 57.5t-56.5 17.5v41h276v-41q-43 -2 -64 -13.5t-21 -36.5q0 -11 4 -23l118 -421l181 535h70z" />
    <glyph glyph-name="X" unicode="X" horiz-adv-x="662" 
d="M20 693h276v-41q-64 -7 -64 -37q0 -12 10 -28l106 -166l115 162q12 18 12 30q0 18 -19.5 28t-48.5 11v41h238v-41q-73 -9 -116 -69l-150 -211l176 -275q18 -28 36 -40t50 -16v-41h-276v41q82 6 82 48q0 15 -12 33l-110 172l-122 -172q-13 -19 -13 -34q0 -39 61 -47v-41
h-238v41q76 17 120 75l160 227l-161 253q-16 25 -49 39t-63 17v41z" />
    <glyph glyph-name="Y" unicode="Y" horiz-adv-x="639" 
d="M208 603q0 -18 10 -34l121 -224l124 223q10 19 10 35q0 47 -78 49v41h241v-35q-61 -6 -102 -76l-164 -283v-202q0 -40 27 -50q4 -1 13.5 -2t23 -2t22.5 -2v-41h-276v41q48 0 59 6q27 9 27 50v210l-166 289q-17 27 -35.5 39t-50.5 17v41h276v-41q-82 -6 -82 -49z" />
    <glyph glyph-name="Z" unicode="Z" horiz-adv-x="615" 
d="M562 212l-14 -212h-502l-5 17l380 626h-159q-72 0 -109 -26.5t-62 -104.5l-33 2l12 179h482l7 -17l-380 -626h128q43 0 72 5t50.5 14.5t38.5 31.5t29.5 46t31.5 69z" />
    <glyph glyph-name="bracketleft" unicode="[" horiz-adv-x="358" 
d="M327 -194h-230v953h230v-55h-139v-843h139v-55z" />
    <glyph glyph-name="backslash" unicode="\" horiz-adv-x="430" 
d="M102 744l296 -961h-68l-298 961h70z" />
    <glyph glyph-name="bracketright" unicode="]" horiz-adv-x="358" 
d="M31 -139h139v843h-139v55h230v-953h-230v55z" />
    <glyph glyph-name="asciicircum" unicode="^" horiz-adv-x="643" 
d="M90 313l202 380h60l201 -380h-75l-155 304l-154 -304h-79z" />
    <glyph glyph-name="underscore" unicode="_" horiz-adv-x="665" 
d="M594 -217h-523v61h523v-61z" />
    <glyph glyph-name="grave" unicode="`" horiz-adv-x="427" 
d="M139 709h98l93 -140l-4 -10h-32l-159 139z" />
    <glyph glyph-name="a" unicode="a" horiz-adv-x="498" 
d="M403 95q0 -36 17 -49.5t52 -13.5q9 0 16 1v-28q-35 -16 -76 -16q-54 0 -76.5 19.5t-23.5 57.5q-24 -35 -63 -55.5t-81 -20.5q-53 0 -88.5 32t-35.5 87q0 51 35 85t110 54l123 30v23q0 66 -22 90.5t-82 24.5q-73 0 -151 -19v46q93 49 201 49q145 0 145 -164v-233zM218 63
q50 0 94 24v144l-67 -17q-59 -15 -83.5 -31.5t-24.5 -47.5q0 -72 81 -72z" />
    <glyph glyph-name="b" unicode="b" horiz-adv-x="550" 
d="M168 420q68 71 152 71q80 0 132 -58t52 -165q0 -125 -72 -203.5t-188 -78.5q-101 0 -167 38v639q0 24 -7 32.5t-29 8.5q-17 0 -44 -3v35q61 23 120 23q28 0 39.5 -14.5t11.5 -45.5v-279zM278 417q-52 0 -110 -31v-314q54 -28 109 -28q71 0 106 52t35 140q0 91 -36.5 136
t-103.5 45z" />
    <glyph glyph-name="c" unicode="c" horiz-adv-x="482" 
d="M432 38q-69 -53 -178 -53q-101 0 -155 64t-54 174q0 120 69 196t170 76q69 0 116 -25t47 -62q0 -25 -16 -40t-40 -15q-13 0 -26.5 13t-25 29t-34.5 29t-51 13q-61 0 -92 -48t-31 -132q0 -193 159 -193q68 0 140 25z" />
    <glyph glyph-name="d" unicode="d" horiz-adv-x="575" 
d="M382 663q0 24 -7 32.5t-29 8.5q-17 0 -44 -3v35q61 23 120 23q28 0 39.5 -14.5t11.5 -45.5v-604q0 -39 20.5 -51.5t63.5 -10.5l1 -28q-35 -16 -76 -16q-91 0 -99 63q-70 -67 -150 -67t-133.5 67t-53.5 176q0 121 71 194t185 73q41 0 80 -10v178zM286 64q47 0 96 25v317
q-60 31 -117 31q-133 0 -133 -178q0 -97 36.5 -146t117.5 -49z" />
    <glyph glyph-name="e" unicode="e" horiz-adv-x="495" 
d="M432 38q-68 -53 -174 -53q-103 0 -158 63t-55 171q0 125 67.5 200.5t175.5 75.5q70 0 113 -41.5t51 -118.5q2 -30 1 -48l-22 -44h-302q2 -90 41.5 -135.5t121.5 -45.5q68 0 138 25zM256 437q-107 0 -125 -140h230q1 7 1 19q0 56 -27 88.5t-79 32.5z" />
    <glyph glyph-name="f" unicode="f" horiz-adv-x="338" 
d="M35 481h75v5q0 123 55.5 198t162.5 75q82 0 82 -45q0 -38 -41 -38q-11 0 -37 8.5t-48 8.5q-53 0 -68 -35t-15 -122v-55h116v-50h-116v-338q0 -40 27 -50q1 0 44 -6v-37h-233v37q34 2 44 6q27 9 27 50v338h-75v50z" />
    <glyph glyph-name="g" unicode="g" horiz-adv-x="541" 
d="M249 185q-45 0 -71 8q-20 -27 -20 -45q0 -38 56 -38h77q97 0 151.5 -30t54.5 -92q0 -80 -78 -147t-199 -67q-92 0 -143 40.5t-51 99.5q0 75 108 124q-54 20 -54 73q0 47 66 92q-92 38 -92 127q0 70 55 117.5t139 47.5q91 0 146 -53q20 9 43 42.5t47 33.5q19 0 31.5 -10.5
t12.5 -28.5q0 -20 -20.5 -34t-44 -19t-49.5 -7q24 -34 24 -77q0 -71 -56.5 -114t-132.5 -43zM205 28q-23 0 -39 3q-51 -41 -51 -97q0 -49 33.5 -77t100.5 -28q69 0 112.5 30.5t43.5 85.5q0 83 -120 83h-80zM337 334q0 53 -29 83t-68 30q-40 0 -65 -29.5t-25 -77.5
q0 -50 26.5 -78.5t71.5 -28.5q42 0 65.5 27t23.5 74z" />
    <glyph glyph-name="h" unicode="h" horiz-adv-x="582" 
d="M96 663q0 24 -7 32.5t-29 8.5q-17 0 -44 -3v35q61 23 120 23q28 0 39.5 -14.5t11.5 -45.5v-277q81 73 169 73q130 0 130 -163v-239q0 -40 27 -50q1 0 44 -6v-37h-233v37q34 2 44 6q27 9 27 50v215q0 59 -21 84.5t-79 25.5q-45 0 -108 -22v-303q0 -40 27 -50q1 0 44 -6
v-37h-233v37q34 2 44 6q27 9 27 50v570z" />
    <glyph glyph-name="i" unicode="i" horiz-adv-x="298" 
d="M201 93q0 -40 27 -50q1 0 44 -6v-37h-233v37q34 2 44 6q27 9 27 50v306q0 24 -7 32.5t-29 8.5q-17 0 -44 -3v35q61 23 120 23q28 0 39.5 -14.5t11.5 -45.5v-342zM89 696q0 31 18.5 47.5t45.5 16.5t45.5 -16.5t18.5 -47.5t-18.5 -47.5t-45.5 -16.5t-45.5 16.5t-18.5 47.5z
" />
    <glyph glyph-name="j" unicode="j" horiz-adv-x="270" 
d="M101 399q0 24 -7 32.5t-29 8.5q-17 0 -44 -3v35q61 23 120 23q28 0 39.5 -14.5t11.5 -45.5v-370q0 -64 -26 -129t-80 -113.5t-123 -48.5q-19 0 -29 12t-10 27t10 27.5t26 12.5q43 0 67 5q46 9 60 46.5t14 134.5v360zM80 695q0 31 18.5 47.5t45.5 16.5t45.5 -16.5
t18.5 -47.5t-18.5 -47.5t-45.5 -16.5t-45.5 16.5t-18.5 47.5z" />
    <glyph glyph-name="k" unicode="k" horiz-adv-x="553" 
d="M96 663q0 24 -7 32.5t-29 8.5q-17 0 -44 -3v35q61 23 120 23q28 0 39.5 -14.5t11.5 -45.5v-606q0 -40 27 -50q1 0 44 -6v-37h-233v37q34 2 44 6q27 9 27 50v570zM210 253l133 118q19 19 19 36q2 19 -17 31.5t-53 13.5v29h234v-29q-40 -3 -104 -67l-123 -116l102 -139
q30 -42 59.5 -61t74.5 -30v-39h-153l-172 235v18z" />
    <glyph glyph-name="l" unicode="l" horiz-adv-x="287" 
d="M98 663q0 24 -7 32.5t-29 8.5q-17 0 -44 -3v35q61 23 120 23q28 0 39.5 -14.5t11.5 -45.5v-606q0 -40 27 -50q1 0 44 -6v-37h-233v37q34 2 44 6q27 9 27 50v570z" />
    <glyph glyph-name="m" unicode="m" horiz-adv-x="884" 
d="M201 93q0 -40 27 -50q1 0 44 -6v-37h-233v37q34 2 44 6q27 9 27 50v306q0 24 -7 32.5t-29 8.5q-17 0 -44 -3v35q61 23 120 23q28 0 39.5 -14.5t11.5 -45.5v-13q81 73 169 73q90 0 117 -75q85 75 171 75q130 0 130 -163v-239q0 -40 27 -50q1 0 44 -6v-37h-233v37
q34 2 44 6q27 9 27 50v215q0 59 -21 84.5t-79 25.5q-38 0 -103 -20q6 -28 6 -66v-239q0 -40 27 -50q1 0 44 -6v-37h-233v37q34 2 44 6q27 9 27 50v215q0 59 -21 84.5t-79 25.5q-45 0 -108 -22v-303z" />
    <glyph glyph-name="n" unicode="n" horiz-adv-x="596" 
d="M201 93q0 -40 27 -50q1 0 44 -6v-37h-233v37q34 2 44 6q27 9 27 50v306q0 24 -7 32.5t-29 8.5q-17 0 -44 -3v35q61 23 120 23q28 0 39.5 -14.5t11.5 -45.5v-13q81 73 169 73q130 0 130 -163v-239q0 -40 27 -50q1 0 44 -6v-37h-233v37q34 2 44 6q27 9 27 50v215
q0 59 -21 84.5t-79 25.5q-45 0 -108 -22v-303z" />
    <glyph glyph-name="o" unicode="o" horiz-adv-x="557" 
d="M513 262q0 -112 -70 -194.5t-181 -82.5q-97 0 -157 65.5t-60 172.5q0 120 72.5 196t177.5 76q97 0 157.5 -65t60.5 -168zM411 230q0 97 -34.5 152t-107.5 55q-122 0 -122 -178q0 -98 34 -157t106 -59q124 0 124 187z" />
    <glyph glyph-name="p" unicode="p" horiz-adv-x="574" 
d="M101 399q0 24 -7 32.5t-29 8.5q-17 0 -44 -3v35q61 23 120 23q28 0 39.5 -14.5t11.5 -45.5v-15q68 71 152 71q80 0 132 -58t52 -165q0 -125 -72 -203.5t-188 -78.5q-44 0 -76 9v-119q0 -40 27 -50q4 -1 14.5 -2t25.5 -2t24 -2v-37h-253v37q34 2 44 6q27 9 27 50v523z
M302 417q-52 0 -110 -31v-318q54 -24 109 -24q71 0 106 52t35 140q0 91 -36.5 136t-103.5 45z" />
    <glyph glyph-name="q" unicode="q" horiz-adv-x="554" 
d="M290 -180q53 0 65 6q27 9 27 50v184q-71 -75 -144 -75q-80 0 -136 67t-56 176q0 121 71 194t185 73q63 0 114 -23l42 12h15v-608q0 -40 27 -50q1 0 44 -6v-37h-254v37zM291 64q25 0 42 6t49 24v308q-60 35 -117 35q-133 0 -133 -178q0 -195 159 -195z" />
    <glyph glyph-name="r" unicode="r" horiz-adv-x="424" 
d="M201 93q0 -40 27 -50q4 -1 14.5 -2t25.5 -2t24 -2v-37h-253v37q34 2 44 6q27 9 27 50v306q0 24 -7 32.5t-29 8.5q-17 0 -44 -3v35q61 23 120 23q28 0 39.5 -14.5t11.5 -45.5v-12q66 69 133 69q73 0 73 -62q0 -21 -15 -38t-43 -17q-24 0 -41.5 22.5t-36.5 22.5
q-20 0 -70 -25v-302z" />
    <glyph glyph-name="s" unicode="s" horiz-adv-x="435" 
d="M204 -12q-72 0 -153 32l-3 132l25 2q17 -56 53.5 -85t82.5 -29q47 0 73 19t26 53q0 30 -20.5 47t-60.5 30l-55 18q-45 14 -77 48.5t-32 86.5q0 66 48.5 109.5t122.5 43.5q71 0 137 -38l6 -111l-32 -3q-29 58 -53.5 80t-67.5 22q-41 0 -62.5 -19t-21.5 -50q0 -51 66 -76
l66 -23q22 -8 38 -16t35.5 -23.5t30.5 -39.5t11 -55q0 -69 -51 -112t-132 -43z" />
    <glyph glyph-name="t" unicode="t" horiz-adv-x="360" 
d="M13 481h87v96l76 52h15v-148h138v-50h-138v-271q0 -62 20 -84.5t74 -22.5q21 0 54 7l1 -43q-40 -28 -104 -28q-136 0 -136 116v326h-87v50z" />
    <glyph glyph-name="u" unicode="u" horiz-adv-x="587" 
d="M395 399q0 24 -7 32.5t-29 8.5q-17 0 -44 -3v35q61 23 120 23q28 0 39.5 -14.5t11.5 -45.5v-340q0 -39 20.5 -51.5t63.5 -10.5l1 -28q-35 -16 -76 -16q-51 0 -74 18t-26 52q-79 -73 -169 -73q-130 0 -130 163v250q0 24 -7 32.5t-29 8.5q-17 0 -44 -3v35q61 23 120 23
q28 0 39.5 -14.5t11.5 -45.5v-262q0 -59 21 -84.5t79 -25.5q39 0 108 21v315z" />
    <glyph glyph-name="v" unicode="v" horiz-adv-x="533" 
d="M523 452q-50 -11 -76 -72l-164 -388h-37l-166 406q-20 47 -67 54v29h219v-29q-30 0 -44.5 -13.5t-6.5 -34.5l102 -274l97 230q16 42 2 64t-53 28v29h194v-29z" />
    <glyph glyph-name="w" unicode="w" horiz-adv-x="812" 
d="M432 481l146 -353l80 232q28 81 -51 92v29h194v-29q-52 -12 -76 -72l-144 -388h-37l-142 332l-136 -332h-37l-149 406q-17 47 -67 54v29h219v-29q-30 0 -44.5 -13.5t-6.5 -34.5l87 -261l133 338h31z" />
    <glyph glyph-name="x" unicode="x" horiz-adv-x="522" 
d="M427 83q35 -48 77 -54v-29h-209v29q28 0 36.5 15t-5.5 33l-81 111l-54 -67q-30 -38 -23.5 -62.5t44.5 -29.5v-29h-194v29q58 13 106 72l97 121l-127 176q-35 49 -67 54v29h209v-29q-29 0 -42 -14.5t1 -33.5l82 -114l57 70q26 33 16 60.5t-47 31.5v29h194v-29
q-49 -11 -96 -72l-100 -123z" />
    <glyph glyph-name="y" unicode="y" horiz-adv-x="534" 
d="M524 452q-50 -11 -76 -72l-112 -265l-49 -117q-41 -95 -72 -135q-67 -89 -163 -89q-20 0 -31.5 12t-11.5 30q0 21 11.5 34t28.5 13q83 0 117.5 26.5t72.5 120.5l-158 388q-20 47 -67 54v29h219v-29q-30 0 -44.5 -13.5t-6.5 -34.5l102 -274l97 230q16 42 2 64t-53 28v29
h194v-29z" />
    <glyph glyph-name="z" unicode="z" horiz-adv-x="478" 
d="M65 481h347l17 -28l-264 -403h122q43 0 77.5 30.5t44.5 79.5l30 -4l-22 -156h-362l-15 26l264 405h-120q-25 0 -43 -6.5t-30.5 -22.5t-19 -29.5t-16.5 -39.5l-33 5z" />
    <glyph glyph-name="braceleft" unicode="{" horiz-adv-x="377" 
d="M346 -194q-111 0 -164.5 36t-53.5 135v149q0 69 -26 95t-78 30v63q55 7 79.5 32.5t24.5 92.5v150q0 52 16 86.5t48 52t68 24.5t86 7v-55q-69 0 -98 -21t-29 -80v-124q0 -90 -22.5 -135t-83.5 -59v-5q30 -8 50.5 -20.5t31.5 -26.5t16.5 -39.5t6.5 -46.5t1 -61v-124
q0 -59 32 -80t95 -21v-55z" />
    <glyph glyph-name="bar" unicode="|" horiz-adv-x="267" 
d="M170 744v-961h-73v961h73z" />
    <glyph glyph-name="braceright" unicode="}" horiz-adv-x="377" 
d="M31 -139q63 0 95 21t32 80v124q0 40 1 61t6.5 46.5t16.5 39.5t31.5 26.5t50.5 20.5v5q-61 14 -83.5 59t-22.5 135v124q0 59 -29 80t-98 21v55q50 0 86 -7t68 -24.5t48 -52t16 -86.5v-150q0 -67 24.5 -92.5t79.5 -32.5v-63q-52 -4 -78 -30t-26 -95v-149q0 -99 -53.5 -135
t-164.5 -36v55z" />
    <glyph glyph-name="uni00A0" unicode="&#xa0;" horiz-adv-x="264" 
 />
    <glyph glyph-name="exclamdown" unicode="&#xa1;" horiz-adv-x="289" 
d="M92 -209v104l20 353h64l20 -353v-104h-104zM69 428q0 36 22.5 51t54.5 15t54.5 -15t22.5 -51q0 -35 -22.5 -51t-54.5 -16t-54.5 16t-22.5 51z" />
    <glyph glyph-name="cent" unicode="&#xa2;" horiz-adv-x="518" 
d="M318 615v-121q64 -4 109.5 -28t45.5 -58q0 -25 -16 -40t-40 -15q-16 0 -46 31t-53 42v-362q71 2 138 25l2 -51q-51 -41 -140 -50v-147h-55v144q-99 2 -155.5 66.5t-56.5 171.5q0 108 61 181t151 88v123h55zM137 257q0 -165 126 -189v369q-59 -3 -92.5 -51.5t-33.5 -128.5
z" />
    <glyph glyph-name="sterling" unicode="&#xa3;" horiz-adv-x="600" 
d="M60 361h77q-1 16 -1 49q0 141 62.5 220t175.5 79q68 0 116.5 -26.5t48.5 -69.5q0 -22 -13 -35.5t-38 -11.5q-23 1 -37.5 17t-21 33.5t-26 32.5t-51.5 15q-62 0 -87 -63t-25 -234v-6h192v-50h-194q-10 -107 -81 -215h385l3 -10l-30 -86h-455l-7 35q59 70 74.5 132.5
t12.5 143.5h-80v50z" />
    <glyph glyph-name="currency" unicode="&#xa4;" horiz-adv-x="534" 
d="M472 111l-42 -42l-92 90q-32 -21 -71 -21t-71 21l-92 -91l-41 44l89 91q-20 33 -20 70q0 38 20 70l-89 93l43 42l90 -91q30 21 71 21q39 0 70 -20l91 90l44 -42l-91 -93q21 -32 21 -70q0 -40 -21 -70zM346 273q0 33 -23.5 57t-55.5 24q-33 0 -56 -23.5t-23 -57.5
q0 -33 23 -57t56 -24q32 0 55.5 24t23.5 57z" />
    <glyph glyph-name="yen" unicode="&#xa5;" horiz-adv-x="702" 
d="M85 349h186l-142 247q-17 27 -35.5 39t-50.5 17v41h276v-41q-9 -1 -22 -2.5t-21.5 -2.5t-13.5 -2q-18 -5 -29 -18t0 -31l135 -251l132 237q12 21 6.5 39.5t-25.5 23.5q-4 1 -12.5 2t-22 2.5l-22.5 2.5v41h241v-35q-55 -6 -94 -62l-144 -247h178v-50h-206v-89h206v-50
h-206v-63q0 -40 27 -50q4 -1 13.5 -2t23 -2t22.5 -2v-41h-276v41q48 0 59 6q27 9 27 50v63h-210v50h210v89h-210v50z" />
    <glyph glyph-name="section" unicode="&#xa7;" horiz-adv-x="530" 
d="M236 -168q-64 0 -116.5 23t-52.5 63q0 20 13.5 36t37.5 16q20 0 35.5 -13.5t24 -29t28.5 -29t49 -13.5q44 0 79 26.5t35 68.5q0 59 -93 100l-90 40q-135 60 -135 168q0 106 98 163q-63 51 -63 124q0 76 60 130t149 54q64 0 115 -27t51 -63q0 -18 -12.5 -31.5t-33.5 -13.5
q-18 0 -34.5 13t-28 28.5t-33 28.5t-48.5 13q-43 0 -72.5 -26.5t-29.5 -70.5q0 -63 76 -97l102 -46q130 -61 130 -164q0 -100 -97 -153q76 -54 76 -132q0 -80 -63.5 -133t-156.5 -53zM190 424q-52 -30 -52 -95q0 -68 85 -105l104 -46l6 -3q55 30 55 90q0 35 -21.5 60.5
t-69.5 47.5l-89 42z" />
    <glyph glyph-name="dieresis" unicode="&#xa8;" horiz-adv-x="477" 
d="M95 654q0 26 16 40.5t39 14.5t39 -14.5t16 -40.5t-16 -40.5t-39 -14.5t-39 14.5t-16 40.5zM272 654q0 26 16 40.5t39 14.5t39 -14.5t16 -40.5t-16 -40.5t-39 -14.5t-39 14.5t-16 40.5z" />
    <glyph glyph-name="copyright" unicode="&#xa9;" horiz-adv-x="694" 
d="M348 -9q-122 0 -203 76t-81 211t81 211t203 76q120 0 201 -76t81 -211t-81 -211t-201 -76zM348 28q107 0 172 65t65 185q0 114 -66 182t-171 68q-104 0 -172 -66t-68 -184t68.5 -184t171.5 -66zM453 149q-43 -35 -117 -35q-65 0 -100 42t-35 113q0 78 45.5 127.5
t110.5 49.5q45 0 75.5 -16t30.5 -40q0 -17 -10.5 -26t-26.5 -9q-10 0 -34 21.5t-56 21.5q-39 0 -56 -26t-17 -81q0 -63 22.5 -94t75.5 -31q41 0 90 16z" />
    <glyph glyph-name="guillemotleft" unicode="&#xab;" horiz-adv-x="524" 
d="M227 67l-179 189v20l180 185l40 -28l-105 -163l105 -176zM427 67l-179 189v20l180 185l40 -28l-105 -163l105 -176z" />
    <glyph glyph-name="registered" unicode="&#xae;" horiz-adv-x="614" 
d="M307 243q-108 0 -181 68.5t-73 189.5t73 189.5t181 68.5t181 -68.5t73 -189.5t-73 -189.5t-181 -68.5zM307 284q90 0 148.5 58.5t58.5 158.5t-58.5 158.5t-148.5 58.5q-91 0 -149 -58.5t-58 -158.5t58 -158.5t149 -58.5zM223 598q0 15 -11 18q-1 0 -21 2v21h134
q35 0 56.5 -18t21.5 -50q0 -27 -16.5 -47t-43.5 -26l48 -64q19 -24 47 -28v-20h-71l-76 109h-21v-68q0 -15 9 -18l27 -2v-21h-115v21q7 0 21 2q11 3 11 18v171zM270 611v-87h27q28 0 40 9.5t12 35.5q0 42 -46 42h-33z" />
    <glyph glyph-name="macron" unicode="&#xaf;" horiz-adv-x="316" 
d="M41 674h232v-60h-232v60z" />
    <glyph glyph-name="acute" unicode="&#xb4;" horiz-adv-x="427" 
d="M330 698l-159 -139h-32l-4 10l93 140h98z" />
    <glyph glyph-name="mu" unicode="&#xb5;" horiz-adv-x="574" 
d="M471 481v-386q0 -39 20.5 -51.5t63.5 -10.5l1 -28q-35 -16 -76 -16q-51 0 -74 18t-26 52q-79 -73 -169 -73q-39 0 -64 13q25 -75 25 -129v-87h-91v698h91v-308q0 -59 21 -84.5t79 -25.5q39 0 108 21v397h91z" />
    <glyph glyph-name="periodcentered" unicode="&#xb7;" horiz-adv-x="262" 
d="M70 371q0 29 17.5 45t43.5 16t43.5 -16t17.5 -45t-17.5 -45t-43.5 -16t-43.5 16t-17.5 45z" />
    <glyph glyph-name="cedilla" unicode="&#xb8;" horiz-adv-x="504" 
d="M345 -138q0 -41 -34.5 -64.5t-87.5 -23.5q-39 0 -73 10v54q45 -15 76 -15q48 0 48 30q0 18 -19 26.5t-42 8.5q-12 0 -19 -1v121h48v-66q43 0 73 -20.5t30 -59.5z" />
    <glyph glyph-name="guillemotright" unicode="&#xbb;" horiz-adv-x="524" 
d="M256 94l105 176l-105 163l40 28l180 -185v-20l-179 -189zM56 94l105 176l-105 163l40 28l180 -185v-20l-179 -189z" />
    <glyph glyph-name="questiondown" unicode="&#xbf;" horiz-adv-x="462" 
d="M267 247q24 -46 24 -75q0 -35 -23.5 -66t-51.5 -50t-51.5 -45.5t-23.5 -54.5q0 -38 36 -65.5t87 -27.5q39 0 78.5 16t64.5 47l23 -23q-87 -128 -209 -128q-77 0 -131.5 43.5t-54.5 110.5q0 37 20 69.5t48.5 55.5t57.5 45.5t49 50.5t20 59q0 9 -5 23t-5 15h47zM169 428
q0 36 22.5 51t54.5 15t54.5 -15t22.5 -51q0 -35 -22.5 -51t-54.5 -16t-54.5 16t-22.5 51z" />
    <glyph glyph-name="Agrave" unicode="&#xc0;" horiz-adv-x="684" 
d="M435 240h-230l-54 -143q-14 -38 29 -49q4 -1 12.5 -2t22 -2.5l22.5 -2.5v-41h-233v41q19 1 46 11t40 45l234 609h47l215 -609q12 -35 40 -45q27 -10 46 -11v-41h-276v41q9 1 22 2.5t21.5 2.5t13.5 2q17 3 26 16t3 33zM225 293h193l-89 272zM177 863h102l106 -120l-4 -10
h-32l-176 119z" />
    <glyph glyph-name="Aacute" unicode="&#xc1;" horiz-adv-x="684" 
d="M435 240h-230l-54 -143q-14 -38 29 -49q4 -1 12.5 -2t22 -2.5l22.5 -2.5v-41h-233v41q19 1 46 11t40 45l234 609h47l215 -609q12 -35 40 -45q27 -10 46 -11v-41h-276v41q9 1 22 2.5t21.5 2.5t13.5 2q17 3 26 16t3 33zM225 293h193l-89 272zM529 852l-176 -119h-32l-4 10
l106 120h102z" />
    <glyph glyph-name="Acircumflex" unicode="&#xc2;" horiz-adv-x="684" 
d="M435 240h-230l-54 -143q-14 -38 29 -49q4 -1 12.5 -2t22 -2.5l22.5 -2.5v-41h-233v41q19 1 46 11t40 45l234 609h47l215 -609q12 -35 40 -45q27 -10 46 -11v-41h-276v41q9 1 22 2.5t21.5 2.5t13.5 2q17 3 26 16t3 33zM225 293h193l-89 272zM326 859h42l113 -120l-4 -10
h-32l-98 57l-98 -57h-32l-4 10z" />
    <glyph glyph-name="Atilde" unicode="&#xc3;" horiz-adv-x="684" 
d="M435 240h-230l-54 -143q-14 -38 29 -49q4 -1 12.5 -2t22 -2.5l22.5 -2.5v-41h-233v41q19 1 46 11t40 45l234 609h47l215 -609q12 -35 40 -45q27 -10 46 -11v-41h-276v41q9 1 22 2.5t21.5 2.5t13.5 2q17 3 26 16t3 33zM225 293h193l-89 272zM495 847q0 -46 -22.5 -76
t-69.5 -30q-35 0 -78 24t-55 24q-29 0 -41 -52h-31q5 106 88 106q31 0 71 -24t53 -24q46 0 53 52h32z" />
    <glyph glyph-name="Adieresis" unicode="&#xc4;" horiz-adv-x="684" 
d="M435 240h-230l-54 -143q-14 -38 29 -49q4 -1 12.5 -2t22 -2.5l22.5 -2.5v-41h-233v41q19 1 46 11t40 45l234 609h47l215 -609q12 -35 40 -45q27 -10 46 -11v-41h-276v41q9 1 22 2.5t21.5 2.5t13.5 2q17 3 26 16t3 33zM225 293h193l-89 272zM211 792q0 25 15 38.5t37 13.5
t37.5 -13.5t15.5 -38.5t-15.5 -38.5t-37.5 -13.5t-37 13.5t-15 38.5zM379 792q0 25 15.5 38.5t37.5 13.5t37 -13.5t15 -38.5t-15 -38.5t-37 -13.5t-37.5 13.5t-15.5 38.5z" />
    <glyph glyph-name="Aring" unicode="&#xc5;" horiz-adv-x="684" 
d="M435 240h-230l-54 -143q-14 -38 29 -49q4 -1 12.5 -2t22 -2.5l22.5 -2.5v-41h-233v41q19 1 46 11t40 45l234 609h47l215 -609q12 -35 40 -45q27 -10 46 -11v-41h-276v41q9 1 22 2.5t21.5 2.5t13.5 2q17 3 26 16t3 33zM225 293h193l-89 272zM455 818q0 -42 -29.5 -68
t-78.5 -26t-78.5 26t-29.5 67q0 42 30.5 68t78.5 26q46 0 76.5 -26t30.5 -67zM402 818q0 57 -55 57t-55 -57q0 -27 14.5 -42.5t40.5 -15.5q55 0 55 58z" />
    <glyph glyph-name="AE" unicode="&#xc6;" horiz-adv-x="945" 
d="M559 643v-260h100q40 0 50 27q1 4 2 13.5t2 23t2 22.5h41v-222h-41q0 37 -6 59q-9 27 -50 27h-100v-283h134q71 0 105.5 34t63.5 124l32 -4l-13 -204h-512v41q48 0 59 6q27 9 27 50v186h-205l-99 -186q-8 -16 0.5 -30t28.5 -19q4 -1 12.5 -2t22 -2.5l22.5 -2.5v-41h-237
v41q19 1 46 11q14 5 21.5 14t18.5 31l292 549l-79 6v41h563v-167h-36q-18 70 -48.5 93.5t-97.5 23.5h-121zM442 643l-166 -310h179v310h-13z" />
    <glyph glyph-name="Ccedilla" unicode="&#xc7;" horiz-adv-x="678" 
d="M395 659q-61 0 -105.5 -24.5t-69.5 -69t-36.5 -99t-11.5 -121.5q0 -310 221 -310q139 0 186 174h35v-153q-88 -71 -222 -71q-151 0 -244.5 101.5t-93.5 254.5q0 160 98.5 264t248.5 104q119 0 213 -54v-179h-35q-24 88 -66 135.5t-118 47.5zM491 -138q0 -41 -34.5 -64.5
t-87.5 -23.5q-39 0 -73 10v54q45 -15 76 -15q48 0 48 30q0 18 -19 26.5t-42 8.5q-12 0 -19 -1v121h48v-66q43 0 73 -20.5t30 -59.5z" />
    <glyph glyph-name="Egrave" unicode="&#xc8;" 
d="M50 41q48 0 59 6q27 9 27 50v499q0 40 -27 50q-4 1 -13.5 2t-23 2t-22.5 2v41h493v-167h-36q-18 70 -48.5 93.5t-97.5 23.5h-121v-260h100q40 0 50 27q1 4 2 13.5t2 23t2 22.5h41v-222h-41q0 37 -6 59q-9 27 -50 27h-100v-283h134q71 0 105.5 34t63.5 124l32 -4l-13 -204
h-512v41zM165 863h102l106 -120l-4 -10h-32l-176 119z" />
    <glyph glyph-name="Eacute" unicode="&#xc9;" 
d="M50 41q48 0 59 6q27 9 27 50v499q0 40 -27 50q-4 1 -13.5 2t-23 2t-22.5 2v41h493v-167h-36q-18 70 -48.5 93.5t-97.5 23.5h-121v-260h100q40 0 50 27q1 4 2 13.5t2 23t2 22.5h41v-222h-41q0 37 -6 59q-9 27 -50 27h-100v-283h134q71 0 105.5 34t63.5 124l32 -4l-13 -204
h-512v41zM493 852l-176 -119h-32l-4 10l106 120h102z" />
    <glyph glyph-name="Ecircumflex" unicode="&#xca;" 
d="M50 41q48 0 59 6q27 9 27 50v499q0 40 -27 50q-4 1 -13.5 2t-23 2t-22.5 2v41h493v-167h-36q-18 70 -48.5 93.5t-97.5 23.5h-121v-260h100q40 0 50 27q1 4 2 13.5t2 23t2 22.5h41v-222h-41q0 37 -6 59q-9 27 -50 27h-100v-283h134q71 0 105.5 34t63.5 124l32 -4l-13 -204
h-512v41zM286 859h42l113 -120l-4 -10h-32l-98 57l-98 -57h-32l-4 10z" />
    <glyph glyph-name="Edieresis" unicode="&#xcb;" 
d="M50 41q48 0 59 6q27 9 27 50v499q0 40 -27 50q-4 1 -13.5 2t-23 2t-22.5 2v41h493v-167h-36q-18 70 -48.5 93.5t-97.5 23.5h-121v-260h100q40 0 50 27q1 4 2 13.5t2 23t2 22.5h41v-222h-41q0 37 -6 59q-9 27 -50 27h-100v-283h134q71 0 105.5 34t63.5 124l32 -4l-13 -204
h-512v41zM186 792q0 25 15 38.5t37 13.5t37.5 -13.5t15.5 -38.5t-15.5 -38.5t-37.5 -13.5t-37 13.5t-15 38.5zM354 792q0 25 15.5 38.5t37.5 13.5t37 -13.5t15 -38.5t-15 -38.5t-37 -13.5t-37.5 13.5t-15.5 38.5z" />
    <glyph glyph-name="Igrave" unicode="&#xcc;" horiz-adv-x="376" 
d="M240 97q0 -40 27 -50q4 -1 13.5 -2t23 -2t22.5 -2v-41h-276v41q48 0 59 6q27 9 27 50v499q0 40 -27 50q-4 1 -13.5 2t-23 2t-22.5 2v41h276v-41q-37 0 -59 -6q-27 -9 -27 -50v-499zM15 863h102l106 -120l-4 -10h-32l-176 119z" />
    <glyph glyph-name="Iacute" unicode="&#xcd;" horiz-adv-x="376" 
d="M240 97q0 -40 27 -50q4 -1 13.5 -2t23 -2t22.5 -2v-41h-276v41q48 0 59 6q27 9 27 50v499q0 40 -27 50q-4 1 -13.5 2t-23 2t-22.5 2v41h276v-41q-37 0 -59 -6q-27 -9 -27 -50v-499zM352 852l-176 -119h-32l-4 10l106 120h102z" />
    <glyph glyph-name="Icircumflex" unicode="&#xce;" horiz-adv-x="376" 
d="M240 97q0 -40 27 -50q4 -1 13.5 -2t23 -2t22.5 -2v-41h-276v41q48 0 59 6q27 9 27 50v499q0 40 -27 50q-4 1 -13.5 2t-23 2t-22.5 2v41h276v-41q-37 0 -59 -6q-27 -9 -27 -50v-499zM169 859h42l113 -120l-4 -10h-32l-98 57l-98 -57h-32l-4 10z" />
    <glyph glyph-name="Idieresis" unicode="&#xcf;" horiz-adv-x="376" 
d="M240 97q0 -40 27 -50q4 -1 13.5 -2t23 -2t22.5 -2v-41h-276v41q48 0 59 6q27 9 27 50v499q0 40 -27 50q-4 1 -13.5 2t-23 2t-22.5 2v41h276v-41q-37 0 -59 -6q-27 -9 -27 -50v-499zM52 792q0 25 15 38.5t37 13.5t37.5 -13.5t15.5 -38.5t-15.5 -38.5t-37.5 -13.5t-37 13.5
t-15 38.5zM220 792q0 25 15.5 38.5t37.5 13.5t37 -13.5t15 -38.5t-15 -38.5t-37 -13.5t-37.5 13.5t-15.5 38.5z" />
    <glyph glyph-name="Ntilde" unicode="&#xd1;" horiz-adv-x="806" 
d="M624 -4l-418 562v-426q0 -53 32 -74q26 -17 64 -21v-37h-256v37q34 5 57 17q39 20 39 78v408q0 104 -91 117v36h170l388 -508v376q0 53 -32 74q-26 17 -64 21v37h256v-37q-34 -5 -57 -17q-39 -20 -39 -78v-565h-49zM553 847q0 -46 -22.5 -76t-69.5 -30q-35 0 -78 24
t-55 24q-29 0 -41 -52h-31q5 106 88 106q31 0 71 -24t53 -24q46 0 53 52h32z" />
    <glyph glyph-name="Ograve" unicode="&#xd2;" horiz-adv-x="794" 
d="M740 352q0 -154 -98.5 -260.5t-251.5 -106.5q-147 0 -241.5 99.5t-94.5 256.5q0 160 98.5 264t248.5 104t244.5 -102.5t94.5 -254.5zM622 350q0 138 -54.5 223.5t-172.5 85.5q-61 0 -105.5 -24.5t-69.5 -69t-36.5 -99t-11.5 -121.5q0 -308 221 -308q63 0 109.5 26
t71.5 72t36.5 99t11.5 116zM245 863h102l106 -120l-4 -10h-32l-176 119z" />
    <glyph glyph-name="Oacute" unicode="&#xd3;" horiz-adv-x="794" 
d="M740 352q0 -154 -98.5 -260.5t-251.5 -106.5q-147 0 -241.5 99.5t-94.5 256.5q0 160 98.5 264t248.5 104t244.5 -102.5t94.5 -254.5zM622 350q0 138 -54.5 223.5t-172.5 85.5q-61 0 -105.5 -24.5t-69.5 -69t-36.5 -99t-11.5 -121.5q0 -308 221 -308q63 0 109.5 26
t71.5 72t36.5 99t11.5 116zM547 852l-176 -119h-32l-4 10l106 120h102z" />
    <glyph glyph-name="Ocircumflex" unicode="&#xd4;" horiz-adv-x="794" 
d="M740 352q0 -154 -98.5 -260.5t-251.5 -106.5q-147 0 -241.5 99.5t-94.5 256.5q0 160 98.5 264t248.5 104t244.5 -102.5t94.5 -254.5zM622 350q0 138 -54.5 223.5t-172.5 85.5q-61 0 -105.5 -24.5t-69.5 -69t-36.5 -99t-11.5 -121.5q0 -308 221 -308q63 0 109.5 26
t71.5 72t36.5 99t11.5 116zM378 859h42l113 -120l-4 -10h-32l-98 57l-98 -57h-32l-4 10z" />
    <glyph glyph-name="Otilde" unicode="&#xd5;" horiz-adv-x="794" 
d="M740 352q0 -154 -98.5 -260.5t-251.5 -106.5q-147 0 -241.5 99.5t-94.5 256.5q0 160 98.5 264t248.5 104t244.5 -102.5t94.5 -254.5zM622 350q0 138 -54.5 223.5t-172.5 85.5q-61 0 -105.5 -24.5t-69.5 -69t-36.5 -99t-11.5 -121.5q0 -308 221 -308q63 0 109.5 26
t71.5 72t36.5 99t11.5 116zM545 847q0 -46 -22.5 -76t-69.5 -30q-35 0 -78 24t-55 24q-29 0 -41 -52h-31q5 106 88 106q31 0 71 -24t53 -24q46 0 53 52h32z" />
    <glyph glyph-name="Odieresis" unicode="&#xd6;" horiz-adv-x="794" 
d="M740 352q0 -154 -98.5 -260.5t-251.5 -106.5q-147 0 -241.5 99.5t-94.5 256.5q0 160 98.5 264t248.5 104t244.5 -102.5t94.5 -254.5zM622 350q0 138 -54.5 223.5t-172.5 85.5q-61 0 -105.5 -24.5t-69.5 -69t-36.5 -99t-11.5 -121.5q0 -308 221 -308q63 0 109.5 26
t71.5 72t36.5 99t11.5 116zM260 792q0 25 15 38.5t37 13.5t37.5 -13.5t15.5 -38.5t-15.5 -38.5t-37.5 -13.5t-37 13.5t-15 38.5zM428 792q0 25 15.5 38.5t37.5 13.5t37 -13.5t15 -38.5t-15 -38.5t-37 -13.5t-37.5 13.5t-15.5 38.5z" />
    <glyph glyph-name="Oslash" unicode="&#xd8;" horiz-adv-x="797" 
d="M742 352q0 -154 -98.5 -260.5t-251.5 -106.5q-127 0 -213 72l-63 -72h-62l91 105q-89 98 -89 251q0 160 98.5 264t248.5 104q124 0 214 -74l64 74h64l-94 -108q91 -99 91 -249zM174 345q0 -117 31 -186l361 418q-58 82 -169 82q-61 0 -105.5 -24.5t-69.5 -69t-36.5 -99
t-11.5 -121.5zM624 350q0 109 -33 182l-362 -416q56 -79 166 -79q63 0 109.5 26t71.5 72t36.5 99t11.5 116z" />
    <glyph glyph-name="Ugrave" unicode="&#xd9;" horiz-adv-x="761" 
d="M225 236q0 -99 41.5 -148.5t130.5 -49.5q178 0 178 202v329q-4 48 -32 66q-26 17 -64 21v37h256v-37q-35 -5 -57 -17q-38 -20 -39 -72v-328q0 -118 -66.5 -185.5t-198.5 -67.5q-120 0 -186.5 59.5t-66.5 182.5v368q0 42 -27 50q-14 4 -59 6v41h276v-41q-11 -1 -24 -2
t-20.5 -1.5t-14.5 -2.5q-26 -8 -27 -42v-368zM224 863h102l106 -120l-4 -10h-32l-176 119z" />
    <glyph glyph-name="Uacute" unicode="&#xda;" horiz-adv-x="761" 
d="M225 236q0 -99 41.5 -148.5t130.5 -49.5q178 0 178 202v329q-4 48 -32 66q-26 17 -64 21v37h256v-37q-35 -5 -57 -17q-38 -20 -39 -72v-328q0 -118 -66.5 -185.5t-198.5 -67.5q-120 0 -186.5 59.5t-66.5 182.5v368q0 42 -27 50q-14 4 -59 6v41h276v-41q-11 -1 -24 -2
t-20.5 -1.5t-14.5 -2.5q-26 -8 -27 -42v-368zM569 852l-176 -119h-32l-4 10l106 120h102z" />
    <glyph glyph-name="Ucircumflex" unicode="&#xdb;" horiz-adv-x="761" 
d="M225 236q0 -99 41.5 -148.5t130.5 -49.5q178 0 178 202v329q-4 48 -32 66q-26 17 -64 21v37h256v-37q-35 -5 -57 -17q-38 -20 -39 -72v-328q0 -118 -66.5 -185.5t-198.5 -67.5q-120 0 -186.5 59.5t-66.5 182.5v368q0 42 -27 50q-14 4 -59 6v41h276v-41q-11 -1 -24 -2
t-20.5 -1.5t-14.5 -2.5q-26 -8 -27 -42v-368zM372 859h42l113 -120l-4 -10h-32l-98 57l-98 -57h-32l-4 10z" />
    <glyph glyph-name="Udieresis" unicode="&#xdc;" horiz-adv-x="761" 
d="M225 236q0 -99 41.5 -148.5t130.5 -49.5q178 0 178 202v329q-4 48 -32 66q-26 17 -64 21v37h256v-37q-35 -5 -57 -17q-38 -20 -39 -72v-328q0 -118 -66.5 -185.5t-198.5 -67.5q-120 0 -186.5 59.5t-66.5 182.5v368q0 42 -27 50q-14 4 -59 6v41h276v-41q-11 -1 -24 -2
t-20.5 -1.5t-14.5 -2.5q-26 -8 -27 -42v-368zM256 792q0 25 15 38.5t37 13.5t37.5 -13.5t15.5 -38.5t-15.5 -38.5t-37.5 -13.5t-37 13.5t-15 38.5zM424 792q0 25 15.5 38.5t37.5 13.5t37 -13.5t15 -38.5t-15 -38.5t-37 -13.5t-37.5 13.5t-15.5 38.5z" />
    <glyph glyph-name="Yacute" unicode="&#xdd;" horiz-adv-x="639" 
d="M208 603q0 -18 10 -34l121 -224l124 223q10 19 10 35q0 47 -78 49v41h241v-35q-61 -6 -102 -76l-164 -283v-202q0 -40 27 -50q4 -1 13.5 -2t23 -2t22.5 -2v-41h-276v41q48 0 59 6q27 9 27 50v210l-166 289q-17 27 -35.5 39t-50.5 17v41h276v-41q-82 -6 -82 -49zM513 852
l-176 -119h-32l-4 10l106 120h102z" />
    <glyph glyph-name="Thorn" unicode="&#xde;" horiz-adv-x="612" 
d="M240 552h123q93 0 153 -50t60 -137q0 -93 -64.5 -153t-162.5 -60h-109v-55q0 -40 27 -50q4 -1 13.5 -2t23 -2t22.5 -2v-41h-276v41q48 0 59 6q27 9 27 50v499q0 40 -27 50q-4 1 -13.5 2t-23 2t-22.5 2v41h276v-41q-37 0 -59 -6q-27 -9 -27 -50v-44zM240 502v-300h75
q68 0 104.5 41t36.5 112q0 66 -34 106.5t-91 40.5h-91z" />
    <glyph glyph-name="germandbls" unicode="&#xdf;" horiz-adv-x="625" 
d="M35 481h75v5q0 117 78 195t195 78q83 0 131.5 -41t48.5 -108q0 -42 -20.5 -72.5t-50 -48t-59 -32.5t-50 -35t-20.5 -46q0 -18 9 -31t19.5 -19t30.5 -15q2 -1 3.5 -1.5t3.5 -1.5l52 -24q24 -11 39 -19.5t35.5 -24.5t30.5 -40t10 -55q0 -70 -52 -115t-133 -45
q-57 0 -104 20.5t-47 56.5q0 18 11.5 32t33.5 14q17 0 30.5 -11t22 -24.5t26 -24.5t42.5 -11q39 0 65 22t26 55q0 28 -20.5 46t-60.5 36l-41 19q-25 11 -40 19.5t-33 24t-27 37t-9 50.5q0 34 13.5 60.5t33.5 41.5t43 30.5t43 28.5t33.5 35.5t13.5 51.5q0 47 -32.5 73
t-88.5 26q-70 0 -107 -40t-37 -117v-536h-162v37q40 4 44 6q27 9 27 50v338h-75v50z" />
    <glyph glyph-name="agrave" unicode="&#xe0;" horiz-adv-x="498" 
d="M403 95q0 -36 17 -49.5t52 -13.5q9 0 16 1v-28q-35 -16 -76 -16q-54 0 -76.5 19.5t-23.5 57.5q-24 -35 -63 -55.5t-81 -20.5q-53 0 -88.5 32t-35.5 87q0 51 35 85t110 54l123 30v23q0 66 -22 90.5t-82 24.5q-73 0 -151 -19v46q93 49 201 49q145 0 145 -164v-233zM218 63
q50 0 94 24v144l-67 -17q-59 -15 -83.5 -31.5t-24.5 -47.5q0 -72 81 -72zM108 709h98l93 -140l-4 -10h-32l-159 139z" />
    <glyph glyph-name="aacute" unicode="&#xe1;" horiz-adv-x="498" 
d="M403 95q0 -36 17 -49.5t52 -13.5q9 0 16 1v-28q-35 -16 -76 -16q-54 0 -76.5 19.5t-23.5 57.5q-24 -35 -63 -55.5t-81 -20.5q-53 0 -88.5 32t-35.5 87q0 51 35 85t110 54l123 30v23q0 66 -22 90.5t-82 24.5q-73 0 -151 -19v46q93 49 201 49q145 0 145 -164v-233zM218 63
q50 0 94 24v144l-67 -17q-59 -15 -83.5 -31.5t-24.5 -47.5q0 -72 81 -72zM388 698l-159 -139h-32l-4 10l93 140h98z" />
    <glyph glyph-name="acircumflex" unicode="&#xe2;" horiz-adv-x="498" 
d="M403 95q0 -36 17 -49.5t52 -13.5q9 0 16 1v-28q-35 -16 -76 -16q-54 0 -76.5 19.5t-23.5 57.5q-24 -35 -63 -55.5t-81 -20.5q-53 0 -88.5 32t-35.5 87q0 51 35 85t110 54l123 30v23q0 66 -22 90.5t-82 24.5q-73 0 -151 -19v46q93 49 201 49q145 0 145 -164v-233zM218 63
q50 0 94 24v144l-67 -17q-59 -15 -83.5 -31.5t-24.5 -47.5q0 -72 81 -72zM369 569l-4 -10h-32l-98 77l-98 -77h-32l-4 10l113 140h42z" />
    <glyph glyph-name="atilde" unicode="&#xe3;" horiz-adv-x="498" 
d="M403 95q0 -36 17 -49.5t52 -13.5q9 0 16 1v-28q-35 -16 -76 -16q-54 0 -76.5 19.5t-23.5 57.5q-24 -35 -63 -55.5t-81 -20.5q-53 0 -88.5 32t-35.5 87q0 51 35 85t110 54l123 30v23q0 66 -22 90.5t-82 24.5q-73 0 -151 -19v46q93 49 201 49q145 0 145 -164v-233zM218 63
q50 0 94 24v144l-67 -17q-59 -15 -83.5 -31.5t-24.5 -47.5q0 -72 81 -72zM395 710q0 -46 -25.5 -80t-72.5 -34q-35 0 -78 24t-55 24q-29 0 -41 -52h-37q2 48 26.5 81t67.5 33q31 0 71 -24t53 -24q46 0 53 52h38z" />
    <glyph glyph-name="adieresis" unicode="&#xe4;" horiz-adv-x="498" 
d="M403 95q0 -36 17 -49.5t52 -13.5q9 0 16 1v-28q-35 -16 -76 -16q-54 0 -76.5 19.5t-23.5 57.5q-24 -35 -63 -55.5t-81 -20.5q-53 0 -88.5 32t-35.5 87q0 51 35 85t110 54l123 30v23q0 66 -22 90.5t-82 24.5q-73 0 -151 -19v46q93 49 201 49q145 0 145 -164v-233zM218 63
q50 0 94 24v144l-67 -17q-59 -15 -83.5 -31.5t-24.5 -47.5q0 -72 81 -72zM97 654q0 26 16 40.5t39 14.5t39 -14.5t16 -40.5t-16 -40.5t-39 -14.5t-39 14.5t-16 40.5zM274 654q0 26 16 40.5t39 14.5t39 -14.5t16 -40.5t-16 -40.5t-39 -14.5t-39 14.5t-16 40.5z" />
    <glyph glyph-name="aring" unicode="&#xe5;" horiz-adv-x="498" 
d="M403 95q0 -36 17 -49.5t52 -13.5q9 0 16 1v-28q-35 -16 -76 -16q-54 0 -76.5 19.5t-23.5 57.5q-24 -35 -63 -55.5t-81 -20.5q-53 0 -88.5 32t-35.5 87q0 51 35 85t110 54l123 30v23q0 66 -22 90.5t-82 24.5q-73 0 -151 -19v46q93 49 201 49q145 0 145 -164v-233zM218 63
q50 0 94 24v144l-67 -17q-59 -15 -83.5 -31.5t-24.5 -47.5q0 -72 81 -72zM359 666q0 -42 -29.5 -68t-78.5 -26t-78.5 26t-29.5 67q0 42 30.5 68t78.5 26q46 0 76.5 -26t30.5 -67zM306 666q0 57 -55 57t-55 -57q0 -27 14.5 -42.5t40.5 -15.5q55 0 55 58z" />
    <glyph glyph-name="ae" unicode="&#xe6;" horiz-adv-x="762" 
d="M699 38q-68 -53 -174 -53q-121 0 -176 86q-75 -81 -181 -81q-53 0 -88.5 32t-35.5 87q0 51 35 85t110 54l123 30v23q0 66 -22 90.5t-82 24.5q-73 0 -151 -19v46q93 49 201 49q94 0 122 -72q67 75 175 75q80 0 125.5 -55.5t39.5 -152.5l-22 -44h-302q2 -90 41.5 -135.5
t121.5 -45.5q68 0 138 25zM523 437q-107 0 -125 -140h230q5 64 -22 102t-83 38zM334 100q-22 48 -22 119v12l-67 -17q-59 -15 -83.5 -31.5t-24.5 -47.5q0 -72 81 -72q49 0 116 37z" />
    <glyph glyph-name="ccedilla" unicode="&#xe7;" horiz-adv-x="482" 
d="M432 38q-69 -53 -178 -53q-101 0 -155 64t-54 174q0 120 69 196t170 76q69 0 116 -25t47 -62q0 -25 -16 -40t-40 -15q-13 0 -26.5 13t-25 29t-34.5 29t-51 13q-61 0 -92 -48t-31 -132q0 -193 159 -193q68 0 140 25zM376 -138q0 -41 -34.5 -64.5t-87.5 -23.5q-39 0 -73 10
v54q45 -15 76 -15q48 0 48 30q0 18 -19 26.5t-42 8.5q-12 0 -19 -1v121h48v-66q43 0 73 -20.5t30 -59.5z" />
    <glyph glyph-name="egrave" unicode="&#xe8;" horiz-adv-x="495" 
d="M432 38q-68 -53 -174 -53q-103 0 -158 63t-55 171q0 125 67.5 200.5t175.5 75.5q70 0 113 -41.5t51 -118.5q2 -30 1 -48l-22 -44h-302q2 -90 41.5 -135.5t121.5 -45.5q68 0 138 25zM256 437q-107 0 -125 -140h230q1 7 1 19q0 56 -27 88.5t-79 32.5zM129 709h98l93 -140
l-4 -10h-32l-159 139z" />
    <glyph glyph-name="eacute" unicode="&#xe9;" horiz-adv-x="495" 
d="M432 38q-68 -53 -174 -53q-103 0 -158 63t-55 171q0 125 67.5 200.5t175.5 75.5q70 0 113 -41.5t51 -118.5q2 -30 1 -48l-22 -44h-302q2 -90 41.5 -135.5t121.5 -45.5q68 0 138 25zM256 437q-107 0 -125 -140h230q1 7 1 19q0 56 -27 88.5t-79 32.5zM409 698l-159 -139
h-32l-4 10l93 140h98z" />
    <glyph glyph-name="ecircumflex" unicode="&#xea;" horiz-adv-x="495" 
d="M432 38q-68 -53 -174 -53q-103 0 -158 63t-55 171q0 125 67.5 200.5t175.5 75.5q70 0 113 -41.5t51 -118.5q2 -30 1 -48l-22 -44h-302q2 -90 41.5 -135.5t121.5 -45.5q68 0 138 25zM256 437q-107 0 -125 -140h230q1 7 1 19q0 56 -27 88.5t-79 32.5zM395 569l-4 -10h-32
l-98 77l-98 -77h-32l-4 10l113 140h42z" />
    <glyph glyph-name="edieresis" unicode="&#xeb;" horiz-adv-x="495" 
d="M432 38q-68 -53 -174 -53q-103 0 -158 63t-55 171q0 125 67.5 200.5t175.5 75.5q70 0 113 -41.5t51 -118.5q2 -30 1 -48l-22 -44h-302q2 -90 41.5 -135.5t121.5 -45.5q68 0 138 25zM256 437q-107 0 -125 -140h230q1 7 1 19q0 56 -27 88.5t-79 32.5zM119 654q0 26 16 40.5
t39 14.5t39 -14.5t16 -40.5t-16 -40.5t-39 -14.5t-39 14.5t-16 40.5zM296 654q0 26 16 40.5t39 14.5t39 -14.5t16 -40.5t-16 -40.5t-39 -14.5t-39 14.5t-16 40.5z" />
    <glyph glyph-name="igrave" unicode="&#xec;" horiz-adv-x="298" 
d="M201 93q0 -40 27 -50q1 0 44 -6v-37h-233v37q34 2 44 6q27 9 27 50v306q0 24 -7 32.5t-29 8.5q-17 0 -44 -3v35q61 23 120 23q28 0 39.5 -14.5t11.5 -45.5v-342zM-5 709h98l93 -140l-4 -10h-32l-159 139z" />
    <glyph glyph-name="iacute" unicode="&#xed;" horiz-adv-x="298" 
d="M201 93q0 -40 27 -50q1 0 44 -6v-37h-233v37q34 2 44 6q27 9 27 50v306q0 24 -7 32.5t-29 8.5q-17 0 -44 -3v35q61 23 120 23q28 0 39.5 -14.5t11.5 -45.5v-342zM283 698l-159 -139h-32l-4 10l93 140h98z" />
    <glyph glyph-name="icircumflex" unicode="&#xee;" horiz-adv-x="298" 
d="M201 93q0 -40 27 -50q1 0 44 -6v-37h-233v37q34 2 44 6q27 9 27 50v306q0 24 -7 32.5t-29 8.5q-17 0 -44 -3v35q61 23 120 23q28 0 39.5 -14.5t11.5 -45.5v-342zM285 569l-4 -10h-32l-98 77l-98 -77h-32l-4 10l113 140h42z" />
    <glyph glyph-name="idieresis" unicode="&#xef;" horiz-adv-x="298" 
d="M201 93q0 -40 27 -50q1 0 44 -6v-37h-233v37q34 2 44 6q27 9 27 50v306q0 24 -7 32.5t-29 8.5q-17 0 -44 -3v35q61 23 120 23q28 0 39.5 -14.5t11.5 -45.5v-342zM8 654q0 26 16 40.5t39 14.5t39 -14.5t16 -40.5t-16 -40.5t-39 -14.5t-39 14.5t-16 40.5zM185 654
q0 26 16 40.5t39 14.5t39 -14.5t16 -40.5t-16 -40.5t-39 -14.5t-39 14.5t-16 40.5z" />
    <glyph glyph-name="eth" unicode="&#xf0;" horiz-adv-x="568" 
d="M159 588l88 75q-43 29 -105 51l26 43q64 -16 129 -51l87 74l32 -38l-75 -65q171 -125 171 -364q0 -146 -68 -237t-183 -91q-101 0 -158.5 68.5t-57.5 166.5q0 109 67 191t173 82q58 0 111 -32q-27 104 -107 172l-97 -83zM412 311q0 46 -4 85q-68 42 -127 42
q-134 0 -134 -186q0 -100 37 -154.5t98 -54.5q130 0 130 268z" />
    <glyph glyph-name="ntilde" unicode="&#xf1;" horiz-adv-x="596" 
d="M201 93q0 -40 27 -50q1 0 44 -6v-37h-233v37q34 2 44 6q27 9 27 50v306q0 24 -7 32.5t-29 8.5q-17 0 -44 -3v35q61 23 120 23q28 0 39.5 -14.5t11.5 -45.5v-13q81 73 169 73q130 0 130 -163v-239q0 -40 27 -50q1 0 44 -6v-37h-233v37q34 2 44 6q27 9 27 50v215
q0 59 -21 84.5t-79 25.5q-45 0 -108 -22v-303zM454 710q0 -46 -25.5 -80t-72.5 -34q-36 0 -79 24t-54 24q-29 0 -41 -52h-37q2 48 26.5 81t67.5 33q31 0 71 -24t53 -24q46 0 53 52h38z" />
    <glyph glyph-name="ograve" unicode="&#xf2;" horiz-adv-x="557" 
d="M513 262q0 -112 -70 -194.5t-181 -82.5q-97 0 -157 65.5t-60 172.5q0 120 72.5 196t177.5 76q97 0 157.5 -65t60.5 -168zM411 230q0 97 -34.5 152t-107.5 55q-122 0 -122 -178q0 -98 34 -157t106 -59q124 0 124 187zM149 709h98l93 -140l-4 -10h-32l-159 139z" />
    <glyph glyph-name="oacute" unicode="&#xf3;" horiz-adv-x="557" 
d="M513 262q0 -112 -70 -194.5t-181 -82.5q-97 0 -157 65.5t-60 172.5q0 120 72.5 196t177.5 76q97 0 157.5 -65t60.5 -168zM411 230q0 97 -34.5 152t-107.5 55q-122 0 -122 -178q0 -98 34 -157t106 -59q124 0 124 187zM412 698l-159 -139h-32l-4 10l93 140h98z" />
    <glyph glyph-name="ocircumflex" unicode="&#xf4;" horiz-adv-x="557" 
d="M513 262q0 -112 -70 -194.5t-181 -82.5q-97 0 -157 65.5t-60 172.5q0 120 72.5 196t177.5 76q97 0 157.5 -65t60.5 -168zM411 230q0 97 -34.5 152t-107.5 55q-122 0 -122 -178q0 -98 34 -157t106 -59q124 0 124 187zM413 569l-4 -10h-32l-98 77l-98 -77h-32l-4 10
l113 140h42z" />
    <glyph glyph-name="otilde" unicode="&#xf5;" horiz-adv-x="557" 
d="M513 262q0 -112 -70 -194.5t-181 -82.5q-97 0 -157 65.5t-60 172.5q0 120 72.5 196t177.5 76q97 0 157.5 -65t60.5 -168zM411 230q0 97 -34.5 152t-107.5 55q-122 0 -122 -178q0 -98 34 -157t106 -59q124 0 124 187zM434 710q0 -46 -25.5 -80t-72.5 -34q-36 0 -78.5 24
t-54.5 24q-29 0 -41 -52h-37q2 48 26.5 81t67.5 33q31 0 71 -24t53 -24q46 0 53 52h38z" />
    <glyph glyph-name="odieresis" unicode="&#xf6;" horiz-adv-x="557" 
d="M513 262q0 -112 -70 -194.5t-181 -82.5q-97 0 -157 65.5t-60 172.5q0 120 72.5 196t177.5 76q97 0 157.5 -65t60.5 -168zM411 230q0 97 -34.5 152t-107.5 55q-122 0 -122 -178q0 -98 34 -157t106 -59q124 0 124 187zM136 654q0 26 16 40.5t39 14.5t39 -14.5t16 -40.5
t-16 -40.5t-39 -14.5t-39 14.5t-16 40.5zM313 654q0 26 16 40.5t39 14.5t39 -14.5t16 -40.5t-16 -40.5t-39 -14.5t-39 14.5t-16 40.5z" />
    <glyph glyph-name="oslash" unicode="&#xf8;" horiz-adv-x="554" 
d="M511 262q0 -112 -70 -194.5t-181 -82.5q-68 0 -120 33l-39 -53h-58l62 83q-62 64 -62 175q0 120 72.5 196t177.5 76q67 0 119 -33l39 53h60l-62 -83q62 -65 62 -170zM145 259q0 -82 20 -130l198 267q-35 41 -96 41q-122 0 -122 -178zM409 230q0 78 -20 122l-199 -267
q35 -42 95 -42q124 0 124 187z" />
    <glyph glyph-name="ugrave" unicode="&#xf9;" horiz-adv-x="587" 
d="M395 399q0 24 -7 32.5t-29 8.5q-17 0 -44 -3v35q61 23 120 23q28 0 39.5 -14.5t11.5 -45.5v-340q0 -39 20.5 -51.5t63.5 -10.5l1 -28q-35 -16 -76 -16q-51 0 -74 18t-26 52q-79 -73 -169 -73q-130 0 -130 163v250q0 24 -7 32.5t-29 8.5q-17 0 -44 -3v35q61 23 120 23
q28 0 39.5 -14.5t11.5 -45.5v-262q0 -59 21 -84.5t79 -25.5q39 0 108 21v315zM134 709h98l93 -140l-4 -10h-32l-159 139z" />
    <glyph glyph-name="uacute" unicode="&#xfa;" horiz-adv-x="587" 
d="M395 399q0 24 -7 32.5t-29 8.5q-17 0 -44 -3v35q61 23 120 23q28 0 39.5 -14.5t11.5 -45.5v-340q0 -39 20.5 -51.5t63.5 -10.5l1 -28q-35 -16 -76 -16q-51 0 -74 18t-26 52q-79 -73 -169 -73q-130 0 -130 163v250q0 24 -7 32.5t-29 8.5q-17 0 -44 -3v35q61 23 120 23
q28 0 39.5 -14.5t11.5 -45.5v-262q0 -59 21 -84.5t79 -25.5q39 0 108 21v315zM431 698l-159 -139h-32l-4 10l93 140h98z" />
    <glyph glyph-name="ucircumflex" unicode="&#xfb;" horiz-adv-x="587" 
d="M395 399q0 24 -7 32.5t-29 8.5q-17 0 -44 -3v35q61 23 120 23q28 0 39.5 -14.5t11.5 -45.5v-340q0 -39 20.5 -51.5t63.5 -10.5l1 -28q-35 -16 -76 -16q-51 0 -74 18t-26 52q-79 -73 -169 -73q-130 0 -130 163v250q0 24 -7 32.5t-29 8.5q-17 0 -44 -3v35q61 23 120 23
q28 0 39.5 -14.5t11.5 -45.5v-262q0 -59 21 -84.5t79 -25.5q39 0 108 21v315zM409 569l-4 -10h-32l-98 77l-98 -77h-32l-4 10l113 140h42z" />
    <glyph glyph-name="udieresis" unicode="&#xfc;" horiz-adv-x="587" 
d="M395 399q0 24 -7 32.5t-29 8.5q-17 0 -44 -3v35q61 23 120 23q28 0 39.5 -14.5t11.5 -45.5v-340q0 -39 20.5 -51.5t63.5 -10.5l1 -28q-35 -16 -76 -16q-51 0 -74 18t-26 52q-79 -73 -169 -73q-130 0 -130 163v250q0 24 -7 32.5t-29 8.5q-17 0 -44 -3v35q61 23 120 23
q28 0 39.5 -14.5t11.5 -45.5v-262q0 -59 21 -84.5t79 -25.5q39 0 108 21v315zM135 654q0 26 16 40.5t39 14.5t39 -14.5t16 -40.5t-16 -40.5t-39 -14.5t-39 14.5t-16 40.5zM312 654q0 26 16 40.5t39 14.5t39 -14.5t16 -40.5t-16 -40.5t-39 -14.5t-39 14.5t-16 40.5z" />
    <glyph glyph-name="yacute" unicode="&#xfd;" horiz-adv-x="534" 
d="M524 452q-50 -11 -76 -72l-112 -265l-49 -117q-41 -95 -72 -135q-67 -89 -163 -89q-20 0 -31.5 12t-11.5 30q0 21 11.5 34t28.5 13q83 0 117.5 26.5t72.5 120.5l-158 388q-20 47 -67 54v29h219v-29q-30 0 -44.5 -13.5t-6.5 -34.5l102 -274l97 230q16 42 2 64t-53 28v29
h194v-29zM430 698l-159 -139h-32l-4 10l93 140h98z" />
    <glyph glyph-name="thorn" unicode="&#xfe;" horiz-adv-x="554" 
d="M81 663q0 24 -7 32.5t-29 8.5q-17 0 -44 -3v35q61 23 120 23q28 0 39.5 -14.5t11.5 -45.5v-279q68 71 152 71q80 0 132 -58t52 -165q0 -125 -72 -203.5t-188 -78.5q-44 0 -76 9v-119q0 -40 27 -50q4 -1 14.5 -2t25.5 -2t24 -2v-37h-253v37q34 2 44 6q27 9 27 50v787z
M282 417q-52 0 -110 -31v-318q54 -24 109 -24q71 0 106 52t35 140q0 91 -36.5 136t-103.5 45z" />
    <glyph glyph-name="ydieresis" unicode="&#xff;" horiz-adv-x="534" 
d="M524 452q-50 -11 -76 -72l-112 -265l-49 -117q-41 -95 -72 -135q-67 -89 -163 -89q-20 0 -31.5 12t-11.5 30q0 21 11.5 34t28.5 13q83 0 117.5 26.5t72.5 120.5l-158 388q-20 47 -67 54v29h219v-29q-30 0 -44.5 -13.5t-6.5 -34.5l102 -274l97 230q16 42 2 64t-53 28v29
h194v-29zM139 654q0 26 16 40.5t39 14.5t39 -14.5t16 -40.5t-16 -40.5t-39 -14.5t-39 14.5t-16 40.5zM316 654q0 26 16 40.5t39 14.5t39 -14.5t16 -40.5t-16 -40.5t-39 -14.5t-39 14.5t-16 40.5z" />
    <glyph glyph-name="Amacron" unicode="&#x100;" horiz-adv-x="684" 
d="M435 240h-230l-54 -143q-14 -38 29 -49q4 -1 12.5 -2t22 -2.5l22.5 -2.5v-41h-233v41q19 1 46 11t40 45l234 609h47l215 -609q12 -35 40 -45q27 -10 46 -11v-41h-276v41q9 1 22 2.5t21.5 2.5t13.5 2q17 3 26 16t3 33zM225 293h193l-89 272zM231 804h232v-60h-232v60z" />
    <glyph glyph-name="amacron" unicode="&#x101;" horiz-adv-x="498" 
d="M403 95q0 -36 17 -49.5t52 -13.5q9 0 16 1v-28q-35 -16 -76 -16q-54 0 -76.5 19.5t-23.5 57.5q-24 -35 -63 -55.5t-81 -20.5q-53 0 -88.5 32t-35.5 87q0 51 35 85t110 54l123 30v23q0 66 -22 90.5t-82 24.5q-73 0 -151 -19v46q93 49 201 49q145 0 145 -164v-233zM218 63
q50 0 94 24v144l-67 -17q-59 -15 -83.5 -31.5t-24.5 -47.5q0 -72 81 -72zM125 674h232v-60h-232v60z" />
    <glyph glyph-name="Abreve" unicode="&#x102;" horiz-adv-x="684" 
d="M435 240h-230l-54 -143q-14 -38 29 -49q4 -1 12.5 -2t22 -2.5l22.5 -2.5v-41h-233v41q19 1 46 11t40 45l234 609h47l215 -609q12 -35 40 -45q27 -10 46 -11v-41h-276v41q9 1 22 2.5t21.5 2.5t13.5 2q17 3 26 16t3 33zM225 293h193l-89 272zM463 846q-26 -110 -116 -110
q-43 0 -75.5 28.5t-40.5 81.5h30q14 -31 34.5 -41t53.5 -10t51 10t32 41h31z" />
    <glyph glyph-name="abreve" unicode="&#x103;" horiz-adv-x="498" 
d="M403 95q0 -36 17 -49.5t52 -13.5q9 0 16 1v-28q-35 -16 -76 -16q-54 0 -76.5 19.5t-23.5 57.5q-24 -35 -63 -55.5t-81 -20.5q-53 0 -88.5 32t-35.5 87q0 51 35 85t110 54l123 30v23q0 66 -22 90.5t-82 24.5q-73 0 -151 -19v46q93 49 201 49q145 0 145 -164v-233zM218 63
q50 0 94 24v144l-67 -17q-59 -15 -83.5 -31.5t-24.5 -47.5q0 -72 81 -72zM394 709q-16 -69 -52.5 -107.5t-90.5 -38.5q-51 0 -93 40.5t-50 105.5h37q35 -79 108 -79q37 0 60.5 19t43.5 60h37z" />
    <glyph glyph-name="Aogonek" unicode="&#x104;" horiz-adv-x="684" 
d="M435 240h-230l-54 -143q-14 -38 29 -49q4 -1 12.5 -2t22 -2.5l22.5 -2.5v-41h-233v41q19 1 46 11t40 45l234 609h47l215 -609q12 -35 40 -45q27 -10 46 -11v-41h-276v41q9 1 22 2.5t21.5 2.5t13.5 2q17 3 26 16t3 33zM225 293h193l-89 272zM672 -217q-40 -8 -70 -8
q-117 0 -117 99q0 37 34.5 76.5t97.5 68.5l31 -5q-85 -55 -85 -124q0 -34 20.5 -51.5t54.5 -17.5q19 0 34 4v-42z" />
    <glyph glyph-name="aogonek" unicode="&#x105;" horiz-adv-x="498" 
d="M403 95q0 -36 17 -49.5t52 -13.5q9 0 16 1v-28q-35 -16 -76 -16q-54 0 -76.5 19.5t-23.5 57.5q-24 -35 -63 -55.5t-81 -20.5q-53 0 -88.5 32t-35.5 87q0 51 35 85t110 54l123 30v23q0 66 -22 90.5t-82 24.5q-73 0 -151 -19v46q93 49 201 49q145 0 145 -164v-233zM218 63
q50 0 94 24v144l-67 -17q-59 -15 -83.5 -31.5t-24.5 -47.5q0 -72 81 -72zM484 -217q-40 -8 -70 -8q-117 0 -117 99q0 37 34.5 76.5t97.5 68.5l31 -5q-85 -55 -85 -124q0 -34 20.5 -51.5t54.5 -17.5q19 0 34 4v-42z" />
    <glyph glyph-name="Cacute" unicode="&#x106;" horiz-adv-x="678" 
d="M395 659q-61 0 -105.5 -24.5t-69.5 -69t-36.5 -99t-11.5 -121.5q0 -310 221 -310q139 0 186 174h35v-153q-88 -71 -222 -71q-151 0 -244.5 101.5t-93.5 254.5q0 160 98.5 264t248.5 104q119 0 213 -54v-179h-35q-24 88 -66 135.5t-118 47.5zM547 852l-176 -119h-32l-4 10
l106 120h102z" />
    <glyph glyph-name="cacute" unicode="&#x107;" horiz-adv-x="482" 
d="M432 38q-69 -53 -178 -53q-101 0 -155 64t-54 174q0 120 69 196t170 76q69 0 116 -25t47 -62q0 -25 -16 -40t-40 -15q-13 0 -26.5 13t-25 29t-34.5 29t-51 13q-61 0 -92 -48t-31 -132q0 -193 159 -193q68 0 140 25zM421 698l-159 -139h-32l-4 10l93 140h98z" />
    <glyph glyph-name="Ccircumflex" unicode="&#x108;" horiz-adv-x="678" 
d="M395 659q-61 0 -105.5 -24.5t-69.5 -69t-36.5 -99t-11.5 -121.5q0 -310 221 -310q139 0 186 174h35v-153q-88 -71 -222 -71q-151 0 -244.5 101.5t-93.5 254.5q0 160 98.5 264t248.5 104q119 0 213 -54v-179h-35q-24 88 -66 135.5t-118 47.5zM371 859h42l113 -120l-4 -10
h-32l-98 57l-98 -57h-32l-4 10z" />
    <glyph glyph-name="ccircumflex" unicode="&#x109;" horiz-adv-x="482" 
d="M432 38q-69 -53 -178 -53q-101 0 -155 64t-54 174q0 120 69 196t170 76q69 0 116 -25t47 -62q0 -25 -16 -40t-40 -15q-13 0 -26.5 13t-25 29t-34.5 29t-51 13q-61 0 -92 -48t-31 -132q0 -193 159 -193q68 0 140 25zM403 569l-4 -10h-32l-98 77l-98 -77h-32l-4 10l113 140
h42z" />
    <glyph glyph-name="Cdotaccent" unicode="&#x10a;" horiz-adv-x="678" 
d="M395 659q-61 0 -105.5 -24.5t-69.5 -69t-36.5 -99t-11.5 -121.5q0 -310 221 -310q139 0 186 174h35v-153q-88 -71 -222 -71q-151 0 -244.5 101.5t-93.5 254.5q0 160 98.5 264t248.5 104q119 0 213 -54v-179h-35q-24 88 -66 135.5t-118 47.5zM341 792q0 26 16 40.5
t39 14.5t39 -14.5t16 -40.5t-16 -40.5t-39 -14.5t-39 14.5t-16 40.5z" />
    <glyph glyph-name="cdotaccent" unicode="&#x10b;" horiz-adv-x="482" 
d="M432 38q-69 -53 -178 -53q-101 0 -155 64t-54 174q0 120 69 196t170 76q69 0 116 -25t47 -62q0 -25 -16 -40t-40 -15q-13 0 -26.5 13t-25 29t-34.5 29t-51 13q-61 0 -92 -48t-31 -132q0 -193 159 -193q68 0 140 25zM203 655q0 31 18.5 47.5t45.5 16.5t45.5 -16.5
t18.5 -47.5t-18.5 -47.5t-45.5 -16.5t-45.5 16.5t-18.5 47.5z" />
    <glyph glyph-name="Ccaron" unicode="&#x10c;" horiz-adv-x="678" 
d="M395 659q-61 0 -105.5 -24.5t-69.5 -69t-36.5 -99t-11.5 -121.5q0 -310 221 -310q139 0 186 174h35v-153q-88 -71 -222 -71q-151 0 -244.5 101.5t-93.5 254.5q0 160 98.5 264t248.5 104q119 0 213 -54v-179h-35q-24 88 -66 135.5t-118 47.5zM414 729h-42l-113 120l4 10
h32l98 -57l98 57h32l4 -10z" />
    <glyph glyph-name="ccaron" unicode="&#x10d;" horiz-adv-x="482" 
d="M432 38q-69 -53 -178 -53q-101 0 -155 64t-54 174q0 120 69 196t170 76q69 0 116 -25t47 -62q0 -25 -16 -40t-40 -15q-13 0 -26.5 13t-25 29t-34.5 29t-51 13q-61 0 -92 -48t-31 -132q0 -193 159 -193q68 0 140 25zM280 569h-42l-113 140l4 10h32l98 -77l98 77h32l4 -10z
" />
    <glyph glyph-name="Dcaron" unicode="&#x10e;" horiz-adv-x="742" 
d="M240 643v-593h98q64 0 110 24t71 67t36.5 93.5t11.5 112.5q0 135 -55.5 215.5t-169.5 80.5h-102zM50 41q45 2 59 6q27 7 27 50v499q0 42 -27 50q-7 2 -14.5 2.5t-20.5 1.5t-24 2v41h306q152 0 240.5 -92t88.5 -248q0 -161 -92 -257t-248 -96h-295v41zM357 729h-42
l-113 120l4 10h32l98 -57l98 57h32l4 -10z" />
    <glyph glyph-name="dcaron" unicode="&#x10f;" horiz-adv-x="575" 
d="M382 663q0 24 -7 32.5t-29 8.5q-17 0 -44 -3v35q61 23 120 23q28 0 39.5 -14.5t11.5 -45.5v-604q0 -39 20.5 -51.5t63.5 -10.5l1 -28q-35 -16 -76 -16q-91 0 -99 63q-70 -67 -150 -67t-133.5 67t-53.5 176q0 121 71 194t185 73q41 0 80 -10v178zM286 64q47 0 96 25v317
q-60 31 -117 31q-133 0 -133 -178q0 -97 36.5 -146t117.5 -49zM644 733q-3 -45 -29.5 -109.5t-51.5 -100.5h-25l-4 10q28 88 28 211h78z" />
    <glyph glyph-name="Dcroat" unicode="&#x110;" horiz-adv-x="743" 
d="M48 385h89v211q0 42 -27 50q-7 2 -14.5 2.5t-20.5 1.5t-24 2v41h306q152 0 240.5 -92t88.5 -248q0 -161 -92 -257t-248 -96h-295v41q45 2 59 6q27 7 27 50v238h-89v50zM241 643v-258h149v-50h-149v-285h98q64 0 110 24t71 67t36.5 93.5t11.5 112.5q0 135 -55.5 215.5
t-169.5 80.5h-102z" />
    <glyph glyph-name="dcroat" unicode="&#x111;" horiz-adv-x="575" 
d="M382 663q0 24 -7 32.5t-29 8.5q-17 0 -44 -3v35q61 23 120 23q28 0 39.5 -14.5t11.5 -45.5v-66h77v-50h-77v-488q0 -39 20.5 -51.5t63.5 -10.5l1 -28q-35 -16 -76 -16q-91 0 -99 63q-70 -67 -150 -67t-133.5 67t-53.5 176q0 121 71 194t185 73q41 0 80 -10v98h-164v50
h164v30zM286 64q47 0 96 25v317q-60 31 -117 31q-133 0 -133 -178q0 -97 36.5 -146t117.5 -49z" />
    <glyph glyph-name="Emacron" unicode="&#x112;" 
d="M50 41q48 0 59 6q27 9 27 50v499q0 40 -27 50q-4 1 -13.5 2t-23 2t-22.5 2v41h493v-167h-36q-18 70 -48.5 93.5t-97.5 23.5h-121v-260h100q40 0 50 27q1 4 2 13.5t2 23t2 22.5h41v-222h-41q0 37 -6 59q-9 27 -50 27h-100v-283h134q71 0 105.5 34t63.5 124l32 -4l-13 -204
h-512v41zM221 804h232v-60h-232v60z" />
    <glyph glyph-name="emacron" unicode="&#x113;" horiz-adv-x="495" 
d="M432 38q-68 -53 -174 -53q-103 0 -158 63t-55 171q0 125 67.5 200.5t175.5 75.5q70 0 113 -41.5t51 -118.5q2 -30 1 -48l-22 -44h-302q2 -90 41.5 -135.5t121.5 -45.5q68 0 138 25zM256 437q-107 0 -125 -140h230q1 7 1 19q0 56 -27 88.5t-79 32.5zM150 674h232v-60h-232
v60z" />
    <glyph glyph-name="Ebreve" unicode="&#x114;" 
d="M50 41q48 0 59 6q27 9 27 50v499q0 40 -27 50q-4 1 -13.5 2t-23 2t-22.5 2v41h493v-167h-36q-18 70 -48.5 93.5t-97.5 23.5h-121v-260h100q40 0 50 27q1 4 2 13.5t2 23t2 22.5h41v-222h-41q0 37 -6 59q-9 27 -50 27h-100v-283h134q71 0 105.5 34t63.5 124l32 -4l-13 -204
h-512v41zM447 846q-26 -110 -116 -110q-43 0 -75.5 28.5t-40.5 81.5h30q14 -31 34.5 -41t53.5 -10t51 10t32 41h31z" />
    <glyph glyph-name="ebreve" unicode="&#x115;" horiz-adv-x="495" 
d="M432 38q-68 -53 -174 -53q-103 0 -158 63t-55 171q0 125 67.5 200.5t175.5 75.5q70 0 113 -41.5t51 -118.5q2 -30 1 -48l-22 -44h-302q2 -90 41.5 -135.5t121.5 -45.5q68 0 138 25zM256 437q-107 0 -125 -140h230q1 7 1 19q0 56 -27 88.5t-79 32.5zM409 709
q-16 -69 -52.5 -107.5t-90.5 -38.5q-51 0 -93 40.5t-50 105.5h37q35 -79 108 -79q37 0 60.5 19t43.5 60h37z" />
    <glyph glyph-name="Edotaccent" unicode="&#x116;" 
d="M50 41q48 0 59 6q27 9 27 50v499q0 40 -27 50q-4 1 -13.5 2t-23 2t-22.5 2v41h493v-167h-36q-18 70 -48.5 93.5t-97.5 23.5h-121v-260h100q40 0 50 27q1 4 2 13.5t2 23t2 22.5h41v-222h-41q0 37 -6 59q-9 27 -50 27h-100v-283h134q71 0 105.5 34t63.5 124l32 -4l-13 -204
h-512v41zM270 792q0 26 16 40.5t39 14.5t39 -14.5t16 -40.5t-16 -40.5t-39 -14.5t-39 14.5t-16 40.5z" />
    <glyph glyph-name="edotaccent" unicode="&#x117;" horiz-adv-x="495" 
d="M432 38q-68 -53 -174 -53q-103 0 -158 63t-55 171q0 125 67.5 200.5t175.5 75.5q70 0 113 -41.5t51 -118.5q2 -30 1 -48l-22 -44h-302q2 -90 41.5 -135.5t121.5 -45.5q68 0 138 25zM256 437q-107 0 -125 -140h230q1 7 1 19q0 56 -27 88.5t-79 32.5zM202 655
q0 31 18.5 47.5t45.5 16.5t45.5 -16.5t18.5 -47.5t-18.5 -47.5t-45.5 -16.5t-45.5 16.5t-18.5 47.5z" />
    <glyph glyph-name="Eogonek" unicode="&#x118;" 
d="M50 41q48 0 59 6q27 9 27 50v499q0 40 -27 50q-4 1 -13.5 2t-23 2t-22.5 2v41h493v-167h-36q-18 70 -48.5 93.5t-97.5 23.5h-121v-260h100q40 0 50 27q1 4 2 13.5t2 23t2 22.5h41v-222h-41q0 37 -6 59q-9 27 -50 27h-100v-283h134q71 0 105.5 34t63.5 124l32 -4l-13 -204
h-512v41zM575 -217q-40 -8 -70 -8q-117 0 -117 99q0 37 34.5 76.5t97.5 68.5l31 -5q-85 -55 -85 -124q0 -34 20.5 -51.5t54.5 -17.5q19 0 34 4v-42z" />
    <glyph glyph-name="eogonek" unicode="&#x119;" horiz-adv-x="495" 
d="M432 38q-68 -53 -174 -53q-103 0 -158 63t-55 171q0 125 67.5 200.5t175.5 75.5q70 0 113 -41.5t51 -118.5q2 -30 1 -48l-22 -44h-302q2 -90 41.5 -135.5t121.5 -45.5q68 0 138 25zM256 437q-107 0 -125 -140h230q1 7 1 19q0 56 -27 88.5t-79 32.5zM415 -217
q-40 -8 -70 -8q-117 0 -117 99q0 37 34.5 76.5t97.5 68.5l31 -5q-85 -55 -85 -124q0 -34 20.5 -51.5t54.5 -17.5q19 0 34 4v-42z" />
    <glyph glyph-name="Ecaron" unicode="&#x11a;" 
d="M50 41q48 0 59 6q27 9 27 50v499q0 40 -27 50q-4 1 -13.5 2t-23 2t-22.5 2v41h493v-167h-36q-18 70 -48.5 93.5t-97.5 23.5h-121v-260h100q40 0 50 27q1 4 2 13.5t2 23t2 22.5h41v-222h-41q0 37 -6 59q-9 27 -50 27h-100v-283h134q71 0 105.5 34t63.5 124l32 -4l-13 -204
h-512v41zM349 729h-42l-113 120l4 10h32l98 -57l98 57h32l4 -10z" />
    <glyph glyph-name="ecaron" unicode="&#x11b;" horiz-adv-x="495" 
d="M432 38q-68 -53 -174 -53q-103 0 -158 63t-55 171q0 125 67.5 200.5t175.5 75.5q70 0 113 -41.5t51 -118.5q2 -30 1 -48l-22 -44h-302q2 -90 41.5 -135.5t121.5 -45.5q68 0 138 25zM256 437q-107 0 -125 -140h230q1 7 1 19q0 56 -27 88.5t-79 32.5zM287 569h-42l-113 140
l4 10h32l98 -77l98 77h32l4 -10z" />
    <glyph glyph-name="Gcircumflex" unicode="&#x11c;" horiz-adv-x="732" 
d="M398 659q-114 0 -170 -88t-56 -225q0 -144 57 -227.5t173 -83.5q70 0 128 29v165q0 43 -27 50q-7 2 -32.5 3.5t-36.5 2.5v41h262v-41q-24 -2 -35 -6q-27 -9 -27 -50v-187q-38 -25 -106 -42t-136 -15q-154 2 -246 97.5t-92 253.5q0 164 101.5 268.5t255.5 104.5
q56 0 117.5 -14.5t105.5 -39.5v-179h-35q-24 86 -71 134.5t-130 48.5zM374 859h42l113 -120l-4 -10h-32l-98 57l-98 -57h-32l-4 10z" />
    <glyph glyph-name="gcircumflex" unicode="&#x11d;" horiz-adv-x="541" 
d="M249 185q-45 0 -71 8q-20 -27 -20 -45q0 -38 56 -38h77q97 0 151.5 -30t54.5 -92q0 -80 -78 -147t-199 -67q-92 0 -143 40.5t-51 99.5q0 75 108 124q-54 20 -54 73q0 47 66 92q-92 38 -92 127q0 70 55 117.5t139 47.5q91 0 146 -53q20 9 43 42.5t47 33.5q19 0 31.5 -10.5
t12.5 -28.5q0 -20 -20.5 -34t-44 -19t-49.5 -7q24 -34 24 -77q0 -71 -56.5 -114t-132.5 -43zM205 28q-23 0 -39 3q-51 -41 -51 -97q0 -49 33.5 -77t100.5 -28q69 0 112.5 30.5t43.5 85.5q0 83 -120 83h-80zM337 334q0 53 -29 83t-68 30q-40 0 -65 -29.5t-25 -77.5
q0 -50 26.5 -78.5t71.5 -28.5q42 0 65.5 27t23.5 74zM379 569l-4 -10h-32l-98 77l-98 -77h-32l-4 10l113 140h42z" />
    <glyph glyph-name="Gbreve" unicode="&#x11e;" horiz-adv-x="732" 
d="M398 659q-114 0 -170 -88t-56 -225q0 -144 57 -227.5t173 -83.5q70 0 128 29v165q0 43 -27 50q-7 2 -32.5 3.5t-36.5 2.5v41h262v-41q-24 -2 -35 -6q-27 -9 -27 -50v-187q-38 -25 -106 -42t-136 -15q-154 2 -246 97.5t-92 253.5q0 164 101.5 268.5t255.5 104.5
q56 0 117.5 -14.5t105.5 -39.5v-179h-35q-24 86 -71 134.5t-130 48.5zM512 846q-26 -110 -116 -110q-43 0 -75.5 28.5t-40.5 81.5h30q14 -31 34 -41t54 -10q33 0 51 10t32 41h31z" />
    <glyph glyph-name="gbreve" unicode="&#x11f;" horiz-adv-x="541" 
d="M249 185q-45 0 -71 8q-20 -27 -20 -45q0 -38 56 -38h77q97 0 151.5 -30t54.5 -92q0 -80 -78 -147t-199 -67q-92 0 -143 40.5t-51 99.5q0 75 108 124q-54 20 -54 73q0 47 66 92q-92 38 -92 127q0 70 55 117.5t139 47.5q91 0 146 -53q20 9 43 42.5t47 33.5q19 0 31.5 -10.5
t12.5 -28.5q0 -20 -20.5 -34t-44 -19t-49.5 -7q24 -34 24 -77q0 -71 -56.5 -114t-132.5 -43zM205 28q-23 0 -39 3q-51 -41 -51 -97q0 -49 33.5 -77t100.5 -28q69 0 112.5 30.5t43.5 85.5q0 83 -120 83h-80zM337 334q0 53 -29 83t-68 30q-40 0 -65 -29.5t-25 -77.5
q0 -50 26.5 -78.5t71.5 -28.5q42 0 65.5 27t23.5 74zM389 709q-16 -69 -52.5 -107.5t-90.5 -38.5q-51 0 -93 40.5t-50 105.5h37q35 -79 108 -79q37 0 60.5 19t43.5 60h37z" />
    <glyph glyph-name="Gdotaccent" unicode="&#x120;" horiz-adv-x="732" 
d="M398 659q-114 0 -170 -88t-56 -225q0 -144 57 -227.5t173 -83.5q70 0 128 29v165q0 43 -27 50q-7 2 -32.5 3.5t-36.5 2.5v41h262v-41q-24 -2 -35 -6q-27 -9 -27 -50v-187q-38 -25 -106 -42t-136 -15q-154 2 -246 97.5t-92 253.5q0 164 101.5 268.5t255.5 104.5
q56 0 117.5 -14.5t105.5 -39.5v-179h-35q-24 86 -71 134.5t-130 48.5zM352 792q0 26 16 40.5t39 14.5t39 -14.5t16 -40.5t-16 -40.5t-39 -14.5t-39 14.5t-16 40.5z" />
    <glyph glyph-name="gdotaccent" unicode="&#x121;" horiz-adv-x="541" 
d="M249 185q-45 0 -71 8q-20 -27 -20 -45q0 -38 56 -38h77q97 0 151.5 -30t54.5 -92q0 -80 -78 -147t-199 -67q-92 0 -143 40.5t-51 99.5q0 75 108 124q-54 20 -54 73q0 47 66 92q-92 38 -92 127q0 70 55 117.5t139 47.5q91 0 146 -53q20 9 43 42.5t47 33.5q19 0 31.5 -10.5
t12.5 -28.5q0 -20 -20.5 -34t-44 -19t-49.5 -7q24 -34 24 -77q0 -71 -56.5 -114t-132.5 -43zM205 28q-23 0 -39 3q-51 -41 -51 -97q0 -49 33.5 -77t100.5 -28q69 0 112.5 30.5t43.5 85.5q0 83 -120 83h-80zM337 334q0 53 -29 83t-68 30q-40 0 -65 -29.5t-25 -77.5
q0 -50 26.5 -78.5t71.5 -28.5q42 0 65.5 27t23.5 74zM209 655q0 31 18.5 47.5t45.5 16.5t45.5 -16.5t18.5 -47.5t-18.5 -47.5t-45.5 -16.5t-45.5 16.5t-18.5 47.5z" />
    <glyph glyph-name="Gcommaaccent" unicode="&#x122;" horiz-adv-x="732" 
d="M398 659q-114 0 -170 -88t-56 -225q0 -144 57 -227.5t173 -83.5q70 0 128 29v165q0 43 -27 50q-7 2 -32.5 3.5t-36.5 2.5v41h262v-41q-24 -2 -35 -6q-27 -9 -27 -50v-187q-38 -25 -106 -42t-136 -15q-154 2 -246 97.5t-92 253.5q0 164 101.5 268.5t255.5 104.5
q56 0 117.5 -14.5t105.5 -39.5v-179h-35q-24 86 -71 134.5t-130 48.5zM425 -119q0 -70 -99 -116l-17 20q52 30 62 71q-21 0 -35 11.5t-14 29.5q0 17 14 29.5t32 12.5q57 0 57 -58z" />
    <glyph glyph-name="gcommaaccent" unicode="&#x123;" horiz-adv-x="541" 
d="M249 185q-45 0 -71 8q-20 -27 -20 -45q0 -38 56 -38h77q97 0 151.5 -30t54.5 -92q0 -80 -78 -147t-199 -67q-92 0 -143 40.5t-51 99.5q0 75 108 124q-54 20 -54 73q0 47 66 92q-92 38 -92 127q0 70 55 117.5t139 47.5q91 0 146 -53q20 9 43 42.5t47 33.5q19 0 31.5 -10.5
t12.5 -28.5q0 -20 -20.5 -34t-44 -19t-49.5 -7q24 -34 24 -77q0 -71 -56.5 -114t-132.5 -43zM205 28q-23 0 -39 3q-51 -41 -51 -97q0 -49 33.5 -77t100.5 -28q69 0 112.5 30.5t43.5 85.5q0 83 -120 83h-80zM337 334q0 53 -29 83t-68 30q-40 0 -65 -29.5t-25 -77.5
q0 -50 26.5 -78.5t71.5 -28.5q42 0 65.5 27t23.5 74zM214 619q0 70 99 116l17 -20q-52 -30 -62 -71q21 0 35 -11.5t14 -29.5q0 -17 -14 -29.5t-32 -12.5q-57 0 -57 58z" />
    <glyph glyph-name="Hcircumflex" unicode="&#x124;" horiz-adv-x="805" 
d="M565 596q0 40 -27 50q-4 1 -13.5 2t-23 2t-22.5 2v41h276v-41q-37 0 -59 -6q-27 -9 -27 -50v-499q0 -40 27 -50q4 -1 13.5 -2t23 -2t22.5 -2v-41h-276v41q48 0 59 6q27 9 27 50v237h-325v-237q0 -40 27 -50q4 -1 13.5 -2t23 -2t22.5 -2v-41h-276v41q48 0 59 6q27 9 27 50
v499q0 40 -27 50q-4 1 -13.5 2t-23 2t-22.5 2v41h276v-41q-37 0 -59 -6q-27 -9 -27 -50v-209h325v209zM381 859h42l113 -120l-4 -10h-32l-98 57l-98 -57h-32l-4 10z" />
    <glyph glyph-name="Hbar" unicode="&#x126;" horiz-adv-x="805" 
d="M565 596q0 40 -27 50q-4 1 -13.5 2t-23 2t-22.5 2v41h276v-41q-37 0 -59 -6q-27 -9 -27 -50v-53h87v-50h-87v-396q0 -40 27 -50q4 -1 13.5 -2t23 -2t22.5 -2v-41h-276v41q48 0 59 6q27 9 27 50v237h-325v-237q0 -40 27 -50q4 -1 13.5 -2t23 -2t22.5 -2v-41h-276v41
q48 0 59 6q27 9 27 50v396h-87v50h87v53q0 40 -27 50q-4 1 -13.5 2t-23 2t-22.5 2v41h276v-41q-37 0 -59 -6q-27 -9 -27 -50v-53h325v53zM240 387h325v106h-325v-106z" />
    <glyph glyph-name="hbar" unicode="&#x127;" horiz-adv-x="582" 
d="M18 633h78v30q0 24 -7 32.5t-29 8.5q-17 0 -44 -3v35q61 23 120 23q28 0 39.5 -14.5t11.5 -45.5v-66h163v-50h-163v-161q81 73 169 73q130 0 130 -163v-239q0 -40 27 -50q1 0 44 -6v-37h-233v37q34 2 44 6q27 9 27 50v215q0 59 -21 84.5t-79 25.5q-45 0 -108 -22v-303
q0 -40 27 -50q1 0 44 -6v-37h-233v37q34 2 44 6q27 9 27 50v490h-78v50z" />
    <glyph glyph-name="itilde" unicode="&#x129;" horiz-adv-x="298" 
d="M201 93q0 -40 27 -50q1 0 44 -6v-37h-233v37q34 2 44 6q27 9 27 50v306q0 24 -7 32.5t-29 8.5q-17 0 -44 -3v35q61 23 120 23q28 0 39.5 -14.5t11.5 -45.5v-342zM306 710q0 -46 -25.5 -80t-72.5 -34q-36 0 -79 24t-54 24q-29 0 -41 -52h-37q2 48 26.5 81t67.5 33
q31 0 71 -24t53 -24q46 0 53 52h38z" />
    <glyph glyph-name="Imacron" unicode="&#x12a;" horiz-adv-x="376" 
d="M240 97q0 -40 27 -50q4 -1 13.5 -2t23 -2t22.5 -2v-41h-276v41q48 0 59 6q27 9 27 50v499q0 40 -27 50q-4 1 -13.5 2t-23 2t-22.5 2v41h276v-41q-37 0 -59 -6q-27 -9 -27 -50v-499zM72 804h232v-60h-232v60z" />
    <glyph glyph-name="imacron" unicode="&#x12b;" horiz-adv-x="298" 
d="M201 93q0 -40 27 -50q1 0 44 -6v-37h-233v37q34 2 44 6q27 9 27 50v306q0 24 -7 32.5t-29 8.5q-17 0 -44 -3v35q61 23 120 23q28 0 39.5 -14.5t11.5 -45.5v-342zM35 674h232v-60h-232v60z" />
    <glyph glyph-name="Ibreve" unicode="&#x12c;" horiz-adv-x="376" 
d="M240 97q0 -40 27 -50q4 -1 13.5 -2t23 -2t22.5 -2v-41h-276v41q48 0 59 6q27 9 27 50v499q0 40 -27 50q-4 1 -13.5 2t-23 2t-22.5 2v41h276v-41q-37 0 -59 -6q-27 -9 -27 -50v-499zM304 846q-26 -110 -116 -110q-43 0 -75.5 28.5t-40.5 81.5h30q14 -31 34 -41t54 -10
q33 0 51 10t32 41h31z" />
    <glyph glyph-name="ibreve" unicode="&#x12d;" horiz-adv-x="298" 
d="M201 93q0 -40 27 -50q1 0 44 -6v-37h-233v37q34 2 44 6q27 9 27 50v306q0 24 -7 32.5t-29 8.5q-17 0 -44 -3v35q61 23 120 23q28 0 39.5 -14.5t11.5 -45.5v-342zM294 709q-16 -69 -52.5 -107.5t-90.5 -38.5q-51 0 -93 40.5t-50 105.5h37q35 -79 108 -79q37 0 60.5 19
t43.5 60h37z" />
    <glyph glyph-name="Iogonek" unicode="&#x12e;" horiz-adv-x="376" 
d="M240 97q0 -40 27 -50q4 -1 13.5 -2t23 -2t22.5 -2v-41h-276v41q48 0 59 6q27 9 27 50v499q0 40 -27 50q-4 1 -13.5 2t-23 2t-22.5 2v41h276v-41q-37 0 -59 -6q-27 -9 -27 -50v-499zM287 -217q-40 -8 -70 -8q-117 0 -117 99q0 37 34.5 76.5t97.5 68.5l31 -5
q-85 -55 -85 -124q0 -34 20.5 -51.5t54.5 -17.5q19 0 34 4v-42z" />
    <glyph glyph-name="iogonek" unicode="&#x12f;" horiz-adv-x="298" 
d="M89 655q0 31 18.5 47.5t45.5 16.5t45.5 -16.5t18.5 -47.5t-18.5 -47.5t-45.5 -16.5t-45.5 16.5t-18.5 47.5zM201 93q0 -40 27 -50q1 0 44 -6v-37h-233v37q34 2 44 6q27 9 27 50v306q0 24 -7 32.5t-29 8.5q-17 0 -44 -3v35q61 23 120 23q28 0 39.5 -14.5t11.5 -45.5v-342z
M245 -217q-40 -8 -70 -8q-117 0 -117 99q0 37 34.5 76.5t97.5 68.5l31 -5q-85 -55 -85 -124q0 -34 20.5 -51.5t54.5 -17.5q19 0 34 4v-42z" />
    <glyph glyph-name="Idotaccent" unicode="&#x130;" horiz-adv-x="376" 
d="M240 97q0 -40 27 -50q4 -1 13.5 -2t23 -2t22.5 -2v-41h-276v41q48 0 59 6q27 9 27 50v499q0 40 -27 50q-4 1 -13.5 2t-23 2t-22.5 2v41h276v-41q-37 0 -59 -6q-27 -9 -27 -50v-499zM131 792q0 26 16 40.5t39 14.5t39 -14.5t16 -40.5t-16 -40.5t-39 -14.5t-39 14.5
t-16 40.5z" />
    <glyph glyph-name="dotlessi" unicode="&#x131;" horiz-adv-x="298" 
d="M201 93q0 -40 27 -50q1 0 44 -6v-37h-233v37q34 2 44 6q27 9 27 50v306q0 24 -7 32.5t-29 8.5q-17 0 -44 -3v35q61 23 120 23q28 0 39.5 -14.5t11.5 -45.5v-342z" />
    <glyph glyph-name="Jcircumflex" unicode="&#x134;" horiz-adv-x="360" 
d="M232 19q0 -100 -53 -172.5t-156 -72.5q-40 0 -66 17t-26 43q0 22 12 35.5t33 13.5q16 0 27 -9t15.5 -20.5t14.5 -20.5t25 -9q42 0 56 60.5t14 194.5v517q0 40 -27 50q-4 1 -13.5 2t-23 2t-22.5 2v41h276v-41q-37 0 -59 -6q-27 -9 -27 -50v-577zM161 859h42l113 -120
l-4 -10h-32l-98 57l-98 -57h-32l-4 10z" />
    <glyph glyph-name="kcommaaccent" unicode="&#x137;" horiz-adv-x="553" 
d="M96 663q0 24 -7 32.5t-29 8.5q-17 0 -44 -3v35q61 23 120 23q28 0 39.5 -14.5t11.5 -45.5v-606q0 -40 27 -50q1 0 44 -6v-37h-233v37q34 2 44 6q27 9 27 50v570zM210 253l133 118q19 19 19 36q2 19 -17 31.5t-53 13.5v29h234v-29q-40 -3 -104 -67l-123 -116l102 -139
q30 -42 59.5 -61t74.5 -30v-39h-153l-172 235v18zM335 -119q0 -70 -99 -116l-17 20q52 30 62 71q-21 0 -35 11.5t-14 29.5q0 17 14 29.5t32 12.5q57 0 57 -58z" />
    <glyph glyph-name="Lacute" unicode="&#x139;" horiz-adv-x="577" 
d="M50 41q48 0 59 6q27 9 27 50v499q0 40 -27 50q-4 1 -13.5 2t-23 2t-22.5 2v41h276v-41q-37 0 -59 -6q-27 -9 -27 -50v-546h104q71 0 105.5 34t63.5 124l32 -4l-13 -204h-482v41zM349 852l-176 -119h-32l-4 10l106 120h102z" />
    <glyph glyph-name="lacute" unicode="&#x13a;" horiz-adv-x="287" 
d="M98 663q0 24 -7 32.5t-29 8.5q-17 0 -44 -3v35q61 23 120 23q28 0 39.5 -14.5t11.5 -45.5v-606q0 -40 27 -50q1 0 44 -6v-37h-233v37q34 2 44 6q27 9 27 50v570zM308 912l-176 -119h-32l-4 10l106 120h102z" />
    <glyph glyph-name="Lcommaaccent" unicode="&#x13b;" horiz-adv-x="577" 
d="M50 41q48 0 59 6q27 9 27 50v499q0 40 -27 50q-4 1 -13.5 2t-23 2t-22.5 2v41h276v-41q-37 0 -59 -6q-27 -9 -27 -50v-546h104q71 0 105.5 34t63.5 124l32 -4l-13 -204h-482v41zM364 -119q0 -70 -99 -116l-17 20q52 30 62 71q-21 0 -35 11.5t-14 29.5q0 17 14 29.5
t32 12.5q57 0 57 -58z" />
    <glyph glyph-name="lcommaaccent" unicode="&#x13c;" horiz-adv-x="287" 
d="M98 663q0 24 -7 32.5t-29 8.5q-17 0 -44 -3v35q61 23 120 23q28 0 39.5 -14.5t11.5 -45.5v-606q0 -40 27 -50q1 0 44 -6v-37h-233v37q34 2 44 6q27 9 27 50v570zM197 -119q0 -70 -99 -116l-17 20q52 30 62 71q-21 0 -35 11.5t-14 29.5q0 17 14 29.5t32 12.5q57 0 57 -58z
" />
    <glyph glyph-name="Lcaron" unicode="&#x13d;" horiz-adv-x="578" 
d="M50 41q48 0 59 6q27 9 27 50v499q0 40 -27 50q-4 1 -13.5 2t-23 2t-22.5 2v41h276v-41q-37 0 -59 -6q-27 -9 -27 -50v-546h104q71 0 105.5 34t63.5 124l32 -4l-13 -204h-482v41zM488 733q-3 -45 -29.5 -109.5t-51.5 -100.5h-25l-4 10q28 88 28 211h78z" />
    <glyph glyph-name="lcaron" unicode="&#x13e;" horiz-adv-x="287" 
d="M98 663q0 24 -7 32.5t-29 8.5q-17 0 -44 -3v35q61 23 120 23q28 0 39.5 -14.5t11.5 -45.5v-606q0 -40 27 -50q1 0 44 -6v-37h-233v37q34 2 44 6q27 9 27 50v570zM347 733q-3 -45 -29.5 -109.5t-51.5 -100.5h-25l-4 10q28 88 28 211h78z" />
    <glyph glyph-name="Ldot" unicode="&#x13f;" horiz-adv-x="578" 
d="M50 41q48 0 59 6q27 9 27 50v499q0 40 -27 50q-4 1 -13.5 2t-23 2t-22.5 2v41h276v-41q-37 0 -59 -6q-27 -9 -27 -50v-546h104q71 0 105.5 34t63.5 124l32 -4l-13 -204h-482v41zM374 391q0 29 17.5 45t43.5 16t43.5 -16t17.5 -45t-17.5 -45t-43.5 -16t-43.5 16t-17.5 45z
" />
    <glyph glyph-name="ldot" unicode="&#x140;" horiz-adv-x="379" 
d="M98 663q0 24 -7 32.5t-29 8.5q-17 0 -44 -3v35q61 23 120 23q28 0 39.5 -14.5t11.5 -45.5v-606q0 -40 27 -50q1 0 44 -6v-37h-233v37q34 2 44 6q27 9 27 50v570zM272 371q0 29 17.5 45t43.5 16t43.5 -16t17.5 -45t-17.5 -45t-43.5 -16t-43.5 16t-17.5 45z" />
    <glyph glyph-name="Lslash" unicode="&#x141;" horiz-adv-x="577" 
d="M50 41q48 0 59 6q27 9 27 50v199l-77 -43v62l77 43v238q0 40 -27 50q-4 1 -13.5 2t-23 2t-22.5 2v41h276v-41q-37 0 -59 -6q-27 -9 -27 -50v-180l126 71v-62l-126 -71v-304h104q71 0 105.5 34t63.5 124l32 -4l-13 -204h-482v41z" />
    <glyph glyph-name="lslash" unicode="&#x142;" horiz-adv-x="293" 
d="M102 315l-79 -51v62l79 51v286q0 24 -7 32.5t-29 8.5q-17 0 -44 -3v35q61 23 120 23q28 0 39.5 -14.5t11.5 -45.5v-264l72 47v-62l-72 -47v-280q0 -40 27 -50q1 0 44 -6v-37h-233v37q34 2 44 6q27 9 27 50v222z" />
    <glyph glyph-name="Nacute" unicode="&#x143;" horiz-adv-x="806" 
d="M624 -4l-418 562v-426q0 -53 32 -74q26 -17 64 -21v-37h-256v37q34 5 57 17q39 20 39 78v408q0 104 -91 117v36h170l388 -508v376q0 53 -32 74q-26 17 -64 21v37h256v-37q-34 -5 -57 -17q-39 -20 -39 -78v-565h-49zM570 852l-176 -119h-32l-4 10l106 120h102z" />
    <glyph glyph-name="nacute" unicode="&#x144;" horiz-adv-x="596" 
d="M201 93q0 -40 27 -50q1 0 44 -6v-37h-233v37q34 2 44 6q27 9 27 50v306q0 24 -7 32.5t-29 8.5q-17 0 -44 -3v35q61 23 120 23q28 0 39.5 -14.5t11.5 -45.5v-13q81 73 169 73q130 0 130 -163v-239q0 -40 27 -50q1 0 44 -6v-37h-233v37q34 2 44 6q27 9 27 50v215
q0 59 -21 84.5t-79 25.5q-45 0 -108 -22v-303zM427 698l-159 -139h-32l-4 10l93 140h98z" />
    <glyph glyph-name="Ncommaaccent" unicode="&#x145;" horiz-adv-x="806" 
d="M624 -4l-418 562v-426q0 -53 32 -74q26 -17 64 -21v-37h-256v37q34 5 57 17q39 20 39 78v408q0 104 -91 117v36h170l388 -508v376q0 53 -32 74q-26 17 -64 21v37h256v-37q-34 -5 -57 -17q-39 -20 -39 -78v-565h-49zM492 -119q0 -70 -99 -116l-17 20q52 30 62 71
q-21 0 -35 11.5t-14 29.5q0 17 14 29.5t32 12.5q57 0 57 -58z" />
    <glyph glyph-name="ncommaaccent" unicode="&#x146;" horiz-adv-x="596" 
d="M201 93q0 -40 27 -50q1 0 44 -6v-37h-233v37q34 2 44 6q27 9 27 50v306q0 24 -7 32.5t-29 8.5q-17 0 -44 -3v35q61 23 120 23q28 0 39.5 -14.5t11.5 -45.5v-13q81 73 169 73q130 0 130 -163v-239q0 -40 27 -50q1 0 44 -6v-37h-233v37q34 2 44 6q27 9 27 50v215
q0 59 -21 84.5t-79 25.5q-45 0 -108 -22v-303zM357 -119q0 -70 -99 -116l-17 20q52 30 62 71q-21 0 -35 11.5t-14 29.5q0 17 14 29.5t32 12.5q57 0 57 -58z" />
    <glyph glyph-name="Ncaron" unicode="&#x147;" horiz-adv-x="806" 
d="M624 -4l-418 562v-426q0 -53 32 -74q26 -17 64 -21v-37h-256v37q34 5 57 17q39 20 39 78v408q0 104 -91 117v36h170l388 -508v376q0 53 -32 74q-26 17 -64 21v37h256v-37q-34 -5 -57 -17q-39 -20 -39 -78v-565h-49zM430 729h-42l-113 120l4 10h32l98 -57l98 57h32l4 -10z
" />
    <glyph glyph-name="ncaron" unicode="&#x148;" horiz-adv-x="596" 
d="M201 93q0 -40 27 -50q1 0 44 -6v-37h-233v37q34 2 44 6q27 9 27 50v306q0 24 -7 32.5t-29 8.5q-17 0 -44 -3v35q61 23 120 23q28 0 39.5 -14.5t11.5 -45.5v-13q81 73 169 73q130 0 130 -163v-239q0 -40 27 -50q1 0 44 -6v-37h-233v37q34 2 44 6q27 9 27 50v215
q0 59 -21 84.5t-79 25.5q-45 0 -108 -22v-303zM320 569h-42l-113 140l4 10h32l98 -77l98 77h32l4 -10z" />
    <glyph glyph-name="Eng" unicode="&#x14a;" horiz-adv-x="806" 
d="M539 -176q37 0 52 46.5t17 146.5l-402 541v-426q0 -53 32 -74q26 -17 64 -21v-37h-256v37q34 5 57 17q39 20 39 78v408q0 104 -91 117v36h170l388 -508v376q0 53 -32 74q-26 17 -64 21v37h256v-37q-34 -5 -57 -17q-39 -20 -39 -78v-542q0 -51 -6.5 -90t-23 -76.5t-52 -58
t-87.5 -20.5q-40 0 -66 17t-26 43q0 22 12 35.5t33 13.5q16 0 27 -9t15.5 -20.5t14.5 -20.5t25 -9z" />
    <glyph glyph-name="Omacron" unicode="&#x14c;" horiz-adv-x="794" 
d="M740 352q0 -154 -98.5 -260.5t-251.5 -106.5q-147 0 -241.5 99.5t-94.5 256.5q0 160 98.5 264t248.5 104t244.5 -102.5t94.5 -254.5zM622 350q0 138 -54.5 223.5t-172.5 85.5q-61 0 -105.5 -24.5t-69.5 -69t-36.5 -99t-11.5 -121.5q0 -308 221 -308q63 0 109.5 26
t71.5 72t36.5 99t11.5 116zM281 804h232v-60h-232v60z" />
    <glyph glyph-name="Obreve" unicode="&#x14e;" horiz-adv-x="794" 
d="M740 352q0 -154 -98.5 -260.5t-251.5 -106.5q-147 0 -241.5 99.5t-94.5 256.5q0 160 98.5 264t248.5 104t244.5 -102.5t94.5 -254.5zM622 350q0 138 -54.5 223.5t-172.5 85.5q-61 0 -105.5 -24.5t-69.5 -69t-36.5 -99t-11.5 -121.5q0 -308 221 -308q63 0 109.5 26
t71.5 72t36.5 99t11.5 116zM513 846q-26 -110 -116 -110q-43 0 -75.5 28.5t-40.5 81.5h30q14 -31 34.5 -41t53.5 -10t51 10t32 41h31z" />
    <glyph glyph-name="obreve" unicode="&#x14f;" horiz-adv-x="557" 
d="M513 262q0 -112 -70 -194.5t-181 -82.5q-97 0 -157 65.5t-60 172.5q0 120 72.5 196t177.5 76q97 0 157.5 -65t60.5 -168zM411 230q0 97 -34.5 152t-107.5 55q-122 0 -122 -178q0 -98 34 -157t106 -59q124 0 124 187zM422 709q-16 -69 -52.5 -107.5t-90.5 -38.5
q-51 0 -93 40.5t-50 105.5h37q35 -79 108 -79q37 0 60.5 19t43.5 60h37z" />
    <glyph glyph-name="Ohungarumlaut" unicode="&#x150;" horiz-adv-x="794" 
d="M740 352q0 -154 -98.5 -260.5t-251.5 -106.5q-147 0 -241.5 99.5t-94.5 256.5q0 160 98.5 264t248.5 104t244.5 -102.5t94.5 -254.5zM622 350q0 138 -54.5 223.5t-172.5 85.5q-61 0 -105.5 -24.5t-69.5 -69t-36.5 -99t-11.5 -121.5q0 -308 221 -308q63 0 109.5 26
t71.5 72t36.5 99t11.5 116zM464 832l-135 -99h-32l-4 10l85 100h82zM621 832l-170 -99h-32l-4 10l106 100h96z" />
    <glyph glyph-name="ohungarumlaut" unicode="&#x151;" horiz-adv-x="557" 
d="M513 262q0 -112 -70 -194.5t-181 -82.5q-97 0 -157 65.5t-60 172.5q0 120 72.5 196t177.5 76q97 0 157.5 -65t60.5 -168zM411 230q0 97 -34.5 152t-107.5 55q-122 0 -122 -178q0 -98 34 -157t106 -59q124 0 124 187zM356 698l-139 -139h-32l-4 10l73 140h98zM517 698
l-159 -139h-32l-4 10l93 140h98z" />
    <glyph glyph-name="OE" unicode="&#x152;" horiz-adv-x="966" 
d="M494 0q-53 -15 -104 -15q-147 0 -241.5 99.5t-94.5 256.5q0 160 98.5 264t248.5 104q68 0 110 -16h372v-167h-36q-18 70 -48.5 93.5t-97.5 23.5h-121v-260h110q40 0 50 27q1 4 2 13.5t2 23t2 22.5h41v-222h-41q0 37 -6 59q-9 27 -50 27h-110v-283h134q71 0 105.5 34
t63.5 124l32 -4l-13 -204h-408zM393 37q44 0 83 14v595q-39 13 -81 13q-61 0 -105.5 -24.5t-69.5 -69t-36.5 -99t-11.5 -121.5q0 -308 221 -308z" />
    <glyph glyph-name="oe" unicode="&#x153;" horiz-adv-x="871" 
d="M808 38q-68 -53 -174 -53q-129 0 -184 99q-68 -99 -188 -99q-97 0 -157 65.5t-60 172.5q0 120 72.5 196t177.5 76q120 0 176 -98q67 98 193 98q70 0 113 -41.5t51 -118.5q2 -30 1 -48l-22 -44h-302q2 -90 41.5 -135.5t121.5 -45.5q68 0 138 25zM411 230q0 97 -34.5 152
t-107.5 55q-122 0 -122 -178q0 -98 34 -157t106 -59q124 0 124 187zM632 437q-107 0 -125 -140h230q1 3 1 9v10q0 56 -27 88.5t-79 32.5z" />
    <glyph glyph-name="Racute" unicode="&#x154;" horiz-adv-x="690" 
d="M363 693q96 0 154.5 -42.5t58.5 -128.5q0 -75 -43 -124.5t-117 -65.5l157 -215q29 -39 57.5 -56t70.5 -21l-3 -40h-166l-231 325h-61v-228q0 -43 27 -50q9 -2 34 -3.5t35 -2.5v-41h-286v41q45 2 59 6q27 7 27 50v499q0 42 -27 50q-7 2 -14.5 2.5t-20.5 1.5t-24 2v41h313z
M240 643v-268h75q71 0 106 34t35 107q0 60 -33.5 93.5t-91.5 33.5h-91zM478 852l-176 -119h-32l-4 10l106 120h102z" />
    <glyph glyph-name="racute" unicode="&#x155;" horiz-adv-x="424" 
d="M201 93q0 -40 27 -50q4 -1 14.5 -2t25.5 -2t24 -2v-37h-253v37q34 2 44 6q27 9 27 50v306q0 24 -7 32.5t-29 8.5q-17 0 -44 -3v35q61 23 120 23q28 0 39.5 -14.5t11.5 -45.5v-12q66 69 133 69q73 0 73 -62q0 -21 -15 -38t-43 -17q-24 0 -41.5 22.5t-36.5 22.5
q-20 0 -70 -25v-302zM367 698l-159 -139h-32l-4 10l93 140h98z" />
    <glyph glyph-name="Rcommaaccent" unicode="&#x156;" horiz-adv-x="690" 
d="M363 693q96 0 154.5 -42.5t58.5 -128.5q0 -75 -43 -124.5t-117 -65.5l157 -215q29 -39 57.5 -56t70.5 -21l-3 -40h-166l-231 325h-61v-228q0 -43 27 -50q9 -2 34 -3.5t35 -2.5v-41h-286v41q45 2 59 6q27 7 27 50v499q0 42 -27 50q-7 2 -14.5 2.5t-20.5 1.5t-24 2v41h313z
M240 643v-268h75q71 0 106 34t35 107q0 60 -33.5 93.5t-91.5 33.5h-91zM396 -119q0 -70 -99 -116l-17 20q52 30 62 71q-21 0 -35 11.5t-14 29.5q0 17 14 29.5t32 12.5q57 0 57 -58z" />
    <glyph glyph-name="rcommaaccent" unicode="&#x157;" horiz-adv-x="424" 
d="M201 93q0 -40 27 -50q4 -1 14.5 -2t25.5 -2t24 -2v-37h-253v37q34 2 44 6q27 9 27 50v306q0 24 -7 32.5t-29 8.5q-17 0 -44 -3v35q61 23 120 23q28 0 39.5 -14.5t11.5 -45.5v-12q66 69 133 69q73 0 73 -62q0 -21 -15 -38t-43 -17q-24 0 -41.5 22.5t-36.5 22.5
q-20 0 -70 -25v-302zM219 -119q0 -70 -99 -116l-17 20q52 30 62 71q-21 0 -35 11.5t-14 29.5q0 17 14 29.5t32 12.5q57 0 57 -58z" />
    <glyph glyph-name="Rcaron" unicode="&#x158;" horiz-adv-x="690" 
d="M363 693q96 0 154.5 -42.5t58.5 -128.5q0 -75 -43 -124.5t-117 -65.5l157 -215q29 -39 57.5 -56t70.5 -21l-3 -40h-166l-231 325h-61v-228q0 -43 27 -50q9 -2 34 -3.5t35 -2.5v-41h-286v41q45 2 59 6q27 7 27 50v499q0 42 -27 50q-7 2 -14.5 2.5t-20.5 1.5t-24 2v41h313z
M240 643v-268h75q71 0 106 34t35 107q0 60 -33.5 93.5t-91.5 33.5h-91zM339 729h-42l-113 120l4 10h32l98 -57l98 57h32l4 -10z" />
    <glyph glyph-name="rcaron" unicode="&#x159;" horiz-adv-x="424" 
d="M201 93q0 -40 27 -50q4 -1 14.5 -2t25.5 -2t24 -2v-37h-253v37q34 2 44 6q27 9 27 50v306q0 24 -7 32.5t-29 8.5q-17 0 -44 -3v35q61 23 120 23q28 0 39.5 -14.5t11.5 -45.5v-12q66 69 133 69q73 0 73 -62q0 -21 -15 -38t-43 -17q-24 0 -41.5 22.5t-36.5 22.5
q-20 0 -70 -25v-302zM252 569h-42l-113 140l4 10h32l98 -77l98 77h32l4 -10z" />
    <glyph glyph-name="Sacute" unicode="&#x15a;" horiz-adv-x="589" 
d="M276 -15q-114 0 -210 55v177h26q55 -177 202 -177q68 0 103.5 32.5t35.5 83.5q0 89 -121 137l-84 33q-159 58 -159 181q0 82 62.5 141.5t177.5 59.5q104 0 200 -55v-179h-35q-25 97 -66 140.5t-111 43.5q-65 0 -100 -31.5t-35 -86.5q0 -50 28 -76.5t80 -45.5l79 -31
q95 -37 138.5 -79t43.5 -109q0 -93 -72 -153.5t-183 -60.5zM449 852l-176 -119h-32l-4 10l106 120h102z" />
    <glyph glyph-name="sacute" unicode="&#x15b;" horiz-adv-x="435" 
d="M204 -12q-72 0 -153 32l-3 132l25 2q17 -56 53.5 -85t82.5 -29q47 0 73 19t26 53q0 30 -20.5 47t-60.5 30l-55 18q-45 14 -77 48.5t-32 86.5q0 66 48.5 109.5t122.5 43.5q71 0 137 -38l6 -111l-32 -3q-29 58 -53.5 80t-67.5 22q-41 0 -62.5 -19t-21.5 -50q0 -51 66 -76
l66 -23q22 -8 38 -16t35.5 -23.5t30.5 -39.5t11 -55q0 -69 -51 -112t-132 -43zM364 698l-159 -139h-32l-4 10l93 140h98z" />
    <glyph glyph-name="Scircumflex" unicode="&#x15c;" horiz-adv-x="589" 
d="M276 -15q-114 0 -210 55v177h26q55 -177 202 -177q68 0 103.5 32.5t35.5 83.5q0 89 -121 137l-84 33q-159 58 -159 181q0 82 62.5 141.5t177.5 59.5q104 0 200 -55v-179h-35q-25 97 -66 140.5t-111 43.5q-65 0 -100 -31.5t-35 -86.5q0 -50 28 -76.5t80 -45.5l79 -31
q95 -37 138.5 -79t43.5 -109q0 -93 -72 -153.5t-183 -60.5zM282 859h42l113 -120l-4 -10h-32l-98 57l-98 -57h-32l-4 10z" />
    <glyph glyph-name="scircumflex" unicode="&#x15d;" horiz-adv-x="435" 
d="M204 -12q-72 0 -153 32l-3 132l25 2q17 -56 53.5 -85t82.5 -29q47 0 73 19t26 53q0 30 -20.5 47t-60.5 30l-55 18q-45 14 -77 48.5t-32 86.5q0 66 48.5 109.5t122.5 43.5q71 0 137 -38l6 -111l-32 -3q-29 58 -53.5 80t-67.5 22q-41 0 -62.5 -19t-21.5 -50q0 -51 66 -76
l66 -23q22 -8 38 -16t35.5 -23.5t30.5 -39.5t11 -55q0 -69 -51 -112t-132 -43zM365 569l-4 -10h-32l-98 77l-98 -77h-32l-4 10l113 140h42z" />
    <glyph glyph-name="Scedilla" unicode="&#x15e;" horiz-adv-x="589" 
d="M276 -15q-114 0 -210 55v177h26q55 -177 202 -177q68 0 103.5 32.5t35.5 83.5q0 89 -121 137l-84 33q-159 58 -159 181q0 82 62.5 141.5t177.5 59.5q104 0 200 -55v-179h-35q-25 97 -66 140.5t-111 43.5q-65 0 -100 -31.5t-35 -86.5q0 -50 28 -76.5t80 -45.5l79 -31
q95 -37 138.5 -79t43.5 -109q0 -93 -72 -153.5t-183 -60.5zM390 -138q0 -41 -34.5 -64.5t-87.5 -23.5q-39 0 -73 10v54q45 -15 76 -15q48 0 48 30q0 18 -19 26.5t-42 8.5q-12 0 -19 -1v121h48v-66q43 0 73 -20.5t30 -59.5z" />
    <glyph glyph-name="scedilla" unicode="&#x15f;" horiz-adv-x="435" 
d="M204 -12q-72 0 -153 32l-3 132l25 2q17 -56 53.5 -85t82.5 -29q47 0 73 19t26 53q0 30 -20.5 47t-60.5 30l-55 18q-45 14 -77 48.5t-32 86.5q0 66 48.5 109.5t122.5 43.5q71 0 137 -38l6 -111l-32 -3q-29 58 -53.5 80t-67.5 22q-41 0 -62.5 -19t-21.5 -50q0 -51 66 -76
l66 -23q22 -8 38 -16t35.5 -23.5t30.5 -39.5t11 -55q0 -69 -51 -112t-132 -43zM337 -138q0 -41 -34.5 -64.5t-87.5 -23.5q-39 0 -73 10v54q45 -15 76 -15q48 0 48 30q0 18 -19 26.5t-42 8.5q-12 0 -19 -1v121h48v-66q43 0 73 -20.5t30 -59.5z" />
    <glyph glyph-name="Scaron" unicode="&#x160;" horiz-adv-x="589" 
d="M276 -15q-114 0 -210 55v177h26q55 -177 202 -177q68 0 103.5 32.5t35.5 83.5q0 89 -121 137l-84 33q-159 58 -159 181q0 82 62.5 141.5t177.5 59.5q104 0 200 -55v-179h-35q-25 97 -66 140.5t-111 43.5q-65 0 -100 -31.5t-35 -86.5q0 -50 28 -76.5t80 -45.5l79 -31
q95 -37 138.5 -79t43.5 -109q0 -93 -72 -153.5t-183 -60.5zM319 729h-42l-113 120l4 10h32l98 -57l98 57h32l4 -10z" />
    <glyph glyph-name="scaron" unicode="&#x161;" horiz-adv-x="435" 
d="M204 -12q-72 0 -153 32l-3 132l25 2q17 -56 53.5 -85t82.5 -29q47 0 73 19t26 53q0 30 -20.5 47t-60.5 30l-55 18q-45 14 -77 48.5t-32 86.5q0 66 48.5 109.5t122.5 43.5q71 0 137 -38l6 -111l-32 -3q-29 58 -53.5 80t-67.5 22q-41 0 -62.5 -19t-21.5 -50q0 -51 66 -76
l66 -23q22 -8 38 -16t35.5 -23.5t30.5 -39.5t11 -55q0 -69 -51 -112t-132 -43zM241 569h-42l-113 140l4 10h32l98 -77l98 77h32l4 -10z" />
    <glyph glyph-name="Tcommaaccent" unicode="&#x162;" horiz-adv-x="630" 
d="M367 643v-546q0 -43 27 -50q7 -2 14.5 -2.5t20.5 -1.5t24 -2v-41h-276v41q45 2 59 6q27 7 27 50v546h-50q-67 0 -97.5 -23.5t-48.5 -93.5h-36v167h568v-167h-36q-18 70 -48.5 93.5t-97.5 23.5h-50zM368 -119q0 -70 -99 -116l-17 20q52 30 62 71q-21 0 -35 11.5t-14 29.5
q0 17 14 29.5t32 12.5q57 0 57 -58z" />
    <glyph glyph-name="Tcaron" unicode="&#x164;" horiz-adv-x="630" 
d="M367 643v-546q0 -43 27 -50q7 -2 14.5 -2.5t20.5 -1.5t24 -2v-41h-276v41q45 2 59 6q27 7 27 50v546h-50q-67 0 -97.5 -23.5t-48.5 -93.5h-36v167h568v-167h-36q-18 70 -48.5 93.5t-97.5 23.5h-50zM331 729h-42l-113 120l4 10h32l98 -57l98 57h32l4 -10z" />
    <glyph glyph-name="tcaron" unicode="&#x165;" horiz-adv-x="360" 
d="M13 481h87v96l76 52h15v-148h138v-50h-138v-271q0 -62 20 -84.5t74 -22.5q21 0 54 7l1 -43q-40 -28 -104 -28q-136 0 -136 116v326h-87v50zM358 776q-3 -45 -29.5 -109.5t-51.5 -100.5h-25l-4 10q28 88 28 211h78z" />
    <glyph glyph-name="Tbar" unicode="&#x166;" horiz-adv-x="638" 
d="M371 643v-269h151v-50h-151v-227q0 -43 27 -50q7 -2 14.5 -2.5t20.5 -1.5t24 -2v-41h-276v41q45 2 59 6q27 7 27 50v227h-152v50h152v269h-50q-67 0 -97.5 -23.5t-48.5 -93.5h-36v167h568v-167h-36q-18 70 -48.5 93.5t-97.5 23.5h-50z" />
    <glyph glyph-name="tbar" unicode="&#x167;" horiz-adv-x="363" 
d="M16 481h87v96l76 52h15v-148h138v-50h-138v-126h102v-50h-102v-95q0 -62 20 -84.5t74 -22.5q21 0 54 7l1 -43q-40 -28 -104 -28q-136 0 -136 116v150h-79v50h79v126h-87v50z" />
    <glyph glyph-name="Umacron" unicode="&#x16a;" horiz-adv-x="761" 
d="M225 236q0 -99 41.5 -148.5t130.5 -49.5q178 0 178 202v329q-4 48 -32 66q-26 17 -64 21v37h256v-37q-35 -5 -57 -17q-38 -20 -39 -72v-328q0 -118 -66.5 -185.5t-198.5 -67.5q-120 0 -186.5 59.5t-66.5 182.5v368q0 42 -27 50q-14 4 -59 6v41h276v-41q-11 -1 -24 -2
t-20.5 -1.5t-14.5 -2.5q-26 -8 -27 -42v-368zM267 804h232v-60h-232v60z" />
    <glyph glyph-name="Ubreve" unicode="&#x16c;" horiz-adv-x="761" 
d="M225 236q0 -99 41.5 -148.5t130.5 -49.5q178 0 178 202v329q-4 48 -32 66q-26 17 -64 21v37h256v-37q-35 -5 -57 -17q-38 -20 -39 -72v-328q0 -118 -66.5 -185.5t-198.5 -67.5q-120 0 -186.5 59.5t-66.5 182.5v368q0 42 -27 50q-14 4 -59 6v41h276v-41q-11 -1 -24 -2
t-20.5 -1.5t-14.5 -2.5q-26 -8 -27 -42v-368zM511 846q-26 -110 -116 -110q-43 0 -75.5 28.5t-40.5 81.5h30q14 -31 34.5 -41t53.5 -10t51 10t32 41h31z" />
    <glyph glyph-name="Uring" unicode="&#x16e;" horiz-adv-x="761" 
d="M225 236q0 -99 41.5 -148.5t130.5 -49.5q178 0 178 202v329q-4 48 -32 66q-26 17 -64 21v37h256v-37q-35 -5 -57 -17q-38 -20 -39 -72v-328q0 -118 -66.5 -185.5t-198.5 -67.5q-120 0 -186.5 59.5t-66.5 182.5v368q0 42 -27 50q-14 4 -59 6v41h276v-41q-11 -1 -24 -2
t-20.5 -1.5t-14.5 -2.5q-26 -8 -27 -42v-368zM504 818q0 -42 -29.5 -68t-78.5 -26t-78.5 26t-29.5 67q0 42 30.5 68t78.5 26q46 0 76.5 -26t30.5 -67zM451 818q0 57 -55 57t-55 -57q0 -27 14.5 -42.5t40.5 -15.5q55 0 55 58z" />
    <glyph glyph-name="uring" unicode="&#x16f;" horiz-adv-x="587" 
d="M395 399q0 24 -7 32.5t-29 8.5q-17 0 -44 -3v35q61 23 120 23q28 0 39.5 -14.5t11.5 -45.5v-340q0 -39 20.5 -51.5t63.5 -10.5l1 -28q-35 -16 -76 -16q-51 0 -74 18t-26 52q-79 -73 -169 -73q-130 0 -130 163v250q0 24 -7 32.5t-29 8.5q-17 0 -44 -3v35q61 23 120 23
q28 0 39.5 -14.5t11.5 -45.5v-262q0 -59 21 -84.5t79 -25.5q39 0 108 21v315zM381 666q0 -42 -29.5 -68t-78.5 -26t-78.5 26t-29.5 67q0 42 30.5 68t78.5 26q46 0 76.5 -26t30.5 -67zM328 666q0 57 -55 57t-55 -57q0 -27 14.5 -42.5t40.5 -15.5q55 0 55 58z" />
    <glyph glyph-name="Uhungarumlaut" unicode="&#x170;" horiz-adv-x="761" 
d="M225 236q0 -99 41.5 -148.5t130.5 -49.5q178 0 178 202v329q-4 48 -32 66q-26 17 -64 21v37h256v-37q-35 -5 -57 -17q-38 -20 -39 -72v-328q0 -118 -66.5 -185.5t-198.5 -67.5q-120 0 -186.5 59.5t-66.5 182.5v368q0 42 -27 50q-14 4 -59 6v41h276v-41q-11 -1 -24 -2
t-20.5 -1.5t-14.5 -2.5q-26 -8 -27 -42v-368zM470 832l-135 -99h-32l-4 10l85 100h82zM627 832l-170 -99h-32l-4 10l106 100h96z" />
    <glyph glyph-name="uhungarumlaut" unicode="&#x171;" horiz-adv-x="587" 
d="M395 399q0 24 -7 32.5t-29 8.5q-17 0 -44 -3v35q61 23 120 23q28 0 39.5 -14.5t11.5 -45.5v-340q0 -39 20.5 -51.5t63.5 -10.5l1 -28q-35 -16 -76 -16q-51 0 -74 18t-26 52q-79 -73 -169 -73q-130 0 -130 163v250q0 24 -7 32.5t-29 8.5q-17 0 -44 -3v35q61 23 120 23
q28 0 39.5 -14.5t11.5 -45.5v-262q0 -59 21 -84.5t79 -25.5q39 0 108 21v315zM331 698l-139 -139h-32l-4 10l73 140h98zM492 698l-159 -139h-32l-4 10l93 140h98z" />
    <glyph glyph-name="Uogonek" unicode="&#x172;" horiz-adv-x="761" 
d="M225 236q0 -99 41.5 -148.5t130.5 -49.5q178 0 178 202v329q-4 48 -32 66q-26 17 -64 21v37h256v-37q-35 -5 -57 -17q-38 -20 -39 -72v-328q0 -118 -66.5 -185.5t-198.5 -67.5q-120 0 -186.5 59.5t-66.5 182.5v368q0 42 -27 50q-14 4 -59 6v41h276v-41q-11 -1 -24 -2
t-20.5 -1.5t-14.5 -2.5q-26 -8 -27 -42v-368zM516 -217q-40 -8 -70 -8q-117 0 -117 99q0 37 34.5 76.5t97.5 68.5l31 -5q-85 -55 -85 -124q0 -34 20.5 -51.5t54.5 -17.5q19 0 34 4v-42z" />
    <glyph glyph-name="uogonek" unicode="&#x173;" horiz-adv-x="587" 
d="M395 399q0 24 -7 32.5t-29 8.5q-17 0 -44 -3v35q61 23 120 23q28 0 39.5 -14.5t11.5 -45.5v-340q0 -39 20.5 -51.5t63.5 -10.5l1 -28q-35 -16 -76 -16q-51 0 -74 18t-26 52q-79 -73 -169 -73q-130 0 -130 163v250q0 24 -7 32.5t-29 8.5q-17 0 -44 -3v35q61 23 120 23
q28 0 39.5 -14.5t11.5 -45.5v-262q0 -59 21 -84.5t79 -25.5q39 0 108 21v315zM571 -217q-40 -8 -70 -8q-117 0 -117 99q0 37 34.5 76.5t97.5 68.5l31 -5q-85 -55 -85 -124q0 -34 20.5 -51.5t54.5 -17.5q19 0 34 4v-42z" />
    <glyph glyph-name="Ycircumflex" unicode="&#x176;" horiz-adv-x="639" 
d="M208 603q0 -18 10 -34l121 -224l124 223q10 19 10 35q0 47 -78 49v41h241v-35q-61 -6 -102 -76l-164 -283v-202q0 -40 27 -50q4 -1 13.5 -2t23 -2t22.5 -2v-41h-276v41q48 0 59 6q27 9 27 50v210l-166 289q-17 27 -35.5 39t-50.5 17v41h276v-41q-82 -6 -82 -49zM321 859
h42l113 -120l-4 -10h-32l-98 57l-98 -57h-32l-4 10z" />
    <glyph glyph-name="Ydieresis" unicode="&#x178;" horiz-adv-x="639" 
d="M208 603q0 -18 10 -34l121 -224l124 223q10 19 10 35q0 47 -78 49v41h241v-35q-61 -6 -102 -76l-164 -283v-202q0 -40 27 -50q4 -1 13.5 -2t23 -2t22.5 -2v-41h-276v41q48 0 59 6q27 9 27 50v210l-166 289q-17 27 -35.5 39t-50.5 17v41h276v-41q-82 -6 -82 -49zM210 792
q0 25 15 38.5t37 13.5t37.5 -13.5t15.5 -38.5t-15.5 -38.5t-37.5 -13.5t-37 13.5t-15 38.5zM378 792q0 25 15.5 38.5t37.5 13.5t37 -13.5t15 -38.5t-15 -38.5t-37 -13.5t-37.5 13.5t-15.5 38.5z" />
    <glyph glyph-name="Zacute" unicode="&#x179;" horiz-adv-x="615" 
d="M562 212l-14 -212h-502l-5 17l380 626h-159q-72 0 -109 -26.5t-62 -104.5l-33 2l12 179h482l7 -17l-380 -626h128q43 0 72 5t50.5 14.5t38.5 31.5t29.5 46t31.5 69zM463 852l-176 -119h-32l-4 10l106 120h102z" />
    <glyph glyph-name="zacute" unicode="&#x17a;" horiz-adv-x="478" 
d="M65 481h347l17 -28l-264 -403h122q43 0 77.5 30.5t44.5 79.5l30 -4l-22 -156h-362l-15 26l264 405h-120q-25 0 -43 -6.5t-30.5 -22.5t-19 -29.5t-16.5 -39.5l-33 5zM397 698l-159 -139h-32l-4 10l93 140h98z" />
    <glyph glyph-name="Zdotaccent" unicode="&#x17b;" horiz-adv-x="615" 
d="M562 212l-14 -212h-502l-5 17l380 626h-159q-72 0 -109 -26.5t-62 -104.5l-33 2l12 179h482l7 -17l-380 -626h128q43 0 72 5t50.5 14.5t38.5 31.5t29.5 46t31.5 69zM252 792q0 26 16 40.5t39 14.5t39 -14.5t16 -40.5t-16 -40.5t-39 -14.5t-39 14.5t-16 40.5z" />
    <glyph glyph-name="zdotaccent" unicode="&#x17c;" horiz-adv-x="478" 
d="M65 481h347l17 -28l-264 -403h122q43 0 77.5 30.5t44.5 79.5l30 -4l-22 -156h-362l-15 26l264 405h-120q-25 0 -43 -6.5t-30.5 -22.5t-19 -29.5t-16.5 -39.5l-33 5zM179 655q0 31 18.5 47.5t45.5 16.5t45.5 -16.5t18.5 -47.5t-18.5 -47.5t-45.5 -16.5t-45.5 16.5
t-18.5 47.5z" />
    <glyph glyph-name="Zcaron" unicode="&#x17d;" horiz-adv-x="615" 
d="M562 212l-14 -212h-502l-5 17l380 626h-159q-72 0 -109 -26.5t-62 -104.5l-33 2l12 179h482l7 -17l-380 -626h128q43 0 72 5t50.5 14.5t38.5 31.5t29.5 46t31.5 69zM328 729h-42l-113 120l4 10h32l98 -57l98 57h32l4 -10z" />
    <glyph glyph-name="zcaron" unicode="&#x17e;" horiz-adv-x="478" 
d="M65 481h347l17 -28l-264 -403h122q43 0 77.5 30.5t44.5 79.5l30 -4l-22 -156h-362l-15 26l264 405h-120q-25 0 -43 -6.5t-30.5 -22.5t-19 -29.5t-16.5 -39.5l-33 5zM266 569h-42l-113 140l4 10h32l98 -77l98 77h32l4 -10z" />
    <glyph glyph-name="uni018F" unicode="&#x18f;" horiz-adv-x="759" 
d="M74 584q125 125 305 125q149 0 236.5 -90t87.5 -253q0 -168 -91.5 -274.5t-243.5 -106.5q-147 0 -233 93.5t-86 243.5v42h535q-7 265 -234 265q-155 0 -270 -100zM367 37q207 0 217 277h-417q6 -136 51.5 -206.5t148.5 -70.5z" />
    <glyph glyph-name="uni01DD" unicode="&#x1dd;" horiz-adv-x="496" 
d="M64 442q68 53 174 53q103 0 158 -63t55 -171q0 -125 -68 -200.5t-175 -75.5q-76 0 -120.5 48.5t-45.5 137.5q0 3 0.5 11t0.5 11l22 44h302q-5 181 -163 181q-68 0 -138 -25zM240 43q106 0 124 140h-230v-19q0 -56 27 -88.5t79 -32.5z" />
    <glyph glyph-name="Gcaron" unicode="&#x1e6;" horiz-adv-x="732" 
d="M425 729h-42l-113 120l4 10h32l98 -57l98 57h32l4 -10zM398 659q-114 0 -170 -88t-56 -225q0 -144 57 -227.5t173 -83.5q70 0 128 29v165q0 43 -27 50q-7 2 -32.5 3.5t-36.5 2.5v41h262v-41q-24 -2 -35 -6q-27 -9 -27 -50v-187q-38 -25 -106 -42t-136 -15
q-154 2 -246 97.5t-92 253.5q0 164 101.5 268.5t255.5 104.5q56 0 117.5 -14.5t105.5 -39.5v-179h-35q-24 86 -71 134.5t-130 48.5z" />
    <glyph glyph-name="gcaron" unicode="&#x1e7;" horiz-adv-x="541" 
d="M280 569h-42l-113 140l4 10h32l98 -77l98 77h32l4 -10zM249 185q-45 0 -71 8q-20 -27 -20 -45q0 -38 56 -38h77q97 0 151.5 -30t54.5 -92q0 -80 -78 -147t-199 -67q-92 0 -143 40.5t-51 99.5q0 75 108 124q-54 20 -54 73q0 47 66 92q-92 38 -92 127q0 70 55 117.5
t139 47.5q91 0 146 -53q20 9 43 42.5t47 33.5q19 0 31.5 -10.5t12.5 -28.5q0 -20 -20.5 -34t-44 -19t-49.5 -7q24 -34 24 -77q0 -71 -56.5 -114t-132.5 -43zM205 28q-23 0 -39 3q-51 -41 -51 -97q0 -49 33.5 -77t100.5 -28q69 0 112.5 30.5t43.5 85.5q0 83 -120 83h-80z
M337 334q0 53 -29 83t-68 30q-40 0 -65 -29.5t-25 -77.5q0 -50 26.5 -78.5t71.5 -28.5q42 0 65.5 27t23.5 74z" />
    <glyph glyph-name="uni01F4" unicode="&#x1f4;" horiz-adv-x="732" 
d="M576 852l-176 -119h-32l-4 10l106 120h102zM398 659q-114 0 -170 -88t-56 -225q0 -144 57 -227.5t173 -83.5q70 0 128 29v165q0 43 -27 50q-7 2 -32.5 3.5t-36.5 2.5v41h262v-41q-24 -2 -35 -6q-27 -9 -27 -50v-187q-38 -25 -106 -42t-136 -15q-154 2 -246 97.5
t-92 253.5q0 164 101.5 268.5t255.5 104.5q56 0 117.5 -14.5t105.5 -39.5v-179h-35q-24 86 -71 134.5t-130 48.5z" />
    <glyph glyph-name="uni01F5" unicode="&#x1f5;" horiz-adv-x="541" 
d="M416 698l-159 -139h-32l-4 10l93 140h98zM249 185q-45 0 -71 8q-20 -27 -20 -45q0 -38 56 -38h77q97 0 151.5 -30t54.5 -92q0 -80 -78 -147t-199 -67q-92 0 -143 40.5t-51 99.5q0 75 108 124q-54 20 -54 73q0 47 66 92q-92 38 -92 127q0 70 55 117.5t139 47.5
q91 0 146 -53q20 9 43 42.5t47 33.5q19 0 31.5 -10.5t12.5 -28.5q0 -20 -20.5 -34t-44 -19t-49.5 -7q24 -34 24 -77q0 -71 -56.5 -114t-132.5 -43zM205 28q-23 0 -39 3q-51 -41 -51 -97q0 -49 33.5 -77t100.5 -28q69 0 112.5 30.5t43.5 85.5q0 83 -120 83h-80zM337 334
q0 53 -29 83t-68 30q-40 0 -65 -29.5t-25 -77.5q0 -50 26.5 -78.5t71.5 -28.5q42 0 65.5 27t23.5 74z" />
    <glyph glyph-name="Aringacute" unicode="&#x1fa;" horiz-adv-x="684" 
d="M435 240h-230l-54 -143q-14 -38 29 -49q4 -1 12.5 -2t22 -2.5l22.5 -2.5v-41h-233v41q19 1 46 11t40 45l234 609h47l215 -609q12 -35 40 -45q27 -10 46 -11v-41h-276v41q9 1 22 2.5t21.5 2.5t13.5 2q17 3 26 16t3 33zM225 293h193l-89 272zM544 1089l-176 -119h-32l-4 10
l106 120h102zM465 844q0 -42 -29.5 -68t-78.5 -26t-78.5 26t-29.5 67q0 42 30.5 68t78.5 26q46 0 76.5 -26t30.5 -67zM412 844q0 57 -55 57t-55 -57q0 -27 14.5 -42.5t40.5 -15.5q55 0 55 58z" />
    <glyph glyph-name="Scommaaccent" unicode="&#x218;" horiz-adv-x="589" 
d="M276 -15q-114 0 -210 55v177h26q55 -177 202 -177q68 0 103.5 32.5t35.5 83.5q0 89 -121 137l-84 33q-159 58 -159 181q0 82 62.5 141.5t177.5 59.5q104 0 200 -55v-179h-35q-25 97 -66 140.5t-111 43.5q-65 0 -100 -31.5t-35 -86.5q0 -50 28 -76.5t80 -45.5l79 -31
q95 -37 138.5 -79t43.5 -109q0 -93 -72 -153.5t-183 -60.5zM333 -119q0 -70 -99 -116l-17 20q52 30 62 71q-21 0 -35 11.5t-14 29.5q0 17 14 29.5t32 12.5q57 0 57 -58z" />
    <glyph glyph-name="uni021A" unicode="&#x21a;" horiz-adv-x="630" 
d="M367 643v-546q0 -43 27 -50q7 -2 14.5 -2.5t20.5 -1.5t24 -2v-41h-276v41q45 2 59 6q27 7 27 50v546h-50q-67 0 -97.5 -23.5t-48.5 -93.5h-36v167h568v-167h-36q-18 70 -48.5 93.5t-97.5 23.5h-50zM368 -119q0 -70 -99 -116l-17 20q52 30 62 71q-21 0 -35 11.5t-14 29.5
q0 17 14 29.5t32 12.5q57 0 57 -58z" />
    <glyph glyph-name="uni021B" unicode="&#x21b;" horiz-adv-x="360" 
d="M13 481h87v96l76 52h15v-148h138v-50h-138v-271q0 -62 20 -84.5t74 -22.5q21 0 54 7l1 -43q-40 -28 -104 -28q-136 0 -136 116v326h-87v50zM240 -119q0 -70 -99 -116l-17 20q52 30 62 71q-21 0 -35 11.5t-14 29.5q0 17 14 29.5t32 12.5q57 0 57 -58z" />
    <glyph glyph-name="uni021E" unicode="&#x21e;" horiz-adv-x="805" 
d="M565 596q0 40 -27 50q-4 1 -13.5 2t-23 2t-22.5 2v41h276v-41q-37 0 -59 -6q-27 -9 -27 -50v-499q0 -40 27 -50q4 -1 13.5 -2t23 -2t22.5 -2v-41h-276v41q48 0 59 6q27 9 27 50v237h-325v-237q0 -40 27 -50q4 -1 13.5 -2t23 -2t22.5 -2v-41h-276v41q48 0 59 6q27 9 27 50
v499q0 40 -27 50q-4 1 -13.5 2t-23 2t-22.5 2v41h276v-41q-37 0 -59 -6q-27 -9 -27 -50v-209h325v209zM421 729h-42l-113 120l4 10h32l98 -57l98 57h32l4 -10z" />
    <glyph glyph-name="uni0228" unicode="&#x228;" 
d="M50 41q48 0 59 6q27 9 27 50v499q0 40 -27 50q-4 1 -13.5 2t-23 2t-22.5 2v41h493v-167h-36q-18 70 -48.5 93.5t-97.5 23.5h-121v-260h100q40 0 50 27q1 4 2 13.5t2 23t2 22.5h41v-222h-41q0 37 -6 59q-9 27 -50 27h-100v-283h134q71 0 105.5 34t63.5 124l32 -4l-13 -204
h-512v41zM438 -138q0 -41 -34.5 -64.5t-87.5 -23.5q-39 0 -73 10v54q45 -15 76 -15q48 0 48 30q0 18 -19 26.5t-42 8.5q-12 0 -19 -1v121h48v-66q43 0 73 -20.5t30 -59.5z" />
    <glyph glyph-name="uni0229" unicode="&#x229;" horiz-adv-x="496" 
d="M433 38q-68 -53 -174 -53q-103 0 -158 63t-55 171q0 125 67.5 200.5t175.5 75.5q70 0 113 -41.5t51 -118.5q2 -30 1 -48l-22 -44h-302q2 -90 41.5 -135.5t121.5 -45.5q68 0 138 25zM257 437q-107 0 -125 -140h230q1 7 1 19q0 56 -27 88.5t-79 32.5zM373 -138
q0 -41 -34.5 -64.5t-87.5 -23.5q-39 0 -73 10v54q45 -15 76 -15q48 0 48 30q0 18 -19 26.5t-42 8.5q-12 0 -19 -1v121h48v-66q43 0 73 -20.5t30 -59.5z" />
    <glyph glyph-name="uni0232" unicode="&#x232;" horiz-adv-x="639" 
d="M208 603q0 -18 10 -34l121 -224l124 223q10 19 10 35q0 47 -78 49v41h241v-35q-61 -6 -102 -76l-164 -283v-202q0 -40 27 -50q4 -1 13.5 -2t23 -2t22.5 -2v-41h-276v41q48 0 59 6q27 9 27 50v210l-166 289q-17 27 -35.5 39t-50.5 17v41h276v-41q-82 -6 -82 -49zM213 804
h232v-60h-232v60z" />
    <glyph glyph-name="uni0259" unicode="&#x259;" horiz-adv-x="496" 
d="M64 442q68 53 174 53q103 0 158 -63t55 -171q0 -125 -68 -200.5t-175 -75.5q-76 0 -120.5 48.5t-45.5 137.5q0 3 0.5 11t0.5 11l22 44h302q-5 181 -163 181q-68 0 -138 -25zM240 43q106 0 124 140h-230v-19q0 -56 27 -88.5t79 -32.5z" />
    <glyph glyph-name="circumflex" unicode="&#x2c6;" horiz-adv-x="502" 
d="M393 569l-4 -10h-32l-98 77l-98 -77h-32l-4 10l113 140h42z" />
    <glyph glyph-name="caron" unicode="&#x2c7;" horiz-adv-x="502" 
d="M280 569h-42l-113 140l4 10h32l98 -77l98 77h32l4 -10z" />
    <glyph glyph-name="breve" unicode="&#x2d8;" horiz-adv-x="495" 
d="M393 709q-16 -69 -52.5 -107.5t-90.5 -38.5q-51 0 -93 40.5t-50 105.5h37q35 -79 108 -79q37 0 60.5 19t43.5 60h37z" />
    <glyph glyph-name="dotaccent" unicode="&#x2d9;" horiz-adv-x="292" 
d="M85 655q0 31 18.5 47.5t45.5 16.5t45.5 -16.5t18.5 -47.5t-18.5 -47.5t-45.5 -16.5t-45.5 16.5t-18.5 47.5z" />
    <glyph glyph-name="ring" unicode="&#x2da;" horiz-adv-x="408" 
d="M318 666q0 -42 -29.5 -68t-78.5 -26t-78.5 26t-29.5 67q0 42 30.5 68t78.5 26q46 0 76.5 -26t30.5 -67zM265 666q0 57 -55 57t-55 -57q0 -27 14.5 -42.5t40.5 -15.5q55 0 55 58z" />
    <glyph glyph-name="ogonek" unicode="&#x2db;" horiz-adv-x="585" 
d="M480 -217q-40 -8 -70 -8q-117 0 -117 99q0 37 34.5 76.5t97.5 68.5l31 -5q-85 -55 -85 -124q0 -34 20.5 -51.5t54.5 -17.5q19 0 34 4v-42z" />
    <glyph glyph-name="tilde" unicode="&#x2dc;" horiz-adv-x="467" 
d="M384 710q0 -46 -25.5 -80t-72.5 -34q-36 0 -79 24t-54 24q-29 0 -41 -52h-37q2 48 26.5 81t67.5 33q31 0 71 -24t53 -24q46 0 53 52h38z" />
    <glyph glyph-name="hungarumlaut" unicode="&#x2dd;" horiz-adv-x="456" 
d="M257 698l-139 -139h-32l-4 10l73 140h98zM418 698l-159 -139h-32l-4 10l93 140h98z" />
    <glyph glyph-name="dotbelowcomb" unicode="&#x323;" horiz-adv-x="292" 
d="M85 -162q0 31 18.5 47.5t45.5 16.5t45.5 -16.5t18.5 -47.5t-18.5 -47.5t-45.5 -16.5t-45.5 16.5t-18.5 47.5z" />
    <glyph glyph-name="tonos" unicode="&#x384;" horiz-adv-x="427" 
d="M291 734l-98 -157h-32l-4 10l52 158h78z" />
    <glyph glyph-name="dieresistonos" unicode="&#x385;" horiz-adv-x="381" 
d="M265 755l-69 -139h-22l-4 10l13 140h78zM51 634q0 25 14.5 38t36.5 13q21 0 35.5 -13t14.5 -38t-14.5 -38t-35.5 -13q-22 0 -36.5 13t-14.5 38zM238 634q0 25 14.5 38t35.5 13q22 0 36 -13t14 -38t-14 -38t-36 -13q-21 0 -35.5 13t-14.5 38z" />
    <glyph glyph-name="Alphatonos" unicode="&#x386;" horiz-adv-x="684" 
d="M435 240h-230l-54 -143q-14 -38 29 -49q4 -1 12.5 -2t22 -2.5l22.5 -2.5v-41h-233v41q19 1 46 11t40 45l234 609h47l215 -609q12 -35 40 -45q27 -10 46 -11v-41h-276v41q9 1 22 2.5t21.5 2.5t13.5 2q17 3 26 16t3 33zM225 293h193l-89 272zM169 696q-3 -45 -29.5 -109.5
t-51.5 -100.5h-25l-4 10q28 88 28 211h78z" />
    <glyph glyph-name="Epsilontonos" unicode="&#x388;" 
d="M50 41q48 0 59 6q27 9 27 50v499q0 40 -27 50q-4 1 -13.5 2t-23 2t-22.5 2v41h493v-167h-36q-18 70 -48.5 93.5t-97.5 23.5h-121v-260h100q40 0 50 27q1 4 2 13.5t2 23t2 22.5h41v-222h-41q0 37 -6 59q-9 27 -50 27h-100v-283h134q71 0 105.5 34t63.5 124l32 -4l-13 -204
h-512v41zM13 683q-3 -45 -29.5 -109.5t-51.5 -100.5h-25l-4 10q28 88 28 211h78z" />
    <glyph glyph-name="Etatonos" unicode="&#x389;" horiz-adv-x="805" 
d="M565 596q0 40 -27 50q-4 1 -13.5 2t-23 2t-22.5 2v41h276v-41q-37 0 -59 -6q-27 -9 -27 -50v-499q0 -40 27 -50q4 -1 13.5 -2t23 -2t22.5 -2v-41h-276v41q48 0 59 6q27 9 27 50v237h-325v-237q0 -40 27 -50q4 -1 13.5 -2t23 -2t22.5 -2v-41h-276v41q48 0 59 6q27 9 27 50
v499q0 40 -27 50q-4 1 -13.5 2t-23 2t-22.5 2v41h276v-41q-37 0 -59 -6q-27 -9 -27 -50v-209h325v209zM13 683q-3 -45 -29.5 -109.5t-51.5 -100.5h-25l-4 10q28 88 28 211h78z" />
    <glyph glyph-name="Iotatonos" unicode="&#x38a;" horiz-adv-x="376" 
d="M240 97q0 -40 27 -50q4 -1 13.5 -2t23 -2t22.5 -2v-41h-276v41q48 0 59 6q27 9 27 50v499q0 40 -27 50q-4 1 -13.5 2t-23 2t-22.5 2v41h276v-41q-37 0 -59 -6q-27 -9 -27 -50v-499zM13 683q-3 -45 -29.5 -109.5t-51.5 -100.5h-25l-4 10q28 88 28 211h78z" />
    <glyph glyph-name="Omicrontonos" unicode="&#x38c;" horiz-adv-x="790" 
d="M737 352q0 -154 -98.5 -260.5t-251.5 -106.5q-147 0 -241.5 99.5t-94.5 256.5q0 160 98.5 264t248.5 104t244.5 -102.5t94.5 -254.5zM619 350q0 138 -54.5 223.5t-172.5 85.5q-61 0 -105.5 -24.5t-69.5 -69t-36.5 -99t-11.5 -121.5q0 -308 221 -308q63 0 109.5 26
t71.5 72t36.5 99t11.5 116zM69 683q-3 -45 -29.5 -109.5t-51.5 -100.5h-25l-4 10q28 88 28 211h78z" />
    <glyph glyph-name="Upsilontonos" unicode="&#x38e;" horiz-adv-x="639" 
d="M208 603q0 -18 10 -34l121 -224l124 223q10 19 10 35q0 47 -78 49v41h241v-35q-61 -6 -102 -76l-164 -283v-202q0 -40 27 -50q4 -1 13.5 -2t23 -2t22.5 -2v-41h-276v41q48 0 59 6q27 9 27 50v210l-166 289q-17 27 -35.5 39t-50.5 17v41h276v-41q-82 -6 -82 -49zM-25 683
q-3 -45 -29.5 -109.5t-51.5 -100.5h-25l-4 10q28 88 28 211h78z" />
    <glyph glyph-name="Omegatonos" unicode="&#x38f;" horiz-adv-x="862" 
d="M778 410q0 -61 -24.5 -117.5t-63.5 -97t-78.5 -68.5t-77.5 -45v-10h97q61 2 88.5 25.5t45.5 91.5h36v-189h-297v97q82 67 119 134t37 167q0 119 -54.5 190t-171.5 71q-224 0 -224 -264q0 -97 35.5 -163t121.5 -135v-97h-297v189h36q18 -70 48.5 -93.5t97.5 -23.5h80v10
q-46 20 -86 46.5t-76 64.5t-57 91t-21 113q0 135 98.5 223.5t248.5 88.5q149 0 244 -87t95 -212zM88 683q-3 -45 -29.5 -109.5t-51.5 -100.5h-25l-4 10q28 88 28 211h78z" />
    <glyph glyph-name="iotadieresistonos" unicode="&#x390;" horiz-adv-x="272" 
d="M169 481v-386q0 -32 14 -46t42 -16q12 -1 28 0l1 -28q-35 -16 -76 -16q-100 0 -100 81v411h91zM203 755l-69 -139h-22l-4 10l13 140h78zM-11 634q0 25 14.5 38t36.5 13q21 0 35.5 -13t14.5 -38t-14.5 -38t-35.5 -13q-22 0 -36.5 13t-14.5 38zM176 634q0 25 14.5 38
t35.5 13q22 0 36 -13t14 -38t-14 -38t-36 -13q-21 0 -35.5 13t-14.5 38z" />
    <glyph glyph-name="Alpha" unicode="&#x391;" horiz-adv-x="684" 
d="M435 240h-230l-54 -143q-14 -38 29 -49q4 -1 12.5 -2t22 -2.5l22.5 -2.5v-41h-233v41q19 1 46 11t40 45l234 609h47l215 -609q12 -35 40 -45q27 -10 46 -11v-41h-276v41q9 1 22 2.5t21.5 2.5t13.5 2q17 3 26 16t3 33zM225 293h193l-89 272z" />
    <glyph glyph-name="Beta" unicode="&#x392;" horiz-adv-x="648" 
d="M50 0v41q48 0 59 6q27 9 27 50v499q0 40 -27 50q-4 1 -13.5 2t-23 2t-22.5 2v41h293q95 0 152.5 -40.5t57.5 -121.5q0 -58 -45.5 -103.5t-124.5 -59.5v-3q105 -2 159.5 -50.5t54.5 -121.5q0 -50 -22.5 -89t-59.5 -60.5t-77.5 -32.5t-82.5 -11h-305zM485 192q0 59 -43 100
t-128 41h-74v-283h86q159 0 159 142zM240 643v-260h55q69 0 105 34t36 97q0 64 -33 96.5t-92 32.5h-71z" />
    <glyph glyph-name="Gamma" unicode="&#x393;" horiz-adv-x="571" 
d="M240 643v-546q0 -40 27 -50q4 -1 13.5 -2t23 -2t22.5 -2v-41h-276v41q48 0 59 6q27 9 27 50v499q0 40 -27 50q-4 1 -13.5 2t-23 2t-22.5 2v41h493v-167h-36q-18 70 -48.5 93.5t-97.5 23.5h-121z" />
    <glyph glyph-name="CR" unicode="&#x394;" horiz-adv-x="627" 
d="M596 0h-566l-4 53l278 652h46l252 -644zM106 69h390l-196 494z" />
    <glyph glyph-name="Epsilon" unicode="&#x395;" 
d="M50 41q48 0 59 6q27 9 27 50v499q0 40 -27 50q-4 1 -13.5 2t-23 2t-22.5 2v41h493v-167h-36q-18 70 -48.5 93.5t-97.5 23.5h-121v-260h100q40 0 50 27q1 4 2 13.5t2 23t2 22.5h41v-222h-41q0 37 -6 59q-9 27 -50 27h-100v-283h134q71 0 105.5 34t63.5 124l32 -4l-13 -204
h-512v41z" />
    <glyph glyph-name="Zeta" unicode="&#x396;" horiz-adv-x="615" 
d="M562 212l-14 -212h-502l-5 17l380 626h-159q-72 0 -109 -26.5t-62 -104.5l-33 2l12 179h482l7 -17l-380 -626h128q43 0 72 5t50.5 14.5t38.5 31.5t29.5 46t31.5 69z" />
    <glyph glyph-name="Eta" unicode="&#x397;" horiz-adv-x="805" 
d="M565 596q0 40 -27 50q-4 1 -13.5 2t-23 2t-22.5 2v41h276v-41q-37 0 -59 -6q-27 -9 -27 -50v-499q0 -40 27 -50q4 -1 13.5 -2t23 -2t22.5 -2v-41h-276v41q48 0 59 6q27 9 27 50v237h-325v-237q0 -40 27 -50q4 -1 13.5 -2t23 -2t22.5 -2v-41h-276v41q48 0 59 6q27 9 27 50
v499q0 40 -27 50q-4 1 -13.5 2t-23 2t-22.5 2v41h276v-41q-37 0 -59 -6q-27 -9 -27 -50v-209h325v209z" />
    <glyph glyph-name="Theta" unicode="&#x398;" horiz-adv-x="794" 
d="M433 379q40 0 50 27q1 4 2 11t2 18t2 20h41v-219h-41q-3 40 -6 49q-9 27 -50 27h-76q-41 0 -50 -27q-3 -9 -6 -49h-41v219h41q1 -9 2 -20t2 -18t2 -11q10 -27 50 -27h76zM740 352q0 -154 -98.5 -260.5t-251.5 -106.5q-147 0 -241.5 99.5t-94.5 256.5q0 160 98.5 264
t248.5 104t244.5 -102.5t94.5 -254.5zM622 350q0 138 -54.5 223.5t-172.5 85.5q-61 0 -105.5 -24.5t-69.5 -69t-36.5 -99t-11.5 -121.5q0 -308 221 -308q63 0 109.5 26t71.5 72t36.5 99t11.5 116z" />
    <glyph glyph-name="Iota" unicode="&#x399;" horiz-adv-x="376" 
d="M240 97q0 -40 27 -50q4 -1 13.5 -2t23 -2t22.5 -2v-41h-276v41q48 0 59 6q27 9 27 50v499q0 40 -27 50q-4 1 -13.5 2t-23 2t-22.5 2v41h276v-41q-37 0 -59 -6q-27 -9 -27 -50v-499z" />
    <glyph glyph-name="Kappa" unicode="&#x39a;" horiz-adv-x="691" 
d="M240 97q0 -40 27 -50q4 -1 13.5 -2t23 -2t22.5 -2v-41h-276v41q48 0 59 6q27 9 27 50v499q0 40 -27 50q-4 1 -13.5 2t-23 2t-22.5 2v41h276v-41q-37 0 -59 -6q-27 -9 -27 -50v-499zM275 345l181 219q27 32 27 53q0 29 -59 35v41h250v-41q-74 -6 -132 -75l-172 -207
l183 -253q48 -66 122 -77l-3 -40h-160l-237 338v7z" />
    <glyph glyph-name="Lambda" unicode="&#x39b;" horiz-adv-x="684" 
d="M329 565l-178 -468q-14 -38 29 -49q4 -1 12.5 -2t22 -2.5l22.5 -2.5v-41h-233v41q19 1 46 11t40 45l234 609h47l215 -609q12 -35 40 -45q27 -10 46 -11v-41h-276v41q9 1 22 2.5t21.5 2.5t13.5 2q17 3 26 16t3 33z" />
    <glyph glyph-name="Mu" unicode="&#x39c;" horiz-adv-x="929" 
d="M465 278l224 415h190v-41q-37 0 -59 -6q-27 -9 -27 -50v-499q0 -40 27 -50q4 -1 13.5 -2t23 -2t22.5 -2v-41h-276v41q48 0 59 6q27 9 27 50v480l-226 -430h-34l-225 429v-444q0 -53 32 -74q26 -17 64 -21v-37h-256v37q34 5 57 17q39 20 39 78v464q0 40 -27 50
q-4 1 -13.5 2t-23 2t-22.5 2v41h193z" />
    <glyph glyph-name="Nu" unicode="&#x39d;" horiz-adv-x="806" 
d="M624 -4l-418 562v-426q0 -53 32 -74q26 -17 64 -21v-37h-256v37q34 5 57 17q39 20 39 78v408q0 104 -91 117v36h170l388 -508v376q0 53 -32 74q-26 17 -64 21v37h256v-37q-34 -5 -57 -17q-39 -20 -39 -78v-565h-49z" />
    <glyph glyph-name="Xi" unicode="&#x39e;" horiz-adv-x="632" 
d="M561 0h-490l-13 204l32 4q27 -83 59.5 -106t109.5 -23h114q77 0 109.5 23t59.5 106l32 -4zM262 621q-71 0 -100 -17t-46 -84h-36v173h472v-173h-36q-17 67 -46 84t-100 17h-108zM369 390q40 0 50 27q1 4 2 11t2 18t2 20h41v-222h-41q-3 40 -6 49q-9 27 -50 27h-106
q-41 0 -50 -27q-3 -9 -6 -49h-41v222h41q1 -9 2 -20t2 -18t2 -11q10 -27 50 -27h106z" />
    <glyph glyph-name="Omicron" unicode="&#x39f;" horiz-adv-x="794" 
d="M740 352q0 -154 -98.5 -260.5t-251.5 -106.5q-147 0 -241.5 99.5t-94.5 256.5q0 160 98.5 264t248.5 104t244.5 -102.5t94.5 -254.5zM622 350q0 138 -54.5 223.5t-172.5 85.5q-61 0 -105.5 -24.5t-69.5 -69t-36.5 -99t-11.5 -121.5q0 -308 221 -308q63 0 109.5 26
t71.5 72t36.5 99t11.5 116z" />
    <glyph glyph-name="Pi" unicode="&#x3a0;" horiz-adv-x="795" 
d="M50 693h695v-41q-37 0 -59 -6q-27 -9 -27 -50v-499q0 -40 27 -50q4 -1 13.5 -2t23 -2t22.5 -2v-41h-276v41q48 0 59 6q27 9 27 50v543h-315v-543q0 -40 27 -50q4 -1 13.5 -2t23 -2t22.5 -2v-41h-276v41q48 0 59 6q27 9 27 50v499q0 40 -27 50q-4 1 -13.5 2t-23 2t-22.5 2
v41z" />
    <glyph glyph-name="Rho" unicode="&#x3a1;" horiz-adv-x="605" 
d="M240 293v-196q0 -43 27 -50q9 -2 34 -3.5t35 -2.5v-41h-286v41q45 2 59 6q27 7 27 50v499q0 42 -27 50q-7 2 -14.5 2.5t-20.5 1.5t-24 2v41h313q93 0 153 -50t60 -137q0 -93 -64.5 -153t-162.5 -60h-109zM240 643v-300h75q68 0 104.5 41t36.5 112q0 66 -34 106.5
t-91 40.5h-91z" />
    <glyph glyph-name="Sigma" unicode="&#x3a3;" horiz-adv-x="620" 
d="M238 333l-200 327l7 33h492v-167h-36q-18 70 -48.5 93.5t-97.5 23.5h-195l172 -283l-191 -276h227q76 0 109 23t60 105l32 -4l-13 -208h-511l-8 35z" />
    <glyph glyph-name="Tau" unicode="&#x3a4;" horiz-adv-x="630" 
d="M367 643v-546q0 -43 27 -50q7 -2 14.5 -2.5t20.5 -1.5t24 -2v-41h-276v41q45 2 59 6q27 7 27 50v546h-50q-67 0 -97.5 -23.5t-48.5 -93.5h-36v167h568v-167h-36q-18 70 -48.5 93.5t-97.5 23.5h-50z" />
    <glyph glyph-name="Upsilon" unicode="&#x3a5;" horiz-adv-x="639" 
d="M208 603q0 -18 10 -34l121 -224l124 223q10 19 10 35q0 47 -78 49v41h241v-35q-61 -6 -102 -76l-164 -283v-202q0 -40 27 -50q4 -1 13.5 -2t23 -2t22.5 -2v-41h-276v41q48 0 59 6q27 9 27 50v210l-166 289q-17 27 -35.5 39t-50.5 17v41h276v-41q-82 -6 -82 -49z" />
    <glyph glyph-name="Phi" unicode="&#x3a6;" horiz-adv-x="876" 
d="M490 597q172 0 261 -65t89 -177q0 -122 -84.5 -190t-265.5 -68v-10q0 -40 27 -50q4 -1 13.5 -2t23 -2t22.5 -2v-41h-276v41q48 0 59 6q27 9 27 50v10q-172 0 -261 65t-89 177q0 120 85 189t265 69v9q0 40 -27 50q-4 1 -13.5 2t-23 2t-22.5 2v41h276v-41q-37 0 -59 -6
q-27 -9 -27 -50v-9zM156 345q0 -106 64 -154.5t166 -48.5v410q-107 0 -168.5 -51.5t-61.5 -155.5zM720 349q0 197 -230 203v-410q107 0 168.5 51.5t61.5 155.5z" />
    <glyph glyph-name="Chi" unicode="&#x3a7;" horiz-adv-x="662" 
d="M20 693h276v-41q-64 -7 -64 -37q0 -12 10 -28l106 -166l115 162q12 18 12 30q0 18 -19.5 28t-48.5 11v41h238v-41q-73 -9 -116 -69l-150 -211l176 -275q18 -28 36 -40t50 -16v-41h-276v41q82 6 82 48q0 15 -12 33l-110 172l-122 -172q-13 -19 -13 -34q0 -39 61 -47v-41
h-238v41q76 17 120 75l160 227l-161 253q-16 25 -49 39t-63 17v41z" />
    <glyph glyph-name="Psi" unicode="&#x3a8;" horiz-adv-x="804" 
d="M459 295q171 24 171 195v203h160v-41q-34 -2 -50 -14.5t-16 -41.5v-114q0 -110 -76 -171t-189 -70v-144q0 -40 27 -50q4 -1 13.5 -2t23 -2t22.5 -2v-41h-276v41q48 0 59 6q27 9 27 50v144q-117 9 -196.5 70.5t-79.5 170.5v114q0 28 -15 41t-51 15v41h170v-203
q0 -81 45 -131.5t127 -62.5v300q0 40 -27 50q-4 1 -13.5 2t-23 2t-22.5 2v41h276v-41q-37 0 -59 -6q-27 -9 -27 -50v-301z" />
    <glyph glyph-name="_3" unicode="&#x3a9;" horiz-adv-x="859" 
d="M775 410q0 -61 -24.5 -117.5t-63.5 -97t-78.5 -68.5t-77.5 -45v-10h97q61 2 88.5 25.5t45.5 91.5h36v-189h-297v97q82 67 119 134t37 167q0 119 -54.5 190t-171.5 71q-224 0 -224 -264q0 -97 35.5 -163t121.5 -135v-97h-297v189h36q18 -70 48.5 -93.5t97.5 -23.5h80v10
q-46 20 -86 46.5t-76 64.5t-57 91t-21 113q0 135 98.5 223.5t248.5 88.5q149 0 244 -87t95 -212z" />
    <glyph glyph-name="Iotadieresis" unicode="&#x3aa;" horiz-adv-x="376" 
d="M240 97q0 -40 27 -50q4 -1 13.5 -2t23 -2t22.5 -2v-41h-276v41q48 0 59 6q27 9 27 50v499q0 40 -27 50q-4 1 -13.5 2t-23 2t-22.5 2v41h276v-41q-37 0 -59 -6q-27 -9 -27 -50v-499zM53 792q0 25 15 38.5t37 13.5t37.5 -13.5t15.5 -38.5t-15.5 -38.5t-37.5 -13.5t-37 13.5
t-15 38.5zM221 792q0 25 15.5 38.5t37.5 13.5t37 -13.5t15 -38.5t-15 -38.5t-37 -13.5t-37.5 13.5t-15.5 38.5z" />
    <glyph glyph-name="Upsilondieresis" unicode="&#x3ab;" horiz-adv-x="639" 
d="M208 603q0 -18 10 -34l121 -224l124 223q10 19 10 35q0 47 -78 49v41h241v-35q-61 -6 -102 -76l-164 -283v-202q0 -40 27 -50q4 -1 13.5 -2t23 -2t22.5 -2v-41h-276v41q48 0 59 6q27 9 27 50v210l-166 289q-17 27 -35.5 39t-50.5 17v41h276v-41q-82 -6 -82 -49zM183 792
q0 25 15 38.5t37 13.5t37.5 -13.5t15.5 -38.5t-15.5 -38.5t-37.5 -13.5t-37 13.5t-15 38.5zM351 792q0 25 15.5 38.5t37.5 13.5t37 -13.5t15 -38.5t-15 -38.5t-37 -13.5t-37.5 13.5t-15.5 38.5z" />
    <glyph glyph-name="alphatonos" unicode="&#x3ac;" horiz-adv-x="565" 
d="M461 484h15l-16 -174v-215q0 -35 16 -48.5t49 -13.5h19l1 -28q-35 -16 -76 -16q-100 0 -100 81v50q-40 -68 -78.5 -99t-91.5 -31q-67 0 -109.5 54t-42.5 161q0 125 64 207.5t138 82.5q75 0 132 -78l7 43zM231 68q36 0 68 24t70 77v166q-30 47 -69.5 71.5t-69.5 24.5
q-52 0 -73 -47.5t-21 -134.5q0 -181 95 -181zM391 734l-98 -157h-32l-4 10l52 158h78z" />
    <glyph glyph-name="epsilontonos" unicode="&#x3ad;" horiz-adv-x="467" 
d="M236 -12q-78 0 -134.5 31.5t-56.5 102.5q0 90 97 139q-81 39 -81 105q0 63 60.5 98t137.5 35q20 0 43.5 -2.5t54.5 -9.5t51 -23.5t20 -39.5q0 -21 -14.5 -31.5t-32.5 -10.5q-21 0 -39.5 16t-43.5 32.5t-61 16.5q-37 0 -64 -17.5t-27 -58.5q0 -36 21.5 -55t54.5 -23
q40 8 81 8q6 -13 6 -31q0 -20 -11 -38q-58 0 -86 6q-75 -19 -75 -89q0 -89 129 -89q92 0 155 35v-51q-78 -56 -185 -56zM348 734l-98 -157h-32l-4 10l52 158h78z" />
    <glyph glyph-name="etatonos" unicode="&#x3ae;" horiz-adv-x="563" 
d="M101 0v399q0 24 -7 32.5t-29 8.5q-17 0 -44 -3v35q61 23 120 23q28 0 39.5 -14.5t11.5 -45.5v-13q81 73 169 73q130 0 130 -163v-549h-91v525q0 59 -21 84.5t-79 25.5q-45 0 -108 -22v-396h-91zM407 734l-98 -157h-32l-4 10l52 158h78z" />
    <glyph glyph-name="iotatonos" unicode="&#x3af;" horiz-adv-x="272" 
d="M169 481v-386q0 -32 14 -46t42 -16q12 -1 28 0l1 -28q-35 -16 -76 -16q-100 0 -100 81v411h91zM232 734l-98 -157h-32l-4 10l52 158h78z" />
    <glyph glyph-name="upsilondieresistonos" unicode="&#x3b0;" horiz-adv-x="551" 
d="M428 225q0 51 -16 94t-32 73.5t-16 51.5q0 26 16 40t41 14q26 0 43 -25.5t24 -67t9 -70t2 -58.5q0 -125 -57.5 -208.5t-164.5 -83.5q-96 0 -141.5 62.5t-45.5 175.5v176q0 24 -7 32.5t-28 8.5q-12 0 -45 -3v35q61 23 120 23q28 0 39.5 -14.5t11.5 -45.5v-176
q0 -105 24.5 -160.5t94.5 -55.5q63 0 95.5 56.5t32.5 125.5zM356 755l-69 -139h-22l-4 10l13 140h78zM142 634q0 25 14.5 38t36.5 13q21 0 35.5 -13t14.5 -38t-14.5 -38t-35.5 -13q-22 0 -36.5 13t-14.5 38zM329 634q0 25 14.5 38t35.5 13q22 0 36 -13t14 -38t-14 -38
t-36 -13q-21 0 -35.5 13t-14.5 38z" />
    <glyph glyph-name="alpha" unicode="&#x3b1;" horiz-adv-x="565" 
d="M461 484h15l-16 -174v-215q0 -35 16 -48.5t49 -13.5h19l1 -28q-35 -16 -76 -16q-100 0 -100 81v50q-40 -68 -78.5 -99t-91.5 -31q-67 0 -109.5 54t-42.5 161q0 125 64 207.5t138 82.5q75 0 132 -78l7 43zM231 68q36 0 68 24t70 77v166q-30 47 -69.5 71.5t-69.5 24.5
q-52 0 -73 -47.5t-21 -134.5q0 -181 95 -181z" />
    <glyph glyph-name="beta" unicode="&#x3b2;" horiz-adv-x="561" 
d="M292 -15q-72 0 -120 16v-218h-91v703q0 120 62.5 196.5t171.5 76.5q79 0 124.5 -53.5t45.5 -125.5q0 -50 -40.5 -101.5t-113.5 -79.5q85 -12 136 -65.5t51 -138.5q0 -83 -71 -146.5t-155 -63.5zM172 83q35 -21 61 -29.5t69 -8.5q65 0 98.5 32.5t33.5 90.5
q0 82 -47.5 119.5t-169.5 53.5l-8 41q179 87 179 192q0 51 -29.5 85t-81.5 34q-55 0 -80 -46t-25 -111v-453z" />
    <glyph glyph-name="gamma" unicode="&#x3b3;" horiz-adv-x="516" 
d="M420 493q22 0 36.5 -14.5t14.5 -43.5q0 -62 -42 -152.5t-141 -244.5q12 -62 12 -134q0 -2 -3 -77q-1 -8 -1 -22t-1 -22h-89q3 142 20 243q-58 183 -139 365q-16 40 -80 40v29q7 6 23 16q32 17 56 17q16 0 30 -5.5t22 -13t16 -20t11.5 -20t8.5 -21.5t6 -16
q4 -11 19.5 -56.5t32.5 -99.5t38 -130q36 52 58.5 96.5t29.5 80.5t8.5 58t-1.5 52.5t-3 41.5q0 21 14.5 37t43.5 16z" />
    <glyph glyph-name="delta" unicode="&#x3b4;" horiz-adv-x="554" 
d="M105 578q0 74 58.5 127.5t162.5 53.5q74 0 125 -27t51 -67q0 -19 -12 -31.5t-34 -12.5q-20 0 -35.5 13t-25 29t-32.5 29t-56 13q-49 0 -85 -25.5t-36 -65.5q0 -30 24 -57t60 -46t78 -45t78 -54t60 -74t24 -103q0 -103 -69.5 -176.5t-181.5 -73.5q-97 0 -156 56.5
t-59 154.5q0 153 157 241q-46 27 -71 59.5t-25 81.5zM411 203q0 20 -4 38.5t-7.5 32t-16 29.5t-17 23.5t-24 22t-23 18.5t-28.5 18.5t-26 15t-29 15.5q-41 -33 -65.5 -86t-24.5 -114q0 -71 33.5 -122t100.5 -51q65 0 98 47t33 113z" />
    <glyph glyph-name="epsilon" unicode="&#x3b5;" horiz-adv-x="467" 
d="M236 -12q-78 0 -134.5 31.5t-56.5 102.5q0 90 97 139q-81 39 -81 105q0 63 60.5 98t137.5 35q20 0 43.5 -2.5t54.5 -9.5t51 -23.5t20 -39.5q0 -21 -14.5 -31.5t-32.5 -10.5q-21 0 -39.5 16t-43.5 32.5t-61 16.5q-37 0 -64 -17.5t-27 -58.5q0 -36 21.5 -55t54.5 -23
q40 8 81 8q6 -13 6 -31q0 -20 -11 -38q-58 0 -86 6q-75 -19 -75 -89q0 -89 129 -89q92 0 155 35v-51q-78 -56 -185 -56z" />
    <glyph glyph-name="zeta" unicode="&#x3b6;" horiz-adv-x="434" 
d="M82 744h336l8 -75q-127 -106 -207 -221t-80 -215q0 -71 29.5 -100t98.5 -44q32 -8 50.5 -14t44.5 -17t39.5 -23.5t24 -32t10.5 -44.5q0 -37 -24 -85.5t-58 -89.5h-65q72 95 72 137t-45 61q-21 9 -55.5 18t-61 15.5t-57 21t-50.5 34t-33.5 56t-13.5 85.5q0 104 91.5 236.5
t216.5 221.5h-303v17z" />
    <glyph glyph-name="eta" unicode="&#x3b7;" horiz-adv-x="563" 
d="M101 0v399q0 24 -7 32.5t-29 8.5q-17 0 -44 -3v35q61 23 120 23q28 0 39.5 -14.5t11.5 -45.5v-13q81 73 169 73q130 0 130 -163v-549h-91v525q0 59 -21 84.5t-79 25.5q-45 0 -108 -22v-396h-91z" />
    <glyph glyph-name="theta" unicode="&#x3b8;" horiz-adv-x="572" 
d="M524 383q0 -173 -67 -285.5t-179 -112.5q-108 0 -166 94t-58 271q0 180 65 294.5t172 114.5q112 0 172.5 -102.5t60.5 -273.5zM284 703q-34 0 -57.5 -21.5t-37 -63.5t-20 -95.5t-7.5 -127.5h254q-5 308 -132 308zM281 43q72 0 102.5 77.5t32.5 220.5h-254q1 -152 28 -225
t91 -73z" />
    <glyph glyph-name="iota" unicode="&#x3b9;" horiz-adv-x="272" 
d="M169 481v-386q0 -32 14 -46t42 -16q12 -1 28 0l1 -28q-35 -16 -76 -16q-100 0 -100 81v411h91z" />
    <glyph glyph-name="kappa" unicode="&#x3ba;" horiz-adv-x="553" 
d="M215 253l78 103q30 39 41 52.5t36.5 40.5t46.5 37.5t44 10.5q70 0 70 -48q0 -18 -11.5 -30.5t-31.5 -14.5q-7 -1 -30.5 2t-41.5 -2t-33 -23l-84 -108l97 -143q19 -28 28 -40t25 -26.5t33.5 -19.5t41.5 -5v-30q-11 -8 -23 -12q-26 -12 -65 -12q-33 0 -59 21.5t-57 69.5
l-105 159v18zM101 0v399q0 24 -7 32.5t-28 8.5q-12 0 -45 -3v35q61 23 120 23q28 0 39.5 -14.5t11.5 -45.5v-435h-91z" />
    <glyph glyph-name="lambda" unicode="&#x3bb;" horiz-adv-x="534" 
d="M422 135q20 -44 38 -59.5t46 -15.5q10 0 17 1l4 -45q-34 -27 -75 -27q-26 0 -44.5 17.5t-27 35.5t-27.5 68l-6 15l-84 254l-134 -379h-107l203 494v2q-45 114 -79 144t-122 30q-17 0 -28.5 13t-11.5 34q0 18 11.5 30t31.5 12q152 0 250 -226z" />
    <glyph glyph-name="_4" unicode="&#x3bc;" horiz-adv-x="588" 
d="M487 481v-386q0 -39 20.5 -51.5t63.5 -10.5l1 -28q-35 -16 -76 -16q-51 0 -74 18t-26 52q-79 -73 -169 -73q-39 0 -64 13q25 -75 25 -129v-87h-91v698h91v-308q0 -59 21 -84.5t79 -25.5q39 0 108 21v397h91z" />
    <glyph glyph-name="nu" unicode="&#x3bd;" horiz-adv-x="500" 
d="M413 495q22 0 36.5 -14.5t14.5 -43.5q0 -67 -49.5 -170.5t-164.5 -274.5h-28l-137 401q-17 40 -72 40v29q7 6 21 16q28 17 53 17q14 0 26 -5.5t20 -13t15.5 -20t10.5 -20.5t8 -21t6 -16l90 -289q36 52 58.5 97t29.5 81t8.5 58.5t-1.5 53.5t-3 42q0 21 14.5 37t43.5 16z
" />
    <glyph glyph-name="xi" unicode="&#x3be;" horiz-adv-x="421" 
d="M231 324q-28 -9 -47 -24q-46 -34 -46 -82q0 -35 10.5 -59t32 -37.5t38.5 -20t46 -12.5q28 -7 44.5 -11.5t43 -15.5t42 -23.5t27.5 -33t12 -45.5q0 -39 -23.5 -87.5t-58.5 -89.5h-65q72 89 72 140q0 39 -45 58q-17 7 -56.5 16t-72.5 19.5t-67.5 29t-54.5 53t-20 83.5
q0 50 34 94t82 70q-36 21 -52.5 45.5t-16.5 61.5q0 70 51 121.5t158 94.5h-231v17l32 58h286l8 -75q-117 -58 -168 -107t-51 -105q0 -70 66 -78q40 8 81 8q6 -13 6 -31q0 -20 -11 -38q-58 0 -86 6z" />
    <glyph glyph-name="omicron" unicode="&#x3bf;" horiz-adv-x="557" 
d="M513 262q0 -112 -70 -194.5t-181 -82.5q-97 0 -157 65.5t-60 172.5q0 120 72.5 196t177.5 76q97 0 157.5 -65t60.5 -168zM411 230q0 97 -34.5 152t-107.5 55q-122 0 -122 -178q0 -98 34 -157t106 -59q124 0 124 187z" />
    <glyph glyph-name="pi" unicode="&#x3c0;" horiz-adv-x="624" 
d="M127 0v406h-100v15l30 60h525v-75h-93v-311q0 -39 20.5 -51.5t63.5 -10.5l1 -28q-35 -16 -76 -16q-53 0 -71.5 20.5t-18.5 60.5v336h-200v-406h-81z" />
    <glyph glyph-name="rho" unicode="&#x3c1;" horiz-adv-x="534" 
d="M61 -217v451q2 92 80.5 174.5t168.5 82.5q74 0 126 -59t52 -165q0 -124 -72.5 -202.5t-189.5 -78.5q-36 0 -74 9v-212h-91zM152 68q58 -24 107 -24q72 0 107.5 52t35.5 138q0 89 -36 137t-93 48q-58 0 -88.5 -44.5t-32.5 -121.5v-185z" />
    <glyph glyph-name="sigma1" unicode="&#x3c2;" horiz-adv-x="476" 
d="M46 223q0 120 69 196t170 76q69 0 116 -25t47 -62q0 -25 -16 -40t-40 -15q-13 0 -26.5 13t-25 29t-34.5 29t-51 13q-61 0 -92 -48t-31 -132t24 -115.5t98 -52.5q88 -25 118 -44q50 -33 51 -85q0 -39 -23.5 -87.5t-58.5 -89.5h-65q72 89 72 139q0 39 -45 58
q-21 8 -57 18.5l-60 17.5t-53 23.5t-46 37.5t-29 58.5t-12 87.5z" />
    <glyph glyph-name="sigma" unicode="&#x3c3;" horiz-adv-x="561" 
d="M376 406q50 -26 81 -72t31 -101q0 -110 -65 -179t-177 -69q-93 0 -147.5 63.5t-54.5 153.5q0 115 84.5 193t239.5 86h185v-16l-29 -59h-148zM392 220q0 118 -51 186h-56q-72 0 -108 -46.5t-36 -123.5q0 -193 130 -193q63 0 92 43t29 134z" />
    <glyph glyph-name="tau" unicode="&#x3c4;" horiz-adv-x="453" 
d="M41 481h383v-75h-169v-288q0 -29 12 -44t26.5 -18t40.5 -3q24 0 66 8l1 -37q-27 -15 -64.5 -25t-62.5 -10q-55 0 -77.5 22.5t-22.5 69.5v325h-163v15z" />
    <glyph glyph-name="upsilon" unicode="&#x3c5;" horiz-adv-x="551" 
d="M428 225q0 51 -16 94t-32 73.5t-16 51.5q0 26 16 40t41 14q26 0 43 -25.5t24 -67t9 -70t2 -58.5q0 -125 -57.5 -208.5t-164.5 -83.5q-96 0 -141.5 62.5t-45.5 175.5v176q0 24 -7 32.5t-28 8.5q-12 0 -45 -3v35q61 23 120 23q28 0 39.5 -14.5t11.5 -45.5v-176
q0 -105 24.5 -160.5t94.5 -55.5q63 0 95.5 56.5t32.5 125.5z" />
    <glyph glyph-name="phi" unicode="&#x3c6;" horiz-adv-x="757" 
d="M408 744l3 -250q138 -6 220 -66.5t82 -165.5q0 -108 -80.5 -182.5t-215.5 -90.5l3 -206h-84l1 202q-127 2 -210 68.5t-83 169.5q0 115 79.5 187.5t216.5 82.5l1 251h67zM611 230q0 95 -44.5 145.5t-154.5 59.5l5 -390q96 8 145 55.5t49 129.5zM146 259q0 -90 46.5 -148
t144.5 -67l2 393q-193 -7 -193 -178z" />
    <glyph glyph-name="chi" unicode="&#x3c7;" horiz-adv-x="486" 
d="M249 233l118 248h103l-187 -332l92 -229q17 -40 37.5 -56t49.5 -16q7 0 21 2l4 -49q-11 -10 -35 -18.5t-46 -8.5q-12 0 -21.5 2.5t-17.5 9.5t-13 13.5t-11 20.5t-9.5 24t-11 31.5t-12.5 34.5l-66 164l-130 -291h-103l201 373l-49 122q-35 93 -55.5 120.5t-57.5 27.5
q-20 0 -41 -4l-1 46q41 31 74 31q38 0 58.5 -22t40.5 -74z" />
    <glyph glyph-name="psi" unicode="&#x3c8;" horiz-adv-x="711" 
d="M591 235q0 51 -16 91.5t-32 69t-16 48.5q0 26 16 40t41 14q26 0 43 -24t24 -63.5t9 -67t2 -56.5q0 -119 -64.5 -199t-181.5 -98l3 -207h-84l1 202q-243 7 -243 238v176q0 24 -7 32.5t-28 8.5q-12 0 -45 -3v35q61 23 120 23q28 0 39.5 -14.5t11.5 -45.5v-176
q0 -60 12 -102.5t47 -74t93 -37.5l4 699h67l9 -698q82 12 128.5 65.5t46.5 123.5z" />
    <glyph glyph-name="omega" unicode="&#x3c9;" horiz-adv-x="742" 
d="M617 481q77 -77 77 -231q0 -107 -50.5 -183t-133.5 -76q-37 0 -67.5 20.5t-43.5 39.5t-30 50q-57 -110 -152 -110q-79 0 -124.5 66t-45.5 173q0 79 22.5 138.5t73.5 112.5h69q-68 -83 -68 -240q0 -78 20.5 -131t67.5 -53q43 0 73.5 40.5t37.5 64.5q-21 51 -21 198
q20 11 47 11q30 0 47 -11q0 -140 -21 -198q4 -14 12.5 -33.5t34 -45.5t56.5 -26q49 0 77.5 56.5t28.5 140.5q0 154 -66 227h79z" />
    <glyph glyph-name="iotadieresis" unicode="&#x3ca;" horiz-adv-x="272" 
d="M169 481v-386q0 -32 14 -46t42 -16q12 -1 28 0l1 -28q-35 -16 -76 -16q-100 0 -100 81v411h91zM-16 654q0 26 16 40.5t39 14.5t39 -14.5t16 -40.5t-16 -40.5t-39 -14.5t-39 14.5t-16 40.5zM161 654q0 26 16 40.5t39 14.5t39 -14.5t16 -40.5t-16 -40.5t-39 -14.5t-39 14.5
t-16 40.5z" />
    <glyph glyph-name="upsilondieresis" unicode="&#x3cb;" horiz-adv-x="551" 
d="M428 225q0 51 -16 94t-32 73.5t-16 51.5q0 26 16 40t41 14q26 0 43 -25.5t24 -67t9 -70t2 -58.5q0 -125 -57.5 -208.5t-164.5 -83.5q-96 0 -141.5 62.5t-45.5 175.5v176q0 24 -7 32.5t-28 8.5q-12 0 -45 -3v35q61 23 120 23q28 0 39.5 -14.5t11.5 -45.5v-176
q0 -105 24.5 -160.5t94.5 -55.5q63 0 95.5 56.5t32.5 125.5zM135 654q0 26 16 40.5t39 14.5t39 -14.5t16 -40.5t-16 -40.5t-39 -14.5t-39 14.5t-16 40.5zM312 654q0 26 16 40.5t39 14.5t39 -14.5t16 -40.5t-16 -40.5t-39 -14.5t-39 14.5t-16 40.5z" />
    <glyph glyph-name="omicrontonos" unicode="&#x3cc;" horiz-adv-x="557" 
d="M513 262q0 -112 -70 -194.5t-181 -82.5q-97 0 -157 65.5t-60 172.5q0 120 72.5 196t177.5 76q97 0 157.5 -65t60.5 -168zM411 230q0 97 -34.5 152t-107.5 55q-122 0 -122 -178q0 -98 34 -157t106 -59q124 0 124 187zM378 734l-98 -157h-32l-4 10l52 158h78z" />
    <glyph glyph-name="upsilontonos" unicode="&#x3cd;" horiz-adv-x="551" 
d="M428 225q0 51 -16 94t-32 73.5t-16 51.5q0 26 16 40t41 14q26 0 43 -25.5t24 -67t9 -70t2 -58.5q0 -125 -57.5 -208.5t-164.5 -83.5q-96 0 -141.5 62.5t-45.5 175.5v176q0 24 -7 32.5t-28 8.5q-12 0 -45 -3v35q61 23 120 23q28 0 39.5 -14.5t11.5 -45.5v-176
q0 -105 24.5 -160.5t94.5 -55.5q63 0 95.5 56.5t32.5 125.5zM377 734l-98 -157h-32l-4 10l52 158h78z" />
    <glyph glyph-name="omegatonos" unicode="&#x3ce;" horiz-adv-x="742" 
d="M617 481q77 -77 77 -231q0 -107 -50.5 -183t-133.5 -76q-37 0 -67.5 20.5t-43.5 39.5t-30 50q-57 -110 -152 -110q-79 0 -124.5 66t-45.5 173q0 79 22.5 138.5t73.5 112.5h69q-68 -83 -68 -240q0 -78 20.5 -131t67.5 -53q43 0 73.5 40.5t37.5 64.5q-21 51 -21 198
q20 11 47 11q30 0 47 -11q0 -140 -21 -198q4 -14 12.5 -33.5t34 -45.5t56.5 -26q49 0 77.5 56.5t28.5 140.5q0 154 -66 227h79zM462 734l-98 -157h-32l-4 10l52 158h78z" />
    <glyph glyph-name="uni03D0" unicode="&#x3d0;" horiz-adv-x="532" 
d="M276 -15q-119 0 -167.5 92t-48.5 283q0 202 57.5 300.5t182.5 98.5q78 0 122 -45t44 -121q0 -69 -36.5 -118.5t-102.5 -66.5q72 -6 116.5 -53t44.5 -121q0 -111 -60 -180t-152 -69zM283 41q105 0 105 182q0 92 -43 126t-124 27l-61 -6q0 -186 25.5 -257.5t97.5 -71.5z
M275 704q-63 0 -88.5 -68.5t-26.5 -217.5l94 8q55 6 83.5 44.5t28.5 94.5q0 71 -25 105t-66 34z" />
    <glyph glyph-name="uni0400" unicode="&#x400;" 
d="M50 41q48 0 59 6q27 9 27 50v499q0 40 -27 50q-4 1 -13.5 2t-23 2t-22.5 2v41h493v-167h-36q-18 70 -48.5 93.5t-97.5 23.5h-121v-260h100q40 0 50 27q1 4 2 13.5t2 23t2 22.5h41v-222h-41q0 37 -6 59q-9 27 -50 27h-100v-283h134q71 0 105.5 34t63.5 124l32 -4l-13 -204
h-512v41zM165 863h102l106 -120l-4 -10h-32l-176 119z" />
    <glyph glyph-name="afii10023" unicode="&#x401;" 
d="M50 41q48 0 59 6q27 9 27 50v499q0 40 -27 50q-4 1 -13.5 2t-23 2t-22.5 2v41h493v-167h-36q-18 70 -48.5 93.5t-97.5 23.5h-121v-260h100q40 0 50 27q1 4 2 13.5t2 23t2 22.5h41v-222h-41q0 37 -6 59q-9 27 -50 27h-100v-283h134q71 0 105.5 34t63.5 124l32 -4l-13 -204
h-512v41zM186 792q0 25 15 38.5t37 13.5t37.5 -13.5t15.5 -38.5t-15.5 -38.5t-37.5 -13.5t-37 13.5t-15 38.5zM354 792q0 25 15.5 38.5t37.5 13.5t37 -13.5t15 -38.5t-15 -38.5t-37 -13.5t-37.5 13.5t-15.5 38.5z" />
    <glyph glyph-name="afii10051" unicode="&#x402;" horiz-adv-x="809" 
d="M775 193q0 -94 -53.5 -145.5t-136.5 -51.5v41q49 4 67.5 41t18.5 111q0 81 -38 123t-127 42q-80 0 -139 -22v-235q0 -43 27 -50q7 -2 14.5 -2.5t20.5 -1.5t24 -2v-41h-276v41q45 2 59 6q27 7 27 50v546h-50q-67 0 -97.5 -23.5t-48.5 -93.5h-36v167h568v-167h-36
q-18 70 -48.5 93.5t-97.5 23.5h-50v-267q72 36 177 36q117 0 174 -58.5t57 -160.5z" />
    <glyph glyph-name="afii10052" unicode="&#x403;" horiz-adv-x="571" 
d="M240 643v-546q0 -40 27 -50q4 -1 13.5 -2t23 -2t22.5 -2v-41h-276v41q48 0 59 6q27 9 27 50v499q0 40 -27 50q-4 1 -13.5 2t-23 2t-22.5 2v41h493v-167h-36q-18 70 -48.5 93.5t-97.5 23.5h-121zM506 852l-176 -119h-32l-4 10l106 120h102z" />
    <glyph glyph-name="afii10053" unicode="&#x404;" horiz-adv-x="678" 
d="M395 659q-109 0 -162 -75t-60 -199h305v-50h-306q5 -300 221 -300q139 0 186 174h35v-153q-88 -71 -222 -71q-151 0 -244.5 101.5t-93.5 254.5q0 160 98.5 264t248.5 104q119 0 213 -54v-179h-35q-24 88 -66 135.5t-118 47.5z" />
    <glyph glyph-name="afii10054" unicode="&#x405;" horiz-adv-x="589" 
d="M276 -15q-114 0 -210 55v177h26q55 -177 202 -177q68 0 103.5 32.5t35.5 83.5q0 89 -121 137l-84 33q-159 58 -159 181q0 82 62.5 141.5t177.5 59.5q104 0 200 -55v-179h-35q-25 97 -66 140.5t-111 43.5q-65 0 -100 -31.5t-35 -86.5q0 -50 28 -76.5t80 -45.5l79 -31
q95 -37 138.5 -79t43.5 -109q0 -93 -72 -153.5t-183 -60.5z" />
    <glyph glyph-name="afii10055" unicode="&#x406;" horiz-adv-x="376" 
d="M240 97q0 -40 27 -50q4 -1 13.5 -2t23 -2t22.5 -2v-41h-276v41q48 0 59 6q27 9 27 50v499q0 40 -27 50q-4 1 -13.5 2t-23 2t-22.5 2v41h276v-41q-37 0 -59 -6q-27 -9 -27 -50v-499z" />
    <glyph glyph-name="afii10056" unicode="&#x407;" horiz-adv-x="376" 
d="M240 97q0 -40 27 -50q4 -1 13.5 -2t23 -2t22.5 -2v-41h-276v41q48 0 59 6q27 9 27 50v499q0 40 -27 50q-4 1 -13.5 2t-23 2t-22.5 2v41h276v-41q-37 0 -59 -6q-27 -9 -27 -50v-499zM52 792q0 25 15 38.5t37 13.5t37.5 -13.5t15.5 -38.5t-15.5 -38.5t-37.5 -13.5t-37 13.5
t-15 38.5zM220 792q0 25 15.5 38.5t37.5 13.5t37 -13.5t15 -38.5t-15 -38.5t-37 -13.5t-37.5 13.5t-15.5 38.5z" />
    <glyph glyph-name="afii10057" unicode="&#x408;" horiz-adv-x="360" 
d="M232 19q0 -100 -53 -172.5t-156 -72.5q-40 0 -66 17t-26 43q0 22 12 35.5t33 13.5q16 0 27 -9t15.5 -20.5t14.5 -20.5t25 -9q42 0 56 60.5t14 194.5v517q0 40 -27 50q-4 1 -13.5 2t-23 2t-22.5 2v41h276v-41q-37 0 -59 -6q-27 -9 -27 -50v-577z" />
    <glyph glyph-name="afii10058" unicode="&#x409;" horiz-adv-x="960" 
d="M199 599q0 37 -21 45q-14 6 -65 8v41h562v-41q-37 0 -59 -6q-27 -9 -27 -50v-189h114q102 0 164.5 -51t62.5 -140q0 -93 -67.5 -154.5t-172.5 -61.5h-291v41q48 0 59 6q27 9 27 50v544h-232q-6 -355 -49.5 -504.5t-137.5 -149.5q-27 0 -43 15.5t-16 40.5q0 26 17 44.5
t48 23.5q65 10 94 118t33 370zM589 50h75q71 0 108.5 42.5t37.5 113.5q0 67 -35 109t-95 42h-91v-307z" />
    <glyph glyph-name="afii10059" unicode="&#x40a;" horiz-adv-x="1040" 
d="M565 334h-325v-237q0 -40 27 -50q4 -1 13.5 -2t23 -2t22.5 -2v-41h-276v41q48 0 59 6q27 9 27 50v499q0 40 -27 50q-4 1 -13.5 2t-23 2t-22.5 2v41h276v-41q-37 0 -59 -6q-27 -9 -27 -50v-209h325v209q0 40 -27 50q-4 1 -13.5 2t-23 2t-22.5 2v41h276v-41q-37 0 -59 -6
q-27 -9 -27 -50v-189h114q102 0 164.5 -51t62.5 -140q0 -93 -67.5 -154.5t-172.5 -61.5h-291v41q48 0 59 6q27 9 27 50v237zM669 50h75q71 0 108.5 42.5t37.5 113.5q0 67 -35 109t-95 42h-91v-307z" />
    <glyph glyph-name="afii10060" unicode="&#x40b;" horiz-adv-x="872" 
d="M775 97q0 -40 27 -50q4 -1 13.5 -2t23 -2t22.5 -2v-41h-276v41q48 0 59 6q27 9 27 50v103q0 76 -34 115t-114 39q-90 0 -156 -22v-235q0 -43 27 -50q7 -2 14.5 -2.5t20.5 -1.5t24 -2v-41h-276v41q45 2 59 6q27 7 27 50v546h-50q-67 0 -97.5 -23.5t-48.5 -93.5h-36v167
h568v-167h-36q-18 70 -48.5 93.5t-97.5 23.5h-50v-267q85 36 191 36q112 0 164.5 -52t52.5 -162v-101z" />
    <glyph glyph-name="afii10061" unicode="&#x40c;" horiz-adv-x="691" 
d="M240 97q0 -40 27 -50q4 -1 13.5 -2t23 -2t22.5 -2v-41h-276v41q48 0 59 6q27 9 27 50v499q0 40 -27 50q-4 1 -13.5 2t-23 2t-22.5 2v41h276v-41q-37 0 -59 -6q-27 -9 -27 -50v-499zM275 345l181 219q27 32 27 53q0 29 -59 35v41h250v-41q-74 -6 -132 -75l-172 -207
l183 -253q48 -66 122 -77l-3 -40h-160l-237 338v7zM565 852l-176 -119h-32l-4 10l106 120h102z" />
    <glyph glyph-name="uni040D" unicode="&#x40d;" horiz-adv-x="819" 
d="M769 693v-41q-37 0 -59 -6q-27 -9 -27 -50v-499q0 -40 27 -50q4 -1 13.5 -2t23 -2t22.5 -2v-41h-276v41q48 0 59 6q27 9 27 50v482l-354 -579h-175v41q48 0 59 6q27 9 27 50v499q0 40 -27 50q-4 1 -13.5 2t-23 2t-22.5 2v41h276v-41q-37 0 -59 -6q-27 -9 -27 -50v-483
l354 580h175zM284 863h102l106 -120l-4 -10h-32l-176 119z" />
    <glyph glyph-name="afii10062" unicode="&#x40e;" horiz-adv-x="678" 
d="M266 99q39 0 66 50l-233 447q-16 29 -35.5 41t-50.5 15v41h276v-41q-85 -8 -85 -49q0 -7 3 -18l178 -335l137 315q12 24 12 41q0 40 -86 46v41h233v-36q-30 -5 -47.5 -17.5t-32.5 -39.5l-181 -391q-24 -52 -36.5 -77t-34 -59.5t-38.5 -49.5t-42 -26.5t-55 -11.5
q-35 0 -53.5 17t-18.5 45q0 29 17.5 46t45.5 17q19 0 35 -5.5t26 -5.5zM520 847q-5 -49 -44.5 -79.5t-103.5 -30.5q-61 0 -102 28.5t-47 81.5h86q2 -32 20 -49.5t46 -17.5q60 0 72 67h73z" />
    <glyph glyph-name="afii10145" unicode="&#x40f;" horiz-adv-x="795" 
d="M240 53h315v543q0 41 -27 50q-22 6 -59 6v41h276v-41q-9 -1 -22.5 -2t-23 -2t-13.5 -2q-27 -10 -27 -50v-499q0 -41 27 -50q11 -6 59 -6v-41h-272q-41 -5 -58 -142h-42q-12 83 -22 112.5t-29 29.5h-272v41q9 1 22.5 2t23 2t13.5 2q27 10 27 50v499q0 41 -27 50
q-22 6 -59 6v41h276v-41q-9 -1 -22.5 -2t-23 -2t-13.5 -2q-27 -10 -27 -50v-543z" />
    <glyph glyph-name="afii10017" unicode="&#x410;" horiz-adv-x="684" 
d="M435 240h-230l-54 -143q-14 -38 29 -49q4 -1 12.5 -2t22 -2.5l22.5 -2.5v-41h-233v41q19 1 46 11t40 45l234 609h47l215 -609q12 -35 40 -45q27 -10 46 -11v-41h-276v41q9 1 22 2.5t21.5 2.5t13.5 2q17 3 26 16t3 33zM225 293h193l-89 272z" />
    <glyph glyph-name="afii10018" unicode="&#x411;" horiz-adv-x="645" 
d="M240 641v-244h134q103 0 165 -49t62 -137q0 -93 -67.5 -152t-172.5 -59h-311v41q48 0 59 6q27 9 27 50v499q0 40 -27 50q-4 1 -13.5 2t-23 2t-22.5 2v41h493v-167h-36q-17 70 -48 92.5t-98 22.5h-121zM240 50h95q71 0 108.5 40t37.5 111q0 67 -35 106.5t-95 39.5h-111
v-297z" />
    <glyph glyph-name="afii10019" unicode="&#x412;" horiz-adv-x="648" 
d="M50 0v41q48 0 59 6q27 9 27 50v499q0 40 -27 50q-4 1 -13.5 2t-23 2t-22.5 2v41h293q95 0 152.5 -40.5t57.5 -121.5q0 -58 -45.5 -103.5t-124.5 -59.5v-3q105 -2 159.5 -50.5t54.5 -121.5q0 -50 -22.5 -89t-59.5 -60.5t-77.5 -32.5t-82.5 -11h-305zM485 192q0 59 -43 100
t-128 41h-74v-283h86q159 0 159 142zM240 643v-260h55q69 0 105 34t36 97q0 64 -33 96.5t-92 32.5h-71z" />
    <glyph glyph-name="afii10020" unicode="&#x413;" horiz-adv-x="571" 
d="M240 643v-546q0 -40 27 -50q4 -1 13.5 -2t23 -2t22.5 -2v-41h-276v41q48 0 59 6q27 9 27 50v499q0 40 -27 50q-4 1 -13.5 2t-23 2t-22.5 2v41h493v-167h-36q-18 70 -48.5 93.5t-97.5 23.5h-121z" />
    <glyph glyph-name="afii10021" unicode="&#x414;" horiz-adv-x="731" 
d="M206 0q-85 0 -115 -28t-46 -114h-36v195h46q121 49 128 546q0 37 -21 45q-14 6 -65 8v41h577v-41q-37 0 -59 -6q-27 -9 -27 -50v-543h104v-195h-36q-16 86 -46 114t-115 28h-289zM241 641q-7 -475 -103 -588h346v588h-243z" />
    <glyph glyph-name="afii10022" unicode="&#x415;" 
d="M50 41q48 0 59 6q27 9 27 50v499q0 40 -27 50q-4 1 -13.5 2t-23 2t-22.5 2v41h493v-167h-36q-18 70 -48.5 93.5t-97.5 23.5h-121v-260h100q40 0 50 27q1 4 2 13.5t2 23t2 22.5h41v-222h-41q0 37 -6 59q-9 27 -50 27h-100v-283h134q71 0 105.5 34t63.5 124l32 -4l-13 -204
h-512v41z" />
    <glyph glyph-name="afii10024" unicode="&#x416;" horiz-adv-x="982" 
d="M543 97q0 -40 27 -50q4 -1 13.5 -2t23 -2t22.5 -2v-41h-276v41q48 0 59 6q27 9 27 50v499q0 40 -27 50q-4 1 -13.5 2t-23 2t-22.5 2v41h276v-41q-37 0 -59 -6q-27 -9 -27 -50v-499zM404 338l-229 -338h-160v40q39 6 64 24t50 53l180 256l-161 204q-54 69 -129 75v41h240
v-41q-50 -6 -50 -35q-1 -19 25 -53l170 -219v-7zM578 345l170 219q26 34 25 53q0 29 -50 35v41h240v-41q-75 -6 -129 -75l-161 -204l180 -256q25 -35 50 -53t64 -24v-40h-160l-229 338v7z" />
    <glyph glyph-name="afii10025" unicode="&#x417;" horiz-adv-x="608" 
d="M279 659q-127 0 -174 -174h-35v153q88 71 219 71q109 0 173 -44.5t64 -126.5q0 -69 -49 -115t-132 -57v-4q91 -4 150.5 -45.5t59.5 -123.5q0 -103 -70.5 -155.5t-198.5 -52.5q-135 0 -229 54v179h35q25 -88 68.5 -135.5t126.5 -47.5q71 0 113.5 41.5t42.5 115.5
q0 143 -184 143h-66v50h65q72 0 111.5 34.5t39.5 102.5q0 67 -35.5 102t-94.5 35z" />
    <glyph glyph-name="afii10026" unicode="&#x418;" horiz-adv-x="819" 
d="M769 693v-41q-37 0 -59 -6q-27 -9 -27 -50v-499q0 -40 27 -50q4 -1 13.5 -2t23 -2t22.5 -2v-41h-276v41q48 0 59 6q27 9 27 50v482l-354 -579h-175v41q48 0 59 6q27 9 27 50v499q0 40 -27 50q-4 1 -13.5 2t-23 2t-22.5 2v41h276v-41q-37 0 -59 -6q-27 -9 -27 -50v-483
l354 580h175z" />
    <glyph glyph-name="afii10027" unicode="&#x419;" horiz-adv-x="819" 
d="M769 693v-41q-37 0 -59 -6q-27 -9 -27 -50v-499q0 -40 27 -50q4 -1 13.5 -2t23 -2t22.5 -2v-41h-276v41q48 0 59 6q27 9 27 50v482l-354 -579h-175v41q48 0 59 6q27 9 27 50v499q0 40 -27 50q-4 1 -13.5 2t-23 2t-22.5 2v41h276v-41q-37 0 -59 -6q-27 -9 -27 -50v-483
l354 580h175zM580 847q-5 -49 -44.5 -79.5t-103.5 -30.5q-61 0 -102 28.5t-47 81.5h86q2 -32 20 -49.5t46 -17.5q60 0 72 67h73z" />
    <glyph glyph-name="afii10028" unicode="&#x41a;" horiz-adv-x="691" 
d="M240 97q0 -40 27 -50q4 -1 13.5 -2t23 -2t22.5 -2v-41h-276v41q48 0 59 6q27 9 27 50v499q0 40 -27 50q-4 1 -13.5 2t-23 2t-22.5 2v41h276v-41q-37 0 -59 -6q-27 -9 -27 -50v-499zM275 345l181 219q27 32 27 53q0 29 -59 35v41h250v-41q-74 -6 -132 -75l-172 -207
l183 -253q48 -66 122 -77l-3 -40h-160l-237 338v7z" />
    <glyph glyph-name="afii10029" unicode="&#x41b;" horiz-adv-x="725" 
d="M199 599q0 37 -21 45q-14 6 -65 8v41h562v-41q-37 0 -59 -6q-27 -9 -27 -50v-499q0 -40 27 -50q4 -1 13.5 -2t23 -2t22.5 -2v-41h-276v41q48 0 59 6q27 9 27 50v544h-232q-6 -355 -49.5 -504.5t-137.5 -149.5q-27 0 -43 15.5t-16 40.5q0 26 17 44.5t48 23.5q65 10 94 118
t33 370z" />
    <glyph glyph-name="afii10030" unicode="&#x41c;" horiz-adv-x="929" 
d="M465 278l224 415h190v-41q-37 0 -59 -6q-27 -9 -27 -50v-499q0 -40 27 -50q4 -1 13.5 -2t23 -2t22.5 -2v-41h-276v41q48 0 59 6q27 9 27 50v480l-226 -430h-34l-225 429v-444q0 -53 32 -74q26 -17 64 -21v-37h-256v37q34 5 57 17q39 20 39 78v464q0 40 -27 50
q-4 1 -13.5 2t-23 2t-22.5 2v41h193z" />
    <glyph glyph-name="afii10031" unicode="&#x41d;" horiz-adv-x="805" 
d="M565 596q0 40 -27 50q-4 1 -13.5 2t-23 2t-22.5 2v41h276v-41q-37 0 -59 -6q-27 -9 -27 -50v-499q0 -40 27 -50q4 -1 13.5 -2t23 -2t22.5 -2v-41h-276v41q48 0 59 6q27 9 27 50v237h-325v-237q0 -40 27 -50q4 -1 13.5 -2t23 -2t22.5 -2v-41h-276v41q48 0 59 6q27 9 27 50
v499q0 40 -27 50q-4 1 -13.5 2t-23 2t-22.5 2v41h276v-41q-37 0 -59 -6q-27 -9 -27 -50v-209h325v209z" />
    <glyph glyph-name="afii10032" unicode="&#x41e;" horiz-adv-x="794" 
d="M740 352q0 -154 -98.5 -260.5t-251.5 -106.5q-147 0 -241.5 99.5t-94.5 256.5q0 160 98.5 264t248.5 104t244.5 -102.5t94.5 -254.5zM622 350q0 138 -54.5 223.5t-172.5 85.5q-61 0 -105.5 -24.5t-69.5 -69t-36.5 -99t-11.5 -121.5q0 -308 221 -308q63 0 109.5 26
t71.5 72t36.5 99t11.5 116z" />
    <glyph glyph-name="afii10033" unicode="&#x41f;" horiz-adv-x="795" 
d="M50 693h695v-41q-37 0 -59 -6q-27 -9 -27 -50v-499q0 -40 27 -50q4 -1 13.5 -2t23 -2t22.5 -2v-41h-276v41q48 0 59 6q27 9 27 50v543h-315v-543q0 -40 27 -50q4 -1 13.5 -2t23 -2t22.5 -2v-41h-276v41q48 0 59 6q27 9 27 50v499q0 40 -27 50q-4 1 -13.5 2t-23 2t-22.5 2
v41z" />
    <glyph glyph-name="afii10034" unicode="&#x420;" horiz-adv-x="605" 
d="M240 293v-196q0 -43 27 -50q9 -2 34 -3.5t35 -2.5v-41h-286v41q45 2 59 6q27 7 27 50v499q0 42 -27 50q-7 2 -14.5 2.5t-20.5 1.5t-24 2v41h313q93 0 153 -50t60 -137q0 -93 -64.5 -153t-162.5 -60h-109zM240 643v-300h75q68 0 104.5 41t36.5 112q0 66 -34 106.5
t-91 40.5h-91z" />
    <glyph glyph-name="afii10035" unicode="&#x421;" horiz-adv-x="678" 
d="M395 659q-61 0 -105.5 -24.5t-69.5 -69t-36.5 -99t-11.5 -121.5q0 -310 221 -310q139 0 186 174h35v-153q-88 -71 -222 -71q-151 0 -244.5 101.5t-93.5 254.5q0 160 98.5 264t248.5 104q119 0 213 -54v-179h-35q-24 88 -66 135.5t-118 47.5z" />
    <glyph glyph-name="afii10036" unicode="&#x422;" horiz-adv-x="630" 
d="M367 643v-546q0 -43 27 -50q7 -2 14.5 -2.5t20.5 -1.5t24 -2v-41h-276v41q45 2 59 6q27 7 27 50v546h-50q-67 0 -97.5 -23.5t-48.5 -93.5h-36v167h568v-167h-36q-18 70 -48.5 93.5t-97.5 23.5h-50z" />
    <glyph glyph-name="afii10037" unicode="&#x423;" horiz-adv-x="678" 
d="M266 99q39 0 66 50l-233 447q-16 29 -35.5 41t-50.5 15v41h276v-41q-85 -8 -85 -49q0 -7 3 -18l178 -335l137 315q12 24 12 41q0 40 -86 46v41h233v-36q-30 -5 -47.5 -17.5t-32.5 -39.5l-181 -391q-24 -52 -36.5 -77t-34 -59.5t-38.5 -49.5t-42 -26.5t-55 -11.5
q-35 0 -53.5 17t-18.5 45q0 29 17.5 46t45.5 17q19 0 35 -5.5t26 -5.5z" />
    <glyph glyph-name="afii10038" unicode="&#x424;" horiz-adv-x="876" 
d="M490 597q172 0 261 -65t89 -177q0 -122 -84.5 -190t-265.5 -68v-10q0 -40 27 -50q4 -1 13.5 -2t23 -2t22.5 -2v-41h-276v41q48 0 59 6q27 9 27 50v10q-172 0 -261 65t-89 177q0 120 85 189t265 69v9q0 40 -27 50q-4 1 -13.5 2t-23 2t-22.5 2v41h276v-41q-37 0 -59 -6
q-27 -9 -27 -50v-9zM156 345q0 -106 64 -154.5t166 -48.5v410q-107 0 -168.5 -51.5t-61.5 -155.5zM720 349q0 197 -230 203v-410q107 0 168.5 51.5t61.5 155.5z" />
    <glyph glyph-name="afii10039" unicode="&#x425;" horiz-adv-x="662" 
d="M20 693h276v-41q-64 -7 -64 -37q0 -12 10 -28l106 -166l115 162q12 18 12 30q0 18 -19.5 28t-48.5 11v41h238v-41q-73 -9 -116 -69l-150 -211l176 -275q18 -28 36 -40t50 -16v-41h-276v41q82 6 82 48q0 15 -12 33l-110 172l-122 -172q-13 -19 -13 -34q0 -39 61 -47v-41
h-238v41q76 17 120 75l160 227l-161 253q-16 25 -49 39t-63 17v41z" />
    <glyph glyph-name="afii10040" unicode="&#x426;" horiz-adv-x="802" 
d="M240 53h315v543q0 41 -27 50q-22 6 -59 6v41h276v-41q-9 -1 -22.5 -2t-23 -2t-13.5 -2q-27 -10 -27 -50v-543h104v-195h-36q-16 83 -43.5 111.5t-101.5 30.5h-532v41q9 1 22.5 2t23 2t13.5 2q27 10 27 50v499q0 41 -27 50q-22 6 -59 6v41h276v-41q-9 -1 -22.5 -2t-23 -2
t-13.5 -2q-27 -10 -27 -50v-543z" />
    <glyph glyph-name="afii10041" unicode="&#x427;" horiz-adv-x="755" 
d="M515 596q0 40 -27 50q-4 1 -13.5 2t-23 2t-22.5 2v41h276v-41q-37 0 -59 -6q-27 -9 -27 -50v-499q0 -40 27 -50q4 -1 13.5 -2t23 -2t22.5 -2v-41h-276v41q48 0 59 6q27 9 27 50v221q-88 -37 -193 -37q-112 0 -164.5 52t-52.5 162v101q0 40 -27 50q-4 1 -13.5 2t-23 2
t-22.5 2v41h276v-41q-37 0 -59 -6q-27 -9 -27 -50v-103q0 -76 34 -115t114 -39q85 0 158 22v235z" />
    <glyph glyph-name="afii10042" unicode="&#x428;" horiz-adv-x="1134" 
d="M50 41q9 1 22.5 2t23 2t13.5 2q27 10 27 50v499q0 41 -27 50q-22 6 -59 6v41h276v-41q-9 -1 -22.5 -2t-23 -2t-13.5 -2q-27 -10 -27 -50v-543h275v543q0 41 -27 50q-22 6 -59 6v41h276v-41q-9 -1 -22.5 -2t-23 -2t-13.5 -2q-27 -10 -27 -50v-543h275v543q0 40 -27 50
q-4 1 -13.5 2t-23 2t-22.5 2v41h276v-41q-37 0 -59 -6q-27 -9 -27 -50v-499q0 -40 27 -50q4 -1 13.5 -2t23 -2t22.5 -2v-41h-1034v41z" />
    <glyph glyph-name="afii10043" unicode="&#x429;" horiz-adv-x="1141" 
d="M50 41q9 1 22.5 2t23 2t13.5 2q27 10 27 50v499q0 41 -27 50q-22 6 -59 6v41h276v-41q-9 -1 -22.5 -2t-23 -2t-13.5 -2q-27 -10 -27 -50v-543h275v543q0 41 -27 50q-22 6 -59 6v41h276v-41q-9 -1 -22.5 -2t-23 -2t-13.5 -2q-27 -10 -27 -50v-543h275v543q0 40 -27 50
q-4 1 -13.5 2t-23 2t-22.5 2v41h276v-41q-37 0 -59 -6q-27 -9 -27 -50v-543h103v-195h-36q-16 83 -43.5 111.5t-101.5 30.5h-870v41z" />
    <glyph glyph-name="afii10044" unicode="&#x42a;" horiz-adv-x="729" 
d="M358 407h114q102 0 164.5 -51t62.5 -140q0 -93 -67.5 -154.5t-172.5 -61.5h-291v41q48 0 59 6q27 9 27 50v546h-41q-67 0 -97.5 -23.5t-48.5 -93.5h-36v167h413v-41q-37 0 -59 -6q-27 -9 -27 -50v-189zM358 357v-307h75q71 0 108.5 42.5t37.5 113.5q0 67 -35 109t-95 42
h-91z" />
    <glyph glyph-name="afii10045" unicode="&#x42b;" horiz-adv-x="944" 
d="M240 407h114q102 0 164.5 -51t62.5 -140q0 -93 -67.5 -154.5t-172.5 -61.5h-291v41q48 0 59 6q27 9 27 50v499q0 40 -27 50q-4 1 -13.5 2t-23 2t-22.5 2v41h276v-41q-37 0 -59 -6q-27 -9 -27 -50v-189zM240 50h75q71 0 108.5 42.5t37.5 113.5q0 67 -35 109t-95 42h-91
v-307zM808 97q0 -40 27 -50q4 -1 13.5 -2t23 -2t22.5 -2v-41h-276v41q48 0 59 6q27 9 27 50v499q0 40 -27 50q-4 1 -13.5 2t-23 2t-22.5 2v41h276v-41q-37 0 -59 -6q-27 -9 -27 -50v-499z" />
    <glyph glyph-name="afii10046" unicode="&#x42c;" horiz-adv-x="611" 
d="M240 407h114q102 0 164.5 -51t62.5 -140q0 -93 -67.5 -154.5t-172.5 -61.5h-291v41q48 0 59 6q27 9 27 50v499q0 40 -27 50q-4 1 -13.5 2t-23 2t-22.5 2v41h276v-41q-37 0 -59 -6q-27 -9 -27 -50v-189zM240 50h75q71 0 108.5 42.5t37.5 113.5q0 67 -35 109t-95 42h-91
v-307z" />
    <glyph glyph-name="afii10047" unicode="&#x42d;" horiz-adv-x="677" 
d="M282 35q59 0 103 23t69 65.5t37.5 94.5t13.5 117h-306v50h305q-6 129 -59.5 201.5t-160.5 72.5q-139 0 -186 -174h-35v153q88 71 222 71q151 0 244.5 -101.5t93.5 -254.5q0 -160 -98.5 -264t-248.5 -104q-119 0 -213 54v179h35q24 -88 66 -135.5t118 -47.5z" />
    <glyph glyph-name="afii10048" unicode="&#x42e;" horiz-adv-x="1104" 
d="M1050 352q0 -153 -97 -260t-243 -107q-139 0 -231.5 98t-94.5 252h-144v-238q0 -40 27 -50q4 -1 13.5 -2t23 -2t22.5 -2v-41h-276v41q48 0 59 6q27 9 27 50v499q0 40 -27 50q-4 1 -13.5 2t-23 2t-22.5 2v41h276v-41q-37 0 -59 -6q-27 -9 -27 -50v-211h146q14 142 108 233
t227 91q143 0 236 -103t93 -254zM932 350q0 89 -21 156t-71 110t-125 43q-76 0 -125 -44t-68.5 -111.5t-19.5 -158.5q0 -144 51.5 -226t159.5 -82q59 0 103 26t68.5 71.5t36 99t11.5 116.5z" />
    <glyph glyph-name="afii10049" unicode="&#x42f;" horiz-adv-x="683" 
d="M443 286h-112l-178 -286h-148v40q37 6 60 24t46 53l123 192q-65 18 -103.5 63t-38.5 112q0 91 67.5 150t172.5 59h301v-41q-37 0 -59 -6q-27 -9 -27 -50v-499q0 -40 27 -50q4 -1 13.5 -2t23 -2t22.5 -2v-41h-276v41q48 0 59 6q27 9 27 50v189zM443 643h-76
q-75 0 -115 -42t-40 -110q0 -69 36 -112t107 -43h88v307z" />
    <glyph glyph-name="afii10065" unicode="&#x430;" horiz-adv-x="498" 
d="M403 95q0 -36 17 -49.5t52 -13.5q9 0 16 1v-28q-35 -16 -76 -16q-54 0 -76.5 19.5t-23.5 57.5q-24 -35 -63 -55.5t-81 -20.5q-53 0 -88.5 32t-35.5 87q0 51 35 85t110 54l123 30v23q0 66 -22 90.5t-82 24.5q-73 0 -151 -19v46q93 49 201 49q145 0 145 -164v-233zM218 63
q50 0 94 24v144l-67 -17q-59 -15 -83.5 -31.5t-24.5 -47.5q0 -72 81 -72z" />
    <glyph glyph-name="afii10066" unicode="&#x431;" horiz-adv-x="577" 
d="M196 641q-36 -94 -43 -235q58 89 161 89q99 0 158.5 -64t59.5 -166q0 -117 -69 -198.5t-182 -81.5q-217 0 -217 281q0 233 59 340t213 119l36 2q14 1 32 2.5t26.5 2t20 1.5t17 2.5t12.5 3.5t10.5 5t7 7t6.5 10l21 -6q-13 -117 -239 -117q-21 0 -90 3zM430 230
q0 97 -34.5 152t-107.5 55q-122 0 -122 -178q0 -98 34 -157t106 -59q124 0 124 187z" />
    <glyph glyph-name="afii10067" unicode="&#x432;" horiz-adv-x="522" 
d="M107 388q0 41 -27 50q-10 4 -44 6v37h261q81 0 122 -33t41 -87q0 -44 -31 -75t-83 -40q129 -12 129 -111q0 -64 -45 -99.5t-131 -35.5h-263v37q34 2 44 6q27 9 27 50v295zM198 221v-175h66q111 0 111 90q0 40 -28 62.5t-81 22.5h-68zM198 436v-170h56q106 0 106 86
q0 46 -26.5 65t-82.5 19h-53z" />
    <glyph glyph-name="afii10068" unicode="&#x433;" horiz-adv-x="457" 
d="M198 435v-342q0 -40 27 -50q1 0 44 -6v-37h-233v37q34 2 44 6q27 9 27 50v295q0 41 -27 50q-10 4 -44 6v37h388v-167h-32q-18 73 -45 97t-91 24h-58z" />
    <glyph glyph-name="afii10069" unicode="&#x434;" horiz-adv-x="584" 
d="M542 481v-37q-43 -6 -44 -6q-27 -10 -27 -50v-340h84v-190h-36q-16 79 -41 110.5t-93 31.5h-203q-70 0 -95 -31.5t-41 -110.5h-36v190h30q109 30 125 340q2 34 -12 43.5t-56 11.5v38h445zM220 433q-10 -166 -31 -256.5t-59 -128.5h250v385h-160z" />
    <glyph glyph-name="afii10070" unicode="&#x435;" horiz-adv-x="495" 
d="M432 38q-68 -53 -174 -53q-103 0 -158 63t-55 171q0 125 67.5 200.5t175.5 75.5q70 0 113 -41.5t51 -118.5q2 -30 1 -48l-22 -44h-302q2 -90 41.5 -135.5t121.5 -45.5q68 0 138 25zM256 437q-107 0 -125 -140h230q1 7 1 19q0 56 -27 88.5t-79 32.5z" />
    <glyph glyph-name="afii10072" unicode="&#x436;" horiz-adv-x="811" 
d="M360 388q0 41 -27 50q-10 4 -44 6v37h220v-37q-36 -4 -47 -13.5t-11 -42.5v-295q0 -32 13 -42.5t48 -13.5v-37h-213v37q37 2 49 13.5t12 42.5v295zM474 253l122 108q30 26 30 51q0 33 -44 40v29h208v-29q-42 -8 -104 -67l-124 -114l111 -141q37 -46 58.5 -64t58.5 -29
v-37h-131l-185 235v18zM337 235l-187 -235h-129v37q38 12 60.5 30t58.5 63l109 140l-124 115q-62 59 -104 67v29h208v-29q-44 -9 -44 -40q0 -23 31 -52l121 -107v-18z" />
    <glyph glyph-name="afii10073" unicode="&#x437;" horiz-adv-x="476" 
d="M210 -15q-93 0 -159 38l-6 126l32 3q25 -60 55.5 -87.5t80.5 -27.5q55 0 87 25.5t32 73.5q0 40 -29 62.5t-83 22.5h-72v47h60q102 0 102 85q0 48 -23.5 70.5t-74.5 22.5q-50 0 -76.5 -26.5t-45.5 -87.5l-32 3l8 122q65 38 157 38q81 0 134 -30.5t53 -102.5
q0 -44 -31.5 -74.5t-78.5 -39.5q59 -4 95.5 -33t36.5 -80q0 -68 -62 -109t-160 -41z" />
    <glyph glyph-name="afii10074" unicode="&#x438;" horiz-adv-x="631" 
d="M433 379l-245 -379h-152v37q34 2 44 6q27 9 27 50v295q0 41 -27 50q-10 4 -44 6v37h233v-37q-43 -6 -44 -6q-27 -10 -27 -50v-292l245 385h152v-37q-43 -6 -44 -6q-27 -10 -27 -50v-295q0 -40 27 -50q1 0 44 -6v-37h-233v37q34 2 44 6q27 9 27 50v286z" />
    <glyph glyph-name="afii10075" unicode="&#x439;" horiz-adv-x="631" 
d="M433 379l-245 -379h-152v37q34 2 44 6q27 9 27 50v295q0 41 -27 50q-10 4 -44 6v37h233v-37q-43 -6 -44 -6q-27 -10 -27 -50v-292l245 385h152v-37q-43 -6 -44 -6q-27 -10 -27 -50v-295q0 -40 27 -50q1 0 44 -6v-37h-233v37q34 2 44 6q27 9 27 50v286zM471 695
q-5 -49 -44.5 -79.5t-103.5 -30.5q-61 0 -102 28.5t-47 81.5h86q2 -32 20 -49.5t46 -17.5q60 0 72 67h73z" />
    <glyph glyph-name="afii10076" unicode="&#x43a;" horiz-adv-x="562" 
d="M107 388q0 41 -27 50q-10 4 -44 6v37h220v-37q-36 -4 -47 -13.5t-11 -42.5v-295q0 -40 27 -50q1 0 44 -6v-37h-233v37q34 2 44 6q27 9 27 50v295zM221 247l133 124q19 19 19 38q0 32 -44 43v29h208v-29q-44 -9 -104 -67l-124 -117l119 -139q33 -39 56 -58t59 -32v-39
h-129l-193 229v18z" />
    <glyph glyph-name="afii10077" unicode="&#x43b;" horiz-adv-x="575" 
d="M377 433h-156q-4 -238 -41 -340.5t-117 -102.5q-26 0 -40 14t-14 34q0 26 13 40t41 23q40 11 60.5 37.5t31 84t13.5 165.5q0 34 -14.5 43.5t-56.5 11.5v38h442v-37q-43 -6 -44 -6q-27 -10 -27 -50v-295q0 -40 27 -50q1 0 44 -6v-37h-233v37q34 2 44 6q27 9 27 50v340z
" />
    <glyph glyph-name="afii10078" unicode="&#x43c;" horiz-adv-x="745" 
d="M379 161l169 320h161v-37q-43 -6 -44 -6q-27 -10 -27 -50v-295q0 -40 27 -50q1 0 44 -6v-37h-233v37q34 2 44 6q27 9 27 50v277l-175 -332h-34l-176 328l1 -273q0 -41 27 -50q10 -4 44 -6v-37h-198v37q43 6 44 6q27 10 27 50v295q0 40 -27 50q-1 0 -44 6v37h170z" />
    <glyph glyph-name="afii10079" unicode="&#x43d;" horiz-adv-x="621" 
d="M423 218h-225v-125q0 -40 27 -50q1 0 44 -6v-37h-233v37q34 2 44 6q27 9 27 50v295q0 41 -27 50q-10 4 -44 6v37h233v-37q-43 -6 -44 -6q-27 -10 -27 -50v-122h225v122q0 41 -27 50q-10 4 -44 6v37h233v-37q-43 -6 -44 -6q-27 -10 -27 -50v-295q0 -40 27 -50q1 0 44 -6
v-37h-233v37q34 2 44 6q27 9 27 50v125z" />
    <glyph glyph-name="afii10080" unicode="&#x43e;" horiz-adv-x="557" 
d="M513 262q0 -112 -70 -194.5t-181 -82.5q-97 0 -157 65.5t-60 172.5q0 120 72.5 196t177.5 76q97 0 157.5 -65t60.5 -168zM411 230q0 97 -34.5 152t-107.5 55q-122 0 -122 -178q0 -98 34 -157t106 -59q124 0 124 187z" />
    <glyph glyph-name="afii10081" unicode="&#x43f;" horiz-adv-x="611" 
d="M413 433h-215v-340q0 -40 27 -50q1 0 44 -6v-37h-233v37q34 2 44 6q27 9 27 50v295q0 41 -27 50q-10 4 -44 6v37h539v-37q-43 -6 -44 -6q-27 -10 -27 -50v-295q0 -40 27 -50q1 0 44 -6v-37h-233v37q34 2 44 6q27 9 27 50v340z" />
    <glyph glyph-name="afii10082" unicode="&#x440;" horiz-adv-x="573" 
d="M101 399q0 24 -7 32.5t-29 8.5q-17 0 -44 -3v35q61 23 120 23q28 0 39.5 -14.5t11.5 -45.5v-15q68 71 152 71q80 0 132 -58t52 -165q0 -125 -72 -203.5t-188 -78.5q-44 0 -76 9v-119q0 -40 27 -50q4 -1 14.5 -2t25.5 -2t24 -2v-37h-253v37q34 2 44 6q27 9 27 50v523z
M302 417q-52 0 -110 -31v-318q54 -24 109 -24q71 0 106 52t35 140q0 91 -36.5 136t-103.5 45z" />
    <glyph glyph-name="afii10083" unicode="&#x441;" horiz-adv-x="482" 
d="M432 38q-69 -53 -178 -53q-101 0 -155 64t-54 174q0 120 69 196t170 76q69 0 116 -25t47 -62q0 -25 -16 -40t-40 -15q-13 0 -26.5 13t-25 29t-34.5 29t-51 13q-61 0 -92 -48t-31 -132q0 -193 159 -193q68 0 140 25z" />
    <glyph glyph-name="afii10084" unicode="&#x442;" horiz-adv-x="527" 
d="M218 435h-15q-64 0 -91 -24t-45 -97h-32v167h457v-167h-32q-18 73 -45 97t-91 24h-15v-342q0 -40 27 -50q1 0 44 -6v-37h-233v37q34 2 44 6q27 9 27 50v342z" />
    <glyph glyph-name="afii10085" unicode="&#x443;" horiz-adv-x="534" 
d="M524 452q-50 -11 -76 -72l-112 -265l-49 -117q-41 -95 -72 -135q-67 -89 -163 -89q-20 0 -31.5 12t-11.5 30q0 21 11.5 34t28.5 13q83 0 117.5 26.5t72.5 120.5l-158 388q-20 47 -67 54v29h219v-29q-30 0 -44.5 -13.5t-6.5 -34.5l102 -274l97 230q16 42 2 64t-53 28v29
h194v-29z" />
    <glyph glyph-name="afii10086" unicode="&#x444;" horiz-adv-x="766" 
d="M337 -18q-291 6 -291 250q0 60 17.5 107.5t45.5 76.5t67 48.5t78 27.5t83 9v162q0 24 -7 32.5t-29 8.5q-17 0 -44 -3v35q61 23 120 23q28 0 39.5 -14.5t11.5 -45.5v-197q292 -6 292 -250q0 -61 -17.5 -108.5t-45.5 -76.5t-67.5 -48.5t-78.5 -27t-83 -8.5v-146
q0 -40 27 -50q1 0 44 -6v-37h-233v37q34 2 44 6q27 9 27 50v145zM621 236q0 214 -193 219v-428q87 4 140 50.5t53 158.5zM145 248q0 -115 52 -167t140 -52v428q-192 -10 -192 -209z" />
    <glyph glyph-name="afii10087" unicode="&#x445;" horiz-adv-x="522" 
d="M427 83q35 -48 77 -54v-29h-209v29q28 0 36.5 15t-5.5 33l-81 111l-54 -67q-30 -38 -23.5 -62.5t44.5 -29.5v-29h-194v29q58 13 106 72l97 121l-127 176q-35 49 -67 54v29h209v-29q-29 0 -42 -14.5t1 -33.5l82 -114l57 70q26 33 16 60.5t-47 31.5v29h194v-29
q-49 -11 -96 -72l-100 -123z" />
    <glyph glyph-name="afii10088" unicode="&#x446;" horiz-adv-x="617" 
d="M107 388q0 41 -27 50q-10 4 -44 6v37h233v-37q-43 -6 -44 -6q-27 -10 -27 -50v-340h215v340q0 41 -27 50q-10 4 -44 6v37h233v-37q-43 -6 -44 -6q-27 -10 -27 -50v-340h84v-190h-36q-16 78 -39.5 109t-89.5 33h-387v37q34 2 44 6q27 9 27 50v295z" />
    <glyph glyph-name="afii10089" unicode="&#x447;" horiz-adv-x="601" 
d="M403 241q-75 -67 -171 -67q-61 0 -100.5 37.5t-39.5 117.5v59q0 41 -27 50q-10 4 -44 6v37h233v-37q-43 -6 -44 -6q-27 -10 -27 -50v-35q0 -59 20.5 -85t75.5 -26q73 0 124 19v127q0 41 -27 50q-10 4 -44 6v37h233v-37q-43 -6 -44 -6q-27 -10 -27 -50v-295q0 -40 27 -50
q1 0 44 -6v-37h-233v37q34 2 44 6q27 9 27 50v148z" />
    <glyph glyph-name="afii10090" unicode="&#x448;" horiz-adv-x="877" 
d="M36 37q34 2 44 6q27 9 27 50v295q0 41 -27 50q-10 4 -44 6v37h233v-37q-43 -6 -44 -6q-27 -10 -27 -50v-340h195v340q0 41 -27 50q-10 4 -44 6v37h233v-37q-43 -6 -44 -6q-27 -10 -27 -50v-340h195v340q0 40 -27 50q-1 0 -44 6v37h233v-37q-34 -2 -44 -6q-27 -9 -27 -50
v-295q0 -41 27 -50q10 -4 44 -6v-37h-805v37z" />
    <glyph glyph-name="afii10091" unicode="&#x449;" horiz-adv-x="883" 
d="M36 0v37q34 2 44 6q27 9 27 50v295q0 41 -27 50q-10 4 -44 6v37h233v-37q-43 -6 -44 -6q-27 -10 -27 -50v-340h195v340q0 41 -27 50q-10 4 -44 6v37h233v-37q-43 -6 -44 -6q-27 -10 -27 -50v-340h195v340q0 40 -27 50q-1 0 -44 6v37h233v-37q-34 -2 -44 -6
q-27 -9 -27 -50v-340h84v-190h-36q-16 79 -41 110.5t-95 31.5h-646z" />
    <glyph glyph-name="afii10092" unicode="&#x44a;" horiz-adv-x="640" 
d="M226 435h-23q-64 0 -91 -24t-45 -97h-32v167h353v-37q-43 -6 -44 -6q-27 -10 -27 -50v-98h107q92 0 139.5 -34.5t47.5 -99.5q0 -74 -50 -115t-153 -41h-253v37q34 2 44 6q27 9 27 50v342zM317 242v-194h68q59 0 88 23t29 75t-28 74t-87 22h-70z" />
    <glyph glyph-name="afii10093" unicode="&#x44b;" horiz-adv-x="766" 
d="M107 388q0 41 -27 50q-10 4 -44 6v37h233v-37q-43 -6 -44 -6q-27 -10 -27 -50v-98h102q92 0 139.5 -34.5t47.5 -99.5q0 -74 -50 -115t-153 -41h-248v37q34 2 44 6q27 9 27 50v295zM568 388q0 41 -27 50q-10 4 -44 6v37h233v-37q-43 -6 -44 -6q-27 -10 -27 -50v-295
q0 -40 27 -50q1 0 44 -6v-37h-233v37q34 2 44 6q27 9 27 50v295zM198 242v-194h63q59 0 88 23t29 75t-28 74t-87 22h-65z" />
    <glyph glyph-name="afii10094" unicode="&#x44c;" horiz-adv-x="521" 
d="M107 388q0 41 -27 50q-10 4 -44 6v37h233v-37q-43 -6 -44 -6q-27 -10 -27 -50v-98h107q92 0 139.5 -34.5t47.5 -99.5q0 -74 -50 -115t-153 -41h-253v37q34 2 44 6q27 9 27 50v295zM198 242v-194h68q59 0 88 23t29 75t-28 74t-87 22h-70z" />
    <glyph glyph-name="afii10095" unicode="&#x44d;" horiz-adv-x="495" 
d="M208 446q-52 0 -80.5 -27t-47.5 -87l-32 3l8 122q66 38 163 38q107 0 169 -64.5t62 -173.5q0 -120 -72.5 -196t-177.5 -76q-78 0 -144 38l-6 126l32 3q25 -59 55.5 -86t77.5 -27q133 0 133 180h-204v47h202q-6 80 -40.5 130t-97.5 50z" />
    <glyph glyph-name="afii10096" unicode="&#x44e;" horiz-adv-x="818" 
d="M774 262q0 -112 -70 -194.5t-181 -82.5q-96 0 -155.5 63.5t-61.5 169.5h-108v-125q0 -40 27 -50q1 0 44 -6v-37h-233v37q34 2 44 6q27 9 27 50v295q0 41 -27 50q-10 4 -44 6v37h233v-37q-43 -6 -44 -6q-27 -10 -27 -50v-122h111q14 104 82.5 166.5t164.5 62.5
q97 0 157.5 -65t60.5 -168zM672 230q0 97 -34.5 152t-107.5 55q-122 0 -122 -178q0 -98 34 -157t106 -59q124 0 124 187z" />
    <glyph glyph-name="afii10097" unicode="&#x44f;" horiz-adv-x="543" 
d="M19 0v31q51 32 93 80q43 49 102 97q-67 9 -107 43t-40 92q0 64 52 101t149 37h239v-37q-34 -2 -44 -6q-27 -9 -27 -50v-295q0 -41 27 -50q10 -4 44 -6v-37h-233v37q43 6 44 6q27 10 27 50v342h-54q-56 0 -87 -24.5t-31 -66.5q0 -50 29.5 -72.5t92.5 -22.5h31v-12
l-205 -237h-102z" />
    <glyph glyph-name="uni0450" unicode="&#x450;" horiz-adv-x="495" 
d="M432 38q-68 -53 -174 -53q-103 0 -158 63t-55 171q0 125 67.5 200.5t175.5 75.5q70 0 113 -41.5t51 -118.5q2 -30 1 -48l-22 -44h-302q2 -90 41.5 -135.5t121.5 -45.5q68 0 138 25zM256 437q-107 0 -125 -140h230q1 7 1 19q0 56 -27 88.5t-79 32.5zM129 709h98l93 -140
l-4 -10h-32l-159 139z" />
    <glyph glyph-name="afii10071" unicode="&#x451;" horiz-adv-x="495" 
d="M432 38q-68 -53 -174 -53q-103 0 -158 63t-55 171q0 125 67.5 200.5t175.5 75.5q70 0 113 -41.5t51 -118.5q2 -30 1 -48l-22 -44h-302q2 -90 41.5 -135.5t121.5 -45.5q68 0 138 25zM256 437q-107 0 -125 -140h230q1 7 1 19q0 56 -27 88.5t-79 32.5zM119 654q0 26 16 40.5
t39 14.5t39 -14.5t16 -40.5t-16 -40.5t-39 -14.5t-39 14.5t-16 40.5zM296 654q0 26 16 40.5t39 14.5t39 -14.5t16 -40.5t-16 -40.5t-39 -14.5t-39 14.5t-16 40.5z" />
    <glyph glyph-name="afii10099" unicode="&#x452;" horiz-adv-x="559" 
d="M-22 600h120v63q0 24 -7 32.5t-29 8.5q-17 0 -44 -3v35q61 23 120 23q28 0 39.5 -14.5t11.5 -45.5v-99h144v-50h-144v-138q81 73 169 73q130 0 130 -163v-250q0 -122 -37.5 -178t-138.5 -50v38q47 4 66 43.5t19 126.5v246q0 59 -21 84.5t-79 25.5q-45 0 -108 -22v-293
q0 -40 27 -50q1 0 44 -6v-37h-233v37q34 2 44 6q27 9 27 50v457h-120v50z" />
    <glyph glyph-name="afii10100" unicode="&#x453;" horiz-adv-x="457" 
d="M198 435v-342q0 -40 27 -50q1 0 44 -6v-37h-233v37q34 2 44 6q27 9 27 50v295q0 41 -27 50q-10 4 -44 6v37h388v-167h-32q-18 73 -45 97t-91 24h-58zM420 698l-159 -139h-32l-4 10l93 140h98z" />
    <glyph glyph-name="afii10101" unicode="&#x454;" horiz-adv-x="497" 
d="M287 39q50 0 79.5 31t48.5 93l32 -3l-8 -137q-66 -38 -163 -38q-107 0 -169 64.5t-62 173.5q0 120 72.5 196t177.5 76q78 0 144 -38l6 -111l-32 -3q-28 52 -62 73t-82 21q-63 0 -92.5 -45.5t-29.5 -124.5h204v-48h-203q6 -82 40 -131t99 -49z" />
    <glyph glyph-name="afii10102" unicode="&#x455;" horiz-adv-x="435" 
d="M204 -12q-72 0 -153 32l-3 132l25 2q17 -56 53.5 -85t82.5 -29q47 0 73 19t26 53q0 30 -20.5 47t-60.5 30l-55 18q-45 14 -77 48.5t-32 86.5q0 66 48.5 109.5t122.5 43.5q71 0 137 -38l6 -111l-32 -3q-29 58 -53.5 80t-67.5 22q-41 0 -62.5 -19t-21.5 -50q0 -51 66 -76
l66 -23q22 -8 38 -16t35.5 -23.5t30.5 -39.5t11 -55q0 -69 -51 -112t-132 -43z" />
    <glyph glyph-name="afii10103" unicode="&#x456;" horiz-adv-x="298" 
d="M201 93q0 -40 27 -50q1 0 44 -6v-37h-233v37q34 2 44 6q27 9 27 50v306q0 24 -7 32.5t-29 8.5q-17 0 -44 -3v35q61 23 120 23q28 0 39.5 -14.5t11.5 -45.5v-342zM89 696q0 31 18.5 47.5t45.5 16.5t45.5 -16.5t18.5 -47.5t-18.5 -47.5t-45.5 -16.5t-45.5 16.5t-18.5 47.5z
" />
    <glyph glyph-name="afii10104" unicode="&#x457;" horiz-adv-x="298" 
d="M201 93q0 -40 27 -50q1 0 44 -6v-37h-233v37q34 2 44 6q27 9 27 50v306q0 24 -7 32.5t-29 8.5q-17 0 -44 -3v35q61 23 120 23q28 0 39.5 -14.5t11.5 -45.5v-342zM8 654q0 26 16 40.5t39 14.5t39 -14.5t16 -40.5t-16 -40.5t-39 -14.5t-39 14.5t-16 40.5zM185 654
q0 26 16 40.5t39 14.5t39 -14.5t16 -40.5t-16 -40.5t-39 -14.5t-39 14.5t-16 40.5z" />
    <glyph glyph-name="afii10105" unicode="&#x458;" horiz-adv-x="270" 
d="M101 399q0 24 -7 32.5t-29 8.5q-17 0 -44 -3v35q61 23 120 23q28 0 39.5 -14.5t11.5 -45.5v-370q0 -64 -26 -129t-80 -113.5t-123 -48.5q-19 0 -29 12t-10 27t10 27.5t26 12.5q43 0 67 5q46 9 60 46.5t14 134.5v360zM80 695q0 31 18.5 47.5t45.5 16.5t45.5 -16.5
t18.5 -47.5t-18.5 -47.5t-45.5 -16.5t-45.5 16.5t-18.5 47.5z" />
    <glyph glyph-name="afii10106" unicode="&#x459;" horiz-adv-x="791" 
d="M377 433h-156q-4 -238 -41 -340.5t-117 -102.5q-26 0 -40 14t-14 34q0 26 13 40t41 23q40 11 60.5 37.5t31 84t13.5 165.5q0 34 -14.5 43.5t-56.5 11.5v38h442v-37q-43 -6 -44 -6q-27 -10 -27 -50v-98h107q92 0 139.5 -34.5t47.5 -99.5q0 -74 -50 -115t-153 -41h-253v37
q34 2 44 6q27 9 27 50v340zM468 242v-194h68q59 0 88 23t29 75t-28 74t-87 22h-70z" />
    <glyph glyph-name="afii10107" unicode="&#x45a;" horiz-adv-x="834" 
d="M423 218h-225v-125q0 -40 27 -50q1 0 44 -6v-37h-233v37q34 2 44 6q27 9 27 50v295q0 41 -27 50q-10 4 -44 6v37h233v-37q-43 -6 -44 -6q-27 -10 -27 -50v-122h225v122q0 41 -27 50q-10 4 -44 6v37h233v-37q-43 -6 -44 -6q-27 -10 -27 -50v-122h107q91 0 139 -32t48 -88
q0 -68 -50.5 -107t-152.5 -39h-253v37q34 2 44 6q27 9 27 50v125zM514 218v-170h68q117 0 117 88q0 44 -28 63t-87 19h-70z" />
    <glyph glyph-name="afii10108" unicode="&#x45b;" horiz-adv-x="584" 
d="M-22 600h120v63q0 24 -7 32.5t-29 8.5q-17 0 -44 -3v35q61 23 120 23q28 0 39.5 -14.5t11.5 -45.5v-99h144v-50h-144v-138q81 73 169 73q130 0 130 -163v-229q0 -40 27 -50q1 0 44 -6v-37h-233v37q34 2 44 6q27 9 27 50v205q0 59 -21 84.5t-79 25.5q-45 0 -108 -22v-293
q0 -40 27 -50q1 0 44 -6v-37h-233v37q34 2 44 6q27 9 27 50v457h-120v50z" />
    <glyph glyph-name="afii10146" unicode="&#x462;" horiz-adv-x="733" 
d="M360 532v-145h114q104 0 165.5 -46.5t61.5 -134.5q0 -93 -67 -149.5t-173 -56.5h-291v41q48 0 59 6q27 9 27 50v435h-41q-68 0 -95.5 -19.5t-45.5 -84.5h-36v153h218v15q0 40 -27 50q-4 1 -13.5 2t-23 2t-22.5 2v41h276v-41q-37 0 -59 -6q-27 -9 -27 -50v-15h216v-153
h-36q-18 65 -46 84.5t-95 19.5h-39zM360 50h75q72 0 109 38t37 108q0 66 -34.5 103.5t-95.5 37.5h-91v-287z" />
    <glyph glyph-name="afii10147" unicode="&#x472;" horiz-adv-x="794" 
d="M740 352q0 -154 -98.5 -260.5t-251.5 -106.5q-147 0 -241.5 99.5t-94.5 256.5q0 160 98.5 264t248.5 104t244.5 -102.5t94.5 -254.5zM393 37q62 0 107 24.5t70 68t37.5 94t14.5 111.5h-450q5 -298 221 -298zM395 659q-109 0 -162 -75t-60 -199h448q-7 124 -61.5 199
t-164.5 75z" />
    <glyph glyph-name="afii10195" unicode="&#x473;" horiz-adv-x="557" 
d="M513 262q0 -112 -70 -194.5t-181 -82.5q-97 0 -157 65.5t-60 172.5q0 120 72.5 196t177.5 76q97 0 157.5 -65t60.5 -168zM287 43q119 0 124 176h-263q14 -176 139 -176zM269 437q-122 0 -122 -170h263q-13 170 -141 170z" />
    <glyph glyph-name="afii10846" unicode="&#x4d9;" horiz-adv-x="496" 
d="M64 442q68 53 174 53q103 0 158 -63t55 -171q0 -125 -68 -200.5t-175 -75.5q-76 0 -120.5 48.5t-45.5 137.5q0 3 0.5 11t0.5 11l22 44h302q-5 181 -163 181q-68 0 -138 -25zM240 43q106 0 124 140h-230v-19q0 -56 27 -88.5t79 -32.5z" />
    <glyph glyph-name="uni04E9" unicode="&#x4e9;" horiz-adv-x="557" 
d="M513 262q0 -112 -70 -194.5t-181 -82.5q-97 0 -157 65.5t-60 172.5q0 120 72.5 196t177.5 76q97 0 157.5 -65t60.5 -168zM287 43q119 0 124 176h-263q14 -176 139 -176zM269 437q-122 0 -122 -170h263q-13 170 -141 170z" />
    <glyph glyph-name="uni1E32" unicode="&#x1e32;" horiz-adv-x="691" 
d="M327 -162q0 31 18.5 47.5t45.5 16.5t45.5 -16.5t18.5 -47.5t-18.5 -47.5t-45.5 -16.5t-45.5 16.5t-18.5 47.5zM240 97q0 -40 27 -50q4 -1 13.5 -2t23 -2t22.5 -2v-41h-276v41q48 0 59 6q27 9 27 50v499q0 40 -27 50q-4 1 -13.5 2t-23 2t-22.5 2v41h276v-41q-37 0 -59 -6
q-27 -9 -27 -50v-499zM275 345l181 219q27 32 27 53q0 29 -59 35v41h250v-41q-74 -6 -132 -75l-172 -207l183 -253q48 -66 122 -77l-3 -40h-160l-237 338v7z" />
    <glyph glyph-name="uni1EBD" unicode="&#x1ebd;" horiz-adv-x="495" 
d="M432 38q-68 -53 -174 -53q-103 0 -158 63t-55 171q0 125 67.5 200.5t175.5 75.5q70 0 113 -41.5t51 -118.5q2 -30 1 -48l-22 -44h-302q2 -90 41.5 -135.5t121.5 -45.5q68 0 138 25zM256 437q-107 0 -125 -140h230q1 7 1 19q0 56 -27 88.5t-79 32.5zM420 710
q0 -46 -25.5 -80t-72.5 -34q-36 0 -79 24t-54 24q-29 0 -41 -52h-37q2 48 26.5 81t67.5 33q31 0 71 -24t53 -24q46 0 53 52h38z" />
    <glyph glyph-name="Ygrave" unicode="&#x1ef2;" horiz-adv-x="639" 
d="M208 603q0 -18 10 -34l121 -224l124 223q10 19 10 35q0 47 -78 49v41h241v-35q-61 -6 -102 -76l-164 -283v-202q0 -40 27 -50q4 -1 13.5 -2t23 -2t22.5 -2v-41h-276v41q48 0 59 6q27 9 27 50v210l-166 289q-17 27 -35.5 39t-50.5 17v41h276v-41q-82 -6 -82 -49zM165 863
h102l106 -120l-4 -10h-32l-176 119z" />
    <glyph glyph-name="ygrave" unicode="&#x1ef3;" horiz-adv-x="534" 
d="M524 452q-50 -11 -76 -72l-112 -265l-49 -117q-41 -95 -72 -135q-67 -89 -163 -89q-20 0 -31.5 12t-11.5 30q0 21 11.5 34t28.5 13q83 0 117.5 26.5t72.5 120.5l-158 388q-20 47 -67 54v29h219v-29q-30 0 -44.5 -13.5t-6.5 -34.5l102 -274l97 230q16 42 2 64t-53 28v29
h194v-29zM140 709h98l93 -140l-4 -10h-32l-159 139z" />
    <glyph glyph-name="endash" unicode="&#x2013;" horiz-adv-x="685" 
d="M604 238h-523v61h523v-61z" />
    <glyph glyph-name="emdash" unicode="&#x2014;" horiz-adv-x="899" 
d="M818 238h-737v61h737v-61z" />
    <glyph glyph-name="quoteleft" unicode="&#x2018;" horiz-adv-x="270" 
d="M52 555q0 68 43.5 122t100.5 82l26 -30q-88 -59 -93 -135q32 0 53 -17t21 -45q0 -26 -20 -43.5t-47 -17.5q-40 0 -62 21.5t-22 62.5z" />
    <glyph glyph-name="quoteright" unicode="&#x2019;" horiz-adv-x="270" 
d="M224 675q0 -68 -43.5 -122t-100.5 -82l-26 30q88 59 93 135q-32 0 -53 17t-21 45q0 26 20 43.5t47 17.5q40 0 62 -21.5t22 -62.5z" />
    <glyph glyph-name="quotedblleft" unicode="&#x201c;" horiz-adv-x="481" 
d="M52 555q0 68 43.5 122t100.5 82l26 -30q-88 -59 -93 -135q32 0 53 -17t21 -45q0 -26 -20 -43.5t-47 -17.5q-40 0 -62 21.5t-22 62.5zM263 555q0 68 43.5 122t100.5 82l26 -30q-88 -59 -93 -135q32 0 53 -17t21 -45q0 -26 -20 -43.5t-47 -17.5q-40 0 -62 21.5t-22 62.5z
" />
    <glyph glyph-name="quotedblright" unicode="&#x201d;" horiz-adv-x="481" 
d="M224 675q0 -68 -43.5 -122t-100.5 -82l-26 30q88 59 93 135q-32 0 -53 17t-21 45q0 26 20 43.5t47 17.5q40 0 62 -21.5t22 -62.5zM435 675q0 -68 -43.5 -122t-100.5 -82l-26 30q88 59 93 135q-32 0 -53 17t-21 45q0 26 20 43.5t47 17.5q40 0 62 -21.5t22 -62.5z" />
    <glyph glyph-name="dagger" unicode="&#x2020;" horiz-adv-x="429" 
d="M390 410h-139v-627h-73v627h-139v71h139v263h73v-263h139v-71z" />
    <glyph glyph-name="bullet" unicode="&#x2022;" horiz-adv-x="431" 
d="M346 268q-2 -56 -40 -93.5t-91 -37.5q-54 0 -92.5 38t-38.5 93q0 54 38.5 92t92.5 38q57 0 95 -38.5t36 -91.5z" />
    <glyph glyph-name="perthousand" unicode="&#x2030;" horiz-adv-x="1132" 
d="M653 693l-469 -693h-68l467 693h70zM355 546q0 -79 -47.5 -123t-114.5 -44q-64 0 -107 40.5t-43 118.5q0 82 45.5 123.5t111.5 41.5t110.5 -41.5t44.5 -115.5zM274 543q0 63 -19 91.5t-59 28.5q-38 0 -55 -28t-17 -93q0 -67 17 -94.5t53 -27.5q43 0 61.5 30.5t18.5 92.5z
M752 155q0 -79 -47.5 -123t-114.5 -44q-64 0 -107 40.5t-43 118.5q0 82 45.5 123.5t111.5 41.5t110.5 -41.5t44.5 -115.5zM671 152q0 63 -19 91.5t-59 28.5q-38 0 -55 -28t-17 -93q0 -67 17 -94.5t53 -27.5q43 0 61.5 30.5t18.5 92.5zM1096 155q0 -79 -47.5 -123t-114.5 -44
q-64 0 -107 40.5t-43 118.5q0 82 45.5 123.5t111.5 41.5t110.5 -41.5t44.5 -115.5zM1015 152q0 63 -19 91.5t-59 28.5q-38 0 -55 -28t-17 -93q0 -67 17 -94.5t53 -27.5q43 0 61.5 30.5t18.5 92.5z" />
    <glyph glyph-name="guilsinglleft" unicode="&#x2039;" horiz-adv-x="324" 
d="M227 67l-179 189v20l180 185l40 -28l-105 -163l105 -176z" />
    <glyph glyph-name="guilsinglright" unicode="&#x203a;" horiz-adv-x="324" 
d="M56 94l105 176l-105 163l40 28l180 -185v-20l-179 -189z" />
    <glyph glyph-name="Euro" unicode="&#x20ac;" horiz-adv-x="675" 
d="M47 461h84q30 113 110.5 180.5t189.5 67.5q71 0 129.5 -26.5t58.5 -71.5q0 -25 -16 -39t-39 -14q-21 0 -38.5 16t-30 34.5t-37 34.5t-57.5 16q-63 0 -103 -53.5t-55 -144.5h196v-50h-202q-3 -33 -3 -68q0 -28 1 -41h204v-50h-200q12 -101 55 -159t113 -58q33 0 56.5 14
t34 31t28 31t40.5 14q21 0 35.5 -11.5t14.5 -33.5q0 -44 -56.5 -69.5t-131.5 -25.5q-122 0 -202 73t-102 194h-77v50h70q-1 12 -1 38q0 42 5 71h-74v50z" />
    <glyph glyph-name="trademark" unicode="&#x2122;" horiz-adv-x="1054" 
d="M980 759v-36q-3 0 -12 -0.5t-16 -1.5t-10 -2q-18 -6 -18 -33v-205q0 -27 18 -33q4 -2 38 -4v-36h-179v36q3 0 12 0.5t16 1.5t11 2q17 6 17 33v195l-124 -205h-21l-123 208v-176q0 -34 20 -48q11 -7 42 -13v-34h-173v34q31 6 37 10q25 13 25 51v183q0 27 -18 33
q-3 2 -38 4v36h133l116 -202l124 202h123zM292 717v-236q0 -28 17 -33q7 -2 38 -4v-36h-178v36q33 3 37 4q17 5 17 33v236h-22q-43 0 -62.5 -15t-31.5 -61h-33v118h367v-118h-33q-12 46 -31.5 61t-62.5 15h-22z" />
    <glyph glyph-name="Omega" unicode="&#x2126;" horiz-adv-x="876" 
d="M783 410q0 -61 -24.5 -117.5t-63.5 -97t-78.5 -68.5t-77.5 -45v-10h97q61 2 88.5 25.5t45.5 91.5h36v-189h-297v97q82 67 119 134t37 167q0 119 -54.5 190t-171.5 71q-224 0 -224 -264q0 -97 35.5 -163t121.5 -135v-97h-297v189h36q18 -70 48.5 -93.5t97.5 -23.5h80v10
q-46 20 -86 46.5t-76 64.5t-57 91t-21 113q0 135 98.5 223.5t248.5 88.5q149 0 244 -87t95 -212z" />
    <glyph glyph-name="Delta" unicode="&#x2206;" horiz-adv-x="636" 
d="M599 0h-566l-4 53l278 652h46l252 -644zM109 69h390l-196 494z" />
    <glyph glyph-name="fi" unicode="&#xfb01;" horiz-adv-x="600" 
d="M35 481h76q9 133 88 205.5t189 72.5q92 0 92 -52q0 -19 -13 -31.5t-38 -12.5q-11 0 -37 15t-48 15q-72 0 -107.5 -41t-35.5 -156v-15h204q32 5 48 5q28 0 39.5 -14.5t11.5 -45.5v-333q0 -31 15.5 -42.5t55.5 -13.5v-37h-233v37q41 2 56 12.5t15 43.5v297q0 24 -7 32.5
t-29 8.5h-176v-338q0 -31 15.5 -42.5t55.5 -13.5v-37h-233v37q26 2 39 5t22.5 15.5t9.5 35.5v338h-75v50z" />
    <glyph glyph-name="fl" unicode="&#xfb02;" horiz-adv-x="603" 
d="M35 481h75v5q0 123 55.5 198t162.5 75q38 0 70 -7q35 7 55 7q28 0 39.5 -14.5t11.5 -45.5v-606q0 -31 16.5 -42.5t54.5 -13.5v-37h-233v37q23 2 36.5 5.5t24 16t10.5 34.5v570q0 11 -1 14q-34 21 -104 21q-62 0 -84.5 -34t-22.5 -128v-55h116v-50h-116v-338q0 -32 16 -42
t55 -14v-37h-233v37q23 2 36.5 5.5t24 16t10.5 34.5v338h-75v50z" />
    <glyph glyph-name="NULL" horiz-adv-x="532" 
d="M276 -15q-119 0 -167.5 92t-48.5 283q0 202 57.5 300.5t182.5 98.5q78 0 122 -45t44 -121q0 -69 -36.5 -118.5t-102.5 -66.5q72 -6 116.5 -53t44.5 -121q0 -111 -60 -180t-152 -69zM283 41q105 0 105 182q0 92 -43 126t-124 27l-61 -6q0 -186 25.5 -257.5t97.5 -71.5z
M275 704q-63 0 -88.5 -68.5t-26.5 -217.5l94 8q55 6 83.5 44.5t28.5 94.5q0 71 -25 105t-66 34z" />
    <glyph glyph-name="_5" horiz-adv-x="315" 
d="M225 733q-3 -45 -29.5 -109.5t-51.5 -100.5h-25l-4 10q28 88 28 211h78z" />
    <glyph glyph-name="_6" horiz-adv-x="372" 
d="M292 852l-176 -119h-32l-4 10l106 120h102z" />
    <glyph glyph-name="_7" horiz-adv-x="392" 
d="M312 846q-26 -110 -116 -110q-43 0 -75.5 28.5t-40.5 81.5h30q14 -31 34 -41t54 -10q33 0 51 10t32 41h31z" />
    <glyph glyph-name="_8" horiz-adv-x="428" 
d="M235 729h-42l-113 120l4 10h32l98 -57l98 57h32l4 -10z" />
    <glyph glyph-name="_9" horiz-adv-x="428" 
d="M193 859h42l113 -120l-4 -10h-32l-98 57l-98 -57h-32l-4 10z" />
    <glyph glyph-name="_10" horiz-adv-x="433" 
d="M80 792q0 25 15 38.5t37 13.5t37.5 -13.5t15.5 -38.5t-15.5 -38.5t-37.5 -13.5t-37 13.5t-15 38.5zM248 792q0 25 15.5 38.5t37.5 13.5t37 -13.5t15 -38.5t-15 -38.5t-37 -13.5t-37.5 13.5t-15.5 38.5z" />
    <glyph glyph-name="_11" horiz-adv-x="270" 
d="M80 792q0 26 16 40.5t39 14.5t39 -14.5t16 -40.5t-16 -40.5t-39 -14.5t-39 14.5t-16 40.5z" />
    <glyph glyph-name="_12" horiz-adv-x="485" 
d="M242 832l-135 -99h-32l-4 10l85 100h82zM399 832l-170 -99h-32l-4 10l106 100h96z" />
    <glyph glyph-name="_13" horiz-adv-x="372" 
d="M84 863h102l106 -120l-4 -10h-32l-176 119z" />
    <glyph glyph-name="_14" horiz-adv-x="392" 
d="M80 804h232v-60h-232v60z" />
    <glyph glyph-name="_15" horiz-adv-x="470" 
d="M378 847q0 -46 -22.5 -76t-69.5 -30q-36 0 -79 24t-54 24q-29 0 -41 -52h-31q5 106 88 106q31 0 71 -24t53 -24q46 0 53 52h32z" />
    <glyph glyph-name="_16" horiz-adv-x="427" 
d="M320 -119q0 -70 -99 -116l-17 20q52 30 62 71q-21 0 -35 11.5t-14 29.5q0 17 14 29.5t32 12.5q57 0 57 -58z" />
    <glyph glyph-name="_17" horiz-adv-x="408" 
d="M318 815q0 -42 -29.5 -68t-78.5 -26t-78.5 26t-29.5 67q0 42 30.5 68t78.5 26q46 0 76.5 -26t30.5 -67zM265 815q0 57 -55 57t-55 -57q0 -27 14.5 -42.5t40.5 -15.5q55 0 55 58z" />
    <glyph glyph-name="_18" horiz-adv-x="600" 
d="M446 847q-5 -49 -44.5 -79.5t-103.5 -30.5q-61 0 -102 28.5t-47 81.5h86q2 -32 20 -49.5t46 -17.5q60 0 72 67h73z" />
    <glyph glyph-name="_19" horiz-adv-x="600" 
d="M445 695q-5 -49 -44.5 -79.5t-103.5 -30.5q-61 0 -102 28.5t-47 81.5h86q2 -32 20 -49.5t46 -17.5q60 0 72 67h73z" />
    <glyph glyph-name="_20" horiz-adv-x="684" 
 />
    </font>
</defs>
</svg>
